<svg width="78" height="69" viewBox="0 0 78 69" fill="none" xmlns="http://www.w3.org/2000/svg">
<path d="M37.4497 13.7187C37.8524 19.7917 37.3288 27.2079 37.694 33.3391C37.8148 35.1805 37.9061 37.0523 37.9759 38.9569C38.0054 39.9105 38.035 40.8691 38.0645 41.8278L38.0699 41.9239L38.0779 42.0023C38.086 42.0579 38.0913 42.1111 38.1048 42.1794C38.1262 42.3084 38.1638 42.4728 38.2175 42.6979C38.2685 42.9179 38.3357 43.1987 38.392 43.5123C38.4484 43.831 38.4887 44.1649 38.5155 44.4735C38.6095 45.7104 38.5209 46.7424 38.5048 47.6125L38.4994 47.9261V48.2347L38.5102 48.9176C38.5236 49.3755 38.537 49.8333 38.5504 50.2911C38.6202 52.13 38.7411 54.0042 38.8082 55.8962C38.5639 55.9013 38.1773 55.2867 38.0779 55.919C37.9383 57.1786 37.7235 57.816 37.498 58.1297C37.2725 58.4459 37.0255 58.4383 36.7838 58.4408C36.5476 58.4459 36.765 56.5792 36.5288 57.2039C36.4992 55.3423 36.1985 52.2868 36.0509 54.1383C35.8441 54.758 36.1797 57.2115 35.8039 57.8287C35.4414 58.4408 35.0682 57.2292 34.7058 57.8363C34.7058 58.4509 34.7058 59.6802 34.7058 60.2948C34.4615 60.9145 33.9755 59.6853 33.9728 60.3024C33.9111 60.7678 33.8735 61.2737 33.8493 61.8074C33.8439 61.9415 33.8386 62.0755 33.8332 62.2121L33.8278 62.4195V62.5232L33.8305 62.6826C33.852 63.11 33.9299 63.4996 33.9997 63.8082C34.0722 64.1167 34.1258 64.3444 34.15 64.5088C34.1742 64.7036 34.1795 64.6783 34.1554 65.0147C34.1446 65.1614 34.1312 65.3334 34.1232 65.5357C34.1151 65.733 34.1124 65.9607 34.1393 66.2338C34.15 66.3628 34.1769 66.5222 34.2064 66.674C34.2493 66.846 34.2923 67.0129 34.3782 67.2152C34.5366 67.5997 34.8561 68.0651 35.3286 68.3914C35.2562 68.4825 35.3152 68.6671 35.2508 68.748C35.2186 68.7885 35.1568 68.8037 35.0333 68.7683C34.8293 68.6443 34.5366 68.4395 34.2735 68.1208C34.201 68.0373 34.142 67.9564 34.0829 67.8704C34.0238 67.7818 33.9648 67.6882 33.9084 67.5845C33.8171 67.4075 33.7151 67.1798 33.6614 66.9901C33.5406 66.545 33.5164 66.1934 33.511 65.9126C33.5057 65.6293 33.5191 65.3916 33.5325 65.1892C33.5459 64.997 33.5593 64.83 33.562 64.7466C33.562 64.701 33.562 64.7061 33.562 64.6909L33.554 64.6176C33.5406 64.4987 33.4842 64.271 33.3902 63.8891C33.3446 63.6994 33.2962 63.4743 33.256 63.2163C33.2372 63.0873 33.2184 62.9507 33.2076 62.8091L33.1942 62.5941C33.1888 62.5081 33.1915 62.4903 33.1888 62.4398C33.1727 61.0739 33.1593 59.703 33.1432 58.332C33.111 55.7521 32.864 53.0886 32.7351 50.2987C32.7029 49.6006 32.6814 48.8974 32.6707 48.1867C32.6599 47.3924 32.7029 46.6791 32.7163 46.0569C32.7324 45.4321 32.7163 44.8858 32.6492 44.471C32.617 44.2661 32.5579 44.0106 32.4747 43.6363C32.3941 43.2695 32.2975 42.7687 32.2679 42.2375C32.2599 42.106 32.2572 41.9719 32.2545 41.8379V41.5774L32.2438 41.069L32.2304 40.0547L32.2062 38.0236L32.1632 33.9437C32.0558 23.0597 32.0263 12.1783 32.2089 1.4486C32.3297 -1.0049 32.8183 0.836492 33.1835 2.67536C33.0627 2.06325 33.4278 2.06325 33.3043 1.4486C33.6694 1.4486 34.2789 2.67536 34.4024 5.12887V3.29C34.5232 2.67789 34.7675 3.29 35.0118 3.29C35.0118 3.90464 35.0118 4.51675 35.1353 4.51675H35.624V2.07083C35.624 2.68295 35.624 3.29759 35.7448 3.29759H36.2334C36.3543 4.52434 36.1099 6.36321 36.2334 7.58996H36.5986C36.7194 6.36321 36.5986 4.52434 36.5986 3.29759C36.7194 3.91223 36.8429 3.91223 37.0872 3.91223C37.208 5.75109 36.8429 7.58996 37.208 9.42883V7.58996C37.8175 8.81671 37.3288 11.8798 37.4523 13.7212L37.4497 13.7187Z" fill="#8C251C"/>
<path d="M17.6947 48.6646C19.5096 49.689 21.3541 50.85 23.2147 52.0641C23.4482 52.2159 23.6791 52.3702 23.9154 52.5245C24.1544 52.6864 24.396 52.8457 24.6349 53.0076C25.1128 53.3364 25.5934 53.6703 26.0633 54.0168C27.0083 54.7048 27.9426 55.4282 28.8474 56.1795C29.7549 56.9307 30.6382 57.7072 31.4947 58.504C31.9216 58.9036 32.3431 59.3058 32.7565 59.713L33.0653 60.0191C33.1566 60.1076 33.3042 60.2594 33.4197 60.3833C33.6586 60.6413 33.8734 60.8993 34.0694 61.1446L34.3486 61.5038L34.5876 61.82L34.6762 61.9363L34.7326 62.0021C34.8077 62.0881 34.8802 62.1716 34.9688 62.2297C35.0145 62.2626 35.0789 62.25 35.1272 62.2171C35.1756 62.1867 35.2212 62.1513 35.2642 62.1159L35.3259 62.0653C35.3447 62.0476 35.3608 62.035 35.4038 62.0021C35.4763 61.9465 35.5514 61.8908 35.6239 61.8352C37.5087 60.53 39.3585 58.9795 41.3211 57.3632C42.3038 56.5563 43.3186 55.7343 44.3872 54.9249C44.9188 54.5202 45.4719 54.1205 46.0384 53.7285C46.3257 53.5261 46.5914 53.3491 46.8653 53.1669L47.6842 52.6206C52.0712 49.7219 56.7025 47.0762 61.3741 44.8984C61.4815 45.1058 60.8747 45.7761 61.699 45.5155C63.326 44.949 64.1985 44.8023 64.6818 44.8301C65.1651 44.8554 65.2644 45.0704 65.3664 45.2778C65.4631 45.4801 63.0548 46.287 63.9274 46.1555C62.7783 46.6664 61.2775 47.4101 60.3727 47.9286C59.4679 48.4471 59.143 48.7152 60.3136 48.2473C60.7459 48.1663 61.6748 47.7009 62.6279 47.276C63.5784 46.8485 64.5449 46.4514 65.004 46.4438C65.9168 46.4261 64.5529 47.3974 65.4631 47.3822C66.2122 47.0458 67.7371 46.4261 68.5023 46.1277C69.3561 46.0391 68.0217 47.0661 68.7815 46.7651C69.9655 46.4236 71.3402 45.9531 72.8249 45.3865C73.5659 45.1007 74.3364 44.7921 75.1177 44.4557C75.3137 44.3697 75.5097 44.2863 75.7057 44.2003L75.8668 44.1294C75.942 44.094 76.0091 44.0637 76.0708 44.0308L76.3903 43.8664C76.5756 43.7677 76.7098 43.6994 76.7931 43.664L76.8387 43.6463L76.8494 43.6413L76.8333 43.5856C76.734 43.2897 76.691 43.0595 76.6803 42.8976L76.7447 43.664V43.6691L76.7474 43.6792C76.7474 43.6868 76.7528 43.6944 76.7555 43.6994C76.7635 43.7121 76.7716 43.7273 76.7823 43.7399C76.8038 43.7677 76.8333 43.793 76.8629 43.8183C76.9192 43.8689 76.9783 43.9195 76.981 43.9701C76.9864 44.0207 76.938 44.0713 76.785 44.1244C76.8065 44.39 76.5863 41.7999 76.6803 42.8976V42.9077V42.9204L76.683 42.9482C76.683 42.9659 76.6884 42.9862 76.691 43.0064C76.6991 43.0519 76.7071 43.0974 76.7152 43.148C76.7259 43.2113 76.7421 43.2568 76.7608 43.3403C76.7796 43.4263 76.8065 43.5047 76.8387 43.6033C76.8736 43.7222 76.9139 43.831 76.9703 43.9701C76.9944 44.0308 77.0159 44.0915 77.0428 44.1547C77.0428 44.1547 77.0454 44.1547 77.0428 44.1623C77.0347 44.175 77.0132 44.1901 76.9649 44.223L76.4038 44.5164C76.2749 44.5822 76.0467 44.6859 75.9688 44.7188L75.6386 44.863C75.1983 45.0527 74.7607 45.2373 74.323 45.4169C73.4478 45.7735 72.5752 46.1125 71.7187 46.4438C69.9924 47.104 68.36 47.7414 66.733 48.4547C63.479 49.8762 60.3136 51.5077 57.2234 53.2909C55.6796 54.1838 54.1519 55.1146 52.6431 56.0783C51.8886 56.5589 51.1369 57.0496 50.3905 57.5453C49.6226 58.0512 48.9514 58.5141 48.248 59.0275C45.4504 61.0688 42.7065 63.5223 39.4149 65.7077L38.7893 66.1124L38.6256 66.2186L38.3598 66.3779L37.8282 66.6966L37.2966 67.0153L36.7113 67.3568C36.5126 67.458 36.3139 67.5617 36.1153 67.6477C35.9166 67.7185 35.7179 67.8045 35.5246 67.845C35.1326 67.9462 34.7675 67.9866 34.3782 67.9689C34.1849 67.9588 33.9728 67.9335 33.7714 67.8905C33.5727 67.8475 33.3875 67.7893 33.2103 67.7185C32.8559 67.5769 32.5176 67.3897 32.19 67.1266C31.8679 66.8661 31.5618 66.555 31.2745 66.2211C30.9846 65.8898 30.708 65.5382 30.4395 65.179L29.9133 64.4784C29.669 64.1597 29.4569 63.9017 29.2609 63.6993L29.1884 63.626L29.0756 63.5147L28.8474 63.2896L28.3856 62.8444C28.0769 62.551 27.7628 62.2576 27.4433 61.9718C26.1733 60.8234 24.8417 59.7358 23.4563 58.7038C22.7636 58.1878 22.0575 57.687 21.338 57.1988C20.6345 56.7233 19.8479 56.2073 19.0961 55.7115C16.0703 53.7158 13.0714 51.7758 10.008 50.0356C9.62676 49.8155 9.24014 49.6056 8.8589 49.3931L7.66146 48.743C6.8238 48.2852 6.01298 47.8198 5.22364 47.3595C4.44773 46.9092 3.67181 46.459 2.8959 46.0113L1.71189 45.3435C1.3199 45.121 0.984301 44.9287 0.675546 44.777C0.401693 44.6277 0.235234 44.5468 0.162744 44.4962C0.119786 44.4684 0.117102 44.4557 0.109047 44.438C0.114417 44.4254 0.133211 44.4153 0.13858 44.3976C0.0472961 44.3495 0.0258175 44.309 0.0580354 44.2761C0.0741444 44.2584 0.106362 44.2433 0.152004 44.2306C0.186907 44.2256 0.165428 44.2129 0.173483 44.2028C0.173483 44.1927 0.176168 44.1826 0.178853 44.1699C0.200331 44.0814 0.479553 44.0611 0.906441 44.1598C1.3387 44.2559 1.86492 44.4406 2.49049 44.6884C2.07166 44.524 1.94547 44.3874 1.80317 44.2433C1.66625 44.1041 1.52395 43.96 1.17761 43.8563C1.26084 43.7045 1.68504 43.6413 2.50391 43.8639C2.60594 43.8917 2.71601 43.9246 2.83415 43.9625C2.94959 44.0004 3.0731 44.0409 3.20197 44.0814C3.44897 44.1649 3.72014 44.2635 4.00742 44.3798C4.58734 44.6151 5.24512 44.9211 5.98076 45.3081C5.26123 44.8984 4.54707 44.4886 3.82753 44.0915C3.16975 43.5957 4.01278 43.793 4.13629 43.5957C4.86119 43.9954 5.57804 44.4077 5.64247 44.309C5.70423 44.2104 5.83041 44.0131 5.89485 43.917C5.5324 43.7146 4.99006 43.4086 4.44504 43.1025C3.90002 42.8015 3.35232 42.503 2.98987 42.3032C3.36306 42.5081 3.71208 42.7029 3.99668 42.8395C4.27858 42.976 4.47726 43.0519 4.50679 43.0039C4.56854 42.9052 4.69205 42.7054 4.7538 42.6067C6.28952 43.32 8.29777 44.7744 9.79859 45.4371L9.97847 45.1387C8.61189 44.2812 6.41839 43.1253 4.93905 42.3083C5.73644 42.6169 5.79819 42.5208 5.92438 42.3235C7.05469 42.8926 8.09372 43.5629 9.14349 44.18C9.6724 44.4911 10.1852 44.777 10.7463 45.0527C11.3182 45.336 11.8981 45.6015 12.4995 45.8368L11.3853 45.2247L10.2819 44.6353C10.6953 44.691 11.2726 44.906 11.8847 45.1943C12.5022 45.4852 13.1761 45.8621 13.8527 46.2718C15.2139 47.0888 16.5993 48.0424 17.6973 48.6621L17.6947 48.6646Z" fill="#8C251C"/>
</svg>
