<?xml version="1.0" encoding="UTF-8"?><svg id="Layer_1" xmlns="http://www.w3.org/2000/svg" width="1008mm" height="1126.31mm" viewBox="0 0 2857.32 3192.68"><defs><style>.cls-1{fill:#3e492b;}</style></defs><path class="cls-1" d="M2706.91,2975.14c1.66.03,3.01-.11,4.28-.36,1.23-.26,2.16-.64,2.98-1.11,1.65-.94,2.45-2.24,2.83-3.63.77-2.76-.13-5.83,1.04-6.8-1.67.2-3.17.43-4.51.68-1.26.27-2.35.56-3.33.88-1.01.31-1.75.65-2.43,1-.68.35-1.25.72-1.73,1.09-1.87,1.5-2.22,3.13-2.07,4.58.18,1.45.98,2.7,1.69,3.43.74.72,1.43.92,1.25.25Z"/><path class="cls-1" d="M2530.12,2947.67l4.68-2.9c-10.26.16-20.54.22-30.85.17,8.73.99,17.45,1.89,26.17,2.73Z"/><path class="cls-1" d="M2352.4,2887.74c2.59,5.71,7.92,9.83,14.89,13.04,3.48,1.59,7.38,2.98,11.55,4.19,1.05.29,2.11.59,3.18.89,1.05.26,2.11.53,3.19.79,2.15.52,4.35,1.01,6.61,1.47,18,3.73,38.91,6.15,54.27,14.19l4.17,5.54c6.32-3.05,12.7-6.06,19.18-9-20.63-5.48-44.02-9.16-64.8-13.64-5.19-1.13-10.24-2.3-15.05-3.55-2.42-.65-4.7-1.25-7.09-1.96-2.37-.7-4.68-1.41-6.93-2.15-8.99-2.94-16.93-6.2-23.16-9.8Z"/><path class="cls-1" d="M2271.44,2816.66c1.6,4.28-3.8,3.91-4.37,3.85-.28-.03.66.05,4.29.82.9.2,1.98.44,3.25.72.64.15,1.32.31,2.06.48.78.19,1.62.4,2.51.62,3.59.89,8.07,2.07,13.65,3.61-1.92-1.51-2.4-2.15-3.47-3.15-1.97-.66-4.3-1.49-7.28-2.63-1.47-.56-3.18-1.23-4.94-1.94-1.71-.7-3.6-1.49-5.7-2.38Z"/><path class="cls-1" d="M2289.36,2823.62c9.61,3.26,7,.75,3.29-1.32-3.72-2.07-8.54-3.7-3.29,1.32Z"/><path class="cls-1" d="M2203.25,2795.58l26.58,3.54c-1.78-2.88-7.99-6.6-12.65-9.58-4.67-2.99-7.74-5.21-3.17-5.05-13.19-3.23-18.97-3.42-19.82-1.31-.89,2.11,3.11,6.52,9.06,12.4Z"/><path class="cls-1" d="M2175.16,2798.85l13.79,2.41c-1.63-2.46-4.82-4.31-13.79-2.41Z"/><path class="cls-1" d="M2217.86,2806.38l-28.91-5.12c2.55,4.06.87,9.6,13.13,2.87-4.1,4.09,3.08,1.4,15.78,2.25Z"/><path class="cls-1" d="M2231.95,2814.68c6.08,4.4,13.22,8.77,15.57,11.65,2.35,2.87-.04,4.29-13.22,2.61,23.47,7.57,34.37,7.45,33.78,3.92-.63-3.55-12.67-10.58-36.14-18.18Z"/><path class="cls-1" d="M2337.07,2901.77l16.5,11.61c5.96.04,11.91.05,17.84.04-8.91.05-33.54-17.28-34.34-11.65Z"/><path class="cls-1" d="M2091.64,2726.98c-.35.32-.71.69-1.07,1.1-.35.42-.74.85-.97,1.46-.53,1.16-.89,2.59-1.18,4.12-.61,3.05-.79,6.58-1.81,8.89l14.82,6.19c-1.36-1.84-2.99-3.89-4.59-6-1.56-2.09-3.05-4.23-4.16-6.22-1.08-1.98-1.85-3.85-2.04-5.46-.1-.81-.12-1.57.06-2.26.08-.34.19-.68.33-.99.14-.32.39-.55.61-.83Z"/><path class="cls-1" d="M2086.61,2742.55l-4.82-2.06-1.15-.49-.55-.24-.28-.12c-.07-.02-.13-.03-.2-.04l-1.49-.31c-1.99-.42-4.02-1.04-6.06-1.85,1.38,2.07,2.86,3.46,4.13,4.38.31.23.63.43.95.61.47.32.91.62,1.38.88.9.53,1.71.91,2.49,1.18,3.04,1.07,4.7.05,5.59-1.93Z"/><path class="cls-1" d="M2163.77,2815.74l49.47,4.17c-19.2-2.4-38.66-4.92-58.23-7.24l8.76,3.07Z"/><path class="cls-1" d="M2085.64,2696.42c2.71,1.74,5.54,3.22,8.45,4.71-2.19-1.31-4.36-2.62-6.39-3.99-2-1.42-4.06-2.78-5.67-5.02l.8,1.27c.14.2.24.42.4.6l.48.51c.32.34.61.65.93.97l.99.95Z"/><path class="cls-1" d="M2097.68,2671.61c.35,5.13,4.44,5.16,7.95,5.24.44,0,.88.01,1.3.02.45,0,.89,0,1.31.03.83.05,1.58.16,2.17.42,1.19.5,1.78,1.57,1.3,3.72,3.25-4.62,6.62-10.58,9.98-17.02,1.6-3.18,3.45-6.61,5.06-9.96,1.83-3.46,3.43-6.82,5.3-10.27-.6.77-1.2,1.54-1.83,2.29-.61.75-1.19,1.46-1.81,2.18-1.22,1.43-2.53,2.84-3.84,4.18-1.26,1.32-2.59,2.61-3.99,3.87-.68.6-1.37,1.21-2.06,1.83-.69.59-1.39,1.18-2.12,1.76-5.72,4.6-12,8.47-18.73,11.71Z"/><path class="cls-1" d="M2142.81,2624.38c-1,1.33-2.02,2.72-2.9,4.19-.89,1.47-1.74,3-2.58,4.56-.79,1.58-1.54,3.21-2.29,4.86-.19.42-.38.84-.57,1.26-.27.5-.53.99-.8,1.49-.53,1-1.07,2.01-1.62,3.03.63-.82,1.25-1.66,1.87-2.5l.91-1.27c.17-.23.27-.4.38-.57l.33-.53c.88-1.42,1.72-2.9,2.52-4.44.86-1.53,1.67-3.13,2.44-4.81.75-1.69,1.59-3.42,2.3-5.28Z"/><path class="cls-1" d="M2066.68,2716.7c.98-.98,2.88-2.4,4.65-4.79,1.82-2.32,3.58-5.57,4.74-9.23-1.74.9-3.52,1.87-5.2,3.01-.85.56-1.72,1.12-2.56,1.74-.83.62-1.66,1.27-2.49,1.92.04,1.02.22,2.24.32,3.43.18,1.27.31,2.54.54,3.92Z"/><path class="cls-1" d="M2065.49,2709.62l.32-.28c-.26-3.72-.26-6.52-.1-8.55.03-1.05.18-1.86.22-2.59.08-.7.19-1.23.24-1.65-.05.35-.12.83-.23,1.44-.07.65-.16,1.46-.26,2.43-.17,2.01-.34,4.83-.18,9.2Z"/><path class="cls-1" d="M2066.98,2718.69c-.1-.73-.17-1.27-.3-1.99-.9.93-1.16,1.47.3,1.99Z"/><path class="cls-1" d="M2108.58,2781.08c-.75-.06-1.56-.15-2.31-.24-.39-.05-.79-.1-1.19-.16-.59-.2-1.27-.47-1.91-.71-2.61-.99-5.23-1.96-7.78-2.85-5.09-1.78-9.81-3.24-13.33-3.72-3.52-.48-5.9,0-6.21,2.26-.29,2.27,1.46,6.29,6.88,13.12,7.02.64,7.42-2.96,9.23-5.76.91-1.4,2.2-2.59,4.89-2.92,1.34-.17,3.06-.1,5.29.29.56.1,1.16.22,1.78.37.3.06.66.16.95.21.22,0,.44,0,.67,0,.46,0,.93,0,1.42.03.51.02,1.06.06,1.62.1Z"/><path class="cls-1" d="M2055.66,2729.71h0c.12,1.33.21,2.66.42,3.98.22,1.32.52,2.62.91,3.9.78,2.56,1.89,5.03,3.19,7.42,1.06-.94,2.05-2.56,3.4-3.68,1.37-1.15,3.04-1.78,5.37-1.25-2.47-1.09-4.95-2.47-7.22-4.19-2.31-1.71-4.27-3.81-6.06-6.15h0Z"/><path class="cls-1" d="M2050.39,2721.02l1.39,2.78.71,1.4.37.71c.12.22.26.54.35.6.2.24.39.46.59.71.21.28.41.57.63.84l1.25,1.63c-.04-.98-.15-1.94-.2-2.9v-.6s-.02-.3-.02-.3l-.07-.58c-.1-.78-.15-1.51-.22-2.26l-4.76-2.03Z"/><path class="cls-1" d="M2102.11,2646.17c1.29-2.77,2.74-5.4,4.64-8.02.93-1.3,1.88-2.58,2.92-3.85,1.07-1.29,2.18-2.56,3.33-3.83,2.25-2.51,4.93-5.14,7.54-7.69,2.28-2.17,4.6-4.4,7.17-6.64-1.57.93-3.18,1.86-4.69,2.86l-2.29,1.48c-.77.51-1.49.96-2.41,1.63-1.73,1.25-3.47,2.51-5.2,3.77-1.71,1.26-3.34,2.5-4.99,3.77-6.51,5.04-12.51,10.12-17.55,15.13.43,1.91.75,4.97,2.16,6.2.71.62,1.7.78,3.12.13.75-.34,1.63-.88,2.65-1.69.51-.4,1.06-.87,1.65-1.4.59-.56,1.24-1.17,1.95-1.85Z"/><path class="cls-1" d="M2072.09,2677.74c-.03-.52.1-1.1.15-1.61-.66.2-1.11.43-1.18.7-.08.27.19.57,1.03.91Z"/><path class="cls-1" d="M2257.03,2534.31c-1.04-.06-2.05-.31-3.13-.39.15.64.35,1.22.45,1.88l2.67-1.49Z"/><path class="cls-1" d="M2087.48,2645.08c-9.02,6.22-10.76,12.48-11.19,18.4,3.05-5.8,7.75-12.12,14.29-18.69-.2-.86-.44-1.5-.91-1.56-.47-.07-1.19.45-2.19,1.86Z"/><path class="cls-1" d="M2171.76,2598.53c-6.52,1.45-13.38,3.65-20.26,6.23,6.71-.53,19.77-2.69,20.26-6.23Z"/><path class="cls-1" d="M2075.96,2675.6c-.02.38,0,.74-.08,1.11,3.04-.72,1.92-1.06.08-1.11Z"/><path class="cls-1" d="M2075.96,2675.6c.04-.94.18-1.92.23-2.9.05-.99.03-1.98-.01-3,.09-2.04.02-4.12.12-6.22-.62,1.18-1.11,2.32-1.64,3.44-.56,1.13-.89,2.21-1.22,3.27-.16.53-.32,1.05-.48,1.56-.07.26-.15.51-.22.77-.04.25-.08.5-.12.75-.15.99-.28,1.95-.37,2.87,1.11-.38,2.53-.55,3.72-.54Z"/><path class="cls-1" d="M2264.76,2451.29c1.27,4.93-4.83,13.39-14.73,21.51-9.94,8.09-23.85,16.02-39.4,19.31-10.61,10.84-7.58,20.71,2.06,28.12,9.63,7.42,25.92,12.29,41.22,13.7-.73-2.08-1.62-3.97.43-7.85,2.06-3.85,7.04-9.77,18-19.28-2.83.03-8.09,1.31-14.18,3.03-6.09,1.71-13.02,3.88-19.11,5.46-12.19,3.17-20.95,3.81-12.43-6.65,15.66-12.51,23.06-15.73,28.9-16.59,5.83-.81,10.12.69,19.5-1.39-4.92-.84-5.29-3.68-3.2-7.69,2.01-3.96,6.79-9.18,11.66-14.65,9.74-10.93,20.17-22.87,12.17-28.98-9.51,7.23-18.96,14.49-28.37,21.81-1.9-2.19,7.36-12.09-2.52-9.85Z"/><path class="cls-1" d="M2203.88,2563.1l-10.11,7.45c6.52-2.88,12.5-4.78,19.5-6.45,6.98-1.64,14.96-3.08,25-4.68,7.62-7.5,11.69-12.48,13.88-16.07,2.18-3.59,2.46-5.78,2.2-7.55-8.57,4.89-17.28,9.98-26.24,15.19-8.92,5.2-18.27,10.56-27.18,15.59l2.95-3.48Z"/><path class="cls-1" d="M2149.14,2598.46c.25-3.45,1.8-7.21,3.6-10.95,1.86-3.73,3.99-7.43,5.52-10.71,1.5-3.29,2.34-6.16,1.48-8.25-.86-2.09-3.47-3.41-8.74-3.53-14.67,9.7-18.13,15.05-20.05,19.68-1.83,4.67-2.09,8.71-8.32,16.41,1.24-1.05,2.4-2.02,3.47-2.93,1.11-.88,2.13-1.7,3.07-2.44,1.87-1.5,3.5-2.69,4.85-3.64,2.67-1.92,4.3-2.85,5.15-3.1,1.7-.51.26,1.68-1.3,4.37-1.55,2.69-3.3,5.84-2.47,7.27.4.71,1.42.99,3.43.58,2-.41,4.92-1.52,9.29-3.55-7.51,7.31-14.31,13.03-20.41,18.47,7.69-4.47,15.71-8.27,23.79-11.38-.52.06-.9.1-1.35.11l-.18.17c-.04-.06-.01-.11-.06-.17-2.6.15-3.68-.11-1.15-.88.07-.21.56-.6.77-.79-.56-1.43-.5-3.06-.35-4.69,6.96-3.33,7.88-3.06,6.6-1.53-.64.77-1.81,1.86-3.03,2.99-1.21,1.13-2.42,2.3-3.21,3.23.15.53.1,1.17.39,1.67.08.02.16.01.24,0,13.04-11.35,27.85-22.62,43.62-34.32-5.67,2.53-11.8,5.82-19.04,10.3-7.22,4.49-15.71,10.17-25.59,17.6Z"/><path class="cls-1" d="M2044.39,2788.13c-.73-1.91-.15-2.42.26-3.1-3.62-1.49-5.35-1.78-.26,3.1Z"/><path class="cls-1" d="M2033.05,2767.53c1.84,1.03,4.11,1.46,6.83,2.71,1.35.63,2.83,1.46,4.45,2.68.82.62,1.63,1.3,2.58,2.16.96.9,2.01,1.91,3.12,3.09,3.16,4.93,2.42,5.92.48,6.03-1.92.13-4.9-.69-5.85.84,3.99,1.66,10.73,4.69,14.41,4.72,1.83.03,2.88-.67,2.43-2.59-.42-1.93-2.4-5.08-6.15-10l-3.84-1.41c-.84-1.08-1.69-2.19-2.46-3.35-.73-1.08-1.35-2.19-1.99-3.31-1.23-2.26-2.29-4.61-3.14-6.97-1.7-4.73-2.5-9.47-2.48-13.56,0-4.09.77-7.51,1.69-9.72.92-2.22,1.82-3.25,2.34-2.75-4.01,3.76-7.15,7.54-9.42,12.36-2.22,4.83-3.64,10.74-3,19.08Z"/><path class="cls-1" d="M2047.18,2658.88c2.44-5.86,5.55-11.79,9.29-17.74,3.8-5.93,8.14-11.88,12.86-17.82-7.63,3.2-15.09,6.62-22.35,10.53l5.04,2.68c-1.09,1.1-2.02,2.16-2.9,3.14-.85.99-1.69,1.89-2.31,2.78-1.28,1.76-2.24,3.27-2.94,4.58-1.27,2.66-1.48,4.48-1.19,5.85.28,1.36,1.13,2.29,2.04,3.17.9.88,1.86,1.7,2.46,2.82Z"/><path class="cls-1" d="M2264.38,2536.16l.53,12.93c4.95-9.21,9.8-18.27,14.75-27.19-5.06,4.63-10.14,9.39-15.28,14.25Z"/><polygon class="cls-1" points="2316.45 2506.25 2318.91 2516.11 2330.91 2503.29 2316.45 2506.25"/><path class="cls-1" d="M1596.12,1759.06c4.37-2.11,8.72-4.21,12.99-6.33-6.2,2.55-10.16,4.55-12.99,6.33Z"/><path class="cls-1" d="M1496.41,1782.51l-1.43,5.3c4.1-3.65,5.59-6.01,1.43-5.3Z"/><path class="cls-1" d="M2074.91,1575.87c-.37-1.7-.73-3.41-1.1-5.13-.35-1.7-.7-3.41-1.06-5.1-.66-3.27-1.31-6.53-1.95-9.69-.33-1.57-.65-3.11-.97-4.63-.33-1.48-.65-2.94-.96-4.35-.65-2.86-1.28-5.41-1.93-7.77-2.6-9.33-5.25-14.2-8.92-9.81l-4.65,11.98c5.43,5.79,9.78,11.6,13.26,17.35,1.74,2.83,3.26,5.73,4.6,8.51.17.35.33.7.49,1.04.17.37.34.74.5,1.11.32.74.64,1.48.96,2.2.62,1.46,1.19,2.89,1.73,4.3Z"/><path class="cls-1" d="M1081.61,1492.56c2.24-.31,4.57-.61,6.89-.89,2.05-5.99,3.98-11.62,5.71-16.64-3.78,5.32-8.18,11.25-12.6,17.53Z"/><path class="cls-1" d="M1097.73,1536.64c-7.53,2.95-14.34,5.95-20.71,9.22,1.26-.4,2.55-.88,3.96-1.45,1.48-.57,2.93-1.23,4.66-1.98,3.33-1.51,7.33-3.4,12.09-5.78Z"/><path class="cls-1" d="M1969.15,1437.77c-.61-3.07-1.18-6.14-1.85-9.16l-2.04-9c-2.32,5.26-3.48,8.77-3.95,11.17-.44,2.39-.06,3.64.76,4.34,1.63,1.42,5.02.65,7.08,2.65Z"/><path class="cls-1" d="M2809.48,2047.35c-1.04-7.32-2.91-14.12-5.18-20.48-1.13-3.18-2.37-6.25-3.67-9.23-.65-1.49-1.31-2.95-1.98-4.4-.34-.72-.68-1.44-1.01-2.15-.32-.68-.75-1.55-.85-1.83-.33-.81-.72-1.71-.95-2.35-.14-.35-.27-.69-.4-1.03l-.2-.51-.14-.42-.29-.82c-.09-.26-.22-.56-.25-.74l-.17-.6-.09-.29c-.04-.11-.05-.16-.12-.36-.26-.68-.51-1.35-.77-2.02-.55-1.23-1.15-2.55-1.74-3.79-1.2-2.5-2.45-4.92-3.77-7.24.85,2.18,1.62,4.36,2.32,6.52.35,1.08.69,2.15,1,3.23.16.54.31,1.07.46,1.6l.11.4c.04.13.02.16.04.25l.05.44c.06.59.12,1.17.17,1.75.02.17,0,.24,0,.33l-.03.28-.06.55-.06.55c-.02.18.01.44.02.66.02.46.04.91.06,1.35.02.45.13,1.02.19,1.52.08.53.12.98.24,1.57.12.57.23,1.14.35,1.7l.04.21c.01.06.03.13.08.26l.23.66c.15.43.3.86.45,1.29,1.17,3.37,2.29,6.57,3.33,9.58,2.06,5.95,3.84,11.01,5.75,15.01,1.89,4.01,4.02,6.94,6.84,8.55Z"/><path class="cls-1" d="M1584.63,1880.86c8.41-4.11,11.65-7.25,10.78-9.52-8.66,4.14-13.32,7.4-10.78,9.52Z"/><path class="cls-1" d="M2735.24,1934.56c2.37,3.2,4.95,5.98,7.36,9.13,3.32,2.15,6.61,4.36,9.85,6.67.81.58,1.62,1.17,2.43,1.76.37.26.91.68,1.4,1.06l1.49,1.17,1.49,1.19c.5.41.97.77,1.55,1.27,1.11.94,2.24,1.89,3.33,2.89,8.82,7.87,17.04,17.48,23.74,29.4-2.49-6.45-5.7-12.94-9.74-19.13-4.02-6.19-8.88-12.09-14.41-17.4-1.21-1.16-2.45-2.3-3.71-3.42l-.95-.83-.78-.66-1.55-1.26c-2.07-1.67-4.28-3.23-6.57-4.69-4.58-2.92-9.59-5.36-14.95-7.13Z"/><path class="cls-1" d="M578.8,557.92c.12-1.65-.09-3.55.15-5.11-1.54-.15-1.12,2.05-.15,5.11Z"/><path class="cls-1" d="M249.42,152.99c5.73-.78,15.17-1.03,24.23-1.47-4.43-.61-11.82-.29-24.23,1.47Z"/><path class="cls-1" d="M2542.9,2406.59c-6.44,2.54-6.8,2.98-5.44,2.58,1.37-.39,4.58-1.66,5.44-2.58Z"/><path class="cls-1" d="M2471.19,2390.15c2.05-2.33,3.34-4.68,2.56-7.08.14,2.83-.84,5.14-2.56,7.08Z"/><path class="cls-1" d="M2572.9,1933.11c-.4-.08-.71-.15-1.16-.24,3.66,2.79,3.05,2.27,1.16.24Z"/><path class="cls-1" d="M2524.68,2407.77c1.09-.08,2.15-.11,3.27-.21,1.09-.1,2.21-.21,3.37-.31,1.13-.1,2.28-.24,3.44-.4,1.43-.24,3.06-.56,4.63-.88-.74.03-1.62.09-2.68.19-.53.06-1.1.12-1.73.19-.49.04-1.01.09-1.58.14-1.1.11-2.34.22-3.79.43-1.46.24-3.07.47-4.93.84Z"/><path class="cls-1" d="M2528.53,2411.8c-3.56.82-6.42,1.69-9.2,2.53-.3,1.1-.05,1.79,1.32,1.53,1.38-.28,3.85-1.52,7.89-4.06Z"/><path class="cls-1" d="M2561.61,2399.52c-7.92,2.99-15.28,4.94-22.22,6.45,2.81-.17,4.09.04,3.51.62,3.94-1.49,9.5-3.59,18.71-7.07Z"/><path class="cls-1" d="M1601.71,807.1c-.66-.58-1.49-1.1-2.18-1.79-6.55.28-8.36.82-7.45,1.11.92.3,4.66.5,9.63.69Z"/><path class="cls-1" d="M1750.02,1436.49c.6.03.98-.18,1.53-.18-.55-.24-1.25-.56-1.74-.8l.21.98Z"/><path class="cls-1" d="M1702.96,1434.87c22.29-9.47,33.16-5.49,46.85.64-2.5-11.3-5.27-22.62-8.22-33.91-13.12,10.9-25.89,22.04-38.63,33.27Z"/><path class="cls-1" d="M1807.4,1663.62l-7.8,1.83c-.66.16-1.25.28-1.98.47l-2.17.57-4.35,1.14-17.16,4.42c1.7-2.16,3.39-4.22,5.08-6.18,1.71-1.98,3.41-3.87,5.08-5.67,3.32-3.58,6.93-7.02,9.17-9.52,5.06-5.24,9.05-9.3,11.52-12.21,2.41-2.94,3.15-4.79,1.51-5.68-.82-.45-2.25-.67-4.38-.68-2.18-.04-5.08.11-8.78.41,1.82,3.87,1.76,7.76.11,11.61-.81,1.93-2,3.87-3.5,5.82-.19.24-.38.48-.58.73-.22.26-.49.53-.74.8-.51.54-1.04,1.07-1.58,1.61-1.1,1.07-2.27,2.15-3.51,3.24-9.86,8.61-23.67,17.28-36.99,25.29-13.36,8.05-26.27,15.39-35.17,22.43-8.9,7.07-14,14.12-11.59,22.33-6.98.44-13.73.6-20.65.67,2.65-.84,4-1.81,5.34-2.77,1.31-.98,2.6-1.95,5.16-2.8-10.01-.26-16.22,1.41-20.64,4.55-2.24,1.54-3.98,3.47-5.59,5.6-1.61,2.13-3.03,4.5-4.53,6.99-6.08,9.88-13.49,21.75-40.64,26.61-9.6,1.23-18.06,1.49-22.64.56-4.57-.94-5.2-3.09.72-6.71l-20.18,9.59-9.73,4.67-9.8,4.61c-12.23,2.29-10.62-4.14,1.46-6.45-20.7,6.08-41.79,11.8-63.14,17.41l.27-1.08c-8.05,7.24-27.39,19.82-37.01,25.48-17.67-1.18,7.59-5.32,2.44-8.54l-34.65,15.92c-16.8-5.33,11.8-20.35,37.05-24.46-20.47-12.93-27.62-9.21-39.33-2.67-5.87,3.28-12.88,7.26-23.37,10.29-10.52,3.02-24.28,5.2-42.44,4,10.35-3.64,21.04-7.58,32.23-11.59-13.26-6.87-25.82-7.1-39.18-6.54-1.65.07-3.33.15-5.04.22-.85.05-1.71.09-2.58.14-.84.03-1.69.06-2.55.09-1.71.05-3.46.11-5.24.17-1.77.04-3.5,0-5.3-.02-3.64-.02-7.17-.34-10.93-.76-1.84-.25-3.65-.6-5.53-.97-.93-.2-1.89-.38-2.81-.62-.91-.26-1.83-.53-2.76-.81,1.8,1.43,6.61,3.57,12.76,6,3.12,1.17,6.46,2.52,10.01,3.76,1.75.64,3.51,1.31,5.23,1.99,1.76.65,3.49,1.31,5.14,2,1.66.68,3.23,1.4,4.7,2.11,1.49.7,2.87,1.41,4.09,2.15,2.43,1.47,4.23,3.03,5.05,4.67.83,1.64.68,3.35-.77,5.16-.72.9-1.77,1.82-3.19,2.76-.71.47-1.51.95-2.41,1.43-.88.46-1.86.93-2.94,1.4-2.65-.16-5.53-.15-8.5-.04-2.99.14-6.2.53-9.55,1.11-6.79,1.3-14.23,3.62-22.97,7.71-.53-6.03-5.05-7.9-11.7-8.42-.85-.04-1.71-.1-2.59-.15-.89-.04-1.81-.07-2.77-.07-.96,0-1.95.01-2.97.04-1,0-2.02-.02-3.07-.03-1.05.01-2.13.02-3.24.03-1.12.04-2.19-.06-3.32-.08-1.12-.03-2.27-.07-3.43-.1l-.88-.03-1.15-.09c-.78-.06-1.57-.13-2.36-.19l3.45-15.71c-13.74.82-20.12,3.17-25.32,6.05-5.16,2.84-9.06,6.21-17.29,8.59-14.46-3.02-22.18-8.2-26.82-13.84-2.3-2.85-3.86-5.81-5.01-8.82-1.16-3-2.02-5.98-2.83-8.88-9.69-3.07-12.7-3.15-13.3-1.42-.27.85.17,2.13.94,3.65.76,1.52,1.88,3.27,3.01,5.02,2.19,3.54,4.36,7.15,2.77,9.32-.8,1.09-2.54,1.8-5.6,1.9-.77.03-1.63.02-2.57-.04-.92-.07-1.94-.17-3.05-.32-2.05-.23-5.3-.95-8.77-1.8-18.54-8.87-34.46-14.08-51.39-18.32-8.45-2.13-17.14-4.02-26.32-6.12-4.61-1.04-9.28-2.17-14.13-3.4-2.42-.62-4.83-1.28-7.33-1.96-2.33-.67-4.71-1.36-7.16-2.06-.47-.49-.92-.95-1.31-1.39-.34-.43-.65-.83-.93-1.2-.6-.76-.92-1.4-1.17-1.97-.55-1.15-.53-1.96-.37-2.61.35-1.29,1.52-1.91,2.85-2.37.73-.22,1.5-.39,2.22-.58.72-.19,1.54-.36,2.14-.64,1.23-.55,1.89-1.47,1.31-3.2-3.04.54-5.61,1.27-7.95,2.05-2.34.77-4.52,1.59-7,1.91-.47-.84.19-1.79,1.21-2.53,1.02-.75,2.35-1.42,3.22-1.89-.43-.13-.9-.12-1.37-.25-.47-.1-.95-.16-1.44-.18-.97-.15-1.95-.15-2.93-.04-1.96.12-3.87.7-5.88,1.1-.5.09-1.01.18-1.54.21-.57-.06-1.15-.17-1.76-.34-1.21-.34-2.52-.95-3.98-1.99-2.84-2.02-6.34-5.8-10.2-12.27-2.9-.12-4.88-1.69-6.25-4.35-1.28-2.62-1.98-6.32-1.9-10.4,0-.51,0-1.04.02-1.56.04-.52.09-1.04.13-1.57.1-1.05.18-2.15.4-3.21.09-.55.2-1.04.31-1.52.1-.48.21-.98.37-1.49.3-1.01.54-2.02.88-3.03,1.29-4.05,3.15-8.07,5.19-11.8l.54-1.06c.18-.4.38-.99.57-1.48.37-1.02.73-2.05,1.1-3.08.76-2.07,1.47-4.14,2.11-6.23.67-2.09,1.31-4.2,1.85-6.31.54-2.11,1.08-4.24,1.47-6.38,1.67-8.54,2.07-17.21.03-25.98,3.39-4.2,5.47-2.43,7.57.15,2.07,2.58,4.22,5.96,7.57,5.27-.09-13.53.51-23.36,1.01-31.08.59-7.78,1.02-13.42,1.42-18.75.17-2.7.29-5.35.43-8.17.09-2.85.18-5.86.28-9.26.19-6.89.24-15.34.94-26.9,4.23-4.7,8.59-8.91,12.83-12.33.53-.42,1.06-.8,1.59-1.2.52-.4,1.05-.79,1.57-1.12l1.51-1,1.49-.86c.48-.29.99-.56,1.5-.81l1.51-.78c1.08-.52,2.24-1.19,3.41-1.79-1.48.48-2.83.88-4.02,1.03-1.19.16-2.17.19-3.15.13-1.94-.13-3.5-.61-4.8-1.58-1.28-.95-2.27-2.35-2.9-4.16-.6-1.8-.93-4.01-.67-6.68.47-5.39,2.69-12.25,6.34-19.58,3.63-7.33,8.61-15.11,13.79-22.46-12.1,1.62-22.7,3.6-29.22,6.12,12.55-14.74,26.69-27.66,39.83-40.27,6.83-1.55,5.57,6.03,1.99,16.61,2.31-3.2,4.47-6.28,6.02-8.83,19.24-6.3,16.5,6.96,9.96,22.39-7.28,1.21-14.57,2.13-21.68,3.08-2.65,7.83-4.66,15.72-4.86,22.28-.08,3.29.25,6.25,1.1,8.73.86,2.49,2.23,4.51,4.16,5.95,1.24-3.35,5.03-8.35,10.24-13.2-1.13,4.07-1.32,7.17.81,7.58,2.34.36,4.39-5.54,9.17-13.84,6.68,2.58,13.42,5.15,20.23,7.66l-1.51-7.57,16.42-8.11,15.95-7.74c10.6-5.08,21.14-9.97,31.62-14.67,7.7-10.39,14.89-20.9,22.52-31.46,7.64-10.51,15.71-21.11,25.17-31.61,9.48-10.42,20.37-20.74,33.66-30.39,1.66-1.21,3.35-2.41,5.08-3.62,1.75-1.16,3.53-2.3,5.35-3.46,1.82-1.15,3.67-2.3,5.57-3.45,1.91-1.11,3.86-2.22,5.85-3.31,7.97-4.35,16.64-8.42,26.08-12.09-7.78,9.08-7.04,14.52-4.21,19.52,2.87,5.02,7.89,9.72,9.61,17.28-12.12-4.94-25.92,1.4-40.06,10.79-7.12,4.75-14.46,10.2-22.19,15.55-1.93,1.33-3.9,2.64-5.9,3.89-1.99,1.32-4.01,2.59-6.08,3.8-4.14,2.37-8.4,4.74-12.91,6.66,4.7-2.02,8.17-3.04,10.71-3.23,2.54-.19,4.11.31,4.99,1.2,1.76,1.78.78,5.07-.86,7.35,8.89-7.42,17.99-14.5,27.32-21.32,4.7-3.26,9.4-6.71,14.23-9.81,4.79-3.2,9.72-6.34,14.77-9.35,1.32,6.24,5.5,7.31,11.63,6.87,6.12-.44,14.3-2.36,23.32-2-4.75-5.22-4.48-9.63-.75-13.52,3.71-3.89,10.84-7.24,19.34-9.89,8.49-2.67,18.3-4.6,27.28-6.03,10.3-1.51,20.16-3.08,27.43-5.42,1.16,4.15.09,8.45-5.74,11.77-2.91,1.66-7.02,3.08-12.68,4.14-1.42.27-2.93.52-4.55.74-.81.1-1.64.2-2.5.31-.75.09-1.52.18-2.31.27-2.98.31-6.4.6-10.31.88,2.32.83,4.39,1.57,6.38,2.01,1.97.46,3.75.8,5.48.88.38.02.99.04,1.48.04.52,0,1.03,0,1.54-.03,1.01-.04,2-.13,2.97-.26,1.94-.26,3.79-.66,5.58-1.19,7.15-2.14,13.23-6.28,19.35-10.48,6.1-4.17,12.26-8.42,19.34-10.6,7.07-2.18,15.14-2.38,24.65,1.7-8.59.17-13.31-1.04-16.64,3.3,10.02-3.99,27.45-4.28,40.42-2.02,6.49,1.12,11.88,2.77,14.87,4.55,3,1.78,3.63,3.6.74,5.14-2.68-.24-5.4-.39-8.11-.56,1.68.22,3.42.46,5.2.69,1.77.25,3.59.52,5.45.78,3.95.58,8.09,1.18,12.38,1.81,8.7,1.27,18.01,2.63,27.59,4.03,19.29,2.8,39.97,5.76,59.45,7.91,9.74,1.07,19.18,1.92,27.96,2.43,4.39.25,8.61.42,12.69.49,4.06.07,7.88.02,11.44-.14,14.2-.65,24.13-3.08,27.3-7.9.1,2.81-12.35,23.8-16.71,27.38,19.79-8.51,39.22-17.11,58.96-25.25,9.87-4.07,19.83-8.02,29.96-11.78,5.08-1.88,10.14-3.72,15.37-5.47,2.65-.83,5.34-1.67,8.06-2.46,2.7-.75,5.44-1.49,8.21-2.21-3.82,3.62-5.03,9.67-5.79,16.55-.74,6.86-1.09,14.66-2.6,21.75-1.5,7.11-4.15,13.58-9.01,18.1-2.42,2.33-5.39,4.13-9,5.41-1.81.67-3.76,1.18-5.94,1.52-2.47.32-5.16.44-8.15.39,1.55.7,3.14,1.42,4.79,2.17.83.36,1.67.73,2.53,1.1.73.34,1.47.69,2.22,1.05,3.02,1.34,6.35,2.78,10.16,4.13,7.63,2.76,17.15,5.35,30.48,7.83-1.67-1.48-3.05-4.21-4.06-7.53-1.01-3.29-1.66-7.07-1.77-10.63-.22-7.11,1.76-13.18,7.92-11.54,5.98,8.03,9.75,13.37,12.8,17.33,3.03,3.94,5.29,6.53,7.81,9.12,2.5,2.64,5.26,5.28,9.12,9.55,3.86,4.28,8.82,10.1,15.57,19.27-4.8-5.17-.4-12.01,7.69-15.96,8.12-3.87,19.9-4.92,28.64,1.75-2.62.78-6.26,6.87-10.28,12.48-4.01,5.61-8.37,10.8-12.16,10.04,9.38.65,18.73,1.64,27.77,3.16l.84.13c.27.03.49.04.74.06l1.47.12c1,.07,1.99.19,2.99.33,2.03.24,4.07.61,6.17,1.04,2.09.44,4.2.98,6.34,1.61,2.1.66,4.35,1.33,6.29,2.33-1.27-.86-2.64-1.23-3.99-1.22-1.34,0-2.62.33-3.84.92-2.44,1.17-4.63,3.36-6.65,5.91-2,2.54-3.85,5.44-5.71,8.32-1.83,2.87-3.64,5.65-4.87,7.92.65-.84,1.28-.82,1.97-.13.09.09.17.18.26.28.04.04.11.15.11.12h.02s.01,0,.01,0c0-.02.07.13.1.18.34.64.69,1.32,1.07,2.03.43.77.87,1.59,1.34,2.43,1.04,1.81,2.2,3.78,3.73,6.03.78,1.18,1.42,2.03,2.15,3.03.36.48.73.98,1.11,1.47.36.45.72.91,1.09,1.37,2.98,3.7,6.04,6.9,8.58,9.4.59.58,1.19,1.17,1.8,1.76l.67.65.3.31c.4.42.81.84,1.22,1.27.82.87,1.63,1.79,2.35,2.8.73,1,1.3,2.12,1.92,3.17l.48.83.15.24.3.46.59.91c.79,1.2,1.56,2.39,2.33,3.55,1.53,2.3,3.03,4.42,4.44,6.4,1.42,1.94,2.76,3.69,4,5.22,1.24,1.51,2.37,2.76,3.38,3.75-1.66-4.12-3.33-8.31-4.98-12.55l-2.46-6.41-1.22-3.24-.6-1.62c-.04-.12-.12-.3-.13-.37l-.03-.23-.07-.47.19.38.1.19.19.32c.29.47.57.93.86,1.4.58.91,1.15,1.82,1.72,2.7,1.14,1.78,2.3,3.39,3.44,4.97,1.15,1.58,2.3,3.05,3.44,4.44,1.15,1.39,2.29,2.73,3.43,3.95,4.57,4.98,9.07,8.74,13.54,11.83,8.92,6.13,17.66,9.38,26.41,12.65,8.73,3.27,17.5,6.51,26.11,12.5,2.13,1.5,4.31,3.16,6.36,5.05,2.08,1.88,4.18,3.96,6.15,6.36,4.06,4.73,7.81,10.64,11.3,17.81-4.37-2.16-14.45-2.08-21.94,2.25-3.76,2.15-6.9,5.32-8.47,9.63-.78,2.14-1.18,4.63-1.07,7.47.12,2.8.74,6.05,2.02,9.7,4.78,1.63,12.81,4.28,22.76,8.27,9.95,3.98,21.84,9.37,34.3,15.55,6.22,3.09,12.62,6.33,18.95,9.64,3.18,1.64,6.37,3.29,9.49,4.96,1.56.81,3.12,1.63,4.71,2.46.77.41,1.54.83,2.31,1.25.78.43,1.57.87,2.36,1.3,12.57,7.07,24.41,14.81,34.52,23.73-.2,4.36-.29,8.71-.34,13.12,10.94,8.88,22.15,17.08,33.64,24.43-8.21-.68-19.54-2.69-32.58-6.4-13.05-3.67-27.78-9.1-42.58-15.97-7.41-3.42-14.82-7.19-22.05-11.19-3.64-2-7.17-4.04-10.7-6.17-3.52-2.26-7.13-4.56-10.44-6.92-13.5-9.42-25.06-19.17-33.71-27.11.64,3.25,1.04,5.85,1.28,8,.26,2.16.37,3.88.39,5.28.05,2.83-.28,4.45-.12,6.4.15,1.95.64,4.16,2.4,8.19.92,2.04,2.12,4.52,3.78,7.65.87,1.58,1.85,3.33,2.95,5.26,1.07,1.92,2.38,4.05,3.84,6.4.34,4.33-.85,5.62-3.01,4.88-1.08-.37-2.39-1.25-3.86-2.5-.73-.63-1.51-1.35-2.31-2.14-.78-.79-1.56-1.65-2.37-2.57-1.6-1.83-3.33-3.93-4.9-6.05-1.58-2.12-3.13-4.33-4.59-6.49-2.78-4.22-5.23-8.27-6.6-10.86,1.5,3.59,3.24,7.39,4.88,11.09l2.67,5.7,1.35,2.85,1.44,2.9,2.91,5.81,3.14,5.89,1.59,2.95,1.48,2.66,2.94,5.26c7.96,14,16.55,27.88,25.96,41.47,2.68-3.43,7.68-2.02,13.89,1.62,6.22,3.64,13.69,9.52,21.32,15.2,7.61,5.69,15.38,11.16,21.7,14.35,1.58.8,3.07,1.46,4.43,1.95.65.23,1.39.49,2.07.68.68.19,1.32.34,1.91.43,2.38.36,4.08-.15,4.91-1.77l-2.97-2.05-2.79-1.96-5.31-3.8-5.25-3.89-5.2-3.97c-6.9-5.34-13.66-10.89-20.28-16.62-13.23-11.46-25.83-23.67-37.86-36.36,2.9-3.21,8.92-3.34,16.78-1.1,7.89,2.22,17.68,6.77,28.4,12.9,10.74,6.13,22.42,13.81,34.24,22.53,2.95,2.19,5.93,4.43,8.88,6.75,1.47,1.17,2.98,2.32,4.45,3.52.74.6,1.48,1.21,2.23,1.81.78.62,1.56,1.24,2.34,1.87,1.56,1.26,3.1,2.54,4.63,3.84,1.56,1.26,3.13,2.53,4.71,3.8l2.33,1.94,1.16.99,1.19.94c1.59,1.26,3.16,2.55,4.72,3.87,1.13,1.96,1.62,3.61,1.53,5.12-.09,1.51-.75,2.85-1.84,4.05-2.16,2.37-6.09,4.24-10.44,5.49-4.36,1.28-9.23,2.12-13.2,2.92-3.92.73-6.93,1.45-7.52,2.78,1.43.23,3.41,1.09,5.95,2.14,2.52,1.08,5.49,2.54,8.74,4.23,3.3,1.56,6.87,3.4,10.58,5.28,1.85.9,3.75,1.82,5.66,2.75,1.9.94,3.8,1.92,5.71,2.78,15.22,7.32,29.64,13.49,31.7,16.61-10.14-1.18-20.55-3.09-31.15-5.62,2.04,1.68,4.13,3.04,6.22,4.33,2.1,1.26,4.21,2.46,6.33,3.42,2.12.96,4.25,1.81,6.38,2.57,1.07.38,2.13.75,3.2,1.06,1.06.3,2.13.59,3.19.85,2.13.53,4.25,1,6.38,1.42,2.12.4,4.23.68,6.34.98,2.11.28,4.23.58,6.32.78,2.08.21,4.18.42,6.28.63,16.76,1.73,33.14,3.7,51.03,17.27,3.41,1.28,7.06,3.87,11.02,7.01,3.91,3.13,8,6.75,11.87,9.94,7.73,6.38,14.68,11.01,17.19,6.54-8.96-12.37-10.19-33.14-6.98-52,3.21-18.87,10.85-35.85,19.93-40.79,2.15,1.25,18.06,10.55,35.26,20.42,8.69,4.96,17.67,10.1,25.37,14.49,7.77,4.48,14.33,8.43,17.86,11.34,5.04,4.54,5.25,8.73,2.8,12.69-2.43,3.94-7.56,7.71-12.89,11.21-10.61,7.07-22.3,13.38-13.14,21.66.87-2.19,4.88-4.02,9.41-5.55,4.52-1.48,9.54-2.63,12.45-3.14,1.9.78,3.04,1.53,3.84,2.29.79.77,1.2,1.55,1.4,2.32.4,1.55-.03,3.1.08,4.53.23,2.87,2.71,5.26,18.35,6.45,3.8-8.08,19.52-5.42,28.43-3.5,4.46.95,7.24,1.7,6.08.74-1.17-.95-6.27-3.63-17.78-9.35,15.52-.14,23.41,2.04,31.81,4.85,8.4,2.85,17.33,6.26,34.79,9.31-2.23-3.24-.97-6.78,2.73-10.24.97-.86,1.9-1.73,3.03-2.58,1.12-.84,2.38-1.7,3.79-2.48,1.4-.77,2.93-1.53,4.58-2.24,1.65-.68,3.42-1.34,5.28-1.94,7.46-2.38,16.52-3.74,25.47-4.32,8.97-.59,17.72-.56,25.08-.09-1.34,1.91-.76,4.61.6,7.27,1.35,2.59,3.48,5.18,4.94,6.72,1.96.39,3.89.78,5.79,1.16,1.88.38,3.73.75,5.55,1.2,3.64.83,7.14,1.79,10.52,2.8,6.77,2.03,13.08,4.35,19.01,6.91,11.86,5.1,22.24,10.95,31.98,17.37,2.44,1.59,4.82,3.26,7.2,4.92,2.36,1.71,4.68,3.39,7.07,5.18,4.75,3.55,9.49,7.19,14.29,10.97,9.6,7.59,19.44,15.78,30.22,25.33.18.84.51,1.85,1.02,3.04.5,1.11,1.08,2.43,1.71,3.85,1.2,2.74,2.41,5.82,3.01,8.65.6,2.83.62,5.36-.21,6.93-.83,1.58-2.44,2.16-5.2,1.49,3.02,1.55,6.49,2.89,10.02,5.65.44.35.87.72,1.32,1.11.48.47,1.05,1.12,1.58,1.71,1.06,1.18,2.39,2.85,3.57,4.28,1.22,1.52,2.45,3.07,3.65,4.72.52.73,1.07,1.49,1.63,2.28.5.71.99,1.46,1.47,2.25.15,3.96-.21,6.35-.78,7.71-.57,1.35-1.31,1.65-2.14,1.3-1.64-.73-3.84-3.99-6.32-7.23l-.46-.61-.6-.84c-.43-.6-.86-1.19-1.28-1.78-.92-1.25-1.82-2.48-2.66-3.62-.88-1.13-1.79-2.36-2.63-3.34-.45-.53-.79-.88-1.15-1.23-.36-.34-.71-.64-1.05-.89-.72-.57-1.23-.58-1.78-.51-.54.09-1.08.36-1.61.85-.26.24-.53.54-.79.89-.24.39-.4,1-.57,1.64-.16.66-.31,1.41-.43,2.27-.06.95-.05,2.07-.01,3.3,2.53-.49,6.37,2.07,10.5,5.43,1.65,1.01,3.42,2.27,5.23,3.89,1.82,1.6,3.68,3.53,5.4,5.75,1.72,2.22,3.27,4.75,4.35,7.51,1.04,2.76,1.89,5.68,2.81,8.63.22.74.44,1.48.66,2.22l.08.28.09.34.17.69.35,1.37c.44,1.81.88,3.59,1.31,5.33.43,1.74.84,3.43,1.25,5.07.39,1.63.79,3.22,1.2,4.74,1.9-.95,3.35-2.56,4.44-4.72,1.04-2.17,1.74-4.88,2.02-8.02.15-1.57.22-3.23.19-4.99-.02-1.68-.1-3.28-.28-5.02-.16-1.72-.4-3.49-.71-5.29-.3-1.8-.65-3.63-1.28-5.43-1.22-3.6-3.23-7.07-5.6-10.24-2.37-3.17-5.05-6.08-7.65-8.74l-.97-1c-.38-.41-.75-.82-1.12-1.23-.76-.85-1.51-1.69-2.26-2.52-.76-.88-1.52-1.75-2.26-2.61-.76-.92-1.51-1.83-2.24-2.72-.67-.82-1.32-1.62-1.97-2.41-.54-.57-1.04-1.14-1.57-1.67-1.02-1.07-2.05-2.04-3.02-2.92,4.45-2.81,10.2-3.79,16.98-1.76,3.47,1.18,7.29,2.89,11.31,4.83,1.01.49,2.02,1.01,3.07,1.56,1.03.53,2.1,1.15,3.21,1.84,2.2,1.35,4.48,2.91,6.8,4.69,4.62,3.57,9.37,8.11,13.33,13.85,2.01,2.86,3.64,6.05,5.03,9.48.68,1.72,1.36,3.49,2.01,5.32.64,1.83,1.26,3.72,1.87,5.66.3.98.59,1.96.89,2.96l.22.75.21.65.42,1.29c.56,1.73,1.07,3.52,1.6,5.32,1.02,3.62,1.97,7.39,2.8,11.32,1.65,7.85,2.85,16.34,3.29,25.38-.02,3.58-.09,6.83-.36,9.77-.12,1.47-.25,2.85-.41,4.17-.18,1.31-.37,2.55-.56,3.7-.37,2.32-.87,4.33-1.35,6.08-.48,1.75-.98,3.22-1.54,4.46-2.14,4.95-4.33,6.06-6.15,5.73-3.62-.7-6.07-6.94-5.86-1.91-.47,1.56-.94,3.09-1.4,4.59-.49,1.47-.97,2.92-1.44,4.34-.46,1.42-.91,2.82-1.35,4.2-.48,1.37-.95,2.71-1.41,4.03-.45,1.33-.89,2.63-1.32,3.91-.47,1.27-.93,2.52-1.39,3.75-.89,2.46-1.7,4.85-2.62,7.12-.9,2.28-1.64,4.53-2.5,6.65-.85,2.13-1.64,4.2-2.39,6.22-.79,2.01-1.56,3.94-2.3,5.81-.36.95-.71,1.88-1.06,2.8-.37.91-.73,1.8-1.08,2.68-5.59,14.14-9.49,25.24-13.79,35.6-4.34,10.3-9.25,19.87-18.06,29.28-2.2,2.38-4.65,4.63-7.38,7-2.74,2.33-5.77,4.54-9.14,6.87-5.91,3.89-13.06,7.9-22.12,12.17-8.28,1.89-13.55,1.54-16.86-.14-3.31-1.67-4.7-4.65-5.42-7.96-1.41-6.62-.24-14.58-5.84-16.51,7.43-6.94,14.49-12.31,21.33-16.65,1.71-1.08,3.4-2.11,5.08-3.08,1.69-1,3.37-1.97,5.04-2.88,3.36-1.8,6.56-3.63,9.76-5.3,3.18-1.72,6.26-3.45,9.31-5.17,1.5-.91,2.98-1.81,4.46-2.71,1.48-.91,2.95-1.83,4.35-2.84,2.83-1.99,5.64-4.02,8.23-6.39,1.3-1.17,2.62-2.34,3.86-3.63,1.23-1.3,2.43-2.65,3.6-4.05-9.42,7.77-19.33,14.42-29.44,20.27,1.81-2.93,4.17-6.56,6.98-10.32,1.35-1.94,2.81-3.93,4.34-5.91,1.52-2,3.02-4.1,4.62-6.1,6.3-8.14,12.63-16.31,18.33-21.48-6.11,3.79-14.9,13.38-27.51,24.55-6.25,5.63-13.5,11.61-21.53,17.68-1.98,1.55-4.06,3.05-6.16,4.57-2.09,1.53-4.23,3.08-6.44,4.65-4.38,3.14-8.86,6.36-13.41,9.63-9.09,6.53-18.49,13.21-28.12,19.56-9.64,6.32-19.5,12.32-29.44,17.52-4.98,2.58-9.94,5.03-14.9,7.19-4.94,2.23-9.85,4.15-14.7,5.86-9.7,3.43-19.11,5.92-27.84,7.62-10.16,8.53-29.59,19.87-18,21.69,6.95-3,13.91-6.05,20.81-9.21,5.83.77,6.59,2.9,4.83,5.69-1.76,2.77-6.06,6.12-10.2,9.15-4.14,3.04-8.09,5.78-9.21,7.5-1.1,1.71.6,2.42,7.9,1.26-3.32,2.17-6.68,4.38-10.11,6.62-.85.56-1.7,1.12-2.55,1.69-.85.57-1.74,1.14-2.46,1.68-1.52,1.1-3.04,2.15-4.57,3.3-6.14,4.48-12.43,9.27-19.3,14.07-6.87,4.8-14.3,9.62-22.78,14.13-8.5,4.5-18.02,8.7-29.01,11.99l-7.01-5.26c-2.33-1.76-4.5-3.59-6.77-5.38.33.47,1.03.77,2.02.93.98.16,2.25.18,3.84.01,3.13-.3,7.13-1.18,11.29-2.49,8.33-2.63,17.18-6.93,21.52-11.61-3.26,3.45-9.12,5.8-16.42,7.81-3.65,1-7.63,1.9-11.79,2.78-4.1.83-8.32,1.7-12.56,2.56-16.44,3.43-32.44,8.74-36.94,21.92,10.44-.97,20.87-1.86,31.28-2.66-12.09,9.68-24.75,22.12-38.73,33.69-13.99,11.57-29.3,22.23-46.98,28.39,10.94,3,12.64,1.66,15.57.09,2.92-1.56,7.07-3.4,22.73-1.17-15.05-4.91,6.29-15.14,26.16-24.34,9.93-4.61,19.48-8.97,23.87-12.56,4.39-3.59,3.65-6.45-7.09-7.91,8.28,1.86,15.28,2.13,21.74,1.49,3.24-.31,6.34-.86,9.4-1.54,3.4-.85,6.92-1.89,10.28-2.96,6.81-2.15,13.63-4.51,21.09-6.24,7.45-1.72,15.59-2.84,24.77-2.26-1.48-2.11-5.19-3.03-5.04-4.73.07-.85,1.11-1.9,3.77-3.29.67-.35,1.44-.73,2.32-1.13.87-.38,1.85-.79,2.95-1.23,1.11-.45,2.33-.9,3.65-1.35,1.33-.46,2.81-.98,4.36-1.44.52-1.82,2.4-4.63,3.6-6.27.78-.16,1.07-.19,1.75-.29-.55,0-.98-.06-1.54-.03.76-1.12.8-1.3-.57,0-6.53.21-12.52-.06-15.7-1.73,1.04-2.07,2.53-4.06,4.48-6.12,1.9-1.99,4.23-4.02,6.78-5.91,1.29-.98,2.62-1.89,4.01-2.8,1.4-.93,2.83-1.8,4.3-2.65l1.11-.64.56-.32.28-.16.35-.18c.93-.47,1.86-.94,2.8-1.41,1.9-.93,3.82-1.87,5.74-2.81,7.75-3.74,15.8-7.45,22.9-11.13,7.09-3.66,13.17-7.27,16.93-10.46,10.05-2.94,8.67-.84,6.25,2.22-2.4,3.01-5.86,6.81.55,7.07,3.87-3.27,7.7-6.58,11.49-10.03,1.89-1.69,3.76-3.47,5.62-5.2l5.35-5.25c1.93,2.19,6.52,2.63,11.79,2.49,2.6-.1,5.37-.34,8.03-.58,2.64-.26,5.16-.52,7.32-.61,4.31-.18,7.09.3,6.32,2.89-.38,1.3-1.68,3.1-4.21,5.57-2.51,2.48-6.28,5.61-11.67,9.47,6.98-3.68,13.83-7.53,20.44-11.5,3.35-1.97,6.56-4,9.82-6.01,3.18-2.03,6.4-4.06,9.48-6.11,12.73-4.74,26.3-11.85,37.86-19.33,1.44-.93,2.87-1.89,4.27-2.84,1.38-.94,2.73-1.89,4.06-2.85,1.34-.97,2.6-1.91,3.85-2.87.62-.48,1.23-.96,1.84-1.44.67-.54,1.33-1.07,1.98-1.6,2.93-2.42,5.67-4.77,8.2-7.23,2.53-2.5,4.84-4.93,6.87-7.36,2.47-1.69,4.92-3.73,7.28-5.96,2.36-2.29,4.62-4.85,6.74-7.4,4.22-5.24,7.79-10.7,10.35-15.18,2.6-4.36,4.17-7.77,4.69-8.51.5-.78-.03,1.03-2.11,6.6,8.62-11.11,16.63-23.3,23.35-36.23,6.73-12.93,12.12-26.53,16.04-40.07l2.89.27c.94-2.44,1.86-4.9,2.74-7.38.85-2.47,1.58-4.95,2.33-7.44.37-1.25.74-2.48,1.09-3.76l.98-3.92c.31-1.31.65-2.62.93-3.94l.8-3.95c2.06-10.56,3.12-21.22,3.42-31.62.31-10.41-.18-20.53-1.03-30.26-.22-2.43-.44-4.86-.71-7.23l-.39-3.57-.43-3.51c-.7-5.7-1.4-11.43-2.1-17.18-.43-3.2-.97-6.38-1.5-9.57-.34-1.58-.66-3.16-1.04-4.73-.42-1.56-.78-3.14-1.27-4.68-1.86-6.21-4.31-12.25-7.13-18.13-2.82-5.88-6.04-11.61-9.33-17.33-2.7-4.73-3.59-6.51-4.68-9.2l-.53-1.29c-.05-.14-.29-.65-.44-.99l-.52-1.15c-.69-1.53-1.42-3.04-2.15-4.56-1.47-3.03-3.05-6.02-4.72-8.99-3.32-5.93-7.07-11.7-11.18-17.29-2.06-2.79-4.2-5.56-6.44-8.28-2.1-2.53-4.21-5.07-6.32-7.61-3.24-4.15-6.38-8.29-9.63-12.6-10.42-6.73-21.47-13.06-33.75-20.32-3.04-1.81-6.18-3.68-9.46-5.64-3.33-2.02-6.79-4.13-10.41-6.33-7.72-4.69-16.17-9.72-25.74-15.09-1.21-4.12-2.52-8.27-3.93-12.42-8.3-2.68-18.32-6.77-29.33-10.84-10.99-4.08-22.98-8.12-34.71-11.07-1.47-.35-2.93-.7-4.38-1.04-.73-.17-1.45-.33-2.17-.5l-1.05-.24-.38-.13c-.5-.18-1-.34-1.5-.49-.48-.14-1.06-.35-1.57-.51-1.01-.29-2.18-.67-3.26-.95-.59-.16-1.16-.31-1.72-.46-.58-.15-1.14-.27-1.71-.39-1.23-.29-2.36-.48-3.52-.65-1.21-.19-2.34-.27-3.42-.28-2.31-.08-4.24.26-5.94,1.03-.54-1.03-1.15-2.04-1.84-3.03-.75-1.01-1.58-2-2.48-2.97-.86-.96-1.95-1.95-3.08-2.9-.57-.48-1.15-.96-1.75-1.43-.62-.48-1.31-.96-2-1.43-5.46-3.77-12.92-7.54-22.74-10.87-1.24-.41-2.42-.83-3.76-1.22-1.32-.38-2.66-.77-4.01-1.15-1.15-.32-2.31-.64-3.48-.96-.98-.26-1.97-.53-2.97-.79-4-1.04-8.16-1.99-12.42-2.86-8.52-1.74-17.48-3.15-26.55-4.34-18.15-2.37-36.72-3.79-53.54-5.3-4.21-.38-8.31-.76-12.27-1.17-1.88-.2-3.74-.41-5.56-.6-1.56-.2-3.09-.39-4.59-.58-6.03-.89-11.58-2.03-16.42-3.58l-3.95,12.15c-13.91-3.1-28.06-5.78-43.74-8.43-7.85-1.34-16.07-2.68-24.85-4.09-4.43-.71-8.96-1.43-13.61-2.17-4.6-.72-9.31-1.45-14.17-2.21l-.91,11.41c-8.61-.12-17.75-2.22-27.05-5.67-9.3-3.45-18.74-8.26-27.72-13.83-8.99-5.58-17.46-11.92-25.2-18.41-7.77-6.51-14.83-13.12-21.96-19.67,1.24-.32,2.55-.1,3.87.51,1.32.6,2.6,1.65,3.99,2.8.68.59,1.34,1.25,1.98,1.96.64.73,1.28,1.47,1.92,2.2,1.3,1.48,2.46,3.12,3.49,4.71-.71-1.52-1.4-3.01-2.15-4.4-.37-.7-.75-1.39-1.14-2.05l-1.09-2.05c-.74-1.34-1.51-2.61-2.31-3.83-.74-1.29-1.5-2.52-2.31-3.7-.41-.6-.81-1.16-1.25-1.75-.53-.72-1.06-1.43-1.61-2.13-1.09-1.4-2.22-2.77-3.35-4.14-2.29-2.71-4.65-5.37-7.11-7.97-9.79-10.4-20.88-20.2-31.74-30.69-5.42-5.24-10.78-10.62-15.84-16.24-1.27-1.4-2.51-2.82-3.73-4.25l-1.82-2.15-1.61-1.97c-1.05-1.32-2.11-2.59-3.11-3.98-1-1.39-1.98-2.8-2.94-4.21-3.79-5.79-7.09-12.05-9.68-18.83-2.6-6.83-4.48-14-5.53-21.76-1.23-1.43-2.4-2.95-3.46-4.39-1.07-1.47-2.02-2.88-2.93-4.33-1.84-2.93-3.26-5.71-4.57-8.6-1.29-2.87-2.28-5.66-3.23-8.56-.93-2.88-1.64-5.71-2.41-8.67.75,1.37,1.6,2.53,2.43,3.41-.61-1.55-1.83-3.86-3.06-6.17-.83-3.72-1.86-7.65-2.89-11.65-.51-2-1.17-4.07-1.81-6.14-.67-2.08-1.29-4.18-2.14-6.34.46,1.99.81,3.91,1.21,5.79.4,1.88.8,3.7,1.23,5.46.79,3.5,1.61,6.72,2.61,9.6-3.3-5.75-7.68-12.91-13.47-20.62-.71-.96-1.44-1.93-2.16-2.9-.72-.9-1.44-1.81-2.17-2.72-1.46-1.83-2.97-3.65-4.51-5.41-1.54-1.79-3.1-3.57-4.68-5.28-1.59-1.74-3.19-3.44-4.8-5.08l5.2-13.35c-1-1.1-1.69-2.09-2.75-3.17-.85-2.08-1.7-3.79-2.52-5.11-.81-1.31-1.61-2.26-2.38-2.9-1.55-1.29-2.99-1.32-4.28-.45-2.6,1.72-4.58,7.1-5.5,13.45-6.84-5.9-13.41-10.66-19.28-13.69,2.31-6.75.48-12.13-2.97-17.09-1.69-2.47-3.82-4.84-5.97-7.2-1.1-1.19-2.18-2.37-3.25-3.57l-1.6-1.82-.21-.24-.3-.4-.6-.8-1.19-1.6c-2.08-2.78-4.04-5.62-6.1-8.33-2.05-2.73-4.09-5.39-5.98-8.11-1.89-2.72-3.64-5.5-5.09-8.49-.21-.41-.16-.57-.2-.84,0-.12-.03-.25-.02-.37l.04-.32c.08-.42.12-.89.28-1.3.2-.38.42-.76.66-1.16.12-.2.33-.33.49-.51l.14-.12-.84.81c-.65.61-1.31,1.23-1.95,1.84-1.59,1.46-3.44,3.17-5.56,5.12-.89.8-1.85,1.63-2.88,2.49-.75.64-1.53,1.31-2.36,2.01-.77.64-1.59,1.29-2.47,1.95-.25.18-.38.29-.53.41l-.46.36c-.31.24-.63.48-.96.73-.34.24-.68.48-1.03.72l-.54.36c1-.69-8.87,6.11-4.68,3.22l.02-.02.05-.04.1-.07.2-.14c.53-.37,1.08-.72,1.66-1.04.92-.58,1.89-1.15,2.89-1.68l.38-.2.56-.31c.41-.22.82-.44,1.23-.67.83-.44,1.68-.87,2.54-1.29.46-.22.93-.44,1.4-.67.73-.36,1.47-.73,2.21-1.09.75-.35,1.5-.71,2.25-1.07l1.14-.52c-7.15,3.3,9.92-4.57,8.14-3.77l-.02-.04-.04-.08-.08-.15-.31-.6-.27-.46c-.18-.31-.37-.62-.55-.93-1.49-2.5-3.05-5.19-4.79-7.94-1.75-2.75-3.67-5.6-5.93-8.37-2.26-2.78-4.88-5.42-7.58-8.07-5.45-5.26-11.52-10.32-17.81-14.9-1.58-1.13-3.17-2.25-4.76-3.34-1.45-.93-2.77-1.74-4.14-2.59-2.72-1.62-5.42-3.13-8.06-4.48-5.29-2.7-10.39-4.84-15.1-6.32-9.43-2.93-17.3-3.27-22.13-.02.47-1.33-.23-2.96-.02-3.65.23-.67,1.26-.51,5.54,2.08l-3.01-2.41-2.92-2.3c-1.94-1.54-3.92-3.04-5.92-4.5-1.99-1.47-4-2.9-6.05-4.26-2.04-1.37-4.1-2.69-6.22-3.92-8.4-4.94-17.32-8.7-26.77-10.05-.3-5.83-.69-11.69-1.17-17.59-16.79-.31-33.49.16-49.88,2.01-1.45-1.09-2.84-2.14-4.17-3.15-1.36-1-2.67-1.96-3.91-2.87-2.48-1.88-4.78-3.53-6.76-5.1-.99-.78-1.9-1.54-2.73-2.27-.83-.73-1.46-1.38-2.07-2.03-1.18-1.3-2.02-2.51-2.45-3.65-.87-2.27-.13-4.22,2.62-5.93.69-.43,1.5-.84,2.45-1.23.47-.2.98-.39,1.52-.58.27-.09.55-.19.84-.28.31-.08.64-.16.97-.24,2.67-.62,6.01-1.19,10.01-1.57-2.31-.1-4.58-.11-6.73-.17-1.07-.02-2.13-.05-3.16-.07-1.04-.03-1.87.03-2.79.03-3.55.06-6.83.11-9.87.15-6.05.07-11.08.1-15.45.05-8.73-.09-14.77-.43-20.52-.74-11.46-.56-21.84-.84-48.62,3.41l4.23-9.29c-9.04-1.46-21.25-.21-32.3.07-11.14.26-21.31-.39-25.98-5.44-9.21-6.52-26.31-12.37-48.81-17.63-11.25-2.62-23.84-5.08-37.48-7.29-6.83-1.08-13.9-2.14-21.22-3.08-1.83-.23-3.67-.47-5.53-.71-1.96-.22-3.93-.44-5.91-.66-1.99-.23-3.97-.41-5.96-.59-1.99-.17-4-.38-5.99-.52-32.07-2.52-65.23-1.66-96.77-.82-3.93.1-7.85.2-11.76.3-1.94.05-3.88.09-5.81.14l-1.45.03-1.67.07-3.35.14c-8.9.41-17.43,1.1-25.69,1.9-16.48,1.65-31.91,3.7-46.46,5.55,7.38,5.5,7.52,8.4,3.82,9.94-3.7,1.57-11.34,1.83-19.86,2.44-8.52.6-17.95,1.47-25.06,3.83-3.55,1.19-6.51,2.66-8.44,4.55-1.94,1.86-2.79,4.24-2.25,7.06-4.36-1.91-10.69-2.21-14.06-3.58-3.31-1.32-3.83-3.92,3.85-10.34-6.67,3.62-12.81,6.99-18.77,9.87-2.94,1.49-5.79,2.91-8.6,4.24-2.81,1.31-5.53,2.58-8.2,3.83-2.65,1.23-5.26,2.4-7.81,3.53-2.56,1.12-4.99,2.27-7.43,3.35-2.42,1.09-4.8,2.15-7.13,3.2-2.29,1.09-4.54,2.16-6.76,3.22-17.65,8.6-32.23,18-43.29,36.54-9.21-2.28,4.64-15.05-2.39-15.37-1.51,1.87-4.5,5.57-7.95,8.79-3.42,3.23-7.36,5.96-10.95,5.88-7.02-.21,3.58-9.39,9.54-16.84-12.05,8.21-20.37,15.75-26.05,22.64-5.69,6.9-8.74,13.17-10.11,18.98-2.73,11.61,1.28,21.4,5.38,30.7-1.72.52-3.39,1.02-5.01,1.51-1.57.49-3.09.98-4.57,1.5-2.93,1.02-5.7,2.11-8.24,3.26-5.13,2.34-9.5,4.99-13.32,8.19-7.61,6.37-13.08,14.91-17.38,26.97-6.15.91-13.93,3.45-16.72,2.31-.7-.31-1.08-.87-1.03-1.78.04-.93.52-2.17,1.54-3.81.51-.82,1.16-1.75,1.95-2.8.8-1.04,1.74-2.13,2.85-3.37.56-.62,1.15-1.27,1.79-1.94.65-.65,1.33-1.33,2.04-2.04.73-.7,1.5-1.45,2.31-2.23.82-.74,1.67-1.51,2.57-2.32-2.21,1.58-5.6,3.97-9.85,7.22-4.24,3.2-9.35,7.38-14.87,12.49-1.38,1.3-2.79,2.58-4.2,4.04-.71.73-1.44,1.46-2.16,2.2-.75.76-1.5,1.54-2.28,2.42-1.54,1.7-3.08,3.45-4.56,5.28-1.53,1.82-2.91,3.69-4.3,5.52-5.37,7.31-9.85,14.71-13.64,21.89-3.77,7.16-6.91,14.14-9.37,20.56-2.49,6.44-4.3,12.29-5.55,17.45-2.44,10.33-2.36,17.71,1.22,19.5-2.96,2.34-5.56,9.01-7.24,15.82-.85,3.4-1.44,6.85-1.85,9.78-.38,2.94-.52,5.38-.44,6.79-2.8,9.23-4.94,16.73-6.68,23.31-.44,1.64-.86,3.22-1.26,4.75-.38,1.54-.76,3.03-1.12,4.48-.36,1.46-.71,2.87-1.05,4.27-.32,1.4-.63,2.78-.94,4.15-.62,2.73-1.21,5.43-1.74,8.21-.55,2.77-1.09,5.6-1.56,8.62-.24,1.51-.49,3.06-.74,4.66-.22,1.62-.44,3.29-.67,5.02-.22,1.74-.48,3.54-.65,5.44-.2,2.03-.42,4.15-.64,6.38-.07,1.03-.15,3.45-.3,6.69-.11,1.62,0,3.46,0,5.43,0,1.98.15,4.09.32,6.28l.48-3.94.68-3.9c.41-2.59,1.08-5.14,1.69-7.67,2.2,2.91,3.86,5.66,5.33,8.4,1.36,2.73,2.52,5.43,3.34,8.21.39,1.39.84,2.78,1.15,4.21.32,1.43.58,2.89.88,4.37.28,1.49.49,3.01.72,4.58.26,1.58.49,3.19.68,4.79.88,6.38,1.78,13.37,3.62,20.84,1.83,7.45,4.58,15.37,8.9,23.31l-2.23-.11c.7,2.52,1.38,4.95,2.04,7.17.34,1.12.66,2.2.98,3.27.46,1.27.91,2.5,1.34,3.71,1.87,4.85,3.92,9.28,6.23,13.18,1.08,1.97,2.32,3.77,3.44,5.48,1.17,1.68,2.35,3.24,3.48,4.69,1.17,1.41,2.28,2.75,3.38,3.93,1.11,1.17,2.16,2.27,3.18,3.26,1.03.96,2.01,1.84,2.94,2.66.94.83,1.83,1.5,2.69,2.17,1.72,1.35,3.25,2.34,4.69,3.25,2.85,1.75,5.24,2.92,7.55,3.96,4.64,2.1,9.07,4.03,16.4,8.53,3.69,2.26,8.18,5.21,13.91,9.02,5.74,3.86,12.73,8.52,21.47,14.28.14-4.26.31-8.51.52-12.76,4.25-5.23,9.98-5.26,17.04-2.45,7.06,2.81,15.49,8.51,25.07,14.85,9.57,6.35,20.27,13.37,31.5,18.94,1.4.69,2.81,1.37,4.23,2.01l2.14.96,2.3.93c1.54.61,3.08,1.19,4.62,1.73,1.54.52,3.09,1,4.64,1.45,3.1.91,6.19,1.55,9.28,2.07,3.08.45,6.15.77,9.17.77-2.54-1.7-5.07-3.5-7.57-5.23-2.51-1.78-4.99-3.57-7.45-5.38,6.79-.53,13.91,2.28,21.44,6.83,7.52,4.54,15.44,10.82,23.49,17.33,16.06,13.02,32.62,26.9,45.12,29.89,5.29,2.84-9.11,2.64-17.2,3.29,8.21,2.93,14.49,4.81,19.31,5.95.3.07.6.14.89.2.29.07.56.13.94.19.71.11,1.39.22,2.05.33,1.31.2,2.52.35,3.63.46,2.22.22,4.05.27,5.55.19,5.96-.48,6.72-3.06,6.89-6.18.15-3.14-.26-6.89,2.91-9.94,1.58-1.53,4.06-2.84,7.84-4.03,1.9-.58,4.14-1.09,6.78-1.51,2.63-.46,5.62-.93,9.1-1.27,5.36,4.04,2.34,9.54,2.62,14.06.17,2.26,1.21,4.28,4.66,5.62,1.73.67,4.08,1.19,7.23,1.49,3.13.28,6.97.25,11.82-.03,2.48.6,5.96.35,10.31-.45,2.2-.38,4.48-1.01,6.99-1.71,2.48-.73,5.22-1.52,7.94-2.52,11.15-3.83,24.01-9.59,37.09-15.36,13.13-5.77,26.41-11.52,39.22-15.22,12.92-3.74,25.76-5.59,37.28-3.92-10.77-4.36-21.48-8.7-.94-18.16,16.32-4.72,40.11-3.47,63.29-4.66,23.13-1.14,45.78-4.88,58.57-18.73,4.74.64,6.8,1.86,7.38,3.39,1.54-.74,3.21-1.5,4.99-2.29,1.73-.76,3.55-1.56,5.46-2.4,3.79-1.63,7.98-3.36,12.37-5.15,8.8-3.58,18.54-7.47,27.98-11.56,9.43-4.09,18.55-8.42,26.05-12.73,7.51-4.34,13.39-8.64,16.4-12.57,9.15,7.88,23.8,7.22,40.69,1.06,8.44-3.06,17.23-7.44,25.83-12.53,8.61-5.08,17.08-10.85,25.11-16.63,16.08-11.58,30.48-23.18,42.12-29.67,11.64-6.51,20.57-7.93,25.3.38l8.54-5.32,9.12-5.76c6.04-3.97,12.08-7.92,18.02-12.13,11.91-8.35,23.63-17.2,35-26.76l.6,4.49c2.93-2.04,5.63-4.24,8.24-6.29,2.6-2.07,5.07-4.08,7.36-6.17,2.3-2.06,4.48-4.06,6.54-6.01,2.03-2,3.92-4,5.72-5.91,3.62-3.79,6.66-7.62,9.37-11.2,2.74-3.53,4.96-7.11,6.94-10.42.98-1.67,1.91-3.27,2.74-4.88.81-1.63,1.56-3.22,2.25-4.77.69-1.55,1.33-3.07,1.92-4.55.59-1.48,1.15-2.93,1.6-4.41,1.86-5.89,3.25-11.23,4.25-16.77,4.91-4.69,6.72-4.61,7.4-3.03.69,1.57.23,4.63.72,5.68,7.06-8.28,12.8-16.22,17.73-23.6,1.11-1.66,2.19-3.28,3.25-4.85.96-1.45,1.88-2.87,2.79-4.25,1.79-2.76,3.5-5.42,5.1-7.96,6.38-10.18,11.15-18.82,15-27.6,3.86-8.79,6.84-17.69,9.68-28.54,2.82-10.84,5.58-23.56,8.67-40.06,4.69-.11,9.38-.26,14.09-.43.18-2.39,1.41-5.58,3.35-9.61.98-2.01,2.16-4.2,3.5-6.57,1.33-2.39,2.81-4.99,4.44-7.74,1.64-2.77,3.38-5.73,5.22-8.85.93-1.57,1.88-3.17,2.85-4.82.96-1.67,1.93-3.38,2.93-5.12,2-3.49,4.09-7.14,6.14-11.01,1.03-1.93,2.08-3.89,3.15-5.88,1.05-1.99,2.05-4.01,3.09-6.06,8.3-16.42,16.2-34.99,22.17-54.38,5.91-19.38,9.88-39.56,10.45-58.99,1.2,1.04,3.23,3.1,3.57,9.44.64-10.95,2.19-22.15,4.31-33.5,1.04-5.67,2.25-11.38,3.53-17.11,1.37-6.03,2.74-12.11,4.12-18.2,2.77-12.34,5.58-24.89,7.8-37.63,2.24-12.72,3.99-25.58,4.88-38.29.87-12.72.72-25.35-.47-37.3-.36-3.01-.75-5.96-1.18-8.85-.11-.72-.22-1.44-.33-2.16-.14-.72-.28-1.44-.43-2.16-.3-1.43-.6-2.84-.9-4.24-.31-1.39-.63-2.77-.96-4.13-.17-.68-.34-1.35-.51-2.02-.2-.67-.4-1.34-.6-2.01-.81-2.66-1.66-5.24-2.55-7.73-.84-2.48-1.96-4.9-3.02-7.21-1.08-2.31-2.2-4.52-3.36-6.61-2.5-4.19-5.2-7.98-7.99-11.14-2.66-2.54-5.44-4.68-8.45-6.38-3.02-1.7-6.2-2.95-9.57-3.71-11.05-16.44-23.14-32.73-36.57-47.77,4.58,8.47,7.34,14.9,8.92,19.63,1.6,4.73,2.03,7.76,1.74,9.55-.59,3.57-4.14,2.21-8.35-.21-4.28-2.41-9.27-5.84-12.78-6.73-3.49-.9-5.35.64-3.55,7.92-3.86-5.82-7.29-13-10.29-20.03-3-7.02-5.42-13.99-6.87-19.39-1.38-5.44-1.72-9.34-.11-10.25.8-.45,2.06-.13,3.87,1.16,1.79,1.3,4.08,3.62,6.92,7.14l1.29,5.92c3.37-.27,5.22-1.71,5.84-4.11.6-2.39.08-5.8-1.48-9.78-3-8-9.97-18.48-17.94-28.37-3.94-4.82-7.95-9.74-11.88-14.2-1.93-2.27-3.8-4.48-5.58-6.58-1.8-2.07-3.46-4.07-4.96-5.96-2.95-3.83-5.32-7.09-6.52-9.8-1.19-2.71-1.24-4.82.3-6.12-11.04-9.96-22.29-19.54-33.78-28.64-11.5-9.07-23.17-17.76-34.97-26.1-11.84-8.26-23.79-16.19-35.83-23.82-12.07-7.56-24.2-14.8-36.43-21.8-6.67-3.68-13.15-6.55-19.05-8.93-5.92-2.38-11.35-4.33-16.23-6.1-9.75-3.5-17.32-6.51-21.99-9.32-17.08-9.86-34.08-19.67-50.97-29.43-16.63-9.64-33.81-20.05-52.26-30.11-9.22-5.03-18.74-9.96-28.63-14.64-2.49-1.15-4.98-2.29-7.46-3.44-2.34-1.04-4.67-2.08-7-3.12-4.69-2.08-9.55-4.14-14.44-6.16,2.71,7.68,5.25,15.31,7.57,22.94-14.19-6.4-29-12.72-44.77-18.22-2.83-2-5.04-4.21-6.3-6.17-1.26-1.96-1.49-3.73-.22-4.89.63-.58,1.64-1.02,3.09-1.25,1.42-.21,3.26-.22,5.59.04,2.34.25,5.05.82,8.33,1.68,3.21.9,6.94,2.12,11.09,3.77-3.5-4.07-9.14-6.89-15.72-8.63-6.62-1.73-14.13-2.39-21.32-2.18-7.2.21-13.97,1.22-19.04,2.53-5.05,1.27-8.38,2.79-8.8,3.73-2.35-.59-4.54-1.13-6.54-1.58-1.99-.47-3.81-.91-5.48-1.3-.83-.21-1.61-.41-2.36-.59-.73-.19-1.43-.37-2.09-.54-1.31-.35-2.52-.72-3.53-1.04-2.04-.65-3.57-1.3-4.64-1.92-1.05-.62-1.65-1.22-1.89-1.82-.47-1.2.53-2.36,2.51-3.46,2.05-1.07,5-2.12,8.62-2.96,1.76-.45,3.74-.81,5.74-1.16,1.97-.37,4.12-.62,6.18-.87,2.06-.27,4.11-.41,6.01-.58,1.9-.15,3.71-.32,5.2-.41,6.06-.43,8.68-.91,2.42-2.15-1.44-.19-2.83-.41-4.32-.57l-4.42-.47c-2.95-.34-5.87-.51-8.77-.72-5.7-.33-11.08-.44-16.21-.46l6.93,2.54c-1.68.34-3.16.74-4.59,1.13s-2.78.79-4,1.21c-1.24.42-2.42.83-3.55,1.24-1.1.43-2.16.85-3.19,1.25-4.13,1.65-7.65,3.23-11.63,4.53-3.91,1.3-8.24,2.33-13.48,2.8-1.29.11-2.7.21-4.08.23-.7,0-1.43.01-2.17.02-.73,0-1.45-.04-2.22-.07-1.55-.05-3.05-.2-4.68-.37-.8-.09-1.57-.23-2.4-.35-1.08-.18-2.2-.36-3.34-.55-13.44-3.82-16.65-6.78-17.85-9.41-1.19-2.56-.38-4.65-5.78-5.45.21-1.25-3.56-2.33-16.49-1.68-20.93-1.64-40.85-2.08-59.64-2.65,7.51,4.83,15.19,9.65,22.96,14.53-12.99,3.46-26.27,3.3-33.06,4.21-3.41.46-5.22,1.21-4.61,2.89.61,1.68,3.67,4.29,10.16,8.4-2.37-1.59-5.29-3.01-8.6-4.31-1.66-.65-3.42-1.26-5.31-1.84-1.98-.58-4.08-1.12-6.28-1.63-8.81-2.02-19.33-3.41-31-4.09-23.33-1.39-51.33.29-78.65,4.81-3.41.57-6.81,1.19-10.2,1.8-3.38.68-6.74,1.32-10.06,2.03-3.25.72-6.47,1.44-9.66,2.15-2.9.66-5.76,1.31-8.58,1.95-11.39,2.55-22.52,4.92-32.66,7.09-10.14,2.16-19.27,4.09-26.72,5.55-3.72.73-7.02,1.32-9.81,1.72-2.8.42-5.08.62-6.77.57-8.65,5.13-17.42,9.9-26.37,14.69l-1.68.88c-.32.16-.45.25-.65.36l-.56.33-2.25,1.29c-1.55.79-3.09,1.6-4.73,2.29-3.23,1.45-6.75,2.6-10.46,3.65-3.74,1.02-7.79,1.86-12.12,2.6-4.35.73-9.07,1.37-14.07,2.01-5,.63-10.4,1.31-16.03,2.12-2.81.39-5.72.86-8.66,1.35-1.1.16-2.21.32-3.33.48-1.07.15-2.13.32-3.22.41,2.26.45,4.44,1.6,6.06,3.28.41.41.75.86,1.1,1.32.38.45.7.93.93,1.42.47.99.61,2.07.35,3.18-.06.28-.15.56-.27.84-.1.28-.19.55-.33.82-.26.55-.62,1.1-1.08,1.64-.93,1.07-2.29,2.18-4.19,3.1-3.78,1.86-9.73,3.27-18.33,3.1,1.41-4.25,1.4-7.61.43-10.31-.98-2.7-2.9-4.7-5.56-6.36-5.32-3.25-13.51-4.98-23.53-7.17-10-2.15-21.77-4.7-33.44-8.38-5.87-1.83-11.03-3.84-15.03-6.31-4.04-2.46-6.91-5.38-8.67-8.84,1.76,2.41,2.14,4.07,1.21,5.15-.91,1.08-3.11,1.62-5.86,1.69-1.37.03-2.91-.04-4.52-.24-.4-.05-.82-.11-1.24-.16-.78-.18-1.58-.35-2.39-.54-1.62-.38-3.28-.75-4.96-1.1-6.75-1.47-13.93-2.82-20.72-3.84-6.8-1.03-13.18-1.73-18.61-2.07-5.44-.33-9.9-.28-13.04.29-3.12.58-4.91,1.72-4.83,3.64.08,1.93,2.02,4.64,6.64,8.39-7.43-2.09-10.94-3.93-12.52-5.71-1.58-1.77-1.22-3.47-.63-5.27.6-1.81,1.43-3.73.88-5.96-.47-2.24-2.06-4.66-6.24-7.71-13.28-.42-27.59-3.98-41.31-9.71-3.43-1.43-6.84-2.99-10.16-4.69-1.67-.84-3.31-1.72-4.94-2.61-1.08-.59-2.17-1.17-3.25-1.76-1.15-.61-2.3-1.22-3.46-1.83-2.11-1.11-4.23-2.22-6.36-3.34-.96-.51-1.92-1.03-2.89-1.54l-1.31-.72-.81-.49c-2.08-1.27-4.11-2.62-6.02-4.11-2.52-1.94-4.71-4.32-6.43-7.05-.87-1.35-1.65-2.76-2.39-4.17l-1.13-2.14c-.3-.51-.91-1.44-1.41-2.2l-.79-1.2-.87-1.28-.88-1.29-.96-1.35-.94-1.32-.54-.82c-.73-1.1-1.45-2.2-2.18-3.3-.72-1.12-1.44-2.24-2.16-3.36-.71-1.14-1.43-2.29-2.15-3.43-2.85-4.62-5.68-9.39-8.5-14.28-5.64-9.77-11.24-20.04-17.07-30.57-1.47-2.64-2.94-5.29-4.42-7.95l-1.12-2-1.38-2.4c-1.05-1.81-2.12-3.66-3.16-5.3-4.21-6.8-8.29-12.57-11.83-17.47-2.21.63-2.75,4.9-4.66,7.56-.94,1.35-2.27,2.22-4.35,2-1.03-.1-2.25-.48-3.71-1.21-.74-.38-1.49-.79-2.31-1.32-.81-.51-1.73-1.17-2.64-1.85-.26-3.25-.43-6.39-.29-9.25l.09-2.13.11-1.01c.03-.34.08-.66.15-.94.22-1.13.53-2.34.81-3.46.27-1.12.68-2.26,1.01-3.32.38-1.08.82-2.15,1.23-3.16.5-1.04.93-2.02,1.47-3,.57-.98,1.06-1.9,1.65-2.81l.19-.3.1-.15c.02-.08.04-.21.06-.31l.24-1.28.47-2.54.93-5.04c-3.18-9.17-10.34-11.76-15.79-16.69-2.72-2.46-5.02-5.45-6.13-9.96-.56-2.26-.82-4.89-.67-7.98.07-1.55.26-3.2.55-4.99.15-.89.33-1.81.54-2.76.11-.48.22-.96.34-1.46.15-.37.32-.7.49-1.06-.19.22-.39.45-.59.68-.2.24-.42.44-.6.8-.38.66-.78,1.31-1.2,1.93-.83,1.23-1.71,2.3-2.62,2.89-.91.59-1.86.68-2.82-.06-.47-.37-.95-.94-1.42-1.76-.24-.41-.47-.88-.71-1.42-.21-.43-.4-.85-.59-1.36v-.4c-.12-3.57.27-7.17.8-10.56.26-2.2.56-4.89.82-8,.13-1.58.25-3.17.33-5.04.08-1.94.13-3.93.14-5.9,0-3.95-.22-7.91-.63-11.86l-.34-2.96-.42-2.99c-.13-.94-.27-1.8-.41-2.7l-.44-2.61c-1.2-6.87-2.53-12.73-3.56-17.81l-.7-3.58-.63-3.47c-.54-2.9-1.1-5.82-1.69-8.74-1.19-5.85-2.49-11.75-3.93-17.68-2.87-11.86-6.34-23.86-10.46-35.78-2.06-5.96-4.27-11.89-6.66-17.77-.26-.66-.69-1.67-1.06-2.55l-1.16-2.7c-.81-1.75-1.6-3.55-2.47-5.26-1.69-3.47-3.49-6.78-5.33-9.98-3.69-6.39-7.56-12.15-11.27-17.41-3.71-5.22-7.27-9.97-10.56-14.4l-1.22-1.64-1.16-1.58-2.21-3.05c-.74-1-1.48-2.07-2.23-3.15l-2.24-3.21-4.57-6.74-4.7-7.05c-6.39-9.59-13.17-19.89-21.12-30.44-7.96-10.53-17.1-21.26-27.82-31.19-1.29-1.27-2.73-2.45-4.11-3.66l-4.2-3.6c-2.94-2.29-5.86-4.61-8.87-6.8-6-4.32-12.67-8.52-19.78-12.17-7.1-3.66-14.54-6.67-21.53-9.02-7-2.35-13.49-4.1-19.52-5.69l-8.78-2.28-4.14-1.08-3.49-.98c-4.74-1.38-9.83-3.06-15.31-4.88-10.95-3.62-23.5-7.97-38.19-11.09-3.67-.78-7.47-1.46-11.38-2.03l-10.18-1.36c-6.09-.8-12.18-1.6-18.27-2.39-24.23-3.12-47.97-6.12-70.84-10.41,12.49,3.86,14.71,6.14,11.31,7.56-3.38,1.42-12.23,2-21.53,2.45,12.21,1.65.06,10.87,2.63,16.75-6.35-1.18-12.67-2.37-18.92-3.6l-9.34-1.87-2.32-.47c-.77-.16-1.59-.31-2.19-.49l-3.97-1.03-8.49-2.26-4.67-1.2-2.42-.6-2.55-.59c-6.79-1.59-14.76-3.05-23.43-3.89-2.23,2.23-5.58,4.06-9.79,5.78-2.11.89-4.42,1.71-6.9,2.58-1.24.44-2.52.87-3.84,1.3-.18.06-.32.1-.43.15l-.37.14-.75.28c-.51.18-1.02.36-1.54.54-8.31,2.85-18.34,5.13-28.1,7.42-19.54,4.58-37.95,9.05-40.02,17.64l22.95-8.26c-13.64,12.75-.24,20.26,16.51,27.74,8.38,3.74,17.59,7.52,24.69,11.91,7.1,4.39,12.08,9.41,12.19,15.5,3.64-3.46,8.57-6.07,11.87-7.24,3.8-1.26,8.13-1.44,12.94-.83,4.8.6,10.13,2.02,16.23,3.75,6.06,1.73,13.01,3.75,20.79,5.34,1.75.38,3.51.77,5.28,1.15,1.73.37,3.49.74,5.23,1.08,3.49.68,7.05,1.31,10.59,1.82,7.12,1.04,14.29,1.65,21.5,1.59,14.39-.13,28.73-3.02,42.94-10.81,12.68,4.7-10.65,7.87-3.8,13.33,7.11-5.25,15.07-8.47,25.16-9.62,2.52-.28,5.17-.43,7.98-.47,2.79,0,5.75.09,8.87.34,1.55.13,3.15.3,4.79.49.41.05.82.1,1.24.15.42.05.87.1,1.12.17.61.12,1.22.25,1.85.38.61.11,1.27.29,1.93.47.66.18,1.31.34,2,.55,1.4.44,2.79.86,4.32,1.43-1.08.67-2.13,1.35-3.12,2.09,8.27.84,17.39,3.13,27.08,5.86,5.16,1.48,10.17,2.91,15.05,4.3,2.63.73,5.23,1.45,7.95,2.15,2.36.62,4.7,1.24,7.01,1.85,8.7,2.35,16.08,4.66,21.28,7.14,5.27,2.52,8.84,5.01,13.01,8.71,4.28,3.72,8.23,8.09,12.07,13.16,3.86,5.09,7.64,10.97,11.69,18.04,4.06,7.08,8.32,15.31,13.45,25.19,1.33,2.53,2.68,5.1,4.05,7.72.72,1.35,1.44,2.7,2.17,4.07.77,1.41,1.55,2.83,2.33,4.27,1.54,2.84,3.31,5.91,5.08,8.99.87,1.53,1.89,3.16,2.84,4.76.95,1.57,1.92,3.15,2.89,4.74.4-1.15.83-2.23,1.21-3.43l1.16-3.54c.78-2.35,1.57-4.69,2.38-7,.81,1.38,1.58,2.7,2.31,3.95.7,1.23,1.36,2.4,1.99,3.52,1.2,2.16,2.2,4.05,3.05,5.79,1.71,3.47,2.74,6.17,3.52,8.6,1.47,4.76,1.81,8.28,2.52,12.28,12.11,3.08,7.94-5.64-.82-18.69-2.12-3.22-4.41-6.65-6.39-9.98-2-3.4-3.76-6.74-4.53-9.24-1.57-5.07,0-7.5,7.61-4.95-.16,2.51.2,5.32.86,8.35.68,3.05,1.61,6.03,2.8,9.21,2.34,6.27,5.56,12.75,8.34,18.7,1.4,2.99,2.71,5.87,3.87,8.66.58,1.4,1.12,2.78,1.63,4.16.57,1.6,1.14,3.21,1.72,4.84,2.8,7.89,5.54,16.13,7.99,24.52,2.46,8.38,4.61,16.92,6.29,25.27.85,4.17,1.57,8.31,2.17,12.32.14,1.01.28,2.01.42,3,.07.5.13,1,.2,1.5.1.64.19,1.28.29,1.92.35,2.39.69,4.73,1.03,7,1.2,8.52,1.32,14.42,0,18.25-.08.25-.15.49-.25.7-.09.22-.19.45-.3.58-.11.15-.22.3-.33.45-.11.17-.23.34-.35.5-.48.65-1.01,1.25-1.62,1.79-1.2,1.09-2.64,1.94-4.31,2.58.07.87.12,1.58.23,2.26.07.5.13.96.19,1.38.07.52.16.92.24,1.4.18.93.4,1.67.65,2.35.25.65.54,1.07.86,1.43,1.27,1.37,2.99-.12,4.71-1.3.43-.31.86-.62,1.28-.89.42-.25.84-.46,1.24-.6.8-.29,1.55-.3,2.18.25.32.26.61.72.86,1.37.13.33.24.68.35,1.13.11.46.21.98.29,1.56.09.56.17,1.31.24,2.07.07.76.13,1.62.19,2.89.13,2.34.24,5.06.44,8.25-2.17,4.68-4.08,9.59-5.63,14.67l1.64,1.59c3.49,3.41,6.65,5.05,9.93,7.21,1.83,12.08,1.27,21.15-.61,27.59-1.87,6.42-4.99,10.16-7.95,11.27-.46-5.29-5.27-14.63-7.21-20.61-.27,5.79.3,12.05,1.3,18.29.51,3.14,1.11,6.24,1.79,9.34.33,1.52.7,3.08,1.05,4.58.42,1.71.83,3.42,1.25,5.13l.46,1.87c.2.61.34,1.24.51,1.85l1.02,3.7c.33,1.23.73,2.45,1.14,3.65.42,1.2.83,2.4,1.25,3.6.83,2.39,1.85,4.69,2.79,6.99.97,2.29,2.07,4.5,3.11,6.69,1.07,2.18,2.23,4.29,3.35,6.36,1.11,2.04,2.43,4.21,3.44,5.88,2.13,3.42,4.19,6.51,6.07,9.17.96,1.41,1.84,2.59,2.69,3.77.83,1.14,1.64,2.24,2.41,3.3.74,1.01,1.45,1.98,2.12,2.9.62.86,1.21,1.68,1.77,2.45,2.17,3.06,3.5,5.24,3.88,6.68-2.06-4.61-4.69-9.92-7.64-16.06l-2.25-4.77c-.78-1.69-1.52-3.26-2.32-5.1l-1.17-2.68-.58-1.34-.59-1.43-1.25-3.02c-.45-1.05-.84-2.09-1.23-3.14.62,1.19,1.29,2.38,1.98,3.57.64,1.11,1.29,2.22,1.93,3.33.62,1.01,1.25,2.01,1.87,3.02.62.98,1.26,2.06,1.87,2.95,1.21,1.83,2.48,3.81,3.65,5.48l1.78,2.6,1.71,2.44c2.1,2.95,4.21,5.93,6.34,8.92.91,1.29,1.82,2.59,2.74,3.89.82,1.2,1.72,2.48,2.43,3.57l1.13,1.7.99,1.57c.53.79,1.67,2.73,2.6,4.31,1.97,3.29,3.95,6.59,5.93,9.91,4.02,6.66,8.18,13.42,12.53,20.23,8.71,13.62,18.15,27.49,29.03,41.18l3.77,4.68.46.57.53.68,1.19,1.56,4.57,6.16c1.75,2.32,3.54,4.62,5.41,6.85,7.39,8.95,16.13,16.78,25.96,22.83,3.73,2.3,7.54,4.46,11.43,6.46,1.94,1,3.9,1.97,5.87,2.92l2.96,1.4,2.37,1.09c2.51,1.12,5.01,2.23,7.51,3.34l3.14,1.4,1.4.64.67.31,1.06.5c11.94,5.74,23.82,10.41,35.78,14.31,5.98,1.93,11.98,3.67,18,5.19,6.03,1.51,12.09,2.8,18.18,3.88,3.06.52,6.1,1.01,9.18,1.41,1.52.22,3.07.4,4.61.57l2.31.25,1.13.12,1.04.08c5.55.45,10.88.71,15.96.83l-6.01-6.83c9.21.45,16.55.89,22.68,1.55,6.13.65,11.05,1.49,15.22,2.51,4.17,1.02,7.6,2.19,10.65,3.49.76.32,1.49.67,2.21,1,.36.17.72.34,1.07.51.54.23,1.09.46,1.63.69,2.26.97,4.49,1.88,6.74,2.76,4.49,1.76,9.06,3.38,13.94,4.83,4.88,1.46,10.08,2.74,15.66,3.83,2.79.55,5.69,1.06,8.66,1.53,1.48.22,3.01.46,4.6.7,1.64.22,3.33.45,5.1.69,7.14.9,15.62,1.78,26.21,2.24l-3.18,1.01c8.64-1.89,18.83-3.08,30.09-4.18,5.67-.53,11.55-1.07,17.55-1.63,6.07-.63,12.28-1.18,18.59-1.96-5.58,2.43-5.63,3.98-2.84,5.3,1.39.62,3.5,1.15,5.94,1.62,2.45.47,5.24.76,8.01,1.11l1.04.13.25.03.17.05.34.09c.46.13.9.26,1.34.38.88.26,1.7.52,2.46.81,1.55.58,2.81,1.23,3.5,1.97.7.75.85,1.59.21,2.58-.62,1-2.1,2.11-4.37,3.47,3.52-1.38,7.04-2.55,10.34-3.64,3.38-1.08,6.56-2.06,9.62-2.98,6.09-1.84,11.37-3.43,15.73-4.95,2.13-.73,4.11-1.47,5.82-2.15,1.69-.67,3.23-1.36,4.56-2,2.64-1.26,4.64-2.5,6.32-3.72,1.68-1.21,3.13-2.54,4.73-4.02,1.6-1.47,3.4-3.23,5.79-5.38,1.19-1.07,2.52-2.27,4.06-3.65.76-.67,1.57-1.38,2.43-2.14.85-.76,1.76-1.57,2.72-2.44.48-.42.97-.86,1.48-1.31.24-.22.55-.46.74-.67.18-.2.37-.4.56-.61.75-.82,1.57-1.69,2.44-2.6,1.73-1.84,3.8-3.76,6.15-5.91,2.16.9,4.35,1.88,6.49,2.83,2.13.95,4.28,1.94,6.41,2.94,6.4-6.19,9.92-10.38,16.15-14.42,6.27-4.04,15.32-7.87,33.86-12.92-29.04,14.18,26.67,8.87-5.41,26.31,10.15.45,19.74.12,28.85-.9,4.56-.51,8.98-1.18,13.3-2.01,2.29-.44,3.93-.76,5.72-1.15,1.77-.37,3.49-.81,5.2-1.2,13.63-3.24,25.48-7.3,36.44-10.57,10.95-3.25,20.95-5.75,30.46-5.64,9.5.12,18.5,2.84,27.24,10.11,4.26-3.28,6.5-5.92,7.12-8.07.62-2.15-.39-3.84-2.54-5.13-4.28-2.56-13.14-3.62-22.39-3.72-9.27-.14-18.93.66-25.06,1.07-6.12.46-8.77.4-4.03-1.43-4.28-1.71-4.77-3.92-2.65-6.27,1.06-1.18,2.77-2.4,4.99-3.6,2.22-1.19,4.95-2.34,8.01-3.44,12.27-4.35,30.21-7.07,42.66-5.81,3.17.07,6.21.59,9.24,1.56,3.05.96,5.96,2.28,9.22,3.86,6.42,3.16,13.2,7.24,21.13,11.3,7.92,4.06,16.97,8.06,27.61,11.21,5.33,1.57,11.02,2.96,17.18,4.06,6.13,1.13,12.7,1.98,19.77,2.57-5.65-.61-6.17,1.28-11.88.8,2.64,1.01,5.29,1.63,7.88,2.1,1.3.23,2.61.38,3.92.5,1.29.14,2.59.22,3.89.26,2.63.06,5.18.11,7.84.02,1.31-.02,2.62-.04,3.94-.06.66-.01,1.33-.03,1.99-.04.25-.02.89.02,1.39.04l1.58.07c8.46.37,16.49.27,24.21.81,7.73.54,15.16,1.7,22.25,4.55,2.1-1.89,4.09-3.26,6.19-4.27,1.99-.99,4.08-1.64,5.99-2,1.98-.39,3.8-.49,5.6-.51.88,0,1.71.03,2.55.07.85.03,1.64.08,2.39.14.76.05,1.51.08,2.23.1.72.04,1.42.04,2.1,0,.68-.04,1.35-.13,2-.28.66-.13,1.32-.31,1.95-.57,1.27-.52,2.46-1.38,3.61-2.67,1.15-1.26,2.23-2.98,3.24-5.3-4.17-.52-8.18-.75-12.12-.91-3.93-.11-8.13-.05-12.53.09-8.78.27-18.55.97-29.22,1.35,9.11-.97,17.39-3.3,25.4-5.69,4.03-1.2,8.01-2.42,11.99-3.46,2.03-.55,3.98-1,6.04-1.45,2.03-.36,4.1-.81,6.27-1.04,8.63-1.05,18.35-.8,28.74,1.77,10.4,2.53,21.42,7.28,32.85,15-2.7,1.06-8.25,1.28-14.41,1.26-6.17-.03-12.95-.31-18.28-.5,6.05,5.07,13.07,6.63,20.34,8.47,7.26,1.84,14.7,3.94,21.09,9.94-3.03,4.1-8.72,4.62-15.9,3.35-7.2-1.28-15.89-4.31-25.11-7.27-4.6-1.46-9.34-2.93-14.03-4.08-2.37-.63-4.67-1.08-7-1.56-2.28-.37-4.59-.79-6.78-.96-2.23-.26-4.35-.29-6.43-.3-1.04,0-2.01.1-3,.17-.98.07-1.95.18-2.93.35-3.87.62-7.84,1.74-11.76,3.44.87.57,1.88,1.02,2.91,1.38,1.01.37,2.11.64,3.25.83,1.07.22,2.26.33,3.4.41,1.1.11,2.29.08,3.44.11,1.17.03,2.34-.04,3.58-.06,1.26,0,2.54-.04,3.81-.1,1.33,0,2.64-.02,3.91-.02,1.29,0,2.6.06,3.84.09,1.23.03,2.45.14,3.58.26,1.14.13,2.17.25,3.13.46,1.92.42,3.4.96,4.23,1.74.84.8,1.02,1.8.35,3.11-.67,1.31-2.21,2.89-4.67,4.99,6.86-5.09,13.81-6.18,20.8-5,7.01,1.19,14.04,4.64,21.62,8.7,3.76,2.01,7.78,4.24,11.88,6.34,3.79,1.99,7.75,3.91,12.01,5.66,8.52,3.48,18.2,6.1,30.03,6.41l-7.94,9.25c3.36.69,8.78,1.42,14.78,2.79,6.01,1.38,12.62,3.42,18.26,6.59-9.31.85-18.51,1.74-27.51,2.78,9.15,1.12,17.26,4.43,24.88,8.88,1.9,1.11,3.78,2.29,5.64,3.54,1.85,1.24,3.69,2.53,5.53,3.87,1.82,1.34,3.64,2.71,5.48,4.12l2.73,2.12,2.57,2.07c6.81,5.54,13.49,11.23,20.6,16.12,3.55,2.45,7.21,4.7,11.04,6.63,1.92.97,3.87,1.85,5.88,2.64,1,.4,2.02.77,3.05,1.12,1.69.64,3.39,1.24,5.11,1.8-1.69-.79-3.39-1.6-4.91-2.34-.95-.49-1.87-.97-2.76-1.44-1.78-.95-3.45-1.85-5.02-2.69-3.13-1.71-5.84-3.27-8.18-4.69-4.67-2.84-7.84-5.12-9.91-7-4.13-3.77-3.84-5.94-2.26-7.77,3.16-3.66,11.44-5.95-.14-16.79,17.46,5.38,29.12,10.66,37.4,16.02.51.34,1.02.68,1.51,1.01.24.17.49.34.73.5.26.18.67.42,1,.62,1.38.85,2.7,1.69,3.96,2.52,2.45,1.54,4.75,3.11,6.74,4.5,4.09,2.9,7.26,5.52,10.15,8.23,1.38,1.31,2.71,2.65,3.98,3.98,1.2,1.3,2.45,2.65,3.59,3.97,2.27,2.63,4.54,5.3,6.7,7.88.54.63,1.1,1.27,1.67,1.94.51.63,1.04,1.26,1.59,1.89.58.63,1.06,1.25,1.57,1.85.48.6,1.11,1.22,1.52,1.8,2.01,2.35,3.57,4.48,4.33,6.03,7.74,6.22,18.54,12.78,33.59,20.38-2.76-1.21-6.46-3.5-10.04-6.35-3.58-2.85-7.25-6.04-9.91-9.05-5.38-5.93-7.07-10.8,2.82-8.71,3.51,2.64,7.3,5.5,11,8.58,1.84,1.55,3.67,3.13,5.47,4.73.89.81,1.79,1.61,2.67,2.4.86.83,1.71,1.65,2.55,2.46,6.72,6.52,12.19,13.17,14.83,18.54,3.12,1.85,5.84,3.41,8.23,4.71,2.35,1.33,4.33,2.42,6.03,3.26,3.39,1.69,5.59,2.45,6.89,2.56,2.61.2,1.89-2.44.28-5.76-3.19-6.6-9.82-16.31,2.69-12.15,1.07,2.93,2.32,5.27,3.65,7.23,1.33,1.96,2.81,3.49,4.44,4.69,3.29,2.38,7.06,3.6,11.41,4.45,8.67,1.7,19.42,2.28,30.94,9.07l-7.76,9.24c2.77,3.12,5.36,5.76,7.63,8.12,2.26,2.37,4.33,4.37,6.24,6.05,3.75,3.41,6.77,5.62,9.45,6.94,5.23,2.73,8.8,2.06,12.27,1.27,1.73-.39,3.42-.81,5.26-.81,1.81.02,3.76.46,6.03,1.76,2.24,1.3,4.97,3.49,7.76,6.89,2.89,3.39,6.04,8.18,9.45,14.74-4.7-1.66-9.36-3.19-14.04-4.52-2.3-.7-4.69-1.3-7.01-1.9l-7.13-1.81,2.93,2.46,2.72,2.39c1.85,1.58,3.59,3.24,5.38,4.88,1.81,1.62,3.48,3.37,5.24,5.05,1.73,1.71,3.4,3.48,5.11,5.23-4.91,1-9.77,2.09-14.54,3.26,6.46,4.48,11.35,8.84,15.32,13.11.98,1.08,1.92,2.14,2.8,3.2.86,1.09,1.68,2.16,2.46,3.24,1.59,2.12,2.9,4.39,4.19,6.61,2.48,4.58,4.55,9.38,6.53,15.11,2,5.7,3.97,12.23,6.29,20.37,2.42-5.2,7.87-6.42,14.26-2.6,1.59.97,3.24,2.25,4.92,3.85,1.49,1.31,2.93,2.82,4.4,4.68,2.85,3.73,5.33,8.91,7,15.44-.78,4.92-2.08,6.84-3.33,7.57-1.26.73-2.53.31-3.4.43-.44.06-.77.25-.96.79-.2.54-.2,1.38-.14,2.85.08,1.46.34,3.48.82,6.27.2,1.43.43,3.06.69,4.92.28,1.86.63,3.95.88,6.37-1.03-1.01-2.05-2.03-3.13-3.03-1.08-1-2.15-2-3.17-3.04-1.01-1.03-1.97-2.1-2.82-3.21-.86-1.11-1.71-2.2-2.38-3.4-.67-1.19-1.21-2.45-1.56-3.8-.38-1.33-.66-2.71-.67-4.25.03-3.13.61-6.52,2.41-10.89-2.06-.24-4.48-1.44-6.79-2.6-1.16-.58-2.31-1.14-3.42-1.56-1.11-.42-2.26-.63-3.28-.63-.68,4.32-.55,8.84.01,13.58.19,1.14.28,2.41.46,3.62.17,1.22.38,2.45.62,3.66.41,2.49.83,5.05,1.4,7.52.41,2.58.94,5.1,1.44,7.57.41,2.53.86,4.97,1.29,7.29.32,2.39.62,4.63.9,6.69.26,2.06.32,4.01.36,5.68.1-1.29.22-2.65.37-4.01.14-1.36.22-2.67.4-3.96.32-2.55.87-4.9,1.56-6.47,3.34,8.54,6.21,17.76,8.63,27.41,2.41,9.66,4.27,19.78,5.78,30.15-5.72,8.87-8.3.78-10.99-6.79-.03,5.97,1,11.22,1.75,17.27.43,3.02.65,6.25.75,9.85.06,1.74-.04,3.85-.17,5.97-.15,2.14-.34,4.41-.69,6.8-4.33-3.37-9.07-5.24-12.64-9.68-.9-1.11-1.72-2.38-2.45-3.87-.74-1.45-1.45-2.98-2.01-4.83-1.11-3.67-1.91-8.33-2.2-14.41.24,4.59.51,9.21.58,13.91l.09,3.52c.02.57.02,1.21.01,1.86v1.93s-.08,7.74-.08,7.74c-.12,10.32-.41,20.59-.82,30.86-2.5,1.53-7.08,8.44-11.29,13.81-4.23,5.36-8.03,9.22-8.87,5.06-6.74,15.18-7.38,35.46-9.74,56.79-2.34,21.43-6.37,43.01-19.1,61.02.39,1.42.53,3.33.18,6.03-.37,2.7-1.08,6.15-2.58,10.67-10.25,18.08-23.01,34.04-34.94,52.2-5.99,9.12-11.75,18.74-16.98,29.61-1.3,2.69-2.57,5.5-3.79,8.36-1.22,2.87-2.4,5.79-3.53,8.85-.56,1.52-1.12,3.06-1.66,4.63-.26.78-.53,1.57-.8,2.36l-.39,1.19c-.12.37-.16.6-.25.9-.6,2.31-1.14,4.73-1.61,7.26-2.23.8-4.49,1.55-6.68,2.28l-3.27,1.06c-1.1.34-2.26.65-3.37.96-2.24.62-4.45,1.22-6.62,1.78-2.25.54-4.52,1.03-6.72,1.51-.89,1.58-1.53,2.94-2.07,4.07-.51,1.14-.78,2.1-.87,2.89-.17,1.59.42,2.55,1.5,3.09,2.15,1.1,6.35.57,10.26.46,3.79-.14,7.38.16,8.25,3.45.22.82.26,1.84.1,3.09-.18,1.24-.65,2.68-1.35,4.41-.35.86-.77,1.79-1.26,2.8-.49,1-1.03,2.09-1.75,3.21-1.41,2.24-3.05,4.85-5.23,7.71-1.53,2.05-2.95,3.85-4.28,5.43-.65.8-1.31,1.51-1.97,2.17-.65.66-1.27,1.26-1.87,1.82-2.41,2.22-4.37,3.65-6.17,4.38-3.54,1.5-5.79.56-7.65-1.18-1.85-1.74-3.31-4.27-5.16-6.01-.93-.87-1.95-1.55-3.15-1.84-1.2-.29-2.58-.19-4.33.43-1.18,2.41-2.43,5.1-3.88,7.98-1.52,2.84-3.17,5.89-5.03,9.06-1.96,3.11-4.06,6.37-6.47,9.62-1.23,1.61-2.51,3.23-3.85,4.85-1.33,1.62-2.73,3.24-4.26,4.8-3.01,3.14-6.25,6.25-9.88,9.09-1.81,1.43-3.64,2.85-5.61,4.16-1.97,1.31-4,2.58-6.1,3.78l-1.58.89-1.71.92c-1.2.63-2.43,1.24-3.66,1.83-2.49,1.19-5,2.29-7.59,3.32-5.18,2.04-10.58,3.72-16.23,4.95,5.44-5.09,11.04-8.58,16.7-11.82,2.82-1.61,5.74-3.2,8.54-4.84,2.52-1.5,5.03-3.11,7.53-4.98ZM1346.61,1820.61c2.08-1.02,4.74-2.56,7.59-4.13,2.83-1.55,6.01-3.27,9.13-4.64,6.28-2.77,12.63-4.38,16.91-1.7-3.92,7.98-8.25,10.78-13.71,11.54-2.7.36-5.7.23-9.01-.07-3.27-.34-6.95-.72-10.91-1ZM1156.36,1468.6c-1.87,3.71-5.38,6.73-10.06,9.29-4.68,2.58-10.54,4.66-17.08,6.49,7.01-6.16,15.87-11.78,27.14-15.77ZM2686.75,2320.91c.24-.41.39-.71.53-1.12,10.57-4.82,13.76-6.31,12.79-5.79-.51.26-2.08,1.06-4.39,2.24-2.31,1.18-5.42,2.79-8.94,4.66ZM2642.8,2344.74c-3.49,4.18-2.38,5.41.43,5.68,1.48-4.51,11.21-10.89,22.14-17.46-2.37-.29-5.14.03-8.77,1.73-1.8.85-3.79,2.06-6.09,3.7-1.14.82-2.34,1.76-3.61,2.81-1.29,1.05-2.66,2.23-4.1,3.54ZM1472.31,709.65c3.23,1.31,6.46,2.63,9.67,4-11.38.68-15.25.64-15.68-.21-.4-.82,2.78-2.26,6.01-3.79Z"/><path class="cls-1" d="M1095.84,1531.5c-3.13-.12-5.09-1.46-6.94-2.87-.65,1.85-.6,3.22.44,3.8,1.05.58,3.04.37,6.5-.93Z"/><path class="cls-1" d="M1969.81,1441.19c.29-.39.45-.82.71-1.22-.33-1.01-.82-1.69-1.37-2.2l.66,3.42Z"/><path class="cls-1" d="M2387.23,1943.42c-10.13-3.21-15.37-6.44-18.7-9.35-1.06,2.76,2.98,6.23,18.7,9.35Z"/><path class="cls-1" d="M2423.41,2465.36c8.19-4.93,16.41-9.8,24.66-14.62-12.33,6.16-17.89,5.83-25.04,6.99,1.76,2.3,8.4,3.73.39,7.63Z"/><path class="cls-1" d="M2167.21,2518.02c-2.93,3.47-7.75,4.81-10.61,8.27l3.89,4.2c15.5-9.69,24.21-20.13,6.72-12.48Z"/><path class="cls-1" d="M2382.31,2440.34c-6.42-8.19-21.48,2.76-38.91,13.48,1.08-.58,2.09-1.17,3.23-1.6.91,15.39,18.19,1.57,35.68-11.88Z"/><path class="cls-1" d="M2339.3,2456.22c-5.42,3.22-11.04,6.32-16.75,8.66.43,6.15,7.34-2.39,16.75-8.66Z"/><path class="cls-1" d="M2585.93,2381.95c-5.71.94-6.12,4.57-6.08,7.84.05,3.25.56,6.14-3.14,5.35-1.75,4.11,1.33,3.66,6.23.92,4.89-2.73,11.58-7.84,16.67-12.7,5.09-4.85,8.51-9.37,7.23-10.43-.64-.54-2.45-.19-5.8,1.25-3.36,1.46-8.27,4.02-15.11,7.79Z"/><path class="cls-1" d="M2352.94,2417.34l12.07,8.1,6.05-14.06c-6.05,1.95-12.08,3.95-18.12,5.96Z"/><path class="cls-1" d="M2504.05,2357.94c-10.35,2.8-20.7,6.21-31.06,9.81,1.34,1.69-1.88,4.57-6.08,7.63,9.19-4.2,18.98-7.94,26.22-10.82,7.23-2.91,11.94-5.02,10.92-6.62Z"/><path class="cls-1" d="M2466.91,2375.38c-9.59,4.34-18.57,8.98-23.12,13.34,5.23-2.56,16.19-8.32,23.12-13.34Z"/><path class="cls-1" d="M2392.06,2394.74l9.95-1.68c7.18-2.94,14.37-5.83,21.58-8.69-10.53,3.36-21.03,6.84-31.53,10.37Z"/><path class="cls-1" d="M2765.99,2130.64c.23-12.77-.86-25.27-2.5-37.47-2.23-1.78-3.87-.14-4.75,3.59-.87,3.73-.98,9.53-.35,16.32.71,2.2,1.21,4.72,1.73,7.18.46,2.46.91,4.87,1.38,6.85.9,3.94,2.12,6.2,4.49,3.53Z"/><path class="cls-1" d="M2693.47,2211.03c1.99-1.1,3.52-1.92,4.93-2.48,1.4-.56,2.64-.87,3.84-1.08,2.37-.43,4.54-.44,7.76-1.14-3.87-3.44-7.77-6.86-11.68-10.26-1.32,4.92-2.89,9.94-4.84,14.95Z"/><path class="cls-1" d="M2727.89,2129.8c-.95-.9-1.87-4.2-2.9-7.99-.53-1.9-1.04-3.92-1.63-5.86-.55-1.92-1.15-3.75-1.72-5.25-1.11-2.97-2.22-4.65-2.89-3.11-.33.78-.63,2.31-.84,4.85-.22,2.53-.41,6.02-.71,10.62.96.82,1.81,3.32,2.39,6.15.15.71.3,1.45.45,2.19.13.73.25,1.47.37,2.19.25,1.44.51,2.83.74,3.98.49,2.3,1.15,3.73,2.22,2.93.54-.4,1.18-1.36,1.98-3.06.39-.85.77-1.91,1.21-3.16.45-1.25.87-2.74,1.32-4.46Z"/><path class="cls-1" d="M2338.16,1890.39c2.99.68,6.01,1.3,9.01,1.94l4.48-25.1c-4.41,7.75-8.92,15.49-13.49,23.17Z"/><path class="cls-1" d="M1948.83,1621.01c4.48,8.76,7.32,12.68,9.93,14.6,2.5,1.86,4.63,1.6,6.66,1.29,2.01-.33,3.87-.77,5.87.77,1,.76,2.03,1.98,3.06,4.08.52,1.03,1.05,2.25,1.59,3.68.53,1.49,1.06,3.21,1.6,5.17,2.32,1.09,3.05.04,2.94-2.11-.11-2.15-1.03-5.43-2.04-8.51-.97-3.19-2.07-6.11-2.32-8.15-.13-1-.06-1.76.29-2.15.37-.38,1.09-.33,2.17.19-8.61-7.52-14.55-14.47-18.92-17.15-4.44-2.71-7.29-1.03-10.85,8.29Z"/><path class="cls-1" d="M1978.6,1629.87c1.31,1.16,2.7,2.33,4.2,3.52,1.48,1.23,3.05,2.53,4.77,3.81-4.55-4.72-7.15-6.37-8.97-7.32Z"/><polygon class="cls-1" points="137.52 150.02 109.2 151.09 128.57 155.39 137.52 150.02"/><path class="cls-1" d="M90.23,180.36l-9.87-14.37-12.48,17.9c5.75-2.02,16.96-6.04,22.35-3.53Z"/><path class="cls-1" d="M1283.96,1794.37l-1.44,3.84c.63,1.08,1.38,1.93,2.27,2.61.91.65,2,1.08,3.27,1.44.64.17,1.32.32,2.05.45.73.13,1.52.25,2.41.29,1.76.11,3.75.2,6.06.28-2.63-1.43-5.21-2.84-7.67-4.3l-3.55-2.29c-1.17-.76-2.34-1.48-3.4-2.33Z"/><polygon class="cls-1" points="1624.12 1735.09 1618.23 1736.38 1633.04 1747.47 1624.12 1735.09"/><path class="cls-1" d="M1850.06,1592.22c-1.77,1.45-3.43,3.15-5.04,4.99-1.71,1.81-3.41,3.74-5.09,5.69-3.5,3.85-7.12,7.75-11.27,10.52,3.9-3.79,7.81-6.3,11.71-8.03,1.85-.91,3.66-1.63,5.36-2.25,1.68-.63,3.3-1.13,4.57-1.66,5.23-2.08,7.09-3.59-.24-9.27Z"/></svg>