<svg width="40" height="40" viewBox="0 0 40 40" fill="none" xmlns="http://www.w3.org/2000/svg">
<path fill-rule="evenodd" clip-rule="evenodd" d="M14.858 13.938H22.286V17.638C23.3559 15.51 26.1 13.598 30.222 13.598C38.1239 13.598 40 17.834 40 25.6061V40H32V27.376C32 22.95 30.9301 20.454 28.206 20.454C24.428 20.454 22.858 23.144 22.858 27.374V40H14.858V13.938ZM1.14 39.66H9.14V13.598H1.14V39.66ZM10.286 5.1C10.2863 5.77055 10.1533 6.43447 9.89477 7.05317C9.63623 7.67189 9.25731 8.23302 8.77999 8.704C8.30128 9.18023 7.7334 9.55747 7.10885 9.81417C6.48428 10.0709 5.81525 10.202 5.14 10.2C3.7792 10.1969 2.47383 9.66058 1.504 8.70601C1.0286 8.2333 0.651064 7.67149 0.392992 7.05274C0.134921 6.43398 0.00137644 5.77041 0 5.1C0 3.74601 0.54 2.45001 1.506 1.494C2.47341 0.535766 3.78036 -0.00124825 5.142 2.1788e-06C6.50601 2.1788e-06 7.814 0.538002 8.77999 1.494C9.74599 2.45001 10.286 3.74601 10.286 5.1Z" fill="#E8EDDA"/>
</svg>
