<svg width="264" height="264" viewBox="0 0 264 264" fill="none" xmlns="http://www.w3.org/2000/svg">
<path fill-rule="evenodd" clip-rule="evenodd" d="M97.721 91.6702H146.575V116.005C153.612 102.009 171.66 89.434 198.77 89.434C250.741 89.434 263.08 117.294 263.08 168.411V263.08H210.464V180.052C210.464 150.942 203.427 134.526 185.511 134.526C160.663 134.526 150.337 152.218 150.337 180.039V263.08H97.721V91.6702ZM7.49778 260.844H60.1138V89.434H7.49778V260.844ZM67.651 33.5427C67.653 37.9529 66.7783 42.3195 65.0779 46.3887C63.3775 50.458 60.8853 54.1486 57.746 57.2462C54.5975 60.3784 50.8626 62.8595 46.7549 64.5478C42.6471 66.236 38.2469 67.0983 33.8058 67.0854C24.8558 67.0653 16.2704 63.5376 9.89181 57.2594C6.7651 54.1504 4.28205 50.4554 2.58471 46.3859C0.887373 42.3163 0.00905282 37.952 0 33.5427C0 24.6375 3.55158 16.1137 9.90496 9.82605C16.2676 3.52373 24.8634 -0.00820972 33.8189 1.433e-05C42.79 1.433e-05 51.3927 3.53844 57.746 9.82605C64.0994 16.1137 67.651 24.6375 67.651 33.5427Z" fill="#E8EDDA"/>
</svg>
