<svg width="40" height="40" viewBox="0 0 40 40" fill="none" xmlns="http://www.w3.org/2000/svg">
<path d="M11.6 0H28.4C34.8001 0 40 5.2 40 11.6V28.4C40 31.4765 38.7779 34.4269 36.6024 36.6024C34.4269 38.7779 31.4765 40 28.4 40H11.6C5.2 40 0 34.8001 0 28.4V11.6C0 8.52349 1.22214 5.57298 3.39757 3.39757C5.57298 1.22214 8.52349 0 11.6 0ZM11.2 4C9.29044 4 7.4591 4.75857 6.10883 6.10883C4.75857 7.4591 4 9.29044 4 11.2V28.8001C4 32.78 7.21999 36 11.2 36H28.8001C30.7096 36 32.541 35.2414 33.8911 33.8911C35.2414 32.541 36 30.7096 36 28.8001V11.2C36 7.21999 32.78 4 28.8001 4H11.2ZM30.4999 7C31.163 7 31.799 7.26339 32.2678 7.73223C32.7367 8.20108 33 8.83696 33 9.5C33 10.163 32.7367 10.7989 32.2678 11.2678C31.799 11.7366 31.163 12 30.4999 12C29.837 12 29.201 11.7366 28.7322 11.2678C28.2633 10.7989 28 10.163 28 9.5C28 8.83696 28.2633 8.20108 28.7322 7.73223C29.201 7.26339 29.837 7 30.4999 7ZM20 10C22.6521 10 25.1957 11.0536 27.071 12.9289C28.9465 14.8043 30 17.3479 30 20C30 22.6521 28.9465 25.1957 27.071 27.071C25.1957 28.9465 22.6521 30 20 30C17.3479 30 14.8043 28.9465 12.9289 27.071C11.0536 25.1957 10 22.6521 10 20C10 17.3479 11.0536 14.8043 12.9289 12.9289C14.8043 11.0536 17.3479 10 20 10ZM20 14C18.4087 14 16.8826 14.6321 15.7573 15.7573C14.6321 16.8826 14 18.4087 14 20C14 21.5913 14.6321 23.1174 15.7573 24.2427C16.8826 25.3678 18.4087 26 20 26C21.5913 26 23.1174 25.3678 24.2427 24.2427C25.3678 23.1174 26 21.5913 26 20C26 18.4087 25.3678 16.8826 24.2427 15.7573C23.1174 14.6321 21.5913 14 20 14Z" fill="#E8EDDA"/>
</svg>
