<svg width="264" height="264" viewBox="0 0 264 264" fill="none" xmlns="http://www.w3.org/2000/svg">
<path d="M76.2932 0H186.787C228.88 0 263.08 34.2004 263.08 76.2932V186.787C263.08 207.021 255.042 226.426 240.734 240.734C226.426 255.042 207.021 263.08 186.787 263.08H76.2932C34.2004 263.08 0 228.88 0 186.787V76.2932C0 56.059 8.03801 36.6535 22.3458 22.3458C36.6535 8.03801 56.059 0 76.2932 0ZM73.6624 26.308C61.1032 26.308 49.0585 31.2971 40.1778 40.1778C31.2971 49.0585 26.308 61.1032 26.308 73.6624V189.418C26.308 215.594 47.4859 236.772 73.6624 236.772H189.418C201.977 236.772 214.022 231.783 222.902 222.902C231.783 214.022 236.772 201.977 236.772 189.418V73.6624C236.772 47.4859 215.594 26.308 189.418 26.308H73.6624ZM200.598 46.039C204.959 46.039 209.142 47.7713 212.225 50.8549C215.309 53.9385 217.041 58.1207 217.041 62.4815C217.041 66.8423 215.309 71.0245 212.225 74.1081C209.142 77.1917 204.959 78.924 200.598 78.924C196.238 78.924 192.055 77.1917 188.972 74.1081C185.888 71.0245 184.156 66.8423 184.156 62.4815C184.156 58.1207 185.888 53.9385 188.972 50.8549C192.055 47.7713 196.238 46.039 200.598 46.039ZM131.54 65.77C148.983 65.77 165.712 72.6993 178.046 85.0336C190.381 97.3679 197.31 114.097 197.31 131.54C197.31 148.983 190.381 165.712 178.046 178.046C165.712 190.381 148.983 197.31 131.54 197.31C114.097 197.31 97.3679 190.381 85.0336 178.046C72.6993 165.712 65.77 148.983 65.77 131.54C65.77 114.097 72.6993 97.3679 85.0336 85.0336C97.3679 72.6993 114.097 65.77 131.54 65.77ZM131.54 92.078C121.074 92.078 111.037 96.2356 103.636 103.636C96.2356 111.037 92.078 121.074 92.078 131.54C92.078 142.006 96.2356 152.043 103.636 159.444C111.037 166.844 121.074 171.002 131.54 171.002C142.006 171.002 152.043 166.844 159.444 159.444C166.844 152.043 171.002 142.006 171.002 131.54C171.002 121.074 166.844 111.037 159.444 103.636C152.043 96.2356 142.006 92.078 131.54 92.078Z" fill="#E8EDDA"/>
</svg>
