<svg width="109" height="121" viewBox="0 0 109 121" fill="none" xmlns="http://www.w3.org/2000/svg">
<path d="M20.1807 36.6855L4.2688 31.0059L4.33925 30.8271C8.33113 20.6116 9.96644 15.9454 9.98313 15.9007L10.0406 15.733L10.2093 15.7833C12.2173 16.3757 14.0788 16.6905 14.3273 16.4837L16.8804 9.17236L28.0736 13.0972L28.0161 13.2723L20.1788 36.6855H20.1807ZM4.75457 30.7842L19.9489 36.2068L27.6063 13.3282L17.1084 9.64737L14.6573 16.6663L14.6425 16.6868C14.2476 17.2531 11.5777 16.5676 10.2724 16.1894C9.94975 17.0966 8.28292 21.7442 4.75272 30.7842H4.75457ZM13.0461 14.7253L12.6957 14.6042L12.9386 13.9001L13.289 14.0212L13.0461 14.7253Z" fill="#E8EDDA"/>
<path d="M16.0145 7.30029L9.87561 10.385L3.53088 28.7855L19.0831 34.3365L26.8591 11.1041L16.0127 7.30029H16.0145ZM14.776 13.5592L11.891 12.5552L12.1339 11.851L14.3347 12.6166L15.7735 8.7309L16.4688 8.98983L14.7778 13.5573L14.776 13.5592Z" fill="#E8EDDA"/>
<path d="M45.0793 96.231H45.0182C44.8569 97.5684 44.6399 99.3716 44.4619 100.553L43.8223 104.887H46.2215L45.6096 100.541C45.4353 99.3045 45.2406 97.5572 45.0812 96.231H45.0793Z" fill="#E8EDDA"/>
<path d="M73.0428 58.8153C72.8685 57.5785 72.6739 55.8312 72.5144 54.5049H72.4532C72.2919 55.8424 72.075 57.6455 71.897 58.8265L71.2573 63.1612H73.6565L73.0447 58.8153H73.0428Z" fill="#E8EDDA"/>
<path d="M34.6463 95.5674C34.4164 95.5674 34.181 95.5916 33.9807 95.6643V109.773C34.1735 109.829 34.3979 109.829 34.5499 109.829C36.1352 109.829 37.5925 108.1 37.5925 102.331C37.5925 98.0449 36.6543 95.5674 34.6463 95.5674Z" fill="#E8EDDA"/>
<path d="M37.5925 60.605C37.5925 56.3188 36.6543 53.8413 34.6463 53.8413C34.4164 53.8413 34.181 53.8655 33.9807 53.9382V68.0468C34.1735 68.1027 34.3979 68.1027 34.5499 68.1027C36.1352 68.1027 37.5925 66.374 37.5925 60.605Z" fill="#E8EDDA"/>
<path d="M51.641 81.1294H52.2436C53.6379 81.1294 54.5093 79.7286 54.5093 77.8062C54.5093 75.8838 53.9289 74.6879 52.4179 74.6562C52.1249 74.6562 51.8283 74.6842 51.641 74.768V81.1275V81.1294Z" fill="#E8EDDA"/>
<path d="M62.6302 75.3677H62.5691C62.4078 76.7051 62.1908 78.5083 62.0128 79.6893L61.3732 84.024H63.7724L63.1605 79.6781C62.9862 78.4412 62.7915 76.694 62.6321 75.3677H62.6302Z" fill="#E8EDDA"/>
<path d="M102.807 45.4945C101.972 44.4867 100.37 44.632 99.8995 44.565C93.7587 43.6969 81.7979 43.2368 81.7979 43.2368L47.575 43.6895C47.575 43.6895 34.4239 44.0359 28.0198 44.6972C26.3103 44.8742 25.5057 44.7829 23.9019 45.1853C21.7437 45.7273 21.3766 46.3067 21.2691 46.5078C20.6516 47.6497 21.13 49.9111 22.2851 50.6451C23.1769 51.2113 23.9186 50.4327 24.5304 51.0698C25.2331 51.7981 25.1126 53.4597 25.1126 53.4597L28.0198 109.082C28.0198 109.082 28.1459 113.329 30.1335 115.719C31.4944 117.355 34.3608 118.508 34.3608 118.508L86.1569 118.375C86.1569 118.375 90.0857 117.234 91.9714 114.924C93.5492 112.99 93.9274 110.833 94.085 109.747C96.5695 92.74 99.1059 53.5938 99.1059 53.5938C99.1059 53.5938 99.2079 52.0216 99.8995 51.4703C100.671 50.8555 101.429 51.4125 102.278 50.8071C103.209 50.1421 103.291 48.7599 103.335 48.0185C103.376 47.3368 103.439 46.262 102.807 45.4964V45.4945ZM78.6608 51.5112H80.9784V67.9018H84.8906V70.4444H78.6608V51.5112ZM60.6149 51.5112H68.1981V54.2607H65.5597V70.4444H63.2421V54.2607H60.6167V51.5112H60.6149ZM56.699 51.5112H59.0166V70.4444H56.699V51.5112ZM55.7553 73.6745C56.5711 74.6729 56.8585 75.9378 56.8585 77.5025C56.8585 79.708 56.039 81.4124 54.5594 82.2991V82.355C55.5903 82.8319 56.1242 84.0892 56.4227 86.3302C56.7305 88.6474 57.081 90.663 57.3164 91.3093H54.9117C54.7188 90.7673 54.4092 88.9101 54.157 86.7102C53.8734 84.2457 53.3338 83.4447 52.1732 83.4447H51.641V91.3093H49.3345V72.6574C50.1429 72.4078 51.1571 72.2923 52.1268 72.2923C53.6305 72.2923 54.8931 72.6295 55.7553 73.6764V73.6745ZM52.0156 51.3436C53.0427 51.3436 53.8177 51.6044 54.2738 51.8968L53.8344 54.4824C53.4284 54.2141 52.8907 54.0372 52.1528 54.0372C50.269 54.0372 48.5299 55.8403 48.5299 61.1865C48.5299 66.5326 50.0558 68.0638 51.578 68.0638C51.9711 68.0638 52.2232 67.9912 52.3493 67.9111V62.6227H50.7789V60.1601H54.4945V69.9527C53.8734 70.2861 52.6626 70.614 51.6633 70.614C50.1633 70.614 48.9248 70.0719 47.9514 68.7568C46.7833 67.22 46.0936 64.5134 46.1177 61.1567C46.1677 54.0465 49.1491 51.3436 52.0174 51.3436H52.0156ZM47.9291 72.3743L44.5083 80.5444L47.9977 91.3075H45.4687L42.9509 82.8933L42.2148 84.5568V91.3075H39.9083V72.3743H42.2148V81.1125H42.2704C42.5504 80.3097 42.8025 79.5161 43.0695 78.73L45.3705 72.3743H47.931H47.9291ZM41.8848 51.5112H44.2024V70.4444H41.8848V51.5112ZM31.6743 51.7925C32.3473 51.5597 33.2762 51.4274 34.2756 51.4274C35.9813 51.4274 37.1809 51.9564 38.0579 52.9959C39.2575 54.3706 39.9917 56.8518 39.9917 60.6444C39.9917 64.7034 39.2056 67.2554 38.0839 68.6543C37.1105 69.9508 35.6828 70.5767 33.8065 70.5767C33.0036 70.5767 32.1953 70.4854 31.6743 70.3755V51.7907V51.7925ZM33.901 82.7741C32.2824 81.4329 31.1421 79.5478 31.1421 77.5006C31.1421 74.5407 32.6959 72.2066 35.4307 72.2066C36.3744 72.2066 37.2273 72.568 37.6166 72.8921L37.1865 75.4665C36.7897 75.1293 36.1686 74.8201 35.3787 74.8201C34.0623 74.8201 33.4338 75.9787 33.4338 77.115C33.4338 78.5829 34.0197 79.2498 35.5104 80.4941C37.3719 82.0514 38.1098 83.8881 38.1098 85.9241C38.1098 89.3106 36.2242 91.477 33.6081 91.477C32.5067 91.477 31.4091 91.0746 30.953 90.6853L31.3405 88.1072C31.8856 88.5319 32.8386 88.8617 33.6099 88.8617C35.0376 88.8617 35.8182 87.7813 35.8182 86.2314C35.8182 84.6816 35.0969 83.8396 33.901 82.7723V82.7741ZM38.0839 110.38C37.1105 111.677 35.6828 112.303 33.8065 112.303C33.0036 112.303 32.1953 112.211 31.6743 112.102V93.5167C32.3473 93.2839 33.2762 93.1516 34.2756 93.1516C35.9813 93.1516 37.1809 93.6807 38.0579 94.7201C39.2575 96.0948 39.9917 98.576 39.9917 102.369C39.9917 106.428 39.2056 108.98 38.0839 110.379V110.38ZM47.2394 112.171L46.4625 107.236H43.5516L42.7618 112.171H40.5146L43.7704 93.2373H46.4774L49.5051 112.171H47.2394ZM58.5346 111.677C57.9134 112.01 56.7027 112.338 55.7034 112.338C54.2034 112.338 52.9649 111.796 51.9915 110.481C50.8234 108.944 50.1336 106.238 50.1578 102.881C50.2078 95.7707 53.1892 93.0678 56.0575 93.0678C57.0847 93.0678 57.8597 93.3286 58.3158 93.621L57.8764 96.2066C57.4703 95.9383 56.9326 95.7614 56.1947 95.7614C54.3109 95.7614 52.5718 97.5645 52.5718 102.911C52.5718 108.257 54.0977 109.788 55.6199 109.788C56.013 109.788 56.2652 109.715 56.3912 109.635V104.347H54.8208V101.884H58.5364V111.677H58.5346ZM64.7903 91.3075L64.0134 86.373H61.1025L60.3126 91.3075H58.0655L61.3213 72.3743H64.0283L67.056 91.3075H64.7903ZM71.2055 51.5112H73.9125L76.9402 70.4444H74.6745L73.8976 65.51H70.9867L70.1968 70.4444H67.9497L71.2055 51.5112ZM75.0064 91.3075H68.7766V72.3743H71.0942V88.7648H75.0064V91.3075ZM83.0939 89.5174C82.1205 90.8138 80.6929 91.4397 78.8165 91.4397C78.0137 91.4397 77.2053 91.3485 76.6843 91.2386V72.6537C77.3574 72.4208 78.2863 72.2886 79.2856 72.2886C80.9914 72.2886 82.191 72.8176 83.068 73.857C84.2676 75.2318 85.0018 77.713 85.0018 81.5056C85.0018 85.5646 84.2157 88.1166 83.0939 89.5155V89.5174ZM93.1617 91.3075H86.8948V72.3743H92.9058V74.9766H89.2143V80.1737H92.6982V82.6791H89.2143V88.7033H93.1635V91.3056L93.1617 91.3075Z" fill="#E8EDDA"/>
<path d="M79.6545 74.7046C79.4246 74.7046 79.1891 74.7288 78.9889 74.8015V88.9101C79.1817 88.966 79.4061 88.966 79.5581 88.966C81.1434 88.966 82.6007 87.2373 82.6007 81.4683C82.6007 77.1821 81.6625 74.7046 79.6545 74.7046Z" fill="#E8EDDA"/>
<path d="M32.4084 38.511L32.388 38.3191C31.7168 31.8888 31.3126 29.0034 31.3089 28.9736L31.2848 28.7985L31.4572 28.765C32.438 28.5731 33.5579 28.249 33.7359 28.0608L33.0907 23.4989L40.1566 22.48L42.4205 37.1232L32.4084 38.511ZM31.702 29.0965C31.7965 29.8007 32.1711 32.6563 32.7384 38.0881L41.9978 36.8047L39.8489 22.8991L33.5116 23.8137L34.116 28.0888L34.1123 28.1149C34.0678 28.4502 33.2575 28.7799 31.702 29.0965ZM32.3787 27.5579L32.3157 27.1239L32.6828 27.0698L32.7458 27.5039L32.3787 27.5579Z" fill="#E8EDDA"/>
<path d="M32.2174 22.8208L29.8386 26.1086L31.4906 37.464L41.1264 36.1284L38.92 21.854L32.2193 22.8208H32.2174ZM33.2613 26.4327L31.4814 26.6935L31.4183 26.2595L32.7774 26.0601L32.4807 23.6348L32.9146 23.5808L33.2631 26.4308L33.2613 26.4327Z" fill="#E8EDDA"/>
<path d="M52.7387 45.9768L47.2561 40.0494L47.4007 39.9228C51.2313 36.5754 52.9018 35.0069 52.9185 34.992L53.0465 34.8709L53.1725 34.9939C53.7121 35.5155 54.3981 36.078 54.6187 36.1376L57.2719 33.6396L61.1804 37.8197L52.7368 45.9749L52.7387 45.9768ZM47.7882 40.0792L52.7535 45.4459L60.6612 37.8085L57.2571 34.1687L54.7856 36.486C54.691 36.5344 54.4092 36.6816 53.0446 35.3851C52.594 35.8042 50.9383 37.3261 47.7901 40.0792H47.7882ZM54.5687 35.3143L54.3147 35.0442L54.565 34.8057L54.819 35.0758L54.5687 35.3143Z" fill="#E8EDDA"/>
<path d="M57.3126 32.824L54.1217 32.77L47.5693 38.9842L52.7923 44.6321L60.9689 36.7359L57.3126 32.8259V32.824ZM55.4622 35.1357L54.487 34.0982L54.7373 33.8597L55.4808 34.6514L56.9047 33.3605L57.1365 33.6176L55.4622 35.1357Z" fill="#E8EDDA"/>
<path d="M71.2165 37.2034L71.1313 37.0301C69.4978 33.7125 68.7098 32.2447 68.7024 32.2298L68.619 32.0752L68.7691 31.9839C69.1974 31.7212 69.6851 31.3673 69.8019 31.2146L68.5355 28.8656L72.266 26.8296L76.4599 34.3794L71.2147 37.2034H71.2165ZM69.1103 32.2074C69.3458 32.6545 70.0911 34.0814 71.3779 36.693L75.9519 34.2285L72.1195 27.3307L69.0361 29.0128L70.1801 31.1512C70.2024 31.2518 70.2543 31.4828 69.1084 32.2055L69.1103 32.2074ZM68.9953 31.2555L68.8748 31.0357L69.2011 30.8569L69.3217 31.0767L68.9953 31.2555Z" fill="#E8EDDA"/>
<path d="M68.0405 28.7073L67.4138 30.9482L70.551 36.7172L75.4606 34.0739L71.4483 26.8501L68.0405 28.7091V28.7073ZM69.3161 30.4378L68.4113 30.9352L68.2908 30.7153L68.9805 30.3372L68.3409 29.0947L68.5634 28.9792L69.3161 30.4397V30.4378Z" fill="#E8EDDA"/>
<path d="M73.243 50.142L73.1169 49.9986C70.6788 47.2249 69.5367 46.0141 69.5256 46.0011L69.405 45.8725L69.5256 45.744C69.8704 45.377 70.2505 44.9095 70.3228 44.7306L68.491 42.7952L71.5632 39.8521L77.5742 46.0402L73.2449 50.142H73.243ZM69.9131 45.8725C70.2579 46.2414 71.3481 47.4242 73.2671 49.6074L77.0439 46.029L71.5521 40.3755L69.012 42.8083L70.6732 44.5742C70.7214 44.6654 70.8308 44.8741 69.9112 45.8744L69.9131 45.8725ZM69.5552 44.984L69.3828 44.8033L69.6498 44.5462L69.8222 44.7269L69.5552 44.984Z" fill="#E8EDDA"/>
<path d="M67.97 42.7728L67.9478 45.0995L72.4736 49.8458L76.5267 46.0048L70.7753 40.083L67.97 42.771V42.7728ZM69.6498 44.1103L68.9063 44.8275L68.7339 44.6468L69.3012 44.101L68.3612 43.069L68.5466 42.8995L69.6517 44.1122L69.6498 44.1103Z" fill="#E8EDDA"/>
<path d="M105.957 38.5164C105.045 37.6819 103.318 36.7486 103.318 36.7486C103.318 36.7486 103.198 34.8784 102.469 32.1587C102.167 31.0262 101.885 30.0128 101.157 28.9808C100.37 27.865 99.4248 27.2429 98.8407 26.8871C95.2549 24.7077 88.9306 21.5503 86.1587 20.1867C86.1494 20.1867 86.142 20.1848 86.1328 20.183C86.4721 19.5161 86.9004 18.6741 86.9004 18.6741C86.9004 18.6741 87.9831 16.7946 86.587 15.6527C84.4659 13.9185 76.7733 10.8002 76.7733 10.8002L74.9674 10.0421C72.3105 8.98959 66.8668 6.33328 64.3694 6.70211C62.5876 6.96476 62.0629 8.66547 62.0629 8.66547C62.0629 8.66547 61.8496 9.37705 61.6531 10.0402C61.5159 9.95451 61.3806 9.86882 61.2415 9.78686C59.482 9.06969 53.1836 6.55681 47.6751 5.02189C46.6905 4.74806 45.515 4.49286 44.2023 4.86728C42.7005 5.29572 41.4082 6.4376 40.7296 7.03741C39.5226 8.10478 38.1839 8.89832 38.1839 8.89832C38.1839 8.89832 37.4924 8.80518 36.4856 8.5891C34.7706 8.21841 34.5647 8.12154 34.2477 8.27988C33.7638 8.52017 33.5913 9.08646 33.2446 10.219C33.0055 10.9995 32.8868 11.3907 33.0129 11.8471C33.2298 12.6276 34.0011 13.0672 34.4016 13.2423C37.7816 14.7251 41.3786 15.8315 41.3786 15.8315C43.6368 16.5524 45.8006 17.2305 53.6953 20.2966C55.8201 21.1218 57.7632 21.8986 70.5954 27.2746C77.4389 30.1414 83.2719 33.0659 83.346 33.1069C83.346 33.1069 91.7136 37.1137 101.616 42.3928C101.906 42.5474 102.354 42.6499 102.851 42.5474C103.615 42.3909 103.876 42.024 104.967 41.1839C105.901 40.4611 106.014 40.2674 106.216 39.6787C106.387 39.1814 106.1 38.6486 105.953 38.5164H105.957ZM105.87 39.5577C105.703 40.042 105.653 40.1873 104.744 40.8895C104.473 41.0982 104.253 41.2789 104.064 41.4335C103.502 41.8936 103.268 42.0836 102.781 42.1842C102.269 42.2885 101.896 42.119 101.794 42.065C91.9973 36.8417 83.5926 32.8107 83.5092 32.7716C83.1477 32.589 77.4148 29.7278 70.7419 26.9318C57.8263 21.5223 55.9036 20.7549 53.8325 19.9501C46.1046 16.9492 43.8389 16.2246 41.6474 15.5261L41.4917 15.4758C41.4564 15.4646 37.8762 14.3581 34.5555 12.9014C34.2607 12.7729 33.5561 12.4003 33.3744 11.7465C33.2817 11.4112 33.3614 11.1206 33.6025 10.3271C33.9381 9.22803 34.0882 8.77537 34.4146 8.61331C34.5481 8.54625 34.6908 8.57233 35.616 8.7791C35.8385 8.82939 36.0981 8.88714 36.4096 8.9542C37.4182 9.17214 38.1079 9.26528 38.1357 9.26901L38.2618 9.28577L38.3712 9.22058C38.4268 9.18705 39.7544 8.39723 40.9744 7.31869C41.6418 6.73005 42.8822 5.63288 44.3025 5.2268C45.541 4.87473 46.6405 5.12248 47.5749 5.38141C53.0223 6.89956 59.2502 9.37891 61.0746 10.1222C61.1636 10.1762 61.2508 10.2302 61.3379 10.2842L61.8682 10.6139L62.4151 8.7791C62.4337 8.71949 62.9028 7.29633 64.4213 7.07094C66.3403 6.78966 70.3729 8.50527 73.041 9.64343C73.6992 9.92284 74.3203 10.1892 74.8228 10.3885L76.6324 11.1485C76.7084 11.1802 84.2991 14.265 86.3515 15.9433C87.4825 16.8672 86.6148 18.4245 86.5777 18.4897L85.8009 20.0153L85.5765 20.4903L86.0493 20.5499C88.6896 21.8483 95.0695 25.0336 98.6461 27.2056C99.2987 27.6024 100.139 28.1873 100.851 29.1951C101.555 30.1954 101.824 31.1957 102.108 32.2556C102.816 34.9026 102.944 36.7561 102.944 36.7728L102.957 36.9796L103.139 37.0783C103.155 37.0876 104.835 37.9985 105.703 38.7921C105.781 38.8703 105.973 39.2447 105.866 39.5577H105.87Z" fill="#E8EDDA"/>
<path d="M103.142 37.0766L102.961 36.9779L102.948 36.7711C102.948 36.7525 102.82 34.9009 102.111 32.2539C101.828 31.194 101.561 30.1937 100.854 29.1934C100.144 28.1856 99.3024 27.6007 98.6497 27.2039C95.0732 25.0301 88.6914 21.8466 86.053 20.5483L85.5802 20.4887L85.8046 20.0136L86.5814 18.488C86.6185 18.4228 87.4862 16.8674 86.3552 15.9416C84.3027 14.2614 76.7139 11.1785 76.636 11.1469L74.8265 10.3868C74.324 10.1875 73.7029 9.92301 73.0447 9.64174C70.3766 8.50545 66.3458 6.78797 64.425 7.06925C62.9065 7.29278 62.4374 8.71594 62.4188 8.77741L61.8719 10.6122L61.3416 10.2825C61.2545 10.2285 61.1673 10.1745 61.0783 10.1205C59.2539 9.37722 53.026 6.89787 47.5786 5.37972C46.6442 5.11893 45.5447 4.87118 44.3062 5.22511C42.8841 5.63119 41.6437 6.72836 40.9781 7.317C39.7581 8.39554 38.4305 9.18536 38.3749 9.21889L38.2655 9.28408L38.1394 9.26732C38.1098 9.26359 37.42 9.17046 36.4133 8.95251C36.1018 8.88545 35.8422 8.82771 35.6197 8.77741C34.6945 8.57064 34.5518 8.54643 34.4183 8.61162C34.0901 8.77368 33.9418 9.22634 33.6062 10.3254C33.3633 11.1189 33.2854 11.4095 33.3781 11.7448C33.5598 12.3986 34.2644 12.7693 34.5592 12.8997C37.8799 14.3564 41.4601 15.4629 41.4953 15.4741L41.6511 15.5244C43.8426 16.2248 46.1083 16.9475 53.8362 19.9484C55.9072 20.7513 57.8299 21.5188 70.7456 26.9301C77.4203 29.7261 83.1532 32.5873 83.5129 32.7699C83.5963 32.8109 92.001 36.8401 101.798 42.0633C101.9 42.1173 102.273 42.2868 102.784 42.1825C103.272 42.0819 103.504 41.8919 104.067 41.4318C104.257 41.2772 104.477 41.0965 104.748 40.8879C105.656 40.1875 105.706 40.0403 105.873 39.556C105.981 39.243 105.788 38.8668 105.71 38.7904C104.842 37.9968 103.163 37.0859 103.146 37.0766H103.142ZM84.6328 19.222L84.5827 19.3319L84.5308 19.4474L84.4863 19.533L74.6837 15.5989L63.2105 10.8861L63.4367 10.3403C63.4979 10.1689 63.6907 8.70663 65.3557 8.47005C67.2043 8.2074 70.6547 9.62125 73.1726 10.6532C73.7381 10.8842 74.2702 11.104 74.7041 11.2679L76.2708 11.9013C76.5749 12.0205 82.9993 14.5334 84.8516 15.9882C85.3077 16.3477 85.43 16.7892 85.3892 17.2325C85.341 18.1136 84.6365 19.2201 84.6365 19.2201L84.6328 19.222Z" fill="#E8EDDA"/>
</svg>
