<?xml version="1.0" encoding="UTF-8"?><svg id="logo" xmlns="http://www.w3.org/2000/svg" width="207.39mm" height="229.15mm" viewBox="0 0 587.88 649.57"><defs><style>.cls-1{fill:#e8ecd9;}</style></defs><path class="cls-1" d="M108.84,196.94l-85.82-30.49.38-.96c21.53-54.84,30.35-79.89,30.44-80.13l.31-.9.91.27c10.83,3.18,20.87,4.87,22.21,3.76l13.77-39.25,60.37,21.07-.31.94-42.27,125.69ZM25.64,165.26l81.95,29.11,41.3-122.82-56.62-19.76-13.22,37.68-.08.11c-2.13,3.04-16.53-.64-23.57-2.67-1.74,4.87-10.73,29.82-29.77,78.35ZM70.36,79.05l-1.89-.65,1.31-3.78,1.89.65-1.31,3.78Z"/><path class="cls-1" d="M86.37,39.19l-33.11,16.56-34.22,98.78,83.88,29.8,41.94-124.72-58.5-20.42ZM79.69,72.79l-15.56-5.39,1.31-3.78,11.87,4.11,7.76-20.86,3.75,1.39-9.12,24.52Z"/><path class="cls-1" d="M243.13,516.6h-.33c-.87,7.18-2.04,16.86-3,23.2l-3.45,23.27h12.94l-3.3-23.33c-.94-6.64-1.99-16.02-2.85-23.14Z"/><path class="cls-1" d="M393.95,315.74c-.94-6.64-1.99-16.02-2.85-23.14h-.33c-.87,7.18-2.04,16.86-3,23.2l-3.45,23.27h12.94l-3.3-23.33Z"/><path class="cls-1" d="M186.86,513.04c-1.24,0-2.51.13-3.59.52v75.74c1.04.3,2.25.3,3.07.3,8.55,0,16.41-9.28,16.41-40.25,0-23.01-5.06-36.31-15.89-36.31Z"/><path class="cls-1" d="M202.75,325.35c0-23.01-5.06-36.31-15.89-36.31-1.24,0-2.51.13-3.59.52v75.74c1.04.3,2.25.3,3.07.3,8.55,0,16.41-9.28,16.41-40.25Z"/><path class="cls-1" d="M278.52,435.53h3.25c7.52,0,12.22-7.52,12.22-17.84s-3.13-16.74-11.28-16.91c-1.58,0-3.18.15-4.19.6v34.14Z"/><path class="cls-1" d="M337.79,404.6h-.33c-.87,7.18-2.04,16.86-3,23.2l-3.45,23.27h12.94l-3.3-23.33c-.94-6.64-1.99-16.02-2.85-23.14Z"/><path class="cls-1" d="M554.48,244.23c-4.5-5.41-13.14-4.63-15.68-4.99-33.12-4.66-97.63-7.13-97.63-7.13l-184.58,2.43s-70.93,1.86-105.47,5.41c-9.22.95-13.56.46-22.21,2.62-11.64,2.91-13.62,6.02-14.2,7.1-3.33,6.13-.75,18.27,5.48,22.21,4.81,3.04,8.81-1.14,12.11,2.28,3.79,3.91,3.14,12.83,3.14,12.83l15.68,298.6s.68,22.8,11.4,35.63c7.34,8.78,22.8,14.97,22.8,14.97l279.36-.71s21.19-6.13,31.36-18.53c8.51-10.38,10.55-21.96,11.4-27.79,13.4-91.3,27.08-301.45,27.08-301.45,0,0,.55-8.44,4.28-11.4,4.16-3.3,8.25-.31,12.83-3.56,5.02-3.57,5.46-10.99,5.7-14.97.22-3.66.56-9.43-2.85-13.54ZM424.25,276.53h12.5v87.99h21.1v13.65h-33.6v-101.64ZM326.92,276.53h40.9v14.76h-14.23v86.88h-12.5v-86.88h-14.16v-14.76ZM305.8,276.53h12.5v101.64h-12.5v-101.64ZM300.71,395.51c4.4,5.36,5.95,12.15,5.95,20.55,0,11.84-4.42,20.99-12.4,25.75v.3c5.56,2.56,8.44,9.31,10.05,21.34,1.66,12.44,3.55,23.26,4.82,26.73h-12.97c-1.04-2.91-2.71-12.88-4.07-24.69-1.53-13.23-4.44-17.53-10.7-17.53h-2.87v42.22h-12.44v-100.13c4.36-1.34,9.83-1.96,15.06-1.96,8.11,0,14.92,1.81,19.57,7.43ZM280.54,275.63c5.54,0,9.72,1.4,12.18,2.97l-2.37,13.88c-2.19-1.44-5.09-2.39-9.07-2.39-10.16,0-19.54,9.68-19.54,38.38s8.23,36.92,16.44,36.92c2.12,0,3.48-.39,4.16-.82v-28.39h-8.47v-13.22h20.04v52.57c-3.35,1.79-9.88,3.55-15.27,3.55-8.09,0-14.77-2.91-20.02-9.97-6.3-8.25-10.02-22.78-9.89-40.8.27-38.17,16.35-52.68,31.82-52.68ZM258.5,388.53l-18.45,43.86,18.82,57.78h-13.64l-13.58-45.17-3.97,8.93v36.24h-12.44v-101.64h12.44v46.91h.3c1.51-4.31,2.87-8.57,4.31-12.79l12.41-34.12h13.81ZM225.9,276.53h12.5v101.64h-12.5v-101.64ZM170.83,278.04c3.63-1.25,8.64-1.96,14.03-1.96,9.2,0,15.67,2.84,20.4,8.42,6.47,7.38,10.43,20.7,10.43,41.06,0,21.79-4.24,35.49-10.29,43-5.25,6.96-12.95,10.32-23.07,10.32-4.33,0-8.69-.49-11.5-1.08v-99.77ZM182.84,444.36c-8.73-7.2-14.88-17.32-14.88-28.31,0-15.89,8.38-28.42,23.13-28.42,5.09,0,9.69,1.94,11.79,3.68l-2.32,13.82c-2.14-1.81-5.49-3.47-9.75-3.47-7.1,0-10.49,6.22-10.49,12.32,0,7.88,3.16,11.46,11.2,18.14,10.04,8.36,14.02,18.22,14.02,29.15,0,18.18-10.17,29.81-24.28,29.81-5.94,0-11.86-2.16-14.32-4.25l2.09-13.84c2.94,2.28,8.08,4.05,12.24,4.05,7.7,0,11.91-5.8,11.91-14.12s-3.89-12.84-10.34-18.57ZM205.4,592.56c-5.25,6.96-12.95,10.32-23.07,10.32-4.33,0-8.69-.49-11.5-1.08v-99.77c3.63-1.25,8.64-1.96,14.03-1.96,9.2,0,15.67,2.84,20.4,8.42,6.47,7.38,10.43,20.7,10.43,41.06,0,21.79-4.24,35.49-10.29,43ZM254.78,602.17l-4.19-26.49h-15.7l-4.26,26.49h-12.12l17.56-101.64h14.6l16.33,101.64h-12.22ZM315.7,599.52c-3.35,1.79-9.88,3.55-15.27,3.55-8.09,0-14.77-2.91-20.02-9.97-6.3-8.25-10.02-22.78-9.89-40.8.27-38.17,16.35-52.68,31.82-52.68,5.54,0,9.72,1.4,12.18,2.97l-2.37,13.88c-2.19-1.44-5.09-2.39-9.07-2.39-10.16,0-19.54,9.68-19.54,38.38s8.23,36.92,16.44,36.92c2.12,0,3.48-.39,4.16-.82v-28.39h-8.47v-13.22h20.04v52.57ZM349.44,490.17l-4.19-26.49h-15.7l-4.26,26.49h-12.12l17.56-101.64h14.6l16.33,101.64h-12.22ZM384.04,276.53h14.6l16.33,101.64h-12.22l-4.19-26.49h-15.7l-4.26,26.49h-12.12l17.56-101.64ZM404.54,490.17h-33.6v-101.64h12.5v87.99h21.1v13.65ZM448.16,480.56c-5.25,6.96-12.95,10.32-23.07,10.32-4.33,0-8.69-.49-11.5-1.08v-99.77c3.63-1.25,8.64-1.96,14.03-1.96,9.2,0,15.67,2.84,20.4,8.42,6.47,7.38,10.43,20.7,10.43,41.06,0,21.79-4.24,35.49-10.29,43ZM502.46,490.17h-33.8v-101.64h32.42v13.97h-19.91v27.9h18.79v13.45h-18.79v32.34h21.3v13.97Z"/><path class="cls-1" d="M429.61,401.04c-1.24,0-2.51.13-3.59.52v75.74c1.04.3,2.25.3,3.07.3,8.55,0,16.41-9.28,16.41-40.25,0-23.01-5.06-36.31-15.89-36.31Z"/><path class="cls-1" d="M174.79,206.74l-.11-1.03c-3.62-34.52-5.8-50.01-5.82-50.17l-.13-.94.93-.18c5.29-1.03,11.33-2.77,12.29-3.78l-3.48-24.49,38.11-5.47,12.21,78.61-54,7.45ZM170.98,156.2c.51,3.78,2.53,19.11,5.59,48.27l49.94-6.89-11.59-74.65-34.18,4.91,3.26,22.95-.02.14c-.24,1.8-4.61,3.57-13,5.27ZM174.63,147.94l-.34-2.33,1.98-.29.34,2.33-1.98.29Z"/><path class="cls-1" d="M173.76,122.51l-12.83,17.65,8.91,60.96,51.97-7.17-11.9-76.63-36.14,5.19ZM179.39,141.9l-9.6,1.4-.34-2.33,7.33-1.07-1.6-13.02,2.34-.29,1.88,15.3Z"/><path class="cls-1" d="M284.44,246.82l-29.57-31.82.78-.68c20.66-17.97,29.67-26.39,29.76-26.47l.69-.65.68.66c2.91,2.8,6.61,5.82,7.8,6.14l14.31-13.41,21.08,22.44-45.54,43.78ZM257.74,215.16l26.78,28.81,42.65-41-18.36-19.54-13.33,12.44c-.51.26-2.03,1.05-9.39-5.91-2.43,2.25-11.36,10.42-28.34,25.2ZM294.31,189.58l-1.37-1.45,1.35-1.28,1.37,1.45-1.35,1.28Z"/><path class="cls-1" d="M309.11,176.21l-17.21-.29-35.34,33.36,28.17,30.32,44.1-42.39-19.72-20.99ZM299.13,188.62l-5.26-5.57,1.35-1.28,4.01,4.25,7.68-6.93,1.25,1.38-9.03,8.15Z"/><path class="cls-1" d="M384.1,199.72l-.46-.93c-8.81-17.81-13.06-25.69-13.1-25.77l-.45-.83.81-.49c2.31-1.41,4.94-3.31,5.57-4.13l-6.83-12.61,20.12-10.93,22.62,40.53-28.29,15.16ZM372.74,172.9c1.27,2.4,5.29,10.06,12.23,24.08l24.67-13.23-20.67-37.03-16.63,9.03,6.17,11.48c.12.54.4,1.78-5.78,5.66ZM372.12,167.79l-.65-1.18,1.76-.96.65,1.18-1.76.96Z"/><path class="cls-1" d="M366.97,154.11l-3.38,12.03,16.92,30.97,26.48-14.19-21.64-38.78-18.38,9.98ZM373.85,163.4l-4.88,2.67-.65-1.18,3.72-2.03-3.45-6.67,1.2-.62,4.06,7.84Z"/><path class="cls-1" d="M395.03,269.18l-.68-.77c-13.15-14.89-19.31-21.39-19.37-21.46l-.65-.69.65-.69c1.86-1.97,3.91-4.48,4.3-5.44l-9.88-10.39,16.57-15.8,32.42,33.22-23.35,22.02ZM377.07,246.26c1.86,1.98,7.74,8.33,18.09,20.05l20.37-19.21-29.62-30.35-13.7,13.06,8.96,9.48c.26.49.85,1.61-4.11,6.98ZM375.14,241.49l-.93-.97,1.44-1.38.93.97-1.44,1.38Z"/><path class="cls-1" d="M366.59,229.62l-.12,12.49,24.41,25.48,21.86-20.62-31.02-31.79-15.13,14.43ZM375.65,236.8l-4.01,3.85-.93-.97,3.06-2.93-5.07-5.54,1-.91,5.96,6.51Z"/><path class="cls-1" d="M571.47,206.77c-4.92-4.48-14.23-9.49-14.23-9.49,0,0-.65-10.04-4.58-24.64-1.63-6.08-3.15-11.52-7.08-17.06-4.24-5.99-9.34-9.33-12.49-11.24-19.34-11.7-53.45-28.65-68.4-35.97-.05,0-.09-.01-.14-.02,1.83-3.58,4.14-8.1,4.14-8.1s5.84-10.09-1.69-16.22c-11.44-9.31-52.93-26.05-52.93-26.05l-9.74-4.07c-14.33-5.65-43.69-19.91-57.16-17.93-9.61,1.41-12.44,10.54-12.44,10.54,0,0-1.15,3.82-2.21,7.38-.74-.46-1.47-.92-2.22-1.36-9.49-3.85-43.46-17.34-73.17-25.58-5.31-1.47-11.65-2.84-18.73-.83-8.1,2.3-15.07,8.43-18.73,11.65-6.51,5.73-13.73,9.99-13.73,9.99,0,0-3.73-.5-9.16-1.66-9.25-1.99-10.36-2.51-12.07-1.66-2.61,1.29-3.54,4.33-5.41,10.41-1.29,4.19-1.93,6.29-1.25,8.74,1.17,4.19,5.33,6.55,7.49,7.49,18.23,7.96,37.63,13.9,37.63,13.9,12.18,3.87,23.85,7.51,66.43,23.97,11.46,4.43,21.94,8.6,91.15,37.46,36.91,15.39,68.37,31.09,68.77,31.31,0,0,45.13,21.51,98.54,49.85,1.56.83,3.98,1.38,6.66.83,4.12-.84,5.53-2.81,11.41-7.32,5.04-3.88,5.65-4.92,6.74-8.08.92-2.67-.63-5.53-1.42-6.24ZM571,212.36c-.9,2.6-1.17,3.38-6.07,7.15-1.46,1.12-2.65,2.09-3.67,2.92-3.03,2.47-4.29,3.49-6.92,4.03-2.76.56-4.77-.35-5.32-.64-52.84-28.04-98.17-49.68-98.62-49.89-1.95-.98-32.87-16.34-68.86-31.35-69.66-29.04-80.03-33.16-91.2-37.48-41.68-16.11-53.9-20-65.72-23.75l-.84-.27c-.19-.06-19.5-6-37.41-13.82-1.59-.69-5.39-2.69-6.37-6.2-.5-1.8-.07-3.36,1.23-7.62,1.81-5.9,2.62-8.33,4.38-9.2.72-.36,1.49-.22,6.48.89,1.2.27,2.6.58,4.28.94,5.44,1.17,9.16,1.67,9.31,1.69l.68.09.59-.35c.3-.18,7.46-4.42,14.04-10.21,3.6-3.16,10.29-9.05,17.95-11.23,6.68-1.89,12.61-.56,17.65.83,29.38,8.15,62.97,21.46,72.81,25.45.48.29.95.58,1.42.87l2.86,1.77,2.95-9.85c.1-.32,2.63-7.96,10.82-9.17,10.35-1.51,32.1,7.7,46.49,13.81,3.55,1.5,6.9,2.93,9.61,4l9.76,4.08c.41.17,41.35,16.73,52.42,25.74,6.1,4.96,1.42,13.32,1.22,13.67l-4.19,8.19-1.21,2.55,2.55.32c14.24,6.97,48.65,24.07,67.94,35.73,3.52,2.13,8.05,5.27,11.89,10.68,3.8,5.37,5.25,10.74,6.78,16.43,3.82,14.21,4.51,24.16,4.51,24.25l.07,1.11.98.53c.09.05,9.15,4.94,13.83,9.2.42.42,1.46,2.43.88,4.11Z"/><path class="cls-1" d="M556.29,199.04l-.98-.53-.07-1.11c0-.1-.69-10.04-4.51-24.25-1.53-5.69-2.97-11.06-6.78-16.43-3.83-5.41-8.37-8.55-11.89-10.68-19.29-11.67-53.71-28.76-67.94-35.73l-2.55-.32,1.21-2.55,4.19-8.19c.2-.35,4.88-8.7-1.22-13.67-11.07-9.02-52-25.57-52.42-25.74l-9.76-4.08c-2.71-1.07-6.06-2.49-9.61-4-14.39-6.1-36.13-15.32-46.49-13.81-8.19,1.2-10.72,8.84-10.82,9.17l-2.95,9.85-2.86-1.77c-.47-.29-.94-.58-1.42-.87-9.84-3.99-43.43-17.3-72.81-25.45-5.04-1.4-10.97-2.73-17.65-.83-7.67,2.18-14.36,8.07-17.95,11.23-6.58,5.79-13.74,10.03-14.04,10.21l-.59.35-.68-.09c-.16-.02-3.88-.52-9.31-1.69-1.68-.36-3.08-.67-4.28-.94-4.99-1.11-5.76-1.24-6.48-.89-1.77.87-2.57,3.3-4.38,9.2-1.31,4.26-1.73,5.82-1.23,7.62.98,3.51,4.78,5.5,6.37,6.2,17.91,7.82,37.22,13.76,37.41,13.82l.84.27c11.82,3.76,24.04,7.64,65.72,23.75,11.17,4.31,21.54,8.43,91.2,37.48,36,15.01,66.92,30.37,68.86,31.35.45.22,45.78,21.85,98.62,49.89.55.29,2.56,1.2,5.32.64,2.63-.54,3.88-1.56,6.92-4.03,1.02-.83,2.21-1.8,3.67-2.92,4.9-3.76,5.17-4.55,6.07-7.15.58-1.68-.46-3.7-.88-4.11-4.68-4.26-13.74-9.15-13.83-9.2ZM456.46,103.19s-.27.59-.27.59l-.28.62-.24.46-52.87-21.12-61.88-25.3,1.22-2.93c.33-.92,1.37-8.77,10.35-10.04,9.97-1.41,28.58,6.18,42.16,11.72,3.05,1.24,5.92,2.42,8.26,3.3l8.45,3.4c1.64.64,36.29,14.13,46.28,21.94,2.46,1.93,3.12,4.3,2.9,6.68-.26,4.73-4.06,10.67-4.06,10.67Z"/></svg>