<svg width="193" height="577" viewBox="0 0 193 577" fill="none" xmlns="http://www.w3.org/2000/svg">
<g clip-path="url(#clip0_161_1499)">
<path d="M23.1396 23.0574C22.2862 21.9108 21.0462 23.8441 20.6196 23.9775C22.6196 25.3108 23.5129 22.6174 23.1396 23.0574Z" fill="#3E492B"/>
<path d="M41.8199 37.2175L40.8465 37.4175C42.0865 37.8975 43.3399 38.4042 44.5799 38.9375C43.6732 38.3508 42.7399 37.7775 41.8199 37.2175Z" fill="#3E492B"/>
<path d="M52.4467 55.9512C53.7534 54.2445 52.7534 52.4978 51.34 50.7511C49.9133 48.9911 48.06 47.2444 47.6733 45.2043L48.1 44.2043H44.5666C47.4066 48.0311 52.0734 52.5111 52.4467 55.9512Z" fill="#3E492B"/>
<path d="M48.6066 68.7915C49.82 67.7782 50.4867 70.4449 48.34 66.4715C48.26 66.7382 48.1933 66.8315 48.1133 66.9915C48.2599 67.3648 48.4333 67.8848 48.6066 68.7915Z" fill="#3E492B"/>
<path d="M48.1133 66.9781C47.3933 65.178 47.34 68.5781 48.1133 66.9781V66.9781Z" fill="#3E492B"/>
<path d="M51.14 75.2715C50.5667 74.5381 49.98 73.8315 49.3533 73.1381C48.6333 73.8315 48.82 75.9248 48.0466 75.2715C49.18 77.4848 49.94 76.9382 51.1267 75.2715H51.14Z" fill="#3E492B"/>
<path d="M54.2467 77.2183L53.5 75.9783C53.1667 76.2716 53.0867 76.6183 54.2467 77.2183Z" fill="#3E492B"/>
<path d="M51.8467 73.4449C52.4067 74.2715 52.98 75.1116 53.5134 75.9783C54.0734 75.5249 55.2867 75.2582 52.8734 74.7782C54.02 74.8049 52.8734 74.4315 51.8467 73.4449Z" fill="#3E492B"/>
<path d="M52.06 71.7649C52.5134 70.1782 52.5134 68.1248 54.4601 70.4048C53.5667 67.9515 52.42 67.1381 51.86 67.5248C51.26 67.9115 51.2067 69.4315 52.06 71.7649Z" fill="#3E492B"/>
<path d="M56.4868 55.3378C56.5134 54.4845 56.5401 53.6312 56.5268 52.7645C55.8467 52.3378 55.1934 51.9245 54.5001 51.5111C55.5401 52.1378 55.4734 55.9512 56.4868 55.3245V55.3378Z" fill="#3E492B"/>
<path d="M49.6333 91.4451C50.4333 91.6851 51.8467 90.5517 52.8867 90.3784L52.06 88.1517C51.4734 89.205 50.8333 91.3651 49.62 91.4451H49.6333Z" fill="#3E492B"/>
<path d="M52.8867 90.3651L54.0734 93.8718C54.4201 90.7651 53.78 90.2318 52.8867 90.3651Z" fill="#3E492B"/>
<path d="M58.5001 77.1514C57.3268 75.6181 56.1001 74.1381 54.8067 72.7647C56.1534 74.4314 57.4734 76.2715 58.6335 78.0981L58.4868 77.1648L58.5001 77.1514Z" fill="#3E492B"/>
<path d="M48.62 104.459L46.8999 102.445L49.46 106.005L48.62 104.459Z" fill="#3E492B"/>
<path d="M48.3 112.872C46.8599 111.325 45.5399 114.472 44.6999 112.912C44.7666 114.112 45.0199 114.965 45.4333 115.952C45.8199 116.912 46.3266 117.832 46.7933 118.739C46.6066 117.832 46.6066 116.939 46.8466 116.005C47.0866 115.072 47.5799 114.139 48.3 112.872Z" fill="#3E492B"/>
<path d="M48.0466 121.792C47.8333 120.846 47.3399 119.819 46.7799 118.752C46.9933 119.712 47.34 120.712 48.0466 121.792Z" fill="#3E492B"/>
<path d="M53.2867 99.8051C52.78 100.032 51.46 100.458 50.7667 102.285L53.14 101.125C53.18 100.725 53.2334 100.272 53.2734 99.8051H53.2867Z" fill="#3E492B"/>
<path d="M53.22 101.085L53.14 101.125C52.9667 102.552 52.8467 103.539 52.7934 103.965C52.8467 103.605 52.98 102.739 53.22 101.085Z" fill="#3E492B"/>
<path d="M53.3267 99.4718C53.3134 99.5918 53.3 99.6852 53.2867 99.8052C53.5267 99.6985 53.6067 99.6185 53.3267 99.4718Z" fill="#3E492B"/>
<path d="M56.8068 85.245C58.0601 87.0851 59.2335 91.3518 61.3402 87.4184C59.8201 85.9784 58.6601 88.1384 56.8068 85.245Z" fill="#3E492B"/>
<path d="M56.3001 97.9917L57.0468 94.245C56.4468 94.285 55.5267 94.8983 54.9534 93.845L56.3001 97.9917Z" fill="#3E492B"/>
<path d="M56.8867 99.8052L56.3001 97.9918L56.0067 99.3118L56.8867 99.8052Z" fill="#3E492B"/>
<path d="M51.0467 116.432C51.8334 117.992 51.6867 119.606 51.5267 121.446C52.3134 119.579 52.8467 117.606 53.0734 115.726C52.3934 115.365 51.22 114.405 51.0467 116.432Z" fill="#3E492B"/>
<path d="M52.34 109.085C52.38 109.192 52.3934 109.339 52.4467 109.445C52.66 109.259 52.7267 109.085 52.34 109.085Z" fill="#3E492B"/>
<path d="M47.5533 139.939C47.7 139.859 47.8733 139.806 48.0333 139.726C47.9133 139.673 47.8066 139.619 47.6733 139.566L47.5666 139.939H47.5533Z" fill="#3E492B"/>
<path d="M53.54 115.459C54.1534 114.045 53.6334 113.005 53.0067 112.072C53.1267 113.219 53.2334 114.539 53.0734 115.726C53.38 115.886 53.5934 115.939 53.54 115.459Z" fill="#3E492B"/>
<path d="M48.14 126.952C48.7666 126.285 49.34 125.485 49.8733 124.645C49.02 125.259 47.6066 126.565 48.14 126.952Z" fill="#3E492B"/>
<path d="M51.78 109.899C51.7533 109.819 51.7133 109.752 51.7 109.659C51.18 110.112 51.42 110.072 51.78 109.899Z" fill="#3E492B"/>
<path d="M51.78 109.899C52.0467 110.712 52.5534 111.392 53.0067 112.072C52.9 111.112 52.7267 110.219 52.4467 109.445C52.2733 109.619 52.0067 109.792 51.78 109.899Z" fill="#3E492B"/>
<path d="M60.4868 149.046C58.4868 148.313 57.5268 143.739 60.5668 140.699C59.8335 136.846 52.54 137.553 48.0466 139.726C48.9133 140.046 49.7533 140.233 50.1267 144.153C51.54 143.113 54.6201 136.739 55.7667 140.206C55.7134 145.233 54.1267 143.953 52.5 146.046C53.26 145.686 53.78 145.953 54.2067 146.539C54.4201 146.833 54.6067 147.206 54.7801 147.619C54.8601 147.833 54.9534 148.046 55.0467 148.273C55.1401 148.473 55.2334 148.673 55.3401 148.873C56.1268 150.499 56.9001 152.726 58.8201 152.966C58.7535 151.313 58.6201 149.753 58.4868 148.273C59.0868 148.326 59.6868 150.046 60.4868 149.006V149.046Z" fill="#3E492B"/>
<path d="M49.8067 132.992L49.8733 131.499C49.14 133.059 48.06 134.046 45.9399 135.872C46.3799 138.539 47.02 139.246 47.66 139.579L49.6067 132.432L49.8067 132.992Z" fill="#3E492B"/>
<path d="M51.2067 125.112C53.26 126.632 53.4867 130.312 56.3667 128.686C57.0734 124.406 55.0734 125.339 54.5534 122.672C53.86 129.486 53.66 120.526 51.4733 125.099C51.3533 123.712 51.4333 122.539 51.5267 121.432C51.0467 122.566 50.5 123.632 49.8733 124.632C49.94 124.579 49.98 124.552 50.0467 124.512V124.486H50.0733C50.4067 124.259 50.5933 124.192 50.38 124.486C50.4067 124.512 50.3933 124.592 50.3933 124.632C50.7 124.739 50.9533 124.912 51.1933 125.099C50.3533 126.926 50.5533 125.286 50.3933 124.632C50.2867 124.592 50.1933 124.512 50.0733 124.486C50.06 124.486 50.0467 124.486 50.0467 124.499C50.0467 126.779 49.98 129.099 49.8866 131.459C50.5133 130.086 50.86 128.259 51.2067 125.086V125.112Z" fill="#3E492B"/>
<path d="M66.1002 91.405C65.8869 91.6183 65.7269 91.5917 65.5536 91.605C65.8069 92.085 65.9936 92.2717 66.1002 91.405Z" fill="#3E492B"/>
<path d="M64.5402 94.2851C64.2469 93.7384 63.3668 93.2451 63.6869 91.5784C64.4602 90.1517 64.7802 91.6451 65.5402 91.6051C64.9935 90.5384 64.0735 87.9784 62.7935 91.0851L63.0735 91.6051C62.1268 94.4051 59.0335 98.0452 58.7535 97.5251C60.8601 96.7651 62.3802 96.0985 64.5269 94.2851H64.5402Z" fill="#3E492B"/>
<path d="M58.8468 110.552C59.0468 112.525 59.3268 114.566 59.4735 116.512C60.2735 115.632 60.9802 114.699 61.7268 113.766L60.5268 113.792C61.2602 110.485 59.7401 111.059 58.8468 110.552Z" fill="#3E492B"/>
<path d="M46.2866 140.366L44.1132 139.032L46.6466 143.232L46.2866 140.366Z" fill="#3E492B"/>
<path d="M45.1133 146.819L43.1132 146.086C43.4866 146.379 43.8466 146.713 44.1932 147.073C44.4999 147.006 44.8066 146.926 45.1133 146.819Z" fill="#3E492B"/>
<path d="M24.7796 398.516C23.8196 399.05 22.7796 399.53 21.6862 399.956C23.2463 399.45 24.1529 398.943 24.7796 398.516Z" fill="#3E492B"/>
<path d="M39.9398 388.996L39.5132 387.983C39.3932 388.863 39.4732 389.356 39.9398 388.996Z" fill="#3E492B"/>
<path d="M51.9667 282.515C52.06 282.195 52.1667 281.861 52.2734 281.528C51.2867 281.301 50.38 281.101 49.5267 280.955C50.3 281.395 51.1 281.941 51.98 282.515H51.9667Z" fill="#3E492B"/>
<path d="M61.4735 280.275C61.5402 281.635 61.5802 283.008 61.5668 284.368C61.7402 283.381 61.7535 282.048 61.4735 280.275Z" fill="#3E492B"/>
<path d="M24.4596 329.849C24.9796 328.982 24.5396 328.249 26.0196 327.235C25.673 327.289 25.3529 327.342 25.0729 327.395L24.8596 327.435H24.8063L24.7129 327.489C24.5929 327.542 24.5263 327.609 24.4196 327.689C24.2463 327.849 24.1796 328.035 24.1929 328.262C24.1929 328.702 24.4596 329.262 24.4596 329.849Z" fill="#3E492B"/>
<path d="M18.7929 374.303C18.5129 374.983 18.5528 375.489 18.8195 375.929C19.1395 375.289 19.2195 374.689 18.7929 374.303Z" fill="#3E492B"/>
<path d="M113.501 535.799C113.501 535.972 113.581 536.132 113.568 536.305C113.834 536.145 113.728 535.985 113.501 535.799Z" fill="#3E492B"/>
<path d="M173.715 568.732C172.915 569.079 171.542 569.452 170.262 569.732C170.915 569.759 171.982 569.505 173.715 568.732Z" fill="#3E492B"/>
<path d="M37.6198 150.619C38.1131 150.566 37.7265 150.379 37.6198 150.619V150.619Z" fill="#3E492B"/>
<path d="M42.3665 160.579C42.1799 160.833 42.0465 161.179 42.1399 161.726C42.1265 161.153 42.2065 160.779 42.3665 160.579Z" fill="#3E492B"/>
<path d="M38.3398 151.819C38.1265 151.499 37.9131 151.219 37.6998 151.006C37.7931 151.206 37.9665 151.473 38.3398 151.819Z" fill="#3E492B"/>
<path d="M38.2465 150.686C38.4065 150.819 38.5398 150.899 38.6732 150.979C38.7132 150.593 38.6732 150.339 38.2465 150.686Z" fill="#3E492B"/>
<path d="M37.0331 150.606C37.1798 150.606 37.4598 150.793 37.6865 150.993C37.6065 150.819 37.5798 150.686 37.6198 150.606C37.4865 150.619 37.2198 150.606 37.0331 150.606Z" fill="#3E492B"/>
<path d="M115.608 412.277C115.541 412.397 115.501 412.543 115.408 412.69C116.434 414.543 116.261 413.717 115.608 412.277Z" fill="#3E492B"/>
<path d="M-14.4343 369.663C-14.9543 371.796 -15.101 373.956 -15.0076 376.196C-16.5943 374.463 -17.621 372.636 -18.2477 371.023C-18.541 370.209 -18.7677 369.449 -18.9277 368.783C-19.021 368.449 -19.0611 368.129 -19.101 367.849C-19.2077 367.556 -19.1944 367.316 -19.2477 367.089C-19.4077 366.196 -19.5944 365.743 -19.981 365.956C-20.1677 366.063 -20.4077 366.316 -20.7011 366.769C-20.8477 366.996 -21.0211 367.276 -21.1944 367.596C-21.2877 367.929 -21.5677 368.316 -21.7144 368.769C-19.901 369.063 -18.9544 370.956 -17.8477 373.409C-16.7277 375.876 -15.3943 378.996 -13.4876 381.996C-11.6343 384.996 -9.32755 387.85 -7.12752 389.65C-4.91415 391.45 -2.86079 392.143 -1.36745 391.09C-0.700775 392.476 0.0459137 393.876 0.899246 395.263C-0.0607605 394.343 -0.514099 394.516 -1.43411 393.556C-0.394104 395.743 0.845932 396.876 2.03261 397.383C2.63261 397.65 3.2193 397.73 3.87265 397.783C4.49931 397.823 5.27267 397.836 5.97934 397.783C6.83269 397.783 7.53937 397.716 8.65938 397.77C8.91272 397.77 9.1794 397.77 9.4594 397.783C9.79274 397.796 10.1394 397.823 10.4994 397.85C10.8728 397.863 11.2594 397.89 11.6594 397.903C12.1528 397.93 12.6594 397.943 13.1794 397.943C13.4995 397.943 13.5528 397.917 13.6595 397.89L13.9795 397.81C14.1928 397.77 14.4195 397.716 14.6461 397.676C15.1128 397.583 15.6062 397.516 16.1395 397.463C17.2195 397.343 18.4595 397.263 19.9662 397.17C22.0729 397.143 23.8863 396.97 24.8729 397.09C25.8463 397.196 26.0863 397.636 24.8063 398.53C27.7397 396.93 29.953 394.97 31.633 393.13C33.3797 392.103 33.7397 393.396 31.8997 394.463C34.9131 392.25 37.2998 389.983 39.4465 387.783L39.5398 387.983C39.7798 386.25 40.5932 383.036 41.0065 381.596C43.2466 380.876 40.7798 382.89 41.7932 383.156L43.8066 378.756C46.3666 378.903 45.1266 382.623 42.5665 384.73C46.6599 385.796 47.0066 384.823 47.4999 383.196C47.6199 382.796 47.7533 382.343 47.94 381.89C48.0333 381.663 48.1533 381.436 48.2866 381.196C48.5133 380.876 48.8333 380.45 49.1533 380.063C50.54 378.463 52.3267 376.703 54.9401 374.583C54.7267 375.049 54.5401 375.503 54.3134 375.969L53.5267 377.396C52.9667 378.356 52.5134 379.29 51.7533 380.29C53.3667 380.103 54.5134 379.636 55.6867 378.93C56.2467 378.583 56.8201 378.156 57.3134 377.716C57.7801 377.29 58.2468 376.81 58.7001 376.303C59.1535 375.796 59.6201 375.249 60.0868 374.689C60.5135 374.156 60.9668 373.596 61.4202 373.009C61.8868 372.436 62.4335 371.809 62.9402 371.223C63.4469 370.636 64.0202 370.036 64.6469 369.423C64.1802 369.636 63.2335 370.316 62.1002 371.076C60.9135 371.863 59.5001 372.743 58.2334 373.303C55.5401 374.516 53.4867 374.503 54.4334 371.276C55.0867 370.649 55.7534 369.836 56.2867 368.729C56.7801 367.636 57.0734 366.263 57.0601 364.529C59.4068 365.543 60.1001 362.383 61.1535 358.836L64.3002 360.183C64.6469 355.983 62.8735 355.796 62.0335 353.182C63.5135 349.182 66.2602 348.982 68.6603 348.529C69.727 345.262 68.4203 346.169 67.0069 346.876C65.5802 347.582 64.1002 348.062 64.6869 344.156C67.1802 339.049 66.5136 335.089 65.7002 328.555C67.5536 325.009 67.6336 329.609 68.8469 328.435L66.7669 324.582C66.9669 323.755 67.7536 324.155 68.1403 324.369C67.5536 321.302 64.8469 323.582 64.5669 318.929C62.7802 318.075 64.4469 315.982 65.9402 313.049C67.4469 310.169 68.7269 306.222 66.3269 303.248C67.1536 301.622 68.4736 303.835 69.7536 303.262C68.8736 301.062 68.1803 299.542 67.5936 298.355C67.0069 297.155 66.5536 296.342 66.0736 295.635C65.1135 294.208 64.0735 292.942 61.3135 290.355C61.4868 288.355 61.5535 286.341 61.5535 284.315C61.1268 286.715 59.6735 286.888 57.9134 286.155C56.1401 285.421 53.98 283.821 51.9534 282.461C51.42 284.195 50.8333 285.648 50.6733 286.515C49.2466 284.781 47.8066 283.101 46.2733 281.515C46.4199 280.581 47.7399 280.581 49.5133 280.888C49.06 280.621 48.6066 280.368 48.2333 280.195C48.2466 277.541 50.54 277.608 53.0467 278.315C52.8467 279.368 52.5667 280.421 52.2733 281.461C54.8734 282.035 57.6201 282.648 59.3001 281.501C58.7401 281.221 58.0868 280.528 57.4734 279.728C58.1801 279.901 58.7668 279.968 58.9801 279.621C59.1935 279.248 58.1801 278.875 56.8867 278.195C57.7934 277.141 58.6468 276.075 59.5268 274.995L57.9934 275.328C57.2068 272.128 56.2867 268.955 55.2334 265.835C51.7667 263.981 48.06 262.781 44.2999 261.234C40.5398 259.701 36.7665 257.714 32.8197 254.608C36.5531 254.554 36.5531 251.941 39.0598 249.794C38.7798 252.061 40.3798 253.341 42.4465 254.728C44.5266 256.141 46.9533 257.568 48.3 259.981C46.8999 257.488 48.5266 257.034 49.4066 257.288C47.9933 256.274 46.6066 255.341 45.1666 254.381C43.7132 253.408 42.2465 252.461 40.7532 251.554C42.9399 249.954 40.8999 248.594 39.8065 245.861C38.5798 248.448 36.6465 247.661 34.4464 246.141C32.2597 244.621 29.633 242.367 27.4596 241.781C28.2863 240.207 30.353 239.274 34.0197 243.048C33.2064 239.621 30.593 239.594 28.1663 239.821C25.6596 240.047 23.3663 240.501 21.8329 237.647C22.9529 238.247 23.3796 238.834 24.2863 238.341C22.6196 238.194 20.3929 237.021 18.7395 235.874C17.0995 234.714 16.0061 233.554 17.1395 233.167C17.5528 233.327 17.9795 233.487 18.3795 233.674C16.4195 232.607 13.8195 231.514 11.0594 230.754C8.28604 229.981 5.33932 229.514 2.67261 229.394C-2.70081 229.154 -6.92752 230.167 -7.67419 232.367C-7.70087 231.781 -6.2075 227.007 -5.64749 226.141C-8.1942 228.461 -10.5943 230.834 -12.9543 233.207L-16.501 236.767C-17.7277 237.954 -18.8344 239.141 -19.8877 240.381C-19.261 238.447 -19.9144 235.141 -20.0477 232.047C-20.101 230.501 -20.0077 229.021 -19.461 227.794C-19.1944 227.181 -18.781 226.647 -18.2077 226.194C-17.6477 225.754 -16.7677 225.434 -16.0877 225.207C-16.301 225.127 -16.501 225.034 -16.7277 224.954C-16.9677 224.874 -17.301 224.781 -17.6077 224.701C-18.2344 224.541 -18.901 224.421 -19.5944 224.367C-20.9811 224.261 -22.5411 224.434 -24.1811 225.074C-23.1678 225.661 -21.4344 230.767 -23.0744 231.087C-25.2078 228.874 -25.7678 228.247 -26.4878 227.687C-26.8345 227.407 -27.1812 227.141 -27.6478 226.687C-27.8612 226.447 -28.1145 226.181 -28.3412 225.821C-28.5545 225.474 -28.7812 225.047 -28.9812 224.501C-28.5812 225.167 -29.3012 227.967 -30.7679 229.447C-31.4879 230.181 -32.3946 230.567 -33.1013 230.194C-32.4479 229.474 -30.8212 224.607 -30.0612 224.234C-31.9546 225.634 -34.5546 226.541 -37.3413 226.941C-36.4213 226.967 -35.6479 225.914 -35.0879 224.687C-34.5146 223.447 -34.0746 221.981 -33.9279 221.021C-34.1013 221.621 -34.8879 220.994 -35.6746 220.061C-36.4746 219.141 -37.2213 217.954 -37.7813 217.647C-37.7946 218.421 -37.7413 219.234 -37.6213 220.061C-38.3547 218.874 -39.248 218.341 -40.3414 218.021C-40.888 217.861 -41.448 217.754 -42.088 217.674C-42.688 217.567 -43.3281 217.527 -44.0081 217.38C-46.7948 216.554 -49.7148 215.78 -51.0882 212.114C-50.3415 212.314 -48.3548 212.087 -46.6748 211.327C-44.9948 210.567 -43.6081 209.3 -43.9014 207.54C-45.6214 207.34 -49.7282 207.06 -53.9149 205.5C-56.0083 204.727 -58.1016 203.607 -59.8616 202.074C-60.7283 201.3 -61.5283 200.434 -62.155 199.474C-62.4884 198.994 -62.755 198.487 -62.995 197.98C-63.115 197.727 -63.235 197.46 -63.3284 197.193C-63.4217 196.967 -63.515 196.767 -63.595 196.553L-61.875 195.193L-64.075 189.967C-61.6883 191.527 -57.9949 194.567 -54.3949 197.794C-50.7415 200.847 -46.7148 202.754 -44.3014 204.114C-43.9814 202.78 -43.5147 202.514 -43.2747 202.14C-43.0347 201.78 -43.0481 201.327 -43.4081 199.874C-41.9814 198.607 -40.7014 200.874 -40.3147 201.714C-40.4613 200.54 -40.5147 199.46 -40.4747 198.487C-40.4747 197.993 -40.408 197.553 -40.3547 197.113C-40.3147 196.86 -40.288 196.767 -40.2614 196.407L-40.168 195.033C-41.9547 195.327 -42.9147 193.273 -43.8214 191.287C-44.7281 189.3 -45.5548 187.34 -47.0348 187.607L-44.9548 193.22L-43.9281 196.113C-43.7681 196.687 -43.5814 196.9 -43.4214 197.167C-43.2614 197.434 -43.0747 197.7 -42.8881 197.967C-43.7681 198.127 -44.8748 198.034 -46.0214 197.634C-46.5814 197.434 -47.1681 197.154 -47.7415 196.793C-48.3015 196.313 -48.8615 195.7 -49.3815 195.047C-51.4749 192.447 -53.1282 188.94 -52.9549 185.273C-51.5949 183.367 -46.5281 186.42 -45.3414 186.22C-46.6214 185.313 -47.9281 179.5 -47.0348 178.86L-45.0614 181.793C-44.4347 179.82 -45.6614 178.273 -46.5815 176.62C-47.5015 174.98 -48.1548 173.153 -46.3414 171.02C-46.2614 170.553 -45.9414 170.393 -45.5014 170.166C-45.0748 169.953 -44.5281 169.766 -44.0614 169.633C-43.1281 169.353 -42.5014 169.273 -43.4881 168.886C-45.5948 168.78 -49.8215 168.486 -53.8749 168.046C-57.9149 167.593 -61.7684 166.686 -62.995 165.086C-62.875 164.926 -62.4084 164.113 -61.675 163.153C-60.9683 162.233 -60.0083 161.166 -58.9683 160.18C-56.8883 158.206 -54.5016 156.486 -53.1815 156.033C-51.1415 155.446 -49.8482 157.206 -48.6348 158.98C-47.4081 160.753 -46.2081 162.46 -44.5014 162.02C-45.3548 161.526 -45.8214 159.673 -45.9014 158.913C-45.3681 158.473 -44.9148 158.566 -44.4881 158.726C-44.0747 158.913 -43.6347 159.046 -43.3147 158.98C-43.048 158.94 -42.7814 158.726 -42.608 158.086C-43.3414 157.54 -43.5014 157.02 -43.4347 156.553C-43.3281 156.113 -42.9947 155.726 -42.7147 155.5C-42.4214 155.273 -42.2347 155.153 -42.4214 155.113C-42.608 155.086 -43.1947 155.086 -44.5148 155.433C-44.3148 154.753 -44.0481 154.286 -43.7147 153.98C-43.4081 153.66 -43.0347 153.473 -42.6214 153.3C-41.8214 152.94 -40.8747 152.673 -39.488 151.593C-40.6214 150.953 -41.1547 148.873 -40.768 146.459C-40.3947 144.073 -38.9947 141.473 -37.3013 140.233C-37.1546 141.179 -35.9013 141.953 -35.328 142.326C-31.6479 141.113 -28.6345 141.153 -25.8478 141.499C-23.0478 141.859 -20.4744 142.526 -17.181 143.366C-16.741 144.339 -14.0876 146.326 -15.861 147.406C-14.8076 147.099 -13.5676 146.193 -11.5943 146.926C-10.3676 149.179 -11.5009 148.779 -12.7143 148.513C-13.9543 148.193 -15.2343 148.073 -14.5943 150.299C-14.101 149.379 -12.6743 149.113 -10.9009 149.259C-9.12755 149.353 -7.04752 149.833 -5.38083 149.966C-5.03416 148.313 -6.56752 147.313 -8.59422 146.806C-10.6342 146.313 -13.101 146.339 -14.661 146.513C-13.941 144.393 -11.9276 142.619 -8.90088 141.726C-5.91417 140.833 -1.96745 140.886 1.95261 141.886C7.85937 143.913 2.83263 145.713 4.07265 145.686C13.5394 151.9 16.3528 143.739 22.5929 150.673C24.4329 154.78 20.2195 155.86 19.9795 158.046C15.1128 156.846 14.2461 152.966 11.3128 151.473L14.2061 154.633C12.3928 154.726 9.17938 153.74 8.0327 152.139C8.76605 154.006 12.8194 156.553 17.6728 159.14C22.5396 161.766 28.2463 164.153 32.3264 166.42C33.2197 166.14 34.4864 165.953 35.2464 165.58C36.0331 165.206 36.4064 164.74 35.8864 164.046C34.9931 164.033 34.1397 163.926 33.2197 163.846C32.2731 162.406 33.8464 161.993 34.8864 161.58C35.9798 161.193 36.8065 160.82 35.5798 160.02C37.1131 159.513 38.5132 158.7 39.7932 158.193C41.0999 157.66 42.2865 157.486 44.1666 157.913C44.8599 159.033 45.6066 160.086 46.3933 161.166C46.1133 160.686 45.2466 160.34 44.4199 160.153C43.5799 159.993 42.7665 159.966 42.3532 160.473C42.8999 159.78 44.4732 160.82 46.3133 161.233C48.1266 161.726 50.0333 161.233 49.6733 159.113C49.62 158.846 49.54 158.553 49.42 158.246H48.9933C47.9933 158.206 46.9533 157.98 45.9533 157.606C46.2733 156.886 46.4466 155.966 46.4466 154.966C46.4466 153.62 46.2066 152.26 46.0733 151.219C45.9533 150.166 45.9533 149.419 46.4866 148.899C44.8999 148.513 44.9666 148.593 44.9399 148.766C44.9266 148.886 44.7799 149.179 43.0065 148.339C44.2199 149.033 44.6599 149.553 44.6599 150.153C44.6599 150.726 44.2466 151.246 43.8866 151.673C43.6066 151.993 43.3532 152.273 43.4066 152.686C43.4732 153.113 43.8332 153.726 44.9266 154.513C42.8332 152.82 42.1532 152.406 41.4199 152.1C40.7399 151.78 39.9132 151.419 39.0732 149.406C39.2732 150.526 39.8732 151.633 38.6198 150.913C38.5798 151.233 38.4598 151.62 38.3665 151.846C38.3265 151.806 38.3131 151.793 38.2731 151.753C38.2998 151.806 38.3131 151.846 38.3398 151.899C38.2865 152.059 38.2731 152.086 38.3665 151.953C38.6865 152.486 39.0332 153.113 39.2198 153.766C38.9398 154.993 37.9131 155.446 36.7531 155.673C36.1131 155.766 35.7931 155.873 34.8598 155.86C34.0731 155.86 33.3797 155.9 32.8464 156.073C31.1264 154.966 33.9931 155.153 33.3264 153.713C32.313 154.06 31.273 154.393 30.2063 154.66C30.4864 153.5 29.6197 152.099 29.3263 151.033C29.0197 149.966 29.273 149.273 31.5664 149.433C30.3664 148.926 29.1397 148.379 27.8997 147.779C26.2596 145.566 23.4463 143.499 20.9529 143.286C19.3529 141.833 14.7928 142.873 17.4195 142.206L10.0461 139.739L10.2861 139.179C7.13936 137.233 3.11264 136.019 -1.20743 134.433C-5.55415 132.846 -10.0076 130.913 -15.2877 127.526C-16.181 127.526 -17.0877 127.499 -18.0344 127.486C-18.9677 127.486 -19.981 127.512 -21.0344 127.486C-22.0878 127.459 -23.2478 127.486 -24.4878 127.432C-25.7411 127.432 -27.1145 127.379 -28.6345 127.339C-29.0879 126.699 -29.5545 126.046 -30.0479 125.406C-30.6479 125.579 -31.3012 125.672 -32.0612 125.792C-32.8212 125.926 -33.6879 126.032 -34.5013 126.166C-36.1546 126.419 -37.8613 126.686 -39.4213 127.046C-42.5547 127.739 -45.1681 128.832 -45.5548 130.232C-48.2881 129.126 -52.2749 130.446 -56.3149 133.646C-56.8216 134.059 -57.3283 134.473 -57.8216 134.913C-58.3283 135.379 -58.8216 135.873 -59.3283 136.393C-59.8217 136.886 -60.3417 137.459 -60.8617 138.086C-61.3683 138.699 -61.8884 139.286 -62.3417 139.939C-64.2617 142.446 -65.6484 145.233 -66.7818 147.819C-66.9551 148.233 -67.1151 148.646 -67.2751 149.046C-67.4084 149.379 -67.5817 149.739 -67.7284 150.059C-68.0484 150.726 -68.3951 151.366 -68.7551 151.939L-66.3817 153.273C-67.3684 155.3 -68.1684 157.54 -68.7684 160.406C-68.9018 161.1 -69.0885 161.953 -69.2085 162.846C-69.3418 163.726 -69.4218 164.62 -69.4751 165.54C-69.5285 166.46 -69.5018 167.393 -69.4751 168.353L-69.4218 169.073L-69.3951 169.433L-69.3551 169.686C-69.3018 170.02 -69.2618 170.366 -69.2085 170.713L-66.8084 170.486C-65.9418 172.846 -66.4084 175.74 -67.0084 178.94C-67.6084 182.14 -68.3284 185.62 -68.0751 188.98C-69.0085 188.567 -68.8351 186.833 -68.3284 185.593C-69.6085 187.687 -69.9418 189.78 -69.8085 191.807C-69.7418 192.82 -69.5551 193.833 -69.3018 194.82C-69.1818 195.313 -69.0351 195.82 -68.8884 196.3C-68.7418 196.833 -68.5951 197.14 -68.4084 197.98C-67.7018 200.874 -66.6751 203.474 -65.9017 205.874C-65.1151 208.287 -64.595 210.527 -64.795 212.9C-63.2484 214.647 -62.9684 216.087 -62.9684 217.66C-63.0484 217.487 -63.155 217.34 -63.275 217.234C-63.2217 217.434 -63.1017 217.741 -62.9817 218.021C-63.0084 219.007 -63.075 220.034 -63.035 221.074C-62.8484 220.074 -62.7284 219.167 -62.8084 218.421C-62.155 219.834 -60.9283 221.807 -59.475 223.461L-61.4083 225.367C-61.3017 225.527 -61.2217 225.661 -61.1017 225.834C-60.8083 227.474 -60.235 227.901 -59.635 227.594C-59.0483 227.301 -58.4216 226.314 -57.9016 225.181C-56.8483 226.327 -55.7416 227.194 -54.6749 227.674C-55.8216 229.741 -54.3949 231.127 -52.9282 232.381C-51.4215 233.647 -49.9148 234.807 -50.2482 237.474C-48.8215 237.341 -45.9148 239.327 -42.5547 240.487C-39.248 241.714 -35.4613 241.954 -34.1413 239.981C-34.1679 240.181 -34.1146 240.367 -34.1013 240.514C-34.0479 240.661 -34.0346 240.767 -34.1813 240.794C-34.2346 240.847 -34.4746 240.821 -34.9546 240.661L-34.2479 241.034C-32.9946 241.661 -31.5679 242.154 -30.2879 242.341C-28.9945 242.527 -27.7678 242.421 -26.6612 241.901L-25.7011 245.221C-23.7011 243.834 -22.0477 242.381 -20.4211 240.967C-19.7144 241.487 -19.1544 241.954 -18.7544 242.408C-18.381 242.861 -18.101 243.288 -17.941 243.728C-17.661 244.608 -18.341 245.461 -19.501 246.661C-19.141 246.448 -18.7944 246.248 -18.4877 246.061C-18.0877 245.901 -17.6877 245.754 -17.3277 245.621C-16.6077 245.368 -16.021 245.168 -15.501 245.021C-14.461 244.714 -13.7543 244.594 -13.0609 244.461C-11.7009 244.208 -10.4876 243.928 -7.30086 242.287L-7.78087 244.368C-5.67418 244.461 -1.96745 242.061 -0.967438 243.994C1.00594 246.341 6.41934 247.301 11.4328 249.781C13.9795 251.008 16.6195 252.741 18.9262 254.888C21.2329 257.034 23.1929 259.581 24.4196 262.248C25.9263 259.314 26.3396 260.754 26.8063 262.581C27.273 264.421 27.713 266.595 29.7397 265.261C29.033 266.728 29.3663 268.475 27.2197 267.835C29.6063 269.675 30.5797 271.915 31.513 273.675C32.4864 275.461 33.4997 276.835 36.3264 277.435C35.4598 278.795 33.8197 277.555 33.4197 278.541C33.9531 278.741 35.4864 279.408 35.0598 280.381C34.6198 281.341 33.5664 280.315 32.5531 279.915C35.7931 284.621 39.8998 282.981 43.9132 281.355C43.6199 285.101 44.4732 286.221 47.94 287.195C47.5399 287.968 47.1399 288.915 46.6199 289.248C46.0999 289.582 45.4866 289.302 44.4999 287.715C44.8599 288.715 45.6066 291.822 46.4199 294.542C47.2599 297.262 48.14 299.688 49.8333 299.462C49.1666 300.288 50.0733 302.182 50.5267 302.688C50.6867 304.915 50.6067 306.168 50.5667 307.395C50.5267 308.635 50.5267 309.862 50.5533 312.182L51.18 310.929C53.1934 311.942 53.3534 312.995 53.02 314.222C52.6867 315.462 51.8467 316.875 51.82 318.862L51.42 318.689C49.2866 322.942 49.3933 323.969 49.5266 324.995C49.58 325.502 49.62 326.009 49.34 326.915C49.0466 327.835 48.42 329.182 47.1399 331.289H49.74C52.3533 332.249 51.1667 334.129 49.42 336.436C47.6866 338.756 45.3666 341.396 45.7533 344.182L47.6199 342.689C48.2066 344.329 45.8733 345.849 43.2332 347.129C40.5932 348.436 37.6331 349.409 36.9131 350.516C36.2865 350.889 36.4598 349.422 36.3664 348.569C35.0864 349.942 34.6064 350.636 34.6198 351.129C34.6198 351.622 35.1264 351.862 35.7531 352.089C36.9931 352.542 38.8465 353.036 38.2598 355.476C37.2598 355.556 36.2998 354.836 35.4064 354.476C34.4998 354.089 33.6997 354.156 32.9264 355.356C32.4331 355.503 32.3397 356.276 32.2997 357.169C32.2997 357.623 32.313 358.209 32.3264 358.769C32.3264 359.303 32.3397 359.876 32.3264 360.503C32.2997 361.049 32.2464 361.569 32.1397 362.116C32.0331 362.609 31.8864 362.956 31.6997 363.343C31.6997 363.409 31.5264 363.583 31.3664 363.743C31.2064 363.903 31.0597 364.063 30.8997 364.209C30.5797 364.503 30.2597 364.769 29.9263 364.996C29.2597 365.463 28.5397 365.783 27.753 365.943C29.5797 366.116 31.393 366.289 30.1664 368.943C28.8597 370.556 26.0063 371.503 23.6862 372.423C21.3396 373.383 19.6195 374.209 19.7929 376.676C19.3262 376.516 19.0462 376.249 18.8729 375.956C18.3795 376.889 17.7128 377.703 16.9528 378.396C16.7528 378.583 16.5262 378.743 16.2728 378.93C16.1395 379.01 16.0195 379.116 15.8728 379.196L15.6595 379.33L15.5528 379.396C15.2995 381.703 16.1262 374.236 14.9795 384.57V384.543V384.516V384.45V384.316L15.0195 384.063C15.0728 383.69 15.1795 383.476 15.2728 383.05C15.3661 382.65 15.4995 382.276 15.6462 381.916C15.7928 381.61 15.9395 381.13 16.1128 380.743C16.1795 380.583 16.2595 380.41 16.3262 380.25L16.2862 380.343C16.1262 380.53 15.8995 380.743 15.6328 380.916C17.2595 376.77 15.0195 376.303 12.1927 374.716C10.8061 373.969 9.35271 372.996 8.85937 372.076C8.36603 371.156 8.91272 370.449 11.2728 370.209C11.0594 369.836 10.8727 369.449 10.7527 369.036C10.6194 368.623 10.7394 368.196 10.8461 367.809C11.0994 367.023 11.4994 366.289 11.9128 365.569L12.7128 365.916C15.0195 363.689 13.8995 362.129 13.6461 359.449C14.9661 358.836 14.8595 360.076 15.0995 360.436C16.6195 359.329 17.8195 358.449 18.8329 357.703C19.4729 357.276 19.9129 356.903 20.2862 356.436C20.7262 355.876 21.0996 355.236 21.6062 354.383C22.1263 353.529 22.7796 352.516 24.0463 351.249C24.3796 352.102 24.6729 352.956 24.9396 353.809C25.0196 353.609 25.4196 353.476 25.953 353.422C26.473 353.369 27.1796 353.369 28.0863 353.382C28.313 353.382 28.5663 353.382 28.8063 353.382C29.033 353.382 29.393 353.382 29.4597 353.409C29.7263 353.462 30.0063 353.516 30.313 353.582C30.953 353.742 31.633 353.916 32.3664 354.102C33.9131 354.503 35.8464 354.996 38.2331 355.236C38.8332 355.289 39.4465 355.329 40.0998 355.343C40.4198 355.343 40.7532 355.343 41.0865 355.343H41.3399H41.4599H41.5265H41.5532C41.4999 356.823 42.0465 342.462 41.8065 348.542C41.8065 348.742 41.7932 348.902 41.7665 349.062C41.7265 349.156 41.6999 349.516 41.6199 349.769C41.5532 350.062 41.4732 350.196 41.3532 350.649C41.2332 351.036 41.0865 351.409 40.9265 351.756C40.8465 351.889 40.7265 352.236 40.6198 352.476C40.5132 352.742 40.3932 352.996 40.2598 353.262C40.1398 353.516 40.0065 353.769 39.8598 354.022C39.7932 354.143 39.7265 354.249 39.6198 354.476C39.6198 354.503 39.6332 354.476 39.6332 354.476L39.7398 354.409C39.8465 354.383 39.9932 354.369 40.1665 354.369C40.0865 354.449 39.9798 354.569 39.7665 354.783C39.6332 354.956 39.3665 355.036 39.2732 355.209C39.2998 355.156 39.3798 355.143 39.4598 355.143C39.5398 355.143 39.6065 355.116 39.7265 355.169C39.9665 355.236 40.1132 355.263 40.5798 355.529C41.5399 356.116 42.5266 356.729 43.5266 357.343C44.5266 357.943 45.5533 358.543 46.6333 359.036C47.7133 359.529 48.86 359.889 50.0067 360.289C50.3667 360.409 50.7533 360.543 51.0067 360.649C51.18 360.743 51.3667 360.823 51.54 360.929C51.9 361.129 52.2467 361.316 52.6067 361.529C53.3134 361.943 53.9934 362.383 54.6734 362.823C56.0201 363.689 57.3001 364.543 58.5535 365.143C61.0468 366.356 63.4202 366.569 66.0736 364.076C68.1803 364.289 70.4603 364.663 72.6603 365.036C69.3269 362.663 70.0336 361.916 71.4203 361.356C72.7937 360.809 74.7804 360.503 73.6603 358.943C75.2604 359.529 76.7671 361.276 77.3271 362.649C77.8871 364.036 77.5671 364.996 75.7804 364.156L75.5004 363.423C73.567 365.196 75.5137 366.863 77.4471 368.516C79.4071 370.169 81.3271 371.889 80.1271 373.116C81.4871 374.236 82.6471 375.423 83.7538 376.743C84.9138 378.143 86.0072 379.636 86.9939 381.17C88.9939 384.263 90.6473 387.583 92.0073 390.943C93.3673 394.303 94.4873 397.77 95.3007 401.063C95.714 402.717 96.0473 404.357 96.3407 405.97C96.4874 406.783 96.6207 407.583 96.7274 408.383C96.8474 409.223 96.9274 409.823 97.0074 410.597C98.2474 409.983 99.4741 409.343 100.674 408.637C100.847 410.13 100.914 411.663 100.914 413.25C100.034 414.557 97.9674 414.903 97.9274 411.797C96.8874 412.69 97.434 413.917 98.274 415.103C99.1274 416.263 100.327 417.343 100.754 417.41C99.8341 420.877 98.6874 420.104 97.8207 418.797C96.9407 417.477 96.1807 415.757 96.1273 416.743C96.2073 417.637 96.274 418.557 96.314 419.503L96.8074 418.89C98.2607 421.277 99.9541 421.61 99.3274 426.157C98.2607 428.997 96.7807 427.45 96.514 428.544C96.234 428.517 96.0873 428.824 96.2207 430.09C95.8607 432.09 95.4207 434.144 94.914 436.25L98.3941 434.224C99.4207 437.317 97.1007 440.344 101.114 437.93C99.5807 438.81 98.394 440.744 97.4074 443.291C96.914 444.557 96.474 445.984 96.074 447.491C95.9007 448.237 95.714 448.984 95.5273 449.744L95.0607 451.757C93.7673 457.131 92.1806 463.051 90.9806 464.251C91.1939 465.478 91.2606 466.664 91.2473 467.851C91.2206 469.024 91.1273 470.091 90.9273 471.224C90.5273 473.464 89.7806 475.758 88.9272 478.344C89.9139 477.211 93.434 477.371 91.8339 481.718C88.5939 479.984 87.2872 481.851 86.1005 484.584C84.9138 487.318 83.9672 490.891 81.1271 492.625C83.1005 491.025 82.6871 494.665 82.8205 498.158C82.8471 499.025 82.9271 499.905 83.0338 500.651C83.1538 501.371 83.3271 501.945 83.5672 502.358C84.0472 503.171 84.7805 503.211 86.0339 501.878C85.3938 505.891 83.3405 502.051 81.6471 505.185C83.0605 510.118 82.9271 515.478 83.1805 521.385C83.3005 524.332 83.5405 527.398 84.1005 530.518C84.2072 531.252 84.4738 532.225 84.6872 533.065C84.9005 533.959 85.2072 534.772 85.5005 535.625C86.1139 537.292 86.8605 538.905 87.7539 540.399C88.6739 540.132 88.9806 537.545 91.4873 539.425C91.1806 542.159 91.0339 544.999 91.1139 547.865C92.0606 548.865 93.5406 548.559 94.7673 548.705C96.0073 548.879 96.9674 549.452 97.274 552.305C97.4207 551.279 97.714 549.785 99.0474 550.865C102.261 556.292 107.034 561.012 113.088 564.332C119.034 567.626 125.821 569.332 132.435 569.812C134.088 569.959 135.741 569.986 137.381 570.012C138.195 569.999 139.021 570.012 139.835 569.972L142.101 569.892C144.795 569.799 147.568 569.839 150.435 570.012C156.182 570.346 162.222 571.186 169.168 572.079C165.328 570.906 167.662 570.359 170.275 569.746C168.475 569.679 169.848 567.466 169.248 566.292C172.875 566.746 176.689 566.892 180.649 566.532C180.955 564.519 183.609 563.292 186.049 561.879C188.489 560.479 190.649 558.972 190.129 557.292C189.355 558.066 188.542 558.839 187.702 559.586C188.515 556.719 185.955 555.746 183.222 554.626C180.435 553.532 177.529 552.172 176.662 549.745C175.929 552.625 172.768 552.119 169.742 551.479C166.648 550.879 163.702 550.212 160.808 553.799C159.262 552.919 161.848 552.025 160.942 550.932C159.595 553.292 157.568 553.959 153.635 553.145L154.048 552.585C151.342 552.839 148.915 552.852 146.621 552.772C145.475 552.732 144.368 552.652 143.248 552.559C142.688 552.505 142.128 552.465 141.581 552.412C141.035 552.359 140.408 552.305 140.021 552.239C136.515 551.665 133.008 550.599 128.754 548.585C128.728 549.452 128.728 550.332 128.728 551.212C126.741 550.279 126.621 549.332 125.954 548.399C124.114 549.705 125.434 550.359 126.901 550.959C128.328 551.559 129.901 552.092 128.194 553.839C127.354 550.985 123.861 549.772 120.741 547.732C117.714 545.799 114.981 542.959 116.394 540.212C115.261 539.052 114.901 539.705 114.541 540.385C114.194 541.065 113.848 541.785 112.648 540.492L113.221 538.759C112.528 538.985 111.808 539.225 111.101 539.425C109.848 537.399 110.834 535.292 111.874 534.479C112.061 534.985 113.048 535.439 113.474 535.799C113.368 534.145 112.141 532.745 111.048 531.492C109.928 530.252 108.914 529.212 108.981 528.692C109.114 529.692 109.274 530.718 109.514 531.772C108.101 530.078 106.994 528.065 106.287 526.052C105.954 525.172 105.581 523.732 105.274 522.452C104.981 521.132 104.701 519.785 104.461 518.425C103.487 512.972 102.927 507.371 101.447 502.238L100.234 502.998C99.7274 500.958 99.5941 499.771 99.7007 498.691C99.7807 497.651 100.101 496.891 100.434 496.131C101.141 494.571 101.967 493.038 102.421 488.678L102.621 489.051C101.834 487.091 101.847 484.598 102.634 482.224C103.367 484.798 106.394 478.784 107.088 482.091C107.288 472.744 106.554 477.158 103.967 470.184L106.261 469.438C105.154 466.944 104.314 466.518 105.234 461.811C105.701 466.078 109.021 459.731 109.861 464.651C113.448 460.451 113.474 455.931 113.261 452.504C112.981 449.517 112.888 447.117 116.448 445.491C114.221 442.677 113.048 444.691 112.354 446.971C111.648 449.264 111.461 451.837 111.128 450.504C108.954 452.211 107.848 446.091 109.021 443.117C109.394 441.57 111.381 440.584 113.434 438.904C115.474 437.237 117.648 434.784 118.061 430.357C117.941 431.197 118.354 431.33 118.221 432.197C119.114 430.53 118.768 429.13 118.568 427.504C118.354 425.89 118.261 424.17 119.528 422.277C117.954 421.064 118.074 419.77 118.048 418.663C118.021 417.543 117.861 416.61 115.741 416.263C116.048 418.943 116.208 421.57 116.328 424.13C115.954 421.917 114.594 419.69 113.568 417.183C112.528 414.65 111.901 411.957 112.608 408.117C113.541 408.57 114.888 410.73 115.581 412.277C116.701 409.917 114.434 408.01 115.274 405.463C117.408 405.397 118.141 408.13 118.421 411.317C118.741 414.53 118.634 418.103 120.101 420.637C121.061 419.503 120.394 417.063 119.954 415.25C119.528 413.45 119.394 412.223 121.728 413.503C118.754 411.637 118.821 409.397 118.768 406.557C118.728 405.103 118.701 403.717 118.288 402.303C117.874 400.903 117.101 399.503 115.608 398.33L118.154 398.05C117.501 397.17 115.768 395.556 115.248 393.85C116.634 394.516 118.021 395.236 119.394 396.023C117.301 393.93 117.074 391.45 116.874 388.876C116.688 386.316 116.541 383.73 114.781 381.85C117.021 386.45 116.448 387.33 115.488 387.556C114.501 387.783 113.021 387.49 112.968 389.756C111.034 387.276 110.221 385.61 109.981 384.13C109.754 382.663 110.128 381.45 110.514 380.13C110.901 378.823 111.314 377.41 111.074 375.596C110.834 373.783 109.968 371.543 107.648 368.756C109.128 370.169 110.314 375.649 107.741 373.743C106.781 371.223 105.514 367.769 105.514 365.609C102.314 361.956 101.981 362.729 102.087 364.023C102.154 365.343 102.501 367.209 100.647 366.169C100.847 363.969 99.8207 363.276 98.354 362.863C96.8074 362.396 94.8607 362.263 93.0073 361.209L94.7273 359.303C92.9273 357.076 91.5806 356.236 90.6073 355.956C89.6206 355.703 88.9672 356.036 88.3539 356.383C87.1005 357.116 86.0872 357.783 82.8605 354.489C84.5672 354.169 86.3139 353.916 88.1139 353.716C86.5672 352.996 85.0338 352.356 83.5272 351.769C84.3272 351.116 85.1272 350.476 85.9405 349.836C83.0871 349.302 81.4471 348.822 80.0071 348.022C79.2738 347.622 78.6471 347.182 77.8737 346.596C77.1004 346.009 76.2337 345.356 75.1804 344.569C75.3937 346.742 72.487 348.356 68.4603 346.622C67.3936 345.316 68.0069 344.929 68.1803 344.582C68.3403 344.262 68.0469 343.929 64.9669 342.916C66.8869 341.929 69.2869 340.702 70.887 344.049C71.5003 343.409 72.887 343.196 73.5137 342.596C71.1936 339.489 65.6736 338.702 63.2868 337.969C64.1802 338.369 65.1936 338.902 65.6202 339.436C63.8735 339.422 62.1268 339.436 60.3668 339.529C59.4868 339.569 58.6201 339.622 57.7401 339.702L56.4334 339.822C56.2201 339.849 55.9667 339.862 55.7934 339.902C55.6601 339.942 55.5401 339.996 55.4467 340.049C55.4201 339.982 55.4067 339.916 55.4201 339.862C55.2334 339.222 55.5001 338.769 55.8334 338.342C56.0334 338.129 56.0734 337.876 56.5934 337.742C56.5001 337.742 56.3667 337.716 56.3268 337.729L56.1934 337.756C56.1134 337.782 56.0601 337.809 55.9801 337.849C55.3934 338.169 54.5534 338.929 53.66 338.569C54.8334 336.796 55.8334 334.969 56.8734 334.169C56.4867 334.502 56.0201 334.769 55.5401 334.929C55.3001 335.009 55.0467 335.076 54.7801 335.116L54.5801 335.156C54.4867 335.156 54.5134 335.222 54.2467 335.102L52.9 334.542C52.7934 334.209 52.5267 333.702 51.94 333.036C51.6067 332.689 51.3267 332.342 50.86 331.955C50.3667 331.555 49.9533 331.182 49.38 330.782C48.7666 330.382 48.22 330.022 47.6733 329.689C47.0466 329.355 46.4999 329.075 46.1266 328.849C45.3666 328.409 45.2733 328.129 46.4199 328.195L45.5266 327.955C45.1799 327.875 44.8199 327.809 44.4599 327.755C44.0999 327.702 43.7266 327.649 43.3665 327.609L42.8065 327.555L42.5266 327.529H42.4732C42.2599 327.475 42.0332 327.462 41.8065 327.462C41.3132 327.462 40.7798 327.529 40.1532 327.635C38.9132 327.849 37.3931 328.235 35.6331 328.635C33.8731 329.035 31.8597 329.475 29.6997 329.849C28.6063 330.035 27.4863 330.209 26.2996 330.369L25.4063 330.475C25.1663 330.502 25.1663 330.475 25.0329 330.475C24.8463 330.462 24.5529 330.422 24.3129 330.342C24.1129 330.769 23.7663 331.209 22.4996 331.649C19.7395 331.809 16.9128 331.902 14.1661 332.475C12.7928 332.769 11.4194 333.142 10.0994 333.689C8.77939 334.249 7.49936 334.942 6.28601 335.809C4.84599 336.889 3.47263 338.169 2.2326 339.649C1.53926 340.476 1.24594 340.956 0.872604 341.582C0.539261 342.182 0.205917 342.836 -0.0740967 343.516L-2.87411 343.756L-4.27414 343.902C-4.87416 344.102 -5.4875 344.302 -6.10085 344.529C-8.80756 348.356 -6.28751 347.222 -4.42081 346.956C-2.47412 346.662 -1.28745 347.156 -4.8075 352.556C-7.0742 356.436 -8.15422 356.836 -9.28757 356.556C-10.3943 356.276 -11.3143 355.183 -12.7809 356.503C-13.1409 358.996 -13.1276 362.196 -13.181 365.543C-13.2076 366.383 -13.1809 367.263 -13.1276 368.183C-13.0743 369.103 -12.9143 370.049 -12.7809 370.983C-12.4743 372.849 -12.2076 374.716 -12.1143 376.796C-13.9276 374.383 -13.9943 372.236 -14.5143 369.703L-14.4343 369.663ZM54.3267 371.396C54.14 372.209 53.9534 373.543 53.5534 374.703C53.1534 375.863 52.3534 376.889 51.3933 376.916C50.8333 375.223 51.0467 374.343 51.6467 373.623C52.2067 372.916 53.2334 372.356 54.3267 371.409V371.396ZM51.82 271.835C53.0334 272.208 53.4334 273.715 53.3667 275.635C52.6067 274.688 52.0334 273.461 51.82 271.835ZM24.3663 147.779C24.3663 147.779 24.2596 147.806 24.2063 147.846C22.4862 145.833 23.0862 146.593 24.3663 147.779ZM28.3397 150.859C28.9263 150.726 29.033 150.379 28.993 149.966C28.433 150.419 27.4196 150.059 26.353 149.353C26.3796 150.113 26.7796 150.819 28.3397 150.859ZM97.4074 429.13C97.6607 428.824 97.9274 428.57 98.1807 428.21C98.674 430.53 98.074 429.797 97.4074 429.13Z" fill="#3E492B"/>
<path d="M60.3401 280.475C60.1001 281.008 59.7001 281.288 59.3001 281.568C59.9001 281.875 60.3668 281.688 60.3401 280.475Z" fill="#3E492B"/>
<path d="M24.2463 330.315C24.2463 330.315 24.3529 330.315 24.3929 330.315C24.4463 330.155 24.4596 329.995 24.4596 329.835C24.3929 329.995 24.3263 330.142 24.2463 330.302V330.315Z" fill="#3E492B"/>
<path d="M41.6999 149.193C41.6332 149.579 41.4999 149.953 41.3132 150.286C41.6732 150.006 42.1532 150.473 42.6465 150.686C42.2199 150.139 41.5265 149.393 41.7132 149.193H41.6999Z" fill="#3E492B"/>
<path d="M62.0068 134.699C61.8202 134.112 62.2068 133.606 62.0068 133.032L60.8068 132.912C60.4068 135.099 60.9935 136.846 62.0068 134.699Z" fill="#3E492B"/>
<path d="M48.86 155.566C50.66 157.206 50.9267 155.059 51.1 153.166C51.0733 153.273 51.06 153.379 50.9933 153.459C48.46 151.206 48.9666 153.233 48.86 155.566Z" fill="#3E492B"/>
<path d="M51.1667 152.739C51.2467 152.166 51.34 151.619 51.5667 151.153C50.5 150.406 51.1933 151.633 51.1667 152.739Z" fill="#3E492B"/>
<path d="M34.3131 151.566C35.0464 152.366 35.6464 149.072 35.8864 150.059C36.7131 148.859 35.1398 149.299 33.8464 149.899C32.5397 150.512 31.6331 151.432 34.3264 151.566H34.3131Z" fill="#3E492B"/>
<path d="M55.3667 159.593C54.5134 159.219 53.6467 158.793 52.82 158.353C53.22 159.273 53.5667 160.219 53.8867 161.206C54.42 160.713 54.9134 160.179 55.3667 159.593Z" fill="#3E492B"/>
<path d="M38.4065 163.566C39.6065 164.019 40.8465 164.46 42.1532 164.846C42.0065 164.366 42.4332 164.153 42.9399 163.966C40.6732 163.74 38.3398 162.739 38.4198 163.566H38.4065Z" fill="#3E492B"/>
<path d="M42.9399 163.953C44.0999 164.073 45.2066 163.979 45.6599 163.446C45.0599 163.553 43.7932 163.673 42.9399 163.953Z" fill="#3E492B"/>
<path d="M52.7134 164.713C52.2734 164.793 51.8733 164.926 51.4067 164.953C50.5667 165.419 49.62 165.673 48.6866 165.859C50.1 165.766 51.5 165.393 52.7134 164.713Z" fill="#3E492B"/>
<path d="M0.419227 145.872C-0.994128 145.379 -2.4208 144.886 -3.86083 144.432C-4.68751 145.046 -3.86083 146.072 -2.26081 146.539C-1.02079 146.472 0.579229 146.966 0.419227 145.859V145.872Z" fill="#3E492B"/>
<path d="M8.3927 158.793C7.61936 157.726 7.84602 157.166 7.69935 156.059L5.95266 158.873L8.3927 158.779V158.793Z" fill="#3E492B"/>
<path d="M188.835 565.652C190.235 565.292 191.622 564.879 192.982 564.452C191.915 564.426 190.835 564.386 189.769 564.319L188.849 565.666L188.835 565.652Z" fill="#3E492B"/>
<path d="M65.5936 363.662L64.9135 363.076C63.8735 363.342 63.4335 364.222 62.5668 365.982C63.5669 365.236 64.6069 364.436 65.5802 363.662H65.5936Z" fill="#3E492B"/>
<path d="M17.0328 403.263C17.5795 403.276 18.1395 403.263 18.6995 403.263C17.5795 402.303 16.5662 401.276 15.6862 400.21C16.0728 401.25 16.5395 402.25 17.0328 403.276V403.263Z" fill="#3E492B"/>
</g>
<defs>
<clipPath id="clip0_161_1499">
<rect width="275.263" height="575.395" fill="white" transform="matrix(-1 0 0 -1 192.852 576.132)"/>
</clipPath>
</defs>
</svg>
