<?xml version="1.0" encoding="UTF-8"?><svg id="Layer_1" xmlns="http://www.w3.org/2000/svg" width="368mm" height="746mm" viewBox="0 0 1043.15 2114.65"><defs><style>.cls-1{fill:#3e492b;}</style></defs><path class="cls-1" d="M763.64,1984.9c6.38,1.08,4.57-5.37,5.61-6.42-10.74.5-5.51,8.07-5.61,6.42Z"/><polygon class="cls-1" points="652.09 1983.79 654.45 1981.57 637.12 1985.15 652.09 1983.79"/><path class="cls-1" d="M550.06,1964.3c1.74,3.16,4.92,5.19,8.98,6.54,4.08,1.29,9.01,1.99,14.27,2.42,5.27.42,10.82.72,16.18,1.25,2.68.28,5.29.66,7.79,1.18,2.51.5,4.89,1.17,7.08,2.05l2.58,2.95,9.75-7.03c-11.22-1.24-24.21-1.87-36.25-3.07-3.01-.31-5.96-.64-8.81-1.01-2.84-.41-5.57-.85-8.17-1.35-5.2-.97-9.76-2.32-13.4-3.93Z"/><path class="cls-1" d="M505.07,1927.52c.86,2.48-2.09,2.45-2.38,2.42-.15-.01.34.02,2.33.34,1.99.31,5.45.93,11.18,2.18-.98-.79-1.22-1.15-1.77-1.68-2.02-.58-4.77-1.48-9.35-3.26Z"/><path class="cls-1" d="M514.42,1930.78c2.45.72,3.37.7,3.41.42.05-.29-.79-.85-1.73-1.37-1.89-1.03-4.35-1.74-1.69.95Z"/><path class="cls-1" d="M469.58,1916.87c4.54.58,9.13,1.07,13.64,1.59-1.67-3.34-12.21-8.24-7.52-8.26-12.91-3.39-11.5-.18-6.13,6.67Z"/><path class="cls-1" d="M454.92,1918.85c1.13.28,2.29.52,3.46.74l3.49.69c-.34-.72-.89-1.34-1.95-1.65-1.05-.31-2.66-.26-5,.22Z"/><path class="cls-1" d="M476.7,1922.96l-7.46-1.25-7.36-1.44c1.05,2.36-.1,5.64,6.62,1.63-2.37,2.45,1.56.78,8.2,1.06Z"/><path class="cls-1" d="M483.89,1927.54c3.14,2.41,6.87,4.89,8.14,6.47.62.81.61,1.44-.46,1.81-.53.18-1.33.3-2.45.33-1.1.01-2.51-.06-4.28-.24,1.57.49,3.03.93,4.4,1.28,1.38.34,2.66.61,3.83.84,2.35.45,4.28.69,5.8.75,3.04.14,4.48-.53,4.31-1.56-.18-1.02-1.91-2.52-5.14-4.2-1.62-.84-3.62-1.72-6-2.61-2.36-.92-5.06-1.92-8.16-2.88Z"/><path class="cls-1" d="M542.3,1973.81c3.25,1.9,6.54,3.71,9.83,5.58,3.32-.42,6.65-.92,9.96-1.42-1.24.18-3.1-.19-5.19-.78-2.08-.62-4.39-1.5-6.54-2.28-4.31-1.55-7.99-2.79-8.06-1.1Z"/><path class="cls-1" d="M405.76,1872.49c-1.01.63-1.24,2.44-1.33,4.47-.12,2.05.02,4.21-.53,5.64,2.98,1.17,5.86,2.39,8.82,3.5-1.44-2.01-3.58-4.71-5.23-7.19-1.68-2.45-2.57-4.95-1.72-6.42Z"/><path class="cls-1" d="M403.9,1882.61c-2.26-.85-4.33-1.91-6.52-2.88l-3.26-1.5c-1.1-.5-2.2-1-3.23-1.57,1.05,1.13,2.14,2.01,3.09,2.82.96.8,1.82,1.48,2.61,2.06,1.57,1.15,2.82,1.87,3.81,2.25,2.06.68,3.03.04,3.5-1.18Z"/><path class="cls-1" d="M447.66,1928.53c4.29.64,8.71,1.01,13.04,1.45,4.29.48,8.71.72,13.04,1.03l-7.66-.88c-2.55-.32-5.05-.71-7.6-1.07-2.52-.39-5.12-.7-7.62-1.16l-7.58-1.37,4.37,2Z"/><path class="cls-1" d="M372.55,1836.04c1.43.5,2.81,1.01,4.23,1.46l4.32,1.25-3.56-1.32c-1.21-.43-2.31-.98-3.49-1.47l-7.05-3.15,5.54,3.24Z"/><path class="cls-1" d="M354.63,1807.7c3.21,1.56,3.99-1.03,4.63-3.41.64-2.39,1.13-4.59,3.63-2.61-.59-.95-1.21-1.87-1.86-2.75-.31-.39-.69-.99-1.07-1.53-.38-.54-.76-1.08-1.14-1.6-1.54-2.09-3.19-4.08-4.84-5.91-3.31-3.68-6.78-6.94-10.02-9.99,2.67,3.6,4.92,7.63,6.73,12.32.91,2.36,1.73,4.9,2.44,7.64.17.67.36,1.41.5,2.07.13.6.25,1.21.37,1.84.23,1.25.44,2.56.62,3.94Z"/><path class="cls-1" d="M333.81,1769.29c2.75,3.57,6.27,6.91,10.16,10.61-2.88-3.85-6.03-7.39-10.16-10.61Z"/><path class="cls-1" d="M375.34,1859.08c.17-.85.61-2.26.54-4.27-.03-1.01-.19-2.16-.57-3.47-.35-1.34-.86-2.89-1.71-4.59-.6,2.68-1.24,5.48-1.71,8.19,1.05,1.26,2.24,2.7,3.45,4.15Z"/><path class="cls-1" d="M371.86,1855.21l.03-.27c-1.82-2.3-3.22-4.36-4.39-5.93-1.15-1.59-2.01-2.76-2.5-3.48.43.61,1.16,1.65,2.28,3.22.55.79,1.2,1.72,1.96,2.79.38.54.78,1.12,1.21,1.74.42.63.88,1.28,1.42,1.94Z"/><path class="cls-1" d="M376.21,1860.13c-.31-.39-.54-.68-.86-1.05-.14.81-.09,1.19.86,1.05Z"/><path class="cls-1" d="M416.41,1904.49c-1.15-.2-2.42-.48-3.76-.79-1.3-.36-2.66-.73-3.99-1.1-2.68-.73-5.32-1.38-7.35-1.52-2-.17-3.35.13-3.57,1.48-.09.66.06,1.62.67,2.81.6,1.2,1.58,2.69,3.04,4.55,3.88.05,4.13-2.07,5.2-3.76.53-.85,1.26-1.6,2.7-1.95.72-.18,1.62-.25,2.75-.19,1.16.03,2.58.17,4.31.48Z"/><path class="cls-1" d="M374.9,1870.57c1.58,1.98,3.09,4.03,4.74,5.97l5.03,5.77c.91-1.47.66-5.12,4.82-3.62l-7.36-3.89c-1.26-.63-2.43-1.36-3.63-2.08l-3.6-2.16Z"/><path class="cls-1" d="M368.38,1866.43c1.08.72,2.11,1.46,3.21,2.14l3.32,1.99-1.74-2.21-.87-1.1-.81-1.15-3.1.34Z"/><path class="cls-1" d="M340.22,1797.84c-5.6-5.46-9.19-12.61-13.21-20.54,2.73,9.22,6.31,18.57,10.38,27.26,2.4.37,7.45,2.65,2.82-6.71Z"/><path class="cls-1" d="M353.54,1827.84c-.37-.29-.7-.76-1.03-1.04-.06,1.05.18,1.73,1.03,1.04Z"/><path class="cls-1" d="M297.92,1698.22c-.23.52-.55,1.01-.8,1.55.39,0,.75-.02,1.15.01l-.35-1.56Z"/><path class="cls-1" d="M337,1806.54c.25.9.52,1.73.8,2.52.27.71.56,1.35.86,1.96.61,1.21,1.28,2.24,2,3.15,1.44,1.82,3.08,3.13,4.78,4.33-1.36-2.03-2.71-4.16-4.04-6.4-.66-1.12-1.32-2.27-1.98-3.45-.68-1.29-1.37-2.7-2.04-4.1-1.08-.17-1.67-.02-.39,1.99Z"/><path class="cls-1" d="M321.73,1748.48c.06,1.93.22,3.95.44,6.05.26,2.1.58,4.27.95,6.49.24-2.05.36-5.06.21-7.61-.13-2.55-.59-4.65-1.6-4.93Z"/><path class="cls-1" d="M353,1824.03c.24.23.48.42.71.69.19-2.5-.27-1.94-.71-.69Z"/><path class="cls-1" d="M353,1824.03c-2.38-2.4-5.04-3.88-7.56-5.53,2.36,3.2,4.74,6.03,7.06,8.29,0-.92.22-1.96.49-2.77Z"/><path class="cls-1" d="M252.42,1681.07c3.06.22,6.59,4.95,9.34,11.6.33.84.64,1.7.94,2.6.32.89.63,1.81.91,2.76.56,1.89,1.02,3.88,1.35,5.95.37,2.06.66,4.18.76,6.36.11,2.18.06,4.41-.09,6.64,4.45,7.35,10.64,6.78,16.42,2.53,2.91-2.13,5.78-5.17,8.35-8.62,1.3-1.72,2.47-3.55,3.62-5.42,1.15-1.87,2.2-3.78,3.1-5.69-1.31.1-2.55.31-4.38-1.28-.94-.8-1.92-2.04-3.16-3.98-1.22-1.94-2.72-4.59-4.27-8.18-.54,1.48-.89,4.42-1.02,7.86-.08,1.73-.17,3.57-.26,5.4-.04,1.84-.09,3.67-.2,5.38-.11,1.7-.28,3.28-.51,4.59-.21,1.31-.52,2.35-.96,3.01-.88,1.3-2.3,1.03-4.56-1.93-4.33-10.06-4.66-14.57-4.11-17.78.7-3.22,2.38-5.24,2.99-10.52-2.89,4.94-6.74-1.14-10.87-8.08-.98-1.72-2.05-3.49-3.07-5.16-1-1.67-2.05-3.23-3.14-4.49-2.16-2.52-4.44-3.88-7.11-2.48,1.71,6.6,3.6,13.08,6,19.35-1.61.67-5.43-6.13-6.08-.39Z"/><path class="cls-1" d="M305.25,1728.19c.92,1.96,1.9,3.92,2.89,5.88-1.59-7.33-1.07-13.16.54-23.51-5.74-9.06-8.28-10.6-10.41-10.79,2.33,9.98,5.2,20.07,8.54,30.21l-1.56-1.8Z"/><path class="cls-1" d="M319.14,1761.66c-2-.57-4.05-1.87-6.05-3.31-1.97-1.44-3.88-3.03-5.63-4.19-3.5-2.31-6.37-2.9-7.72,3.05,8.06,18.32,10.38,10.84,17.69,20.65-3.61-7.22-4.95-10.39-5.03-11.44-.1-1.05,1.03.03,2.4,1.29,2.82,2.53,6.58,5.75,3.75-5.54,1.7,2.65,3.23,5.24,4.61,7.76,1.37,2.52,2.62,4.97,3.85,7.36-.84-2.8-1.57-5.57-2.21-8.28-.65-2.72-1.24-5.39-1.68-8-.02.32-.05.55-.09.82l.08.13s-.07,0-.11.01c-.21,1.57-.49,2.18-.65.58-.11-.07-.29-.41-.38-.55-.91.16-1.86-.08-2.8-.36-2.35-8.97.99-1.98,2.8.36.33-.03.7.08,1.03-.02.02-.04.02-.09.03-.14-5.25-9.25-10.23-18.48-14.89-27.77.36,1.62.82,3.31,1.39,5.15.6,1.84,1.34,3.83,2.21,6.03.85,2.2,1.91,4.63,3.14,7.34.62,1.35,1.27,2.78,1.96,4.29.72,1.51,1.49,3.1,2.3,4.78Z"/><path class="cls-1" d="M379.41,1910.75c-.45-1.07-.11-1.41.13-1.82-2.1-.78-3.1-.85-.13,1.82Z"/><path class="cls-1" d="M371.75,1899.06c2.36.92,5.57.19,10.85,5.63,3.96,5.58-1.98,2.41-3.07,4.25,2.37.79,6.3,2.35,8.41,2.3,2.12-.05,2.42-1.74-2.2-7.3-.77-.23-1.56-.45-2.3-.73-2.08-2.51-4.07-5.44-5.84-8.37-1.71-2.99-3.08-6.09-4.18-8.75-.54-1.34-1.01-2.57-1.35-3.7-.32-1.15-.56-2.15-.71-2.96-.29-1.63-.2-2.51.32-2.28-.43,1.65-.8,3.22-1.08,4.81-.28,1.6-.47,3.2-.48,4.86-.05,3.36.38,7.16,1.61,12.25Z"/><path class="cls-1" d="M335.75,1834.09l-3.83-5.24c-.63-.88-1.31-1.74-1.9-2.65l-1.79-2.73c-2.39-3.68-4.81-7.18-7.24-11.23l.44,7.41.5,7.3,2.69-2.14c.7,1.75,1.3,3.23,1.94,4.42.65,1.18,1.25,2.12,1.8,2.86,1.1,1.48,2.03,2.17,2.86,2.44,1.66.54,2.96-.59,4.53-.44Z"/><path class="cls-1" d="M300.35,1694.73c2.43.49,4.95.97,7.41,1.42-2.18-1.83-4.21-3.65-6.3-5.53l-3.14-2.85-3.03-2.89c1.54,3.29,3.38,6.6,5.06,9.85Z"/><path class="cls-1" d="M294.27,1665.1l6,.47c-1.38-2.33-2.84-4.7-4.12-7.2-.32,1.11-.7,2.25-.99,3.36l-.89,3.36Z"/><path class="cls-1" d="M411.46,862.17l7.15-4.42c-3.48,1.83-5.65,3.22-7.15,4.42Z"/><path class="cls-1" d="M355.67,882.46l-.36,3.28c2.09-2.54,2.77-4.08.36-3.28Z"/><path class="cls-1" d="M929.28,1513.04c-2.67-1.66-5.39-3.47-7.95-5.26-2.56-1.8-4.95-3.49-6.99-4.75-4.08-2.52-6.77-3.32-6.53.07l2.62,6.87c3.99-.11,7.45.2,10.55.79,3.09.56,5.82,1.32,8.3,2.28Z"/><path class="cls-1" d="M384.71,1305.19c.41,1.23.83,2.52,1.25,3.8,3.64.26,7.04.5,10.11.64-3.45-1.27-7.33-2.78-11.37-4.44Z"/><path class="cls-1" d="M360.27,1319.35c-1.51-2.34-3.01-4.68-4.49-7.05-1.48-2.36-2.96-4.71-4.41-7.1.79,1.8,1.89,3.85,3.36,6.18,1.46,2.35,3.28,5,5.53,7.97Z"/><path class="cls-1" d="M724.9,782c.39-.67.8-1.34,1.16-2.01l.92-2.03.86-1.99c.13-.33.3-.65.39-.99l.27-.99c-.21.09-.4.17-.59.25-.23.08-.45.16-.66.23-.42.15-.79.31-1.12.46-.67.31-1.13.63-1.55.93-.86.59-1.13,1.2-1.09,1.84.07,1.27,1.38,2.63,1.41,4.3Z"/><path class="cls-1" d="M513.88,1533.97c9.83,3.06,17.72,4.59,24.77,5.35-11.92-4.49-21.32-10.59-24.77-5.35Z"/><path class="cls-1" d="M413.7,934.98c4.28-2.84,5.79-4.82,5.15-6.13-4.4,2.82-6.71,5.01-5.15,6.13Z"/><path class="cls-1" d="M567.77,1541.18c-1.72-.78-3.43-1.22-5.19-1.89-3.71.3-7.36.55-11.34.61-3.96.05-8.11-.09-12.59-.58,4.39,1.66,9.18,3.09,14.13,3.62,4.92.53,9.92.15,14.99-1.76Z"/><path class="cls-1" d="M357.08,217.4c.4-.93.68-2.07,1.13-2.9-.84-.41-1.05.92-1.13,2.9Z"/><path class="cls-1" d="M631.8,65.65c-1.7.16-3.89.21-6.3.22-2.39-.01-5-.02-7.54-.04,2.44.49,6.55.54,13.84-.18Z"/><path class="cls-1" d="M323.42,1570.61c-3.71,3.25-.23,1.04,0,0h0Z"/><path class="cls-1" d="M287.37,1571.79c.05-1.45-.21-2.8-1.39-3.75,1.04,1.29,1.44,2.55,1.39,3.75Z"/><path class="cls-1" d="M646.2,1507.17c.22.03.4.05.65.09-2.13-1.49-1.77-1.21-.65-.09Z"/><path class="cls-1" d="M315.86,1572.84c.96-.28,1.9-.63,2.9-1.03,1.06-.38,2.02-.86,3.14-1.36-.59.09-1.32.32-2.32.7-1.04.37-2.2.93-3.72,1.69Z"/><path class="cls-1" d="M318.62,1574.54c-.34.2-.68.39-.98.58-.28.19-.55.38-.81.55-.51.36-1.04.68-1.46,1.01.45,1.13,1.05,1.32,3.25-2.14Z"/><path class="cls-1" d="M329.28,1566.33c-2.56,1.71-5.08,2.96-7.39,4.12,1.06-.22,1.6-.17,1.52.17.54-.48,1.26-1.03,2.2-1.73.9-.72,2.15-1.52,3.67-2.55Z"/><path class="cls-1" d="M645.76,541.75c.69,0,1.3-.06,2.16-.05.01-.2,0-.35-.08-.46-.05-.52-.32-.74-.6-.76-.29-.02-.61.16-.94.49-.17.18-.35.47-.54.79Z"/><path class="cls-1" d="M722.81,1538.21c.37.05.61-.06.95-.03-.33-.17-.74-.4-1.04-.56l.09.6Z"/><path class="cls-1" d="M694.51,1533.95c7.01-1.85,12.03-2.1,16.31-1.23,2.14.43,4.1,1.11,6.02,1.97,1.93.85,3.85,1.83,5.88,2.93-1.06-6.89-2.08-13.75-3.02-20.68-8.27,5.71-16.68,11.44-25.19,17.01Z"/><path class="cls-1" d="M549.68,818.65c-6.83-.36-13.66-.66-20.5-.94,20.7-15.16,38.57-15.79,18.45-19.52.99,10.24-17.55,15.23-35.89,20.63-9.18,2.68-18.31,5.44-24.96,8.8-3.44,1.73-6.38,3.63-8.22,5.73-1.86,2.1-2.75,4.39-2.36,6.93-4.68-.09-9.37-.14-14.03-.14,3.7-.98,3.92-2.31,7.62-3.23-13.93-.77-17.38,4.31-21.28,10.42-3.91,6.13-8.34,13.32-23.96,17.45-11.07,2.37-19.37,2.31-13.08-2.6l-21.41,13.31c-6.81,2.1-6.42-1.82.37-3.92l-17.29,7.24c-5.84,2.44-11.82,4.95-17.89,7.61l.06-.67c-1.03,1.26-2.42,2.77-4.04,4.45-1.61,1.66-3.4,3.44-5.24,5.25-1.83,1.77-3.68,3.56-5.37,5.2-1.7,1.61-3.25,3.07-4.48,4.23-10.61,1.67,3.81-4.13.37-5.35-6.21,4.6-12.36,9.44-18.32,14.61-5.42,0-4.63-3.44-.41-7.86,4.19-4.34,11.78-9.27,19.14-12.08-3.45-1.28-6.36-1.93-8.82-2.2-2.46-.29-4.52-.07-6.32.44-3.59.99-6.21,3.39-9.36,6.39-1.59,1.56-3.3,3.22-5.37,5.06-2.07,1.9-4.48,3.78-7.47,6-2.98,2.13-6.53,4.49-10.89,7.14-1.09.68-2.23,1.38-3.43,2.08-.6.35-1.21.71-1.83,1.07-.6.36-1.21.73-1.84,1.11-1.25.74-2.57,1.5-3.95,2.28-1.38.81-2.8,1.64-4.27,2.5,2.79-3.19,5.67-6.17,8.69-9.18l4.74-4.46c1.59-1.43,3.19-2.8,4.81-4.2-2.5-.01-4.93.22-7.33.72-2.4.57-4.77,1.36-7.12,2.34-2.29.99-4.48,2.16-6.74,3.48-2.23,1.35-4.44,2.92-6.72,4.56-2.23,1.73-4.54,3.55-6.88,5.54-2.32,2.03-4.77,4.09-7.23,6.4-5.01,4.5-10.32,9.61-16.32,15.26,1.82-1.08,5.98-4.25,11.03-7.56,1.27-.82,2.59-1.66,3.93-2.49,1.35-.82,2.76-1.59,4.14-2.36,2.76-1.55,5.6-2.86,8.2-3.92,2.59-1.09,5.04-1.77,7.04-2.14,2.01-.35,3.59-.34,4.6.19,2.01,1.04,1.56,3.92-2.43,9.83-3.29,2.34-6.86,5.43-10.26,9.89-.84,1.12-1.69,2.31-2.52,3.59-.8,1.3-1.58,2.69-2.35,4.16-.78,1.46-1.48,3.06-2.15,4.74-.68,1.68-1.33,3.44-1.86,5.35-3.1-1.85-6.35.69-9.68,6.02-3.29,5.34-6.5,13.4-9.46,22.35-2.87-1.48-5.72-2.98-8.57-4.5-.3,1.33-.56,2.57-.76,3.73-.18,1.17-.33,2.26-.45,3.28-.24,2.04-.34,3.81-.29,5.37.05,3.13.45,5.43,1.06,7.47,1.16,4.06,2.81,7.08,3.86,13.13-.6,2.65-1.24,5.03-1.84,7.16-.31,1.07-.63,2.08-.97,3.03-.32.95-.63,1.85-.96,2.7-1.36,3.41-2.77,6.02-4.34,8.15-1.58,2.13-3.17,3.75-4.86,5.16-1.68,1.41-3.38,2.6-4.98,3.85-.36,4.45-.32,7.37-.1,9.2.21,1.83.63,2.54,1.17,2.55,1.06.02,2.67-2.81,4.39-5.37,1.71-2.56,3.63-4.88,5.08-4.03.75.42,1.33,1.64,1.86,3.96.26,1.16.49,2.6.68,4.37.21,1.76.41,3.84.57,6.29-.71,6.89-.71,13.24-.2,19.31.54,6.06,1.59,11.86,3.08,17.67,3.09,11.89,8,24.11,15.35,38.49,1.15,9.38-.37,9.08-2.47,7.3-2.02-1.79-4.44-5.13-4.74-1.45,2.02,2.33,4.16,4.58,6.28,6.8l3.17,3.3,3.26,3.2c1.26,3.83-1.39,3.48-2.74,3.28,1.92,3.03,3.57,4.32,4.97,4.93,1.42.61,2.66.51,3.99.64,1.33.13,2.73.49,4.48,1.96,1.81,1.44,3.88,4.04,6.73,8.52,6.02.29,7.05,11.53,10.67,24.98.45,1.67.93,3.38,1.45,5.12.52,1.73,1.13,3.44,1.76,5.17,1.24,3.47,2.78,6.86,4.56,10.08,1.77,3.23,3.91,6.19,6.29,8.85,2.46,2.59,5.19,4.87,8.34,6.55,1.7,6.74-6.57,1.07-8.38,4.84,7.04,6.07,12.07,10.23,16.09,13.4,3.99,3.19,6.95,5.4,9.83,7.39,5.78,3.93,11.31,7.11,24.92,13.7,4.06,7.23,8.25,14.44,12.61,21.53-1.95-4.38-1.99-7.05-.68-8.47,1.3-1.41,3.95-1.56,7.41-.94,6.9,1.3,17.12,5.57,26.6,9.39-1.08-3.32-2.08-6.4-2.96-9.13-.89-2.7-1.71-4.97-2.46-6.7,8.55,5.67,17.2,11.13,25.93,16.45,1.73,3.58-2.73,4.09-9.13,3.81,2.08.78,4.09,1.48,5.72,1.94,2.94,4.92,2.51,7.47.08,8.7-2.42,1.24-6.76,1.08-11.51.5-1.6-3.89-3.05-7.9-4.41-11.79-9.53-.7-19.22-.9-21.86,4.31,2.26.58,5.78,2.55,9.35,5.03-2.56-.18-4.48,0-4.42,1.34.12,1.45,3.97,2.13,9.43,3.67-.59,4.23-1.16,8.51-1.7,12.75l4.1-2.06c8.89,10.62,17.81,21.08,26.99,31.47,3.67,1.31,7.38,2.45,11.11,3.54,3.73,1.09,7.47,2.14,11.23,3.18,7.54,2.09,15.31,4.05,23.27,6.53,16.1,4.77,33.2,11.31,53.26,22.29-13.77.03-9.29,9.15-15.04,16.47-1.21-3.83-3.81-6.79-7.31-9.34-3.46-2.61-7.83-4.8-12.65-7.02-4.84-2.18-10.03-4.51-15.18-7.26-2.57-1.37-5.14-2.85-7.62-4.49-2.48-1.64-4.83-3.5-7.06-5.53,4.65,4.25,5.77,6.83,5.3,8.25-.47,1.42-2.59,1.74-4.33,1.36l19.95,9.33,20.09,8.91c-5.17,5.66,4.25,9.88,11.81,18.89.66-8.6,8.76-6.19,18.79-1.01,4.98,2.65,10.63,5.78,16.01,8.72,2.7,1.45,5.33,2.87,7.87,4.01,2.54,1.14,4.94,2.09,7.11,2.72-.84,2.44-2.82,4.23-6.82,3.88-4.03-.3-9.98-2.92-18.73-9.17,3.49,5.55,7.47,8.43,11.66,9.92,4.23,1.44,8.69,1.47,13.13,1.44,4.45-.05,8.83-.08,13.13.99,4.3,1.08,8.41,3.42,12.25,8.37-4.59-2.47-6.64-4.53-9.71-3.33,3.21.54,7.11,2.05,11.03,4.02,3.94,1.96,7.98,4.24,11.32,6.56,3.36,2.3,6.06,4.58,7.42,6.3,1.38,1.69,1.4,2.87-.69,3.04-1.58-.75-3.11-1.58-4.67-2.37,3.7,2.31,8.07,4.62,12.75,7.12,4.69,2.48,9.72,5.11,15.07,7.5,2.66,1.23,5.36,2.45,8.09,3.66,2.73,1.22,5.48,2.42,8.29,3.49,5.59,2.18,11.18,4.3,16.61,6.14,5.49,1.73,10.8,3.27,15.74,4.51,1.23.31,2.45.61,3.63.88,1.18.24,2.34.47,3.47.67,2.26.41,4.4.74,6.41.98,4.02.48,7.49.6,10.24.28,2.77-.36,4.81-1.14,5.95-2.43-.22,1.66-9.48,12.99-12.34,14.64,24.35-6.36,48.14-13.5,71.28-21.38-4.11,4.48-3.23,14.43-4.81,22.98-.8,4.28-2.23,8.22-5.32,10.95-3.08,2.71-7.79,4.14-15.14,3.46,3.72,1.97,7.88,4.21,13.38,6.05,5.51,1.77,12.31,3.31,21.24,3.8-2.53-1.47-4.81-6.3-5.49-10.55-.68-4.25.23-7.97,4.01-7.38,2.08,2.21,3.85,4,5.38,5.48,1.53,1.49,2.83,2.69,3.98,3.7,2.3,2.02,4.01,3.28,5.89,4.52,3.75,2.52,8.15,4.83,19.57,13.07-3.84-2.18-2.41-6.85,1.52-10.53,3.93-3.63,10.35-6.43,16.69-4.68-2.59,2.04-2.72,16.78-7.89,17.42l9.05-2.24c3-.74,6-1.5,9-2.32l17.84-4.88c-4.3.66-5.38,4.08-4.58,8.12.8,4.07,3.53,8.66,6.77,11.69-1.39-1.94,5.69-.53,14.27,1.37,4.31.86,8.99,1.83,13.17,2.58,4.17.76,7.84,1.27,10.12,1.15l-3.36-1.48-3.34-1.55-6.66-3.09c4.59,1.07,8.66,1.67,12.36,1.73,3.7.06,7-.29,10.03-.91s5.78-1.52,8.39-2.55c2.62-1.06,5.1-2.32,7.56-3.56,4.93-2.51,9.8-5.02,15.69-6.69,2.95-.87,6.15-1.51,9.74-1.79,1.8-.14,3.69-.19,5.7-.14,1.01.03,2.04.08,3.11.16,1.07.05,2.17.14,3.3.25-1.17.79-2.55,2.47-3.68,4.6-1.13,2.11-2,4.67-2.16,7.27-.31,5.21,2.32,10.45,11.78,12.2,2.42-2.13,6.39-5.61,11.57-10.15,5.11-4.46,11.3-9.63,18.14-14.62l.06-1.1c-12.57,8.53-28.33,16.22-44.14,17.35-1.88-1.88-3.74-3.76-5.59-5.68l-12.75,1.12-12.75.99c7.72-4.73,21.34-11.5,35.83-18.57,14.5-6.97,29.78-14.45,41.35-19.66l-2.86,50.06c-4.35,1.28-7.24,2.47-9.9,3.49,6.75,2.21,7.89,3.68,9.62,4.68l3.79-66.37c-1.65-1.14-3.97-1.75-14.14-2.42-2.91-2.4-.9-3.78,2.65-4.67,3.56-.88,8.68-1.17,12.16-1.18l-4.74,82.93c-.97.03-1.77.04-2.43.04l2.42.26,4.77-83.52c-14.24-2.14-28.5-4.62-42.81-7.38.38,5.13-8.69,6.5-17.87,7.56-4.59.5-9.2.95-12.63,1.81-3.43.84-5.69,2.07-5.57,4.22,17.36-.88,34.56-2.02,51.49-3.62.46,5.14-7.53,11.42-19.96,15.58-12.41,4.11-29.26,5.94-45.75,2.41-3.91-2.67-1.62-6.84,1.62-10.78,3.24-3.94,7.39-7.69,7.3-9.4-2.39,1.41-10.48,1.78-18.32,1.43-7.84-.36-15.43-1.46-16.74-2.93l14.93-2.97c-17.76-6.78-32.33,8.09-53.08-5.19-7.59-1.95-21.03-16.7-23.37-11.01,10.87,13.45,7.35,48.97-2.38,56.1-1.28-.61-10.87-4.98-21.17-10-10.29-5.03-21.33-10.62-25.35-14.06-5.74-5.31-.26-10.04,5.54-14.47,5.77-4.43,11.86-8.66,6.91-13.29-.88,2.67-8.47,4.96-11.6,5.67-7.93-3.43,4.56-8.02-13.57-9.15-4.25,9.74-36.08-5.34-9.49,7.51-17.73.76-18.22-4.37-38.73-6.27,2.88,3.65-2.35,8.71-10.47,13-8.13,4.3-19.13,7.84-27.94,8.43,1.28-2.48-2.27-6.25-4.01-7.97-17.74-2.21-31.29-4.81-44.59-7.2-13.3-2.38-26.33-4.55-43-5.67-2.91-2.67-18.78-6.67-11.66-10.63-4.91,1.51-9.53,4.69-19.85,4.34-9.76-4.95-3.98-5,2.41-5.2,6.38-.2,13.38-.57,6.07-6.32-1.64,5.84-27.25,6.57-42.2,9.93,1.07,2.31,3.73,3.66,7.34,4.34,3.61.66,8.18.68,13.09.33,9.81-.7,21.01-2.83,28.45-4.21-.35,6.32-7.13,12.38-18.12,17.4-10.99,5.03-26.16,9.03-43.17,11.69-6.76.66-10.83.59-13.26,0-2.43-.59-3.2-1.65-3.28-2.76-.16-2.21,2.49-4.6.14-3.69-12.74-.42-21.76,1.16-28.65,3.41-6.89,2.32-11.69,5.27-16.12,8.12-4.46,2.76-8.52,5.49-14.02,7.22-2.73.95-5.8,1.6-9.52,2.03-3.74.46-8.05.67-13.2.62-8.64-2.2-9.85-5.94-9.34-9.93.48-3.97,2.73-8.01.25-10.43,10.54-4.02,19.35-4.26,27.12-3.83,1.94.07,3.84.25,5.7.43,1.86.17,3.68.32,5.49.42,3.61.22,7.19.35,10.9-.14l-9.38-.93-9.43-.67c3.32-1.77,8.63-3.76,14.22-4.84,1.39-.29,2.8-.53,4.19-.73,1.39-.19,2.77-.29,4.11-.35,2.67-.11,5.16-.02,7.23.43-3.68-1.54-11.03-2.02-20.61-1.51-9.56.59-21.33,2.15-33.74,4.66-12.42,2.48-25.5,5.81-37.84,9.6-12.36,3.76-23.94,8.04-33.82,11.78-2.57,2.97-6.05,6.86-7.93,9.9-1.86,3.1-2.19,5.23,1.06,4.87,3.14-2.71,6.43-5.29,9.87-7.7,3.31-.04,3.91,1.2,3.3,2.94-.3.87-.91,1.86-1.66,2.89-.75,1.03-1.58,2.15-2.42,3.2-.85,1.04-1.6,2.1-2.21,2.99-.6.9-1.05,1.65-1.14,2.21-.21,1.1.77,1.23,4.18-.12-5.09,6.11-9.24,13.23-12.66,20.08-1.73,3.43-3.32,6.78-4.94,10.09-.19.42-.39.83-.6,1.25-.21.42-.43.78-.67,1.33-.47,1.01-.98,2.02-1.54,3.03-.58.98-1.11,2.06-1.7,3.13-.58,1.07-1.24,2.12-1.9,3.23-3.29.14-6.62.36-9.97.68.68.1,1.63-.58,2.67-1.73.53-.57,1.03-1.3,1.61-2.05.57-.76,1.14-1.59,1.69-2.49.56-.88,1.02-1.86,1.56-2.77.52-.92.98-1.87,1.37-2.81.2-.47.37-.94.53-1.41.15-.47.3-.83.41-1.25.23-.8.35-1.6.36-2.35-.02,1.13-.41,2.2-1.08,3.39-.65,1.32-1.59,2.7-2.71,4.14-1.09,1.47-2.25,3.1-3.54,4.75-1.26,1.68-2.46,3.51-3.68,5.35-4.73,7.44-7.76,16.29-2.73,22.36l1.12-1.77,1.18-1.73,2.35-3.4c1.6-2.23,3.27-4.37,4.91-6.46.23,7.84,2.09,16.74,3.63,25.68,1.52,8.98,2.71,18,1.39,27.05,4.49-4.14,4.32-5.09,4.24-6.7-.04-.8.04-1.74.79-3.24.75-1.49,2.17-3.56,5.08-6.42-3.5,2.42-5,.92-5.53-2.64-.24-1.77-.15-4.01.01-6.47.13-1.22.3-2.49.47-3.78.17-1.29.36-2.6.61-3.87.22-1.28.45-2.54.66-3.76.21-1.22.46-2.35.63-3.44.18-1.08.3-2.1.38-3,.1-.89.14-1.68.08-2.34-.23-2.65-1.82-3.42-6.28-.01,1.9-1.21,3.48-2.38,4.81-3.56,1.39-1.14,2.54-2.26,3.52-3.41.95-1.18,1.87-2.25,2.65-3.39.78-1.14,1.47-2.31,2.24-3.39.37-.55.74-1.11,1.11-1.67.37-.56.74-1.15,1.17-1.64.42-.52.86-1.04,1.31-1.55.23-.26.46-.51.7-.78.24-.24.5-.57.71-.66,1.7-1.12,4.1-2.01,7.5-2.13-1.28-.84-2.97-1.05-3.52-1.77-.29-.36-.25-.85.25-1.65.13-.2.26-.42.47-.66.22-.23.47-.49.75-.77.3-.28.57-.59.99-.91.41-.32.85-.66,1.34-1.04-.35-.95-.26-2.51-.19-3.51.3-.17.4-.21.68-.33-.25.06-.44.07-.67.14.03-.66,0-.76-.24.06-.69.2-1.38.37-2.07.5-.64.14-1.27.26-1.88.33-1.25.13-2.32.12-3.22-.12-.1-.54-.16-1.11-.14-1.7.04-.58.13-1.18.26-1.8.24-1.26.82-2.53,1.5-3.88,1.46-2.66,3.68-5.46,6.33-8.08,2.66-2.62,5.65-5.1,8.38-7.32,2.75-2.2,5.18-4.18,6.68-5.9,4.5-1.33,3.96-.11,3.1,1.51-.88,1.62-2.04,3.63.85,4.06,2.83-3.35,5.95-6.63,9.28-9.84,1.81,2.87,8.58,3.36,12.43,4.67,1.95.66,3.15,1.46,2.68,2.75-.46,1.29-2.65,3.03-7.16,5.76,5.86-2.07,11.98-3.93,18.27-5.57,6.04.28,13-.06,19.68-.95,3.34-.44,6.61-1.03,9.65-1.78,2.99-.71,5.7-1.57,8.02-2.68,2.34-.02,4.95-.59,7.39-1.49,2.43-.91,4.78-1.95,6.59-2.84,3.63-1.78,5.1-2.85,1.23.21,10.36-2.47,21.05-4.53,31.98-6.23l.35,1.68c16.18.03,33.19-2.48,51.24-3.05,9-.3,18.25-.11,27.65,1.05,4.72.59,9.44,1.41,14.26,2.56,2.4.57,4.82,1.22,7.21,1.96,2.38.74,4.76,1.56,7.14,2.48,11.58-.92,23.62-2.15,42.66,1.37l3.24,6.12c7.44-.37,18.35,2.07,28.25,4,9.9,1.92,18.78,3.3,22.26.61,7.11,8.62,24.79,11.4,43.94,12.95,9.55.76,19.56,1.22,28.62,1.87,4.45.34,8.71.72,12.63,1.2,3.94.53,7.54,1.17,10.65,1.97l2.07-7.39c17.45,3.03,34.69,3.67,57.33,4.42l-.24-6.86c10-1.11,22.12,2.19,35.59,6.3,13.49,4.09,28.38,9.01,43.93,11.01-2.48,2.21-10.25.35-15.53-2.07,14.32,8.67,30.7,10.27,47.19,10.04,16.53-.26,33.07-2.38,48.28-.81l3.48-60.83c-5.73-.4-11.27-1.47-16.51-3.58-8.08,1.96-13.81.64-19.22-1.43.74.04,1.41-.04,1.99-.21-.81-.14-2.01-.24-3.25-.32-3.4-1.49-6.87-3.18-10.65-4.63,3.14,1.95,6.19,3.6,8.9,4.48-3.06-.23-6.93-.36-11.19-.33-2.13,0-4.36.09-6.64.14-2.28.04-4.6.13-6.93.28l-2.99-7.64c-.74,0-1.33-.08-2.11-.05-4.26-1.84-6.14-1.24-6.47.59-.33,1.84.9,4.94,2.94,7.9-2.37.33-4.66.65-6.79,1.07-2.13.42-4.12.94-5.88,1.57-2.81-6.3-8.9-6.12-15.33-6.36-6.43-.18-13.24-.46-17.02-7.56-1.79,1.2-5.59,1.55-10.39,1.58-1.2,0-2.47,0-3.78-.04-1.31-.06-2.66-.13-4.05-.19-2.77-.14-5.68-.3-8.58-.4-5.82-.16-11.63-.32-16.49.36-4.86.67-8.78,2.12-10.74,4.94.08-1.7-2.41-3.09,2.52-2.04-4.9-1.9-9.75-3.93-14.64-5.25-4.9-1.29-9.78-2.08-14.76-1.58l-1.82-10.02-6.28,1.49-6.29,1.38-12.67,2.72c-11.67-9.42-15.96-14.25-.93-16.92-8.61.12-14.65,0-19.23-.43-4.59-.41-7.78-.94-10.82-1.43-6.12-.93-11.53-1.85-26.68-1.51l3.33-5.1c-4.75-1.64-11.57-2.03-17.74-2.84-6.12-.86-11.48-2.27-13.36-5.65-4.14-4.6-12.36-9.9-23.17-15.62-2.68-1.5-5.52-3.02-8.49-4.58-1.49-.77-3.01-1.55-4.56-2.35-1.56-.79-3.14-1.58-4.73-2.45-3.2-1.69-6.49-3.42-9.87-5.21-1.69-.88-3.41-1.77-5.14-2.67-1.71-.94-3.44-1.89-5.19-2.85-3.49-1.92-7.04-3.87-10.63-5.85-3.58-2-7.13-4.15-10.72-6.26-7.21-4.17-14.28-8.78-21.23-13.37l-2.59-1.73c-.85-.6-1.7-1.2-2.54-1.8-1.68-1.21-3.35-2.41-5.01-3.61-3.3-2.43-6.57-4.81-9.67-7.3-3.1-2.51-6.1-5.02-8.98-7.53-1.44-1.26-2.85-2.51-4.22-3.77-1.37-1.27-2.68-2.57-3.97-3.85-.34,10.39-4.74,4.96-10.22-1.79-1.36-1.7-2.81-3.44-4.24-5.1-1.43-1.66-2.89-3.19-4.33-4.34-2.88-2.31-5.7-3.16-8.15-.75-.32-5.3-5.36-11.85,4.25-9.33-12.96-6.97-20.74-14.91-28.05-21.53-1.83-1.65-3.65-3.2-5.52-4.64-1.85-1.47-3.75-2.81-5.78-4.01-4.06-2.4-8.69-4.15-14.41-5.15.01-2.68,2.19-2.85,4.25-2.84,2.07,0,4.06.18,3.67-1.7-2.39-.76-9.45-3.12-10.23-6.95-.73-3.79,5.51.04,10.2,1.58-5.84-4.6-10.89-7.54-15.3-9.28-4.39-1.79-8.18-2.34-11.54-2.07-6.73.54-11.76,4.37-16.49,8.2-3.97-7.13-7.41-11.8-11.58-14.88-2.07-1.55-4.33-2.7-6.91-3.56-2.56-.88-5.45-1.48-8.82-1.91-1.2-6.53-4.74-15.4,9.71-3.85-3.67-3.71-14.23-15.58-24.17-26.11-9.98-10.5-19.4-19.76-23.38-17.07-.3-3.98-8.63-11.4-11.14-12.87-1.75-2.28-3.2-4.35-4.53-6.22-.66-.93-1.28-1.82-1.88-2.66-.57-.85-1.12-1.67-1.64-2.45-1.04-1.56-1.98-2.98-2.88-4.33-.88-1.36-1.71-2.65-2.54-3.94-3.31-5.15-6.72-10.15-12.71-19.47.6,2.02,1.17,4.07,1.8,6.1-3.61-.37-6.14-1.54-8.1-3.26-1.96-1.72-3.21-4.07-4.38-6.78-2.22-5.5-3.78-12.51-8.04-20.47h1.3c-2.25-10.28-3.59-16.32-4.81-20.32-.6-2-1.19-3.47-1.76-4.69-.55-1.22-1.07-2.19-1.59-3.16-1.04-1.94-2.1-3.88-2.84-7.94-.2-1.01-.38-2.16-.56-3.46-.15-1.31-.25-2.78-.35-4.44-.23-3.31-.19-7.43.04-12.49-2.25,1.14-4.45,2.3-6.66,3.47-4.02-.18-5.81-2.71-6.45-6.68-.63-3.97.07-9.45,1.19-15.42,1.11-5.99,2.67-12.48,3.73-18.79,1.05-6.33,1.6-12.47.52-18.23l-2.29,4.02-2.19,4.13c-2.53-6.49,3.37-15.43,10.82-22.54,3.73-3.59,7.8-6.76,11.24-9.48,1.74-1.36,3.31-2.62,4.61-3.81,1.35-1.17,2.3-2.33,2.99-3.41,1.02-.8,1.21.19,1.19,1.77.01,1.6-.24,3.77-.14,5.38.97-1.38,1.83-2.61,2.59-3.69.7-1.08,1.35-1.96,1.83-2.76.93-1.61,1.48-2.71,1.56-3.63.18-1.81-1.07-2.58-2.81-3.36-1.72-.78-3.86-1.48-5.16-3.22-.63-.86-1.12-2.04-1.12-3.56-.01-1.53.35-3.49,1.4-5.89,3.13-.42,5.32,2.29,7.71,3.59,1.18.66,2.39.99,3.77.58.68-.21,1.4-.61,2.16-1.27.78-.64,1.66-1.5,2.57-2.7.87-.31,1.63-1.12,2.31-2.35.35-.61.74-1.29,1.1-2.08.36-.79.72-1.67,1.15-2.59,1.59-3.75,3.64-8.66,6.76-13.65.81-1.22,1.64-2.49,2.51-3.71.88-1.15,1.76-2.32,2.73-3.46,1.03-1.11,2.07-2.22,3.18-3.28,1.17-1.03,2.35-2.03,3.58-2.96,4.99-3.7,10.9-6.16,16.75-6.29-1.48-.36-2.99-.73-4.25-1.17-1.25-.43-2.3-.96-2.9-1.68-1.19-1.43-.69-3.7,3.77-7.49,3.78-2.18,8.81-3.64,14.45-4.75,5.62-1.13,11.8-1.94,17.94-3,6.14-1.07,12.19-2.41,17.57-4.64,5.37-2.23,9.89-5.29,12.86-9.69,2.65.16,3.86.8,4.29,1.68,6.29-4.03,16.86-9.38,26.57-14.77,9.71-5.4,18.59-10.79,21.61-15.33,5.13,4.81,12.62,4.79,21.1,2.56,4.25-1.11,8.75-2.78,13.35-4.65,1.15-.48,2.31-.97,3.47-1.46,1.2-.51,2.41-1.03,3.62-1.54,2.41-1.07,4.83-2.14,7.22-3.2,19.11-8.58,36.75-16.55,39.34-5.38,14.17-3.94,28.36-7.69,42.6-11.21l-.62,2.53c13.86-2.25,22.94-5.07,29.67-8.27,6.72-3.22,11.09-6.79,15.48-10.38,6.68.41,2.37,3.33,2.05,4.61,10.29-.62,18.22-1.1,24.85-1.73,1.66-.15,3.23-.32,4.74-.51.75-.1,1.49-.2,2.22-.29.7-.1,1.39-.2,2.07-.3,1.3-.19,2.55-.4,3.77-.65,1.28-.23,2.54-.49,3.78-.77,5.02-1.15,9.99-2.72,15.93-5.06,5.92-2.35,12.78-5.36,21.55-9.76,1.71,2.2,3.47,4.4,5.26,6.58.63-.41,1.47-.76,2.52-1.09,1.06-.35,2.31-.67,3.75-.97,1.43-.3,3.04-.55,4.87-.91,1.83-.36,3.78-.62,5.97-1.05,1.1-.22,2.23-.45,3.4-.68,1.18-.25,2.36-.42,3.65-.78,1.28-.32,2.59-.65,3.94-.99.67-.17,1.36-.35,2.05-.53.7-.21,1.43-.45,2.15-.69,1.45-.49,2.94-.98,4.45-1.48,1.52-.53,3.13-1.28,4.73-1.96,3.18-1.25,6.65-3.33,10.08-5.34l47.32-27.63-55.24-21.32c-5.1-1.97-9.27-2.81-13.06-3.44-3.77-.6-7.19-.9-10.31-1.05-6.26-.31-11.86-.11-16.35.08l-2.98.13-2.87.1c-2.1.08-4.23.16-6.37.27-4.28.22-8.63.54-12.99,1.06.44-.81,1.37-2.12,4.27-2.9-10.13,1.25-21.52-.9-32.83-4.6-2.78-.91-5.81-1.97-8.72-3.05-2.92-1.08-5.78-2.2-8.6-3.33-5.61-2.28-10.99-4.63-16.05-6.87-10.16-4.47-18.92-8.53-26.55-10.38-7.63-1.87-14.2-1.58-20.6,2.62-8.76-2.16-17.09-5.11-25-9.03,1.51,1.43,2.76,2.74,3.89,3.85,1.14,1.1,2.07,2.08,2.82,2.94,1.57,1.66,2.36,2.9,2.57,3.82.42,1.84-1.47,2.4-4.05,2.58-2.6.22-5.77-.08-7.76.37-1.98.46-2.76,1.69-.24,5.02-3.3-1.98-6.6-4.97-9.11-8.31-.63-.83-1.23-1.66-1.79-2.48-.52-.86-1.01-1.71-1.45-2.53-.44-.83-.85-1.62-1.18-2.4-.31-.8-.58-1.55-.79-2.26-.9-2.8-.81-4.91.11-5.48.46-.29,1.14-.2,2.06.33.96.5,2.19,1.44,3.69,2.91l.88,2.85c1.81-.67,2.72-1.74,3.01-3.05.31-1.32-.1-2.83-.73-4.6-.33-.87-.76-1.78-1.28-2.72-.45-.97-.97-1.97-1.56-2.99-.62-1-1.11-2.11-1.73-3.18-.29-.55-.62-1.08-.91-1.64-.27-.56-.55-1.13-.82-1.7-2.23-4.52-4.1-9.31-4.49-13.18-.42-3.87.25-6.55,2.67-6.86-.33-1.8-.74-3.31-.83-4.66-.04-.35-.1-.7-.12-1.05l-.03-1.05-.05-1.05c-.02-.36.02-.82.03-1.22l.03-1.26v-.63s.07-.68.07-.68l.21-2.73c.25-1.91.45-3.79.82-5.79.29-1.95.75-3.99,1.15-5.99.49-2.04.93-4.06,1.5-6.1,1.07-4.08,2.34-8.18,3.74-12.2,1.39-4.03,2.93-8.02,4.57-11.75.4-.96.83-1.83,1.24-2.74.44-1.03.78-1.49,1.13-2.11.35-.6.68-1.19,1-1.8.44-.6.87-1.21,1.29-1.81,1.64-2.43,3.88-4.88,6.2-7.32,1.27-1.2,2.55-2.41,3.86-3.61l2.12-1.77c.71-.59,1.37-1.19,2.16-1.76,5.94-4.65,12.73-9.03,19.94-13.18,1.78-1.05,3.64-2.06,5.5-3.08,1.83-1.03,3.76-2.02,5.65-3.02.94-.5,1.91-1,2.88-1.49l.73-.37.98-.51,2.34-1.25c3.15-1.63,6.3-3.25,9.5-4.85l4.9-2.3,2.45-1.15,2.63-1.02c3.52-1.36,7.04-2.72,10.56-4.08l1.32-.51c.44-.17.86-.35,1.39-.47l3.01-.83,6.03-1.66,6.04-1.66,1.51-.42c.56-.12,1.22-.2,1.82-.3l3.69-.59c4.93-.79,9.86-1.57,14.78-2.36.32-.04.58-.11.96-.14l1.29-.05,2.59-.09,5.18-.19c3.46-.13,6.91-.25,10.36-.38l5.18-.19,2.59-.1,1.29-.05.65-.02h.83c4.48,0,8.96,0,13.44-.01,4.48,0,8.95,0,13.43-.01h6.71s3.35-.01,3.35-.01l4.13.04-4.67-.6-4.37-.58-7.99-1.12-15.19-2.16-27.2-3.99,18.79-.61,2.36-.07,1.18-.04,1.41-.02,5.76-.07,11.56-.14,11.62-.14,2.91-.03,3.15-.02,7.14.02,28.75.08c2.87.18,5.62.36,8.23.53,3.04.23,5.91.44,8.58.64,3.93-.43,8.94-.37,14.7.5,5.76.88,12.35,2.61,19.7,5.62-.85.09-1.9.17-3.17.23-1.21.07-2.48.15-4.04.21-3.08.12-7,.2-11.8.25-4.8.04-10.49.04-17.08-.01-6.45-.07-13.57-.15-21.38-.23,1.34.11,2.7.22,4.1.34,1.42.1,2.88.21,4.36.32,3.2.21,6.42.41,9.64.58,6.44.35,12.9.62,19.23.81,6.33.19,12.54.31,18.49.36,2.87,0,5.78.01,8.72.02,2.88-.02,5.78-.04,8.69-.06-6.28-3.22-13.95-6.66-21.65-9.89-1.96-.81-3.89-1.6-5.78-2.38l-.36-.15-.3-.11-.58-.22c-.39-.14-.78-.29-1.17-.43-.79-.29-1.56-.57-2.33-.85-3.1-1.12-6.17-2.19-9.1-3.17-5.87-1.98-11.2-3.64-15.5-4.86-1.06-.3-2.13-.61-2.99-.81-.93-.21-1.74-.4-2.42-.56-1.49-.33-2.72-.56-3.65-.69,1.04-.83,2.1-1.54,3.17-2.12.54-.29,1.08-.55,1.63-.79.14-.06.27-.12.42-.17.18-.03.35-.06.52-.1.37-.06.71-.12,1.04-.17,2.75-.41,5.45-.49,8.2-.31,2.75.18,5.56.63,8.48,1.28,1.46.32,2.94.69,4.45,1.1.72.2,1.48.41,2.27.64.37.11.76.22,1.14.34.43.15.87.29,1.32.44,3.55,1.21,7.23,2.56,10.78,3.88,1.79.67,3.54,1.31,5.16,1.92.84.31,1.64.61,2.41.89.95.37,1.84.72,2.68,1.05,7.06,2.76,11.27,4.14,8.12,1.69l-2.71-1.7-1.8-1.21-3.54-2.41-3.46-2.39-.21-.15-.14-.11-.27-.21-.54-.42-1.07-.84c-1.3.31-2.65.6-4.06.88-10.85-3.43-20.32-5.71-25.5-7.17-1.37-.41-2.54-.82-3.47-1.24-.44-.2-.92-.45-1.16-.61s-.43-.32-.54-.48c-.22-.32-.14-.66.27-1.01.16-.21.57-.3,1.05-.42.48-.12,1.04-.23,1.7-.36,1.54-.09,2.96-.2,4.44-.19,1.79.03,3.18.06,4.26.08,2.7.07,5.15.19,7.33.31,4.35.24,7.69.49,9.14.36,1.07.08,1.92.07,2.62.06.7,0,1.15-.07,1.33-.2l.91-.03h.23s.06,0,.06,0l-.14-.08-.3-.16-1.19-.64-1.19-.64-1.09-.57c-.71-.36-1.5-.79-2.14-1.1-2.77-1.41-5.09-2.45-7.28-3.39-4.36-1.87-7.85-3.07-11.77-4.6-3.84,1.03-7.71,1.78-11.06,2.75-5.69-1.13-9.98-2.02-13.53-2.86-3.54-.82-6.38-1.63-8.93-2.26-2.55-.63-4.77-1.04-6.97-.95-1.1.05-2.19.22-3.39.47-1.18.27-2.45.62-3.87,1.02,1.15-.3,1.79-.7,1.91-1.28.05-.3-.03-.64-.24-1.03-.23-.4-.57-.84-1.02-1.3-1.77-1.82-5.5-4.27-10.65-7.16-5.2-2.93-11.94-6.38-19.66-10.18-1.98-.97-3.98-1.95-5.99-2.93-2.09-1.01-4.2-2.03-6.31-3.05-2.18-1.04-4.37-2.09-6.56-3.14l-3.34-1.59-.84-.4-.94-.39-1.87-.78c-1.25-.52-2.5-1.03-3.75-1.55l-1.87-.77c-.33-.13-.6-.26-.97-.38l-1.1-.35c-2.93-.92-5.85-1.84-8.74-2.75-2.92-.87-5.81-1.74-8.68-2.59-.72-.21-1.43-.42-2.15-.64l-1.07-.32-.94-.34c-1.26-.46-2.5-.92-3.74-1.37-5.03-1.79-9.57-3.62-14.02-5.35-2.15-.89-4.25-1.76-6.31-2.6-1.02-.43-2.03-.85-3.02-1.26-.97-.42-1.93-.84-2.87-1.26-1.88-.83-3.69-1.63-5.45-2.41-1.74-.79-3.36-1.57-4.94-2.32-3.14-1.5-5.99-2.89-8.49-4.17-4.94-2.59-8.47-4.75-10.24-6.25-1.85-.47-3.71-.94-5.46-1.43-1.73-.49-3.43-.99-5.11-1.5-1.67-.51-3.32-1.03-4.95-1.57l-2.43-.81-1.2-.41-.29-.1-.22-.07-.45-.14c-4.75-1.51-9.44-3.29-14.1-5.42-9.35-4.21-18.69-9.6-28.82-15.85,4.24,4.48,2.54,14.83-14.82,3.36,8.34-6.77,1.28-13.36-8.46-21.06-9.77-7.67-22.22-16.68-24.92-27.25,3.41,8.03-8.93.62-20.45-6.23-5.88-3.45-11.07-6.48-14.47-7.35-1.7-.41-2.88-.26-3.39.78-.5,1.04-.3,2.95.93,6.01-6.1-5.7-5.04-7.36-3.46-8.96,1.62-1.62,3.78-3.25.64-8.89-16.96-9-30.98-24.95-40.41-43.01-4.68-9.07-8.35-18.57-11.05-28.25-2.71-9.69-4.68-19.49-6.29-29.7-1.34-.2-2.85,1.54-4.61,2.31-1.76.75-3.8.54-6.2-4.07,1-2.06,1.9-4.05,2.98-6.03,1.06-1.99,2.06-3.84,3.22-5.91,1.13-2.01,2.23-3.99,3.36-5.94l3.56-5.76c-.26-2.21-1.15-3.88-2.4-5.42-1.22-1.54-2.71-2.94-3.81-4.57-1.07-1.62-1.78-3.48-1.54-5.89.06-.6.17-1.24.37-1.92.21-.67.5-1.38.86-2.14.73-1.5,1.77-3.17,3.21-5.02-2.53,1.91-6.39,4.97-6.27-1.32,7.08-22.1,15.18-43.44,25.79-63.49,5.29-10.02,11.3-19.63,18.07-28.64,6.77-9.01,14.34-17.41,22.73-24.86,16.78-14.86,37.21-25.68,59.17-29.98,1.35-.33,2.74-.5,4.11-.73,1.38-.2,2.73-.46,4.13-.6,2.8-.29,5.57-.61,8.42-.7,5.64-.33,11.44-.19,17.26.21,11.69.86,23.61,3.04,35.87,6.26-13.17-5.24-4.47-5.72,5.89-5.71-6.72-1.36.28-6.51-.98-10.11l21.25,5.45,5.42,1.35,5.49,1.31,10.76,2.51c7.89-9.92,46.01-.63,50.52-10.11l-13.58,1.69c18.07-11.18-25.14-24.91-22.38-39.28-5.05,3.18-10.9,3.59-17.33,2.7-6.5-.85-13.25-3.17-20.61-5.34-7.33-2.18-15.2-4.24-23.48-4.56-8.26-.32-16.99,1.07-25.57,5.91-3.89-1.33-2.3-2.56-.23-3.82,2.06-1.26,4.6-2.57,2.48-4.19-1.1.8-2.23,1.52-3.39,2.16-1.18.66-2.4,1.26-3.67,1.79-1.27.53-2.6.98-4.01,1.37-1.42.42-2.9.77-4.48,1.06-3.14.54-6.69,1.01-10.72,1.2-2.03.16-4.18.26-6.48.32-2.3.05-4.77.2-7.39.24l2.1-1.87c-7.24,1.24-14.02,2.8-20.41,4.34-3.17.85-6.25,1.67-9.25,2.47-2.98.91-5.89,1.79-8.74,2.65-11.35,3.65-21.68,7.62-31.99,12.37-10.3,4.77-20.62,10.33-31.45,17.83-10.82,7.48-22.16,16.92-33.78,29.72,2.91.16,5.8.36,8.65.6-2.44,2.64-4.5,4.69-6.31,6.35-1.77,1.68-3.24,3.01-4.63,4.11-1.37,1.11-2.65,2.01-3.88,2.94-1.21.94-2.43,1.89-3.76,3.06-.11,4.97,1.34,5.3,3.5,3.43,1.09-.94,2.36-2.43,3.74-4.21,1.43-1.74,3-3.74,4.58-5.76,1.54-2.03,3.27-3.95,4.83-5.64,1.59-1.67,3.02-3.11,4.35-3.91,2.62-1.65,4.26-1.1,4.11,3.58-2.9.56-5.97,2.31-9.33,4.81-1.66,1.26-3.28,2.8-4.98,4.48-.85.84-1.7,1.72-2.56,2.65-.83.94-1.66,1.93-2.49,2.95-6.75,8.11-13.17,18.76-18.63,29.59-11.1,21.67-17.78,43.91-27.27,48.25-.35,1.35-.64,2.52-.83,3.52-.17,1.01-.27,1.85-.32,2.56-.09,1.41.04,2.25.33,2.71.58.93,1.76.35,2.94-.21,1.18-.56,2.36-1.11,2.93-.2.29.46.43,1.28.35,2.65-.07,1.37-.42,3.27-.91,5.94-1.81,1.6-3.62,3.23-5.44,4.89,1.51,2.15,3.18,4.29,4.78,6.37-.38,1.73-.82,3.35-1.3,4.85-.47,1.51-.91,2.91-1.43,4.2-1.01,2.58-2.2,4.73-3.34,6.46-2.27,3.47-4.75,5.28-6.65,5.41.36-1.76.31-4.3.16-6.89-.07-2.59-.22-5.23-.16-7.15-.92,2.3-1.71,4.87-2.3,7.64-.54,2.77-.94,5.73-1.23,8.76-.23,3.04-.29,6.17-.31,9.28,0,3.11.22,6.22.4,9.21.05.75.1,1.49.15,2.23.08.78.16,1.56.23,2.32.16,1.52.32,3.01.48,4.45.37,2.88.78,5.55,1.1,7.94.4,2.39.72,4.48.92,6.21.2,1.73.34,3.08.24,3.99-.11-7.82.18-15.56,1.01-23.13,1.25,16.07,4.02,33.14,9.14,49.96,5.09,16.82,12.62,33.26,22.03,47.98,9.39,14.75,20.55,27.78,32.41,38.67,11.86,10.89,24.4,19.72,36.88,26.3l-1.31-5.22c4.65,2.61,8.57,4.85,11.86,6.81,3.24,1.9,5.92,3.63,8.21,5.27,4.62,3.22,7.73,6.07,10.92,9.03,3.2,2.94,6.43,6.09,11.35,9.78,2.45,1.86,5.31,3.88,8.8,6.06,1.74,1.1,3.63,2.25,5.7,3.46,2.08,1.19,4.34,2.43,6.79,3.74l-1.79-.17c9.32,1.86,20.29,6.47,30.59,12.82-5.82-1.08-2.23,3.19,1.01,7.3,3.23,4.09,6.13,7.99-1.39,6.28,20.84,7.89,26.27,9.11,30.36,9.02,2.04-.06,3.76-.5,6.92-.8,1.58-.15,3.52-.25,6.04-.26.63,0,1.29.01,2,.02.69,0,1.52.07,2.06-.03,1.23-.13,2.63-.23,4.25-.28.48,2.32.84,4.59.94,6.71,4.4-.62,7.52-1.19,11.45-.9,3.96.29,8.8,1.57,17.5,4.84-4.57-.83-6.61-.57-7.67.14-1.05.73-1.12,1.91-1.39,3.03-.26,1.13-.74,2.22-2.3,2.91-1.54.7-4.19,1.01-8.3.79,1.24,2.26,2.53,3.87,4.12,5.16,1.58,1.28,3.45,2.22,5.65,3.01,4.36,1.56,10.18,2.58,15.89,3.66,5.65,1.06,11.12,2.17,13.33,3.32,2.16,1.15,1.05,2.32-7.54,3.22,5.83.3,10.48.5,13.92.55,3.44.05,5.68-.06,6.93-.3,2.51-.48,1.05-1.53-1.53-2.71-5.23-2.35-14.34-5.05-7.53-4.01,1-.82,3.46-1.17,6.94-1.07,3.47.11,7.99.63,12.85,1.48,4.85.83,10.05,1.95,14.57,3.1,4.51,1.14,8.3,2.3,10.15,3.21,2.66.93,2.08,1.75-.25,2.45-2.32.68-6.35,1.09-10.44,1.46-4.09.38-8.25.66-10.56,1.4-.58.19-1.04.41-1.35.69-.15.13-.28.3-.35.46-.04.08-.07.18-.09.27,0,.05-.02.09-.02.14v.07s0,.04,0,.04c0,.01,0,.03-.07.02-3.59-.16-6.49-.34-8.63-.35,2.04.03-1.52-.19.41-.12-4.79-.28-6.77-.34-7.69-.31-.92.01-.78.15-1.03.29-.24.11-.88.3-3.03.35-2.13.04-5.78.1-11.65-.14,4.68.64,6.05,1.04,6.06,1.32,0,.25-1.32.47-2.34.65-2.07.35-2.87.85,8.42,2.67,5.33-1.49,10.2-2.48,14.57-3.07-.62.29-.36.62.08,1.1.22.25.49.51.71.79.23.26.42.57.52.92.09.34.08.69-.1,1.04-.18.35-.52.8-1.09,1.2-1.14.77-3.14,1.76-6.32,2.65-2.15.64-4.83,1.35-8.07,1.94-3.21.71-6.99,1.3-11.24,1.88-.86-.84-.78-1.99-.51-3.18.27-1.23.8-2.24,1.27-3.06-3.01.06-4.88.29-6.27.63-1.37.37-2.26.88-3.21,1.39-.47.26-.96.51-1.5.76-.54.27-1.15.53-1.87.76-1.43.47-3.34.79-5.96.87-4.11-1.84-4.33-3.25-2.82-4.52.78-.59,2.04-1.12,3.54-1.67,1.52-.49,3.28-.97,5.02-1.44,1.23-.3,2.44-.61,3.49-.94,1.06-.3,1.98-.58,2.58-.89.6-.33.91-.57.74-.89-.17-.31-.82-.63-2.12-.94-4.02-.21-5.62-.02-6.44.29-.8.3-.84.88-1.27,1.31-.41.49-1.14.89-2.9.82-1.79-.06-4.44-.61-9.51-1.83,1.28.32,2.36.61,3.23.9,4.24,1.34,4.56,2.26,3.24,2.96-1.33.73-4.3,1.17-7.17,1.72-.71.13-1.43.26-2.16.39-.7.15-1.39.32-2.04.49-1.3.37-2.5.73-3.44,1.33-.95.59-1.71,1.3-2.23,2.28-.51,1.02-.8,2.28-.93,3.93-1.83-1.69-3.72-3.35-5.67-4.98-.24.69-.4,2.05-1.07,3.47-.66,1.4-1.79,2.93-3.41,3.73-.03-3.52-.63-6.66-1.84-9.46.1,2.14-1.29,3.52-2.98,4.24-.43.18-.88.32-1.34.42-.23.05-.46.1-.69.13l-.17.03-.44.17-.92.36c-2.44.92-4.98,1.88-7.51,2.75-2.54.9-5.13,1.87-7.68,2.84-2.57,1.05-5.12,2.16-7.61,3.43-2.5,1.35-4.92,2.73-7.24,4.47-1.16.87-2.29,1.79-3.38,2.76-.54.49-1.08.98-1.6,1.5-.53.54-1.04,1.1-1.54,1.67,4.88-3.85,8.76-6.48,11.82-8.3,3.08-1.89,5.33-2.9,7.01-3.49,3.37-1.17,4.4-.32,4.85,1.05.45,1.37.31,3.35,1.24,4.6.93,1.24,2.91,1.78,7.52.44-10.19,9.1-17.33,14.41-23.42,17.59-1.52.81-2.97,1.48-4.38,2.03-1.41.57-2.77,1.1-4.12,1.52-1.35.43-2.68.78-4.02,1.11-1.36.37-2.69.73-4.04,1.09-1.37.37-2.76.75-4.2,1.2-1.45.43-2.93,1.08-4.49,1.76-1.56.71-3.19,1.51-4.9,2.53-1.71,1.11-3.5,2.4-5.39,3.93-.47.39-.95.79-1.44,1.2-.48.43-.97.92-1.46,1.41-.98.99-1.99,2.05-3.02,3.19-2.08,2.18-4.14,5.15-6.29,8.4-1.09,1.58-2.11,3.49-3.13,5.5-.51,1-1.02,2.03-1.53,3.09-.49,1.03-1.09,2.28-1.37,3.02-.7,1.71-1.44,3.56-2.06,5.38-.32.93-.64,1.87-.97,2.84-.29.96-.59,1.94-.89,2.94.5-2.21,1.76-5.25,3.43-8.4,1.43-2.74,4.41-7.48,6.77-10.45.59-.79,1.21-1.43,1.79-1.99.58-.57,1.12-1.06,1.62-1.47,1-.81,1.83-1.28,2.39-1.3,1.13-.05,1.19,1.66-.3,5.88-1.12,1.7-2.22,3.6-3.37,5.5-.57.96-1.14,1.93-1.72,2.91-.45.77-.9,1.55-1.35,2.33-1.77,3.05-3.57,6.14-5.29,9.1-3.42,5.82-6.68,11.07-9.5,14.29-2.56,10.61-2.83,15.97-2.41,17.83.45,1.88,1.78.44,3.35-1.72,3.17-4.35,7.48-11.15,7.51-1.86-5.83,6.12-5.95,11.88-4.49,18.24.39,1.64.88,3.31,1.39,5.03.54,1.76,1.1,3.6,1.7,5.56.29.99.58,2.02.89,3.08.3,1.08.6,2.19.87,3.34.29,1.21.59,2.47.9,3.78.32,1.32.52,2.7.89,4.11l-7.18.86c.09,2.02.15,4.02.36,5.75.11.86.23,1.69.33,2.5.11.75.22,1.48.32,2.18.38,2.82,1.08,5.3,1.68,7.46.31,1.08.61,2.08.94,3.01.36.92.72,1.77,1.07,2.55.71,1.56,1.39,2.86,2.06,3.94,2.86,4.26,5.28,5.06,7.52,5.69,2.32.58,4.51.99,7.14,4.01,2.86,2.89,5.84,8.61,12.32,18.51-1.74-.68-3.39-1.55-5.1-2.37-1.7-.85-3.44-1.7-5.09-2.71-1.67-.98-3.37-1.99-5.06-3.05-1.64-1.11-3.28-2.26-4.94-3.46,5.24,7.55,11.27,14.32,17.73,20.08-3.21.5-6.49.91-9.85,1.22,1.51,1.18,2.95,2.31,4.34,3.39,1.37,1.09,2.73,1.99,4,2.94,1.28.91,2.47,1.85,3.66,2.64,1.17.81,2.3,1.6,3.39,2.36,4.35,3.03,8.05,5.62,11.62,8.24,3.5,2.61,6.99,5.22,10.92,8.15,3.89,2.92,8.22,5.99,13.54,9.45-.71-1.81-.48-3.36.54-4.48,1.02-1.11,2.83-1.84,5.28-2.12,4.92-.47,12.37.79,21.79,4.43,5.64,4.49,3.27,5.39,2.82,6.36-.45.9,1.15,2.18,14.89,6.16-3.75,1.15-7.81,2.52-12.2,2.16-4.37-.31-9.13-2.38-13.86-7.93-2.13,1.64-7.98,1.54-10.27,3,6.34,5.63,15.62,9.63,24.36,12.29,8.76,2.69,17,4.11,22,5.5-3.77-1.35-8.28-3.12-10.35-4.86,14.41,1.02,28.28,1.1,41.74.86,5.36,4.06.14,5.07-5.12,6.01,2,.29,3.86.35,5.73.35,1.88,0,3.88-.06,5.94-.12,4.15-.11,8.78-.13,14.96.69-2.11,2.59-3.29,5.43-6.19,7.51-2.9,2.08-7.63,3.41-16.57,2.76,13.47.91,27.41,1.42,41.68.84,1.24,1.45,6.52,3.75,10.96,5.78,4.43,2.01,7.99,3.79,4.99,4.75,3.86.72,8.07.93,12.56.7.63-.04,1.26-.07,1.89-.11.7-.06,1.41-.11,2.11-.17,1.2-.14,2.56-.29,3.59-.47.55-.09,1.1-.18,1.65-.28.5-.1,1-.2,1.5-.3l.75-.16.69-.16c.46-.11.92-.22,1.39-.33,3.49-.88,6.43-1.83,8.4-2.65.39-.19.93-.41,1.14-.59.12-.09.34-.2.38-.29l.16-.3s0,0,.01-.04l.07-.51c.05-.34.1-.7.12-.96l.18-1.7c.13-1.14.29-2.27.47-3.41s.38-2.27.61-3.41c.17-1.03.3-1.92.49-2.88.18-.95.39-1.89.62-2.84l.37-1.41c.14-.49.18-.8.28-1.21.36-1.55.82-3.09,1.4-4.62l-19.11-52.84c-.22.51-.09,1.19-.91,1.89l-.47.54-.24.27-.38.26-1.56,1.01c-2.46,1.26-5.6,2.21-9.42,2.24-.35.67-.91,1.41-1.93,2.2-1.1.76-2.56,1.6-4.72,2.47-5.07.66-10.47.76-16,.76-5.6-.02-11.42-.14-17.68.07-1.6.06-3.21.14-4.82.24-1.66.12-3.39.27-5.1.45-.84.08-1.75.2-2.68.33-.92.13-1.84.27-2.77.4l-1.39.22-1.27.24c-.84.17-1.69.34-2.54.52-6.79,1.44-13.78,3.63-21.04,6.89l-9.52-3.72-9.57-3.62c-11.7,3.4-5.21,5.57-.75,8.31,2.24,1.38,3.99,2.9,2.77,4.77-1.22,1.86-5.4,4.09-14.96,6.97-13.46,4.4-16.45,2.81-17.42-.11-.97-2.9.16-7.04-5.01-7.46-3.17,2.03-6.88,4.57-11.08,7.15-4.19,2.62-8.88,5.28-13.99,7.66-10.24,4.72-22.17,8.24-35.69,7.26,7.76-4.04,14.63-4.14,22.2-6.77ZM270.4,937.65c.93-1.53,2.08-3.44,3.34-5.51,1.27-2.09,2.79-4.19,4.36-6.2,1.59-1.97,3.32-3.68,5.04-4.95,1.72-1.26,3.58-1.99,5.24-1.93-.72,5.73-2.5,8.69-5.62,11-1.52,1.21-3.36,2.25-5.46,3.39-2.06,1.2-4.4,2.49-6.89,4.19ZM407.82,1343.53c-4.75-.83-8.92-5.97-12.7-12.76,4.43,2.97,8.79,7.07,12.7,12.76ZM384.09,1540.54c.19-.16.31-.28.45-.46,5.78.18,7.65.29,7.07.29-.57.02-3.58,0-7.52.17ZM361.02,1543.38c-1.89,1.64-1.4,2.56-.2,3.23.95-2.2,5.78-3.87,11.63-4.85-2.04-1.4-5.37-1.93-11.42,1.63ZM838.44,546.12c-2.45-.12-4.79-.12-7.23-.15-.11-.11-.17-.23-.08-.28.1-.03.25-.06.45-.07.4-.02.95-.01,1.62.03,1.34.08,3.15.26,5.24.47Z"/><path class="cls-1" d="M363.24,1317.85c-.37-2,.22-3.3.86-4.55-2.48-.63-3.48.36-.86,4.55Z"/><path class="cls-1" d="M724.01,783.5c.22,0,.41-.07.62-.08.22-.51.29-.98.27-1.42l-.9,1.5Z"/><path class="cls-1" d="M752.2,1490.79c5.24,1.75,8.01,3.54,9.8,5.17.54-1.7-1.65-3.57-9.8-5.17Z"/><path class="cls-1" d="M303.39,1612.62c.23-4.3.74-8.41,1.31-12.46-.66,2.88-1.56,4.68-2.42,6.23-.88,1.53-1.93,2.6-2.79,4.06,1.71.07,4.59-1.74,3.89,2.17Z"/><path class="cls-1" d="M274.26,1744.05c1.67,1.96,1.86,4.77,3.53,6.69l2.92-1.8c-1.87-4.75-4.07-8.56-5.45-9.93-1.39-1.36-2.14-.2-1,5.04Z"/><path class="cls-1" d="M277.5,1621.12c-6.25.3-5.45,10.27-4.68,20.96,0-.64-.02-1.25.08-1.89,4.2,1.73,5.67-.25,5.9-4,.27-3.75-.71-9.38-1.3-15.08Z"/><path class="cls-1" d="M272.96,1644.57c.13,1.65.22,3.31.24,4.96.05,1.65.07,3.28-.05,4.89,3.46,1.14.54-3.94-.18-9.85Z"/><path class="cls-1" d="M336.71,1557.08c-4.6.54,1.08,8.13-2.1,7.01-.05,2.25,1.04,2.03,2.61.75,1.55-1.3,3.6-3.73,5.28-5.99,1.64-2.28,2.87-4.39,2.27-5.14-.56-.74-3.08-.13-8.07,3.38Z"/><path class="cls-1" d="M256.55,1627.69c2.64-1.14,5.28-2.23,7.91-3.28-1.82-2.31-3.49-4.65-5.2-7.06-.47,1.71-1,3.42-1.42,5.14l-1.29,5.2Z"/><path class="cls-1" d="M293.81,1549.17c-4.76,3.39-9.22,7.25-13.18,11.64,1.19.53.45,2.71-.41,5.27,2.82-4.41,6.64-8.41,9.56-11.32,1.49-1.45,2.68-2.7,3.46-3.62.76-.94,1.02-1.63.57-1.97Z"/><path class="cls-1" d="M280.21,1566.08c-.78,1.12-1.41,2.3-2.01,3.44-.63,1.11-1.11,2.34-1.55,3.47-.44,1.14-.8,2.22-1.06,3.22-.25,1.01-.35,1.97-.36,2.81.28-.7.58-1.64,1-2.66.42-1.02.89-2.16,1.34-3.36.22-.6.45-1.22.68-1.83.24-.58.48-1.17.71-1.75.23-.58.44-1.16.64-1.73.22-.56.43-1.11.62-1.62Z"/><path class="cls-1" d="M258.2,1602.26l1.34-2.52,1.44-2.48c.63-2.09,1.22-4.19,1.97-6.24.74-2.05,1.36-4.14,2.21-6.15-.7,1.39-1.3,2.82-1.91,4.26-.6,1.43-1.24,2.86-1.82,4.32-1.08,2.92-2.29,5.84-3.23,8.82Z"/><path class="cls-1" d="M478.7,1504.17c6.67-.65,13.36-1.18,20.07-1.66,2.14-2.49-3.29-4.31-10.81-3.45-4.86,1.65-12.3,2.6-9.26,5.12Z"/><path class="cls-1" d="M416.45,1486.15c2.89.48,4.45,1.13,5.72,1.93,1.27.82,2.24,1.79,3.9,2.9l-.15-9.33-4.76,2.2-4.72,2.31Z"/><path class="cls-1" d="M476.75,1481.39c2.04-2.63,30.14-6.8,3.88-6.78-2.16,2.46-22.87,4.62-3.88,6.78Z"/><polygon class="cls-1" points="779.63 1520.68 774.54 1520.01 772.93 1535.22 779.63 1520.68"/><path class="cls-1" d="M902.48,1588.42c6.11,1.65,9.6,1.97,11.75,1.54,2.15-.43,2.93-1.51,3.64-2.57,1.42-2.12,2.48-4.15,13.48-.79,6.11-3.03-17.93-5.48-11.66-8.01-1.91.29-3.7.51-5.35.66-1.65.13-3.18.21-4.56.29-2.77.16-4.97.3-6.52.71-3.1.83-3.61,2.76-.77,8.16Z"/><path class="cls-1" d="M919.69,1578.59c2.44-.37,5.04-.85,7.8-1.58-4.38.53-6.48,1.06-7.8,1.58Z"/><polygon class="cls-1" points="688.58 74.23 704.01 77.43 694.06 72.29 688.58 74.23"/><path class="cls-1" d="M718.22,62.93l3.62,9.74,9.27-8.8c-3.48.43-10.24,1.26-12.88-.93Z"/><path class="cls-1" d="M222.42,973.55l1.46,2.46c1.85-.98,3.26-2.57,4.95-4.96.84-1.2,1.68-2.61,2.68-4.24,1-1.63,2.14-3.47,3.44-5.58-2.13,1.94-4.3,3.91-6.38,5.97-2.05,2.07-4.18,4.16-6.14,6.35Z"/><polygon class="cls-1" points="426.75 846.46 423.21 847.52 432.66 853.49 426.75 846.46"/><path class="cls-1" d="M599.5,788.2c-7.38,1.12-15.53,4.85-22.87,6.09,15.49-5.04,27.04,4.28,22.87-6.09Z"/></svg>