<svg width="172" height="167" viewBox="0 0 172 167" fill="none" xmlns="http://www.w3.org/2000/svg">
<path d="M106.623 48.285C102.392 47.2511 97.9933 47.0986 93.7008 47.8369C89.4083 48.5752 85.3136 50.1886 81.6711 52.5767C81.4023 52.7551 81.1758 52.99 81.0073 53.2651C80.8388 53.5402 80.7325 53.8487 80.6957 54.1692C80.6589 54.4897 80.6925 54.8143 80.7943 55.1204C80.8961 55.4265 81.0635 55.7067 81.2849 55.9414C81.7512 56.463 82.3872 56.8026 83.0801 56.9C83.773 56.9974 84.478 56.8463 85.0701 56.4735C88.0644 54.5093 91.4309 53.1824 94.9602 52.5755C98.4894 51.9686 102.106 52.0946 105.584 52.9458C111.694 53.9949 117.143 57.4141 120.745 62.4598C124.347 67.5054 125.812 73.7693 124.82 79.8889L124.588 80.9103C124.31 82.1243 123.931 83.313 123.455 84.4638C123.209 85.139 123.222 85.8811 123.489 86.5479C123.757 87.2146 124.261 87.7592 124.905 88.0774C125.198 88.2472 125.524 88.3542 125.86 88.3914C126.197 88.4287 126.537 88.3953 126.86 88.2936C127.183 88.1918 127.482 88.0239 127.736 87.8004C127.991 87.577 128.196 87.303 128.339 86.9959C129.1 85.2161 129.659 83.356 130.004 81.451L130.081 81.1163C131.287 73.6568 129.499 66.0229 125.106 59.8748C120.713 53.7266 114.071 49.5614 106.623 48.285ZM132.373 160.641H124.468L133.592 150.693C134.595 149.433 135.147 147.874 135.161 146.264C135.175 144.654 134.65 143.086 133.669 141.809C132.618 140.496 131.278 139.444 129.753 138.736C128.229 138.027 126.561 137.68 124.88 137.723C122.245 137.463 119.613 138.242 117.543 139.893C115.474 141.544 114.13 143.938 113.799 146.564C113.982 147.38 114.438 148.108 115.091 148.63C115.744 149.152 116.555 149.437 117.391 149.437C118.227 149.437 119.038 149.152 119.69 148.63C120.343 148.108 120.799 147.38 120.983 146.564C121.107 145.633 121.59 144.787 122.33 144.206C123.069 143.626 124.005 143.357 124.94 143.457C125.428 143.449 125.911 143.557 126.35 143.772C126.789 143.986 127.17 144.302 127.463 144.693C127.768 145.089 127.947 145.568 127.976 146.067C128.005 146.566 127.883 147.062 127.626 147.491L114.485 161.817C114.104 162.207 113.866 162.715 113.811 163.258C113.757 163.8 113.888 164.346 114.185 164.804C114.549 165.307 115.031 165.714 115.59 165.986C116.148 166.259 116.765 166.389 117.386 166.366H132.364C132.794 166.464 133.24 166.463 133.67 166.365C134.1 166.266 134.502 166.073 134.846 165.798C135.191 165.523 135.469 165.174 135.66 164.776C135.851 164.379 135.95 163.944 135.95 163.503C135.95 163.063 135.851 162.628 135.66 162.23C135.469 161.833 135.191 161.484 134.846 161.209C134.502 160.934 134.1 160.74 133.67 160.642C133.24 160.544 132.803 160.543 132.373 160.641ZM58.9253 145.929C56.852 146.727 54.6491 147.134 52.4277 147.131C48.9335 147.478 45.4416 146.448 42.6954 144.26C39.9493 142.072 38.1657 138.898 37.7244 135.414C38.1657 131.931 39.9493 128.757 42.6954 126.569C45.4416 124.38 48.9335 123.351 52.4277 123.698C54.6244 123.695 56.8032 124.094 58.8566 124.874C59.689 125.222 60.614 125.281 61.4838 125.041C62.3535 124.802 63.1179 124.277 63.6547 123.552C63.8495 123.2 63.9609 122.807 63.9803 122.405C63.9997 122.002 63.9266 121.601 63.7667 121.231C63.6067 120.862 63.3641 120.534 63.0575 120.272C62.7509 120.011 62.3885 119.823 61.9981 119.724C58.9405 118.569 55.6962 117.987 52.4277 118.007C47.2274 117.496 42.0326 119.032 37.9461 122.288C33.8595 125.545 31.2029 130.266 30.5402 135.449C31.2009 140.633 33.8566 145.356 37.9434 148.615C42.0302 151.873 47.2261 153.41 52.4277 152.899C55.7391 152.906 59.0226 152.294 62.1097 151.096C62.5 150.996 62.862 150.807 63.1675 150.544C63.4731 150.281 63.714 149.951 63.8717 149.58C64.0294 149.209 64.0996 148.807 64.0768 148.405C64.0541 148.002 63.939 147.61 63.7405 147.259C63.204 146.529 62.4372 146.001 61.5636 145.759C60.6901 145.518 59.7607 145.578 58.9253 145.929ZM87.688 117.947C82.4878 117.432 77.2917 118.966 73.2055 122.224C69.1193 125.481 66.4656 130.204 65.8091 135.389C66.4698 140.572 69.1243 145.293 73.2092 148.551C77.2941 151.809 82.4878 153.347 87.688 152.839C92.8896 153.35 98.0855 151.813 102.172 148.555C106.259 145.296 108.915 140.573 109.576 135.389C108.913 130.206 106.256 125.485 102.17 122.228C98.0831 118.972 92.8883 117.436 87.688 117.947ZM87.688 147.131C84.1871 147.483 80.6874 146.451 77.9367 144.257C75.1861 142.063 73.4027 138.88 72.9676 135.389C73.4089 131.907 75.1912 128.734 77.9355 126.546C80.6798 124.358 84.1695 123.327 87.6623 123.672C91.1564 123.325 94.6483 124.355 97.3945 126.543C100.141 128.731 101.924 131.905 102.366 135.389C101.924 138.867 100.144 142.037 97.4038 144.225C94.6633 146.412 91.178 147.446 87.688 147.105V147.131ZM53.1229 110.119C53.855 110.079 54.5439 109.76 55.048 109.228C55.5521 108.695 55.833 107.99 55.833 107.257C55.833 106.524 55.5521 105.818 55.048 105.286C54.5439 104.753 53.855 104.434 53.1229 104.394H31.9908C25.8185 104.401 19.8414 102.232 15.1102 98.2682C10.379 94.3044 7.19658 88.7996 6.12242 82.7215C5.04826 76.6435 6.15112 70.3813 9.23712 65.0359C12.3231 59.6905 17.1947 55.6041 22.9954 53.4951C23.6796 53.2371 24.2389 52.7267 24.5582 52.0689C24.8775 51.4111 24.9326 50.6559 24.7121 49.9588C23.2772 45.6452 22.7182 41.0885 23.0678 36.556C23.4174 32.0234 24.6685 27.6064 26.7479 23.5638C28.8272 19.5212 31.6929 15.9346 35.1768 13.0143C38.6607 10.0939 42.6927 7.8987 47.0363 6.55733C51.3799 5.21597 55.9476 4.75548 60.4715 5.20287C64.9954 5.65026 69.3844 6.99652 73.3811 9.1627C77.3778 11.3289 80.9017 14.2713 83.7462 17.8175C86.5906 21.3637 88.6982 25.4422 89.9454 29.8137C90.1086 30.3212 90.4077 30.7743 90.8102 31.1238C91.2127 31.4734 91.7032 31.706 92.2286 31.7964C92.7542 31.8845 93.294 31.8225 93.7859 31.6175C94.2779 31.4125 94.702 31.0729 95.0096 30.6377C97.6663 26.9466 101.161 23.9382 105.206 21.8598C109.251 19.7813 113.731 18.6919 118.279 18.6811H118.468C122.3 18.6724 126.093 19.4485 129.614 20.9616C133.135 22.4747 136.308 24.6928 138.939 27.479C141.625 30.2624 143.719 33.5622 145.092 37.1783C146.466 40.7945 147.091 44.6519 146.93 48.5168C146.914 49.2638 147.19 49.9876 147.7 50.534C148.21 51.0804 148.913 51.4062 149.659 51.4421C150.405 51.4779 151.136 51.2208 151.696 50.7257C152.256 50.2307 152.6 49.5366 152.655 48.7914C152.852 44.1491 152.105 39.5151 150.458 35.1701C148.812 30.8251 146.3 26.8595 143.076 23.5135C139.919 20.1765 136.114 17.5178 131.895 15.6997C127.676 13.8816 123.131 12.9422 118.537 12.9389C113.906 12.9283 109.321 13.8475 105.053 15.6418C100.784 17.4361 96.9197 20.0692 93.6878 23.3848C89.9195 15.0896 83.4243 8.33481 75.283 4.24454C67.1418 0.154267 57.8453 -1.02487 48.9407 0.903331C40.036 2.83153 32.0602 7.7508 26.3402 14.8426C20.6203 21.9343 17.5013 30.7709 17.5021 39.8819C17.5048 42.9948 17.8677 46.0968 18.5836 49.1262C11.9633 52.1778 6.5849 57.4007 3.34043 63.9287C0.0959643 70.4567 -0.819675 77.8976 0.745365 85.0174C2.3104 92.1373 6.26209 98.5082 11.9451 103.074C17.6281 107.639 24.701 110.125 31.9908 110.119H53.1229ZM159.977 53.4179C159.385 52.9762 158.645 52.7801 157.912 52.8705C157.179 52.9609 156.509 53.3308 156.042 53.903C155.575 54.4752 155.347 55.2057 155.405 55.942C155.463 56.6784 155.803 57.3638 156.355 57.8554C160.536 61.2862 163.555 65.9247 164.999 71.1366C166.444 76.3486 166.243 81.8794 164.424 86.9728C162.605 92.0663 159.258 96.4735 154.839 99.5919C150.42 102.71 145.146 104.388 139.737 104.394H64.8564C64.1243 104.434 63.4354 104.753 62.9313 105.286C62.4272 105.818 62.1463 106.524 62.1463 107.257C62.1463 107.99 62.4272 108.695 62.9313 109.228C63.4354 109.76 64.1243 110.079 64.8564 110.119H139.737C146.328 110.114 152.756 108.071 158.141 104.272C163.526 100.473 167.606 95.102 169.822 88.8949C172.037 82.6879 172.281 75.9478 170.518 69.5971C168.756 63.2465 165.074 57.5956 159.977 53.4179Z" fill="black"/>
</svg>
