<svg width="905" height="1588" viewBox="0 0 905 1588" fill="none" xmlns="http://www.w3.org/2000/svg">
<path d="M782.029 1587.69C784.8 1588.46 786.395 1587.69 787.034 1586.53C787.722 1585.37 787.672 1583.86 788.327 1583.56C785.086 1583.07 783.641 1583.39 782.634 1583.83C781.727 1584.31 781.358 1585.02 781.274 1585.69C781.089 1587.05 781.996 1588.33 782.046 1587.69H782.029Z" fill="#3E492B"/>
<path d="M715.229 1555.39L717.613 1554.66C713.331 1553.51 709.066 1552.31 704.784 1551.05C708.26 1552.53 711.736 1553.98 715.229 1555.37V1555.39Z" fill="#3E492B"/>
<path d="M650.292 1507.62C650.762 1513.28 656.757 1517.54 663.742 1521.64C670.51 1525.42 678.721 1528.92 683.877 1534.25L684.767 1537.17C687.84 1536.55 690.946 1535.96 694.087 1535.41C686.312 1530.6 677.227 1526.27 669.452 1521.86C667.487 1520.73 665.69 1519.69 663.826 1518.46C661.962 1517.24 660.182 1516 658.537 1514.79C655.229 1512.35 652.391 1509.95 650.325 1507.6L650.292 1507.62Z" fill="#3E492B"/>
<path d="M627.723 1467.14C627.739 1471.27 618.89 1463.85 634.742 1473.87C634.205 1473 634.104 1472.66 633.818 1472.11C632.425 1471.08 630.661 1469.74 627.723 1467.14Z" fill="#3E492B"/>
<path d="M633.818 1472.11C631.148 1466.57 640.602 1477.08 633.818 1472.11V1472.11Z" fill="#3E492B"/>
<path d="M602.416 1449.63L613.046 1454.4C612.458 1451.46 604.834 1444.81 608.646 1446.05C598.47 1439.99 599.158 1443.01 602.416 1449.63Z" fill="#3E492B"/>
<path d="M590.09 1447.7L595.531 1450.4C595.212 1449.12 594.154 1447.93 590.09 1447.7Z" fill="#3E492B"/>
<path d="M606.9 1456.14L595.531 1450.42C595.984 1452.51 594.44 1454.75 600.619 1453.25C598.268 1454.56 601.694 1454.24 606.9 1456.14Z" fill="#3E492B"/>
<path d="M611.534 1461.48C615.246 1466.79 620.787 1472.65 610.309 1468.03C618.94 1474.19 623.491 1475.45 623.793 1473.84C624.078 1472.19 620.183 1467.66 611.518 1461.5L611.534 1461.48Z" fill="#3E492B"/>
<path d="M641.811 1512.02L646.95 1519.12L654.372 1521.32C650.678 1520.21 642.987 1509.6 641.811 1512.02Z" fill="#3E492B"/>
<path d="M569.267 1408.06C568.394 1408.32 567.504 1409.16 566.648 1410.27C565.842 1411.4 565.086 1412.74 564.213 1413.55L569.116 1417.51C568.68 1415.76 567.974 1413.56 567.84 1411.78C567.79 1410.91 567.84 1410.14 568.058 1409.48C568.327 1408.88 568.696 1408.36 569.267 1408.04V1408.06Z" fill="#3E492B"/>
<path d="M564.196 1413.53C563.155 1412.71 562.013 1411.65 561.274 1411.23C560.519 1410.78 559.729 1410.26 559.007 1409.65C559.074 1410.19 559.31 1410.61 559.444 1411.03C559.629 1411.41 559.83 1411.75 559.998 1412.03C560.233 1412.35 560.502 1412.71 560.754 1413.01C560.989 1413.29 561.291 1413.55 561.56 1413.73C562.618 1414.49 563.441 1414.22 564.196 1413.55V1413.53Z" fill="#3E492B"/>
<path d="M582.752 1453.77L602.886 1461.51C595.212 1458.16 587.42 1454.71 579.528 1451.39L582.752 1453.77Z" fill="#3E492B"/>
<path d="M570.09 1389.72C571.165 1390.9 572.307 1392.05 573.499 1393.23C571.753 1391.2 570.107 1389.39 568.764 1387.22C569.133 1388.11 569.62 1388.9 570.107 1389.72H570.09Z" fill="#3E492B"/>
<path d="M575.884 1379.6C576.153 1381.73 577.815 1382.13 579.242 1382.52C580.787 1382.87 582.08 1383.21 581.845 1384.84C584.179 1381.81 587.118 1376.17 590.577 1370.77C586.178 1375.42 581.375 1378.25 575.884 1379.6Z" fill="#3E492B"/>
<path d="M595.917 1362.91C595.027 1363.9 594.205 1365.02 593.499 1366.27L592.962 1367.21C592.71 1367.59 592.441 1367.98 592.173 1368.36C591.652 1369.15 591.064 1369.98 590.577 1370.77C591.132 1370.16 591.77 1369.49 592.341 1368.82L593.197 1367.79C593.415 1367.49 593.583 1367.22 593.768 1366.92C594.49 1365.71 595.229 1364.42 595.901 1362.91H595.917Z" fill="#3E492B"/>
<path d="M559.31 1398.23C559.881 1397.93 560.855 1397.43 561.929 1396.54C562.987 1395.63 564.129 1394.3 565.002 1392.53C563.206 1393.13 561.409 1393.89 559.646 1394.81C559.511 1395.78 559.41 1396.97 559.31 1398.23Z" fill="#3E492B"/>
<path d="M559.478 1394.91L559.645 1394.81C560.116 1391.28 560.72 1389.42 560.972 1388.6C560.771 1389.32 560.166 1390.85 559.478 1394.89V1394.91Z" fill="#3E492B"/>
<path d="M559.242 1399.14C559.259 1398.8 559.276 1398.55 559.31 1398.22C558.789 1398.54 558.621 1398.75 559.242 1399.14Z" fill="#3E492B"/>
<path d="M566.984 1432.27C563.625 1430.03 559.461 1426.71 556.723 1425.52C555.346 1424.93 554.255 1424.85 553.734 1425.74C553.231 1426.64 553.247 1428.51 554.356 1431.98C557.194 1433.02 557.949 1431.54 559.192 1430.59C560.451 1429.65 562.064 1429.06 566.984 1432.27Z" fill="#3E492B"/>
<path d="M552.878 1403.96L552.811 1404.68C552.794 1404.9 552.761 1405.02 552.744 1405.17L552.626 1406.01C552.526 1406.58 552.492 1407.15 552.442 1407.72C552.425 1408.86 552.442 1410.04 552.609 1411.2C553.819 1410.64 555.397 1409.21 557.227 1410.32C556.337 1409.55 555.548 1408.64 554.793 1407.64C554.423 1407.13 554.104 1406.61 553.802 1406.06L553.348 1405.22C553.281 1405.07 553.197 1404.93 553.13 1404.73L552.912 1403.96H552.878Z" fill="#3E492B"/>
<path d="M551.4 1398.5C551.854 1400.26 552.358 1402.1 552.895 1403.96C553.029 1402.55 553.197 1401.19 553.365 1399.86L551.4 1398.52V1398.5Z" fill="#3E492B"/>
<path d="M577.815 1369.17C578.907 1366.99 580.703 1365.06 582.803 1363.19C583.911 1362.25 585.036 1361.35 586.329 1360.41C587.454 1359.6 588.613 1358.76 589.805 1357.89L587.773 1358.74C587.068 1359.06 586.178 1359.52 585.389 1359.92C583.777 1360.74 582.215 1361.56 580.754 1362.4C577.782 1364.08 575.145 1365.81 572.945 1367.56C573.113 1368.43 573.164 1369.77 573.768 1370.43C574.054 1370.77 574.473 1370.92 575.112 1370.77C575.766 1370.6 576.539 1370.14 577.815 1369.17Z" fill="#3E492B"/>
<path d="M564.767 1380.05C564.767 1379.83 564.885 1379.6 564.885 1379.38C564.314 1379.46 564.012 1379.65 564.767 1380.05Z" fill="#3E492B"/>
<path d="M648.797 1332.37C648.36 1332.25 647.941 1332.05 647.487 1331.9C647.521 1332.2 647.571 1332.48 647.588 1332.79L648.797 1332.35V1332.37Z" fill="#3E492B"/>
<path d="M571.602 1367.42C567.689 1369.37 566.883 1371.89 566.749 1374.36C568.075 1372.16 570.074 1369.86 572.945 1367.56C572.794 1366.77 572.559 1366.37 571.585 1367.42H571.602Z" fill="#3E492B"/>
<path d="M608.814 1353.99C606.043 1354.06 603.038 1354.41 600.099 1354.95C602.903 1355.32 608.478 1355.55 608.814 1353.99Z" fill="#3E492B"/>
<path d="M566.547 1379.4C566.514 1379.55 566.547 1379.71 566.497 1379.87C567.874 1379.76 567.42 1379.56 566.547 1379.4Z" fill="#3E492B"/>
<path d="M566.547 1379.4C566.816 1377.83 566.614 1376.1 566.749 1374.34C565.657 1376.12 565.019 1377.8 564.885 1379.38C565.389 1379.29 565.993 1379.29 566.547 1379.38V1379.4Z" fill="#3E492B"/>
<path d="M656.941 1295.31C657.176 1297.7 654.036 1300.97 649.284 1303.74C644.532 1306.49 638.117 1308.84 631.215 1308.98C626.043 1312.99 626.816 1317.76 630.56 1321.97C634.305 1326.21 641.072 1329.85 647.487 1331.91C647.286 1330.91 647.017 1329.95 648.092 1328.39C649.166 1326.83 651.585 1324.59 656.706 1321.35C654.372 1320.78 647.554 1321.72 642.164 1322.08C636.774 1322.41 632.962 1321.94 637.193 1317.93C644.599 1313.63 647.941 1312.87 650.46 1313.03C652.978 1313.21 654.708 1314.3 658.772 1314.27C656.757 1313.39 656.757 1312.09 657.915 1310.44C659.108 1308.79 661.459 1306.85 663.877 1304.82C668.713 1300.72 673.952 1296.22 670.913 1292.69C666.379 1295.11 661.878 1297.56 657.395 1300.05C656.723 1298.87 661.307 1295.19 656.925 1295.31H656.941Z" fill="#3E492B"/>
<path d="M624.364 1340.78L619.595 1343.28C622.567 1342.54 625.237 1342.21 628.394 1342.06C631.518 1341.9 635.061 1341.94 639.477 1342.11C643.172 1339.35 645.136 1337.47 646.261 1336.04C647.387 1334.62 647.605 1333.64 647.588 1332.82L635.565 1337.37C631.434 1338.95 627.034 1340.61 622.903 1342.12L624.381 1340.8L624.364 1340.78Z" fill="#3E492B"/>
<path d="M599.343 1351.91C599.796 1348.85 602.517 1345.65 604.112 1342.94C605.707 1340.24 606.094 1338.01 601.593 1336.95C594.876 1340.07 593.18 1342.17 592.189 1344.1C591.232 1346.05 590.98 1347.85 588.092 1350.75C592.559 1347.83 594.809 1346.86 595.514 1346.76C596.236 1346.67 595.565 1347.55 594.809 1348.62C594.02 1349.68 593.231 1350.97 593.516 1351.68C593.818 1352.4 595.162 1352.53 598.957 1351.47C595.531 1354.09 592.508 1356.02 589.822 1357.9C593.163 1356.59 596.623 1355.62 600.115 1354.97C599.897 1354.95 599.729 1354.93 599.545 1354.9L599.461 1354.95C599.461 1354.95 599.461 1354.9 599.444 1354.87C598.369 1354.7 597.932 1354.5 598.99 1354.36C599.024 1354.28 599.242 1354.14 599.326 1354.08C599.141 1353.39 599.225 1352.67 599.36 1351.94C605.489 1350.21 600.77 1352.72 599.326 1354.08C599.377 1354.33 599.326 1354.61 599.427 1354.87C599.461 1354.87 599.494 1354.88 599.528 1354.88C605.372 1350.97 612.156 1347.21 619.595 1343.28C614.507 1344.59 608.277 1347.02 599.36 1351.91H599.343Z" fill="#3E492B"/>
<path d="M538.285 1426.99C538.302 1426.1 538.638 1425.97 538.94 1425.74C537.664 1424.63 536.959 1424.29 538.285 1426.99Z" fill="#3E492B"/>
<path d="M537.059 1416.9C537.664 1417.58 538.604 1418.05 539.494 1418.95C540.468 1419.84 541.375 1421.07 542.433 1423.6C543.407 1428.52 540.3 1424.78 538.94 1425.74C540.351 1426.96 542.668 1429.09 544.23 1429.56C545.002 1429.8 545.556 1429.65 545.708 1428.79C545.859 1427.93 545.573 1426.37 544.868 1423.87L543.491 1422.8C542.819 1420.51 542.534 1418.31 542.651 1416.1C542.735 1413.92 543.205 1411.85 543.894 1410.17C545.288 1406.8 547.219 1405.05 547.521 1405.59C545.254 1406.59 543.34 1407.74 541.543 1409.42C539.847 1411.09 538.184 1413.34 537.043 1416.89L537.059 1416.9Z" fill="#3E492B"/>
<path d="M553.785 1370.33C556.203 1365.58 559.713 1360.91 564.163 1356.39C560.754 1357.22 557.378 1358.17 554.104 1359.42L556.304 1360.94C554.289 1362.57 553.147 1363.92 552.509 1364.99C551.837 1366.03 551.77 1366.85 551.87 1367.46C552.106 1368.68 553.315 1369.29 553.785 1370.33Z" fill="#3E492B"/>
<path d="M651.786 1333.91L651.349 1339.84C653.902 1336.11 656.37 1332.5 658.906 1328.94C656.572 1330.54 654.204 1332.2 651.803 1333.93L651.786 1333.91Z" fill="#3E492B"/>
<path d="M675.564 1325.23L676.001 1329.97L681.878 1325.23H675.564Z" fill="#3E492B"/>
<path d="M467.387 902.466C469.302 901.912 471.149 901.341 472.979 900.753C470.36 901.374 468.647 901.912 467.387 902.466Z" fill="#3E492B"/>
<path d="M424.113 903.574L423.055 905.874C425.07 904.598 425.893 903.675 424.113 903.574Z" fill="#3E492B"/>
<path d="M661.811 868.097C662.97 856.495 665.438 844.189 660.972 847.076L657.176 851.593C658.738 854.615 659.83 857.486 660.552 860.223C661.274 862.943 661.643 865.512 661.811 868.097Z" fill="#3E492B"/>
<path d="M271.082 728.843C272.056 728.793 273.097 728.809 274.088 728.809C275.045 726.224 276.07 723.789 277.027 721.59C275.163 723.756 273.064 726.19 271.082 728.843Z" fill="#3E492B"/>
<path d="M278.773 749.159L276.825 749.679C276.305 749.746 275.7 749.931 275.129 750.116C273.971 750.485 272.862 750.888 271.502 751.711C271.989 751.526 272.526 751.324 273.131 751.089C273.635 750.921 274.172 750.737 274.76 750.535C275.314 750.351 275.918 750.149 276.557 749.948C277.077 749.847 277.967 749.461 278.773 749.159Z" fill="#3E492B"/>
<path d="M630.779 780.572C630.292 777.869 629.805 775.183 629.251 772.496C626.933 776.895 626.832 778.39 627.571 779.061C628.31 779.75 629.872 779.615 630.795 780.572H630.779Z" fill="#3E492B"/>
<path d="M902.902 1149.85C902.801 1147.51 902.751 1145.75 902.835 1144.49C902.868 1143.87 902.919 1143.37 903.003 1143.03L903.036 1142.89V1142.83V1142.58L902.952 1141.6C902.885 1140.96 902.801 1140.26 902.717 1139.6C901.978 1134.3 900.585 1129.55 898.771 1125.33C899.762 1129.23 900.232 1133.01 900.434 1136.46C900.534 1138.19 900.568 1139.84 900.568 1141.4C900.568 1141.77 900.568 1142.16 900.568 1142.51V1143.05V1143.31L900.534 1143.4C900.45 1143.63 900.35 1143.84 900.282 1144.09C899.795 1146.19 900.568 1149.01 902.952 1149.83L902.902 1149.85Z" fill="#3E492B"/>
<path d="M452.509 957.335C456.254 956.26 457.883 955.152 457.715 954.027C453.785 955.068 451.653 956.126 452.509 957.335Z" fill="#3E492B"/>
<path d="M883.423 1100.74C883.994 1102.35 884.716 1103.81 885.32 1105.42C887.621 1107.94 889.837 1110.57 891.92 1113.46C892.978 1114.92 893.951 1116.37 894.993 1118.06L895.396 1118.73L895.916 1119.62C896.269 1120.21 896.588 1120.83 896.924 1121.45C897.562 1122.7 898.2 1123.99 898.771 1125.33C898.418 1123.89 897.965 1122.45 897.461 1120.98C896.991 1119.59 896.252 1117.9 895.933 1116.99C895.11 1114.84 894.203 1112.88 893.028 1110.89C890.727 1106.97 887.554 1103.32 883.423 1100.74Z" fill="#3E492B"/>
<path d="M161.091 229.365C161.326 228.676 161.444 227.837 161.712 227.199C161.024 226.981 160.973 227.954 161.091 229.365Z" fill="#3E492B"/>
<path d="M79.5464 12.9113C82.015 13.18 86.0116 14.0866 89.8571 14.8925C88.0603 14.1202 84.9201 13.4486 79.5464 12.9113Z" fill="#3E492B"/>
<path d="M778.788 1302.05C772.239 1303.37 777.814 1302.77 778.788 1302.05V1302.05Z" fill="#3E492B"/>
<path d="M748.83 1286.63C749.821 1285.78 750.493 1284.89 750.359 1283.69C750.207 1285 749.653 1285.93 748.83 1286.63Z" fill="#3E492B"/>
<path d="M814.103 1083.26C813.952 1083.16 813.851 1083.09 813.683 1082.97C814.64 1084.75 814.489 1084.43 814.103 1083.26Z" fill="#3E492B"/>
<path d="M768.897 1301.1C771.248 1301.44 774.019 1301.59 777.176 1301.49C775.765 1301.31 773.112 1301.21 768.897 1301.1Z" fill="#3E492B"/>
<path d="M770.442 1303.34C768.36 1303.41 766.731 1303.46 765.169 1303.51C764.582 1304.43 765.169 1304.92 770.442 1303.34Z" fill="#3E492B"/>
<path d="M788.41 1300C784.33 1300.95 780.602 1301.34 777.176 1301.49C778.52 1301.64 779.124 1301.83 778.788 1302.06C780.736 1301.66 783.507 1301.14 788.394 1300H788.41Z" fill="#3E492B"/>
<path d="M541.661 459.955C541.476 459.603 541.224 459.284 541.056 458.881C538.302 458.125 537.479 458.125 537.798 458.36C538.134 458.612 539.629 459.2 541.661 459.938V459.955Z" fill="#3E492B"/>
<path d="M545.053 769.693C545.254 769.76 545.422 769.693 545.607 769.76C545.472 769.609 545.288 769.407 545.153 769.273L545.053 769.709V769.693Z" fill="#3E492B"/>
<path d="M526.816 763.615C532.022 762.809 535.565 763.178 538.369 764.286C539.78 764.84 540.989 765.579 542.148 766.452C542.719 766.889 543.273 767.359 543.827 767.846C544.297 768.299 544.717 768.752 545.17 769.239C546.463 764.236 546.917 758.796 547.505 753.474C540.469 756.68 533.617 760.089 526.816 763.615Z" fill="#3E492B"/>
<path d="M557.412 874.343C553.214 874.914 548.915 875.233 544.65 875.468C549.805 869.121 554.07 865.276 555.867 862.959C556.74 861.801 556.975 861.029 556.287 860.542C555.615 860.055 553.986 859.82 551.098 859.601C551.921 861.432 551.988 863.144 551.4 864.773C551.115 865.579 550.678 866.384 550.107 867.157C549.519 867.912 548.781 868.651 547.958 869.39C546.278 870.834 544.146 872.194 541.728 873.453C540.535 874.108 539.226 874.679 537.916 875.283L536.925 875.736L535.716 876.257L533.214 877.298C526.598 880.085 520.401 882.671 516.119 885.424C511.837 888.178 509.352 891.166 510.141 895.112C507.068 894.927 504.079 894.642 501.207 894.289C503.491 893.802 503.575 892.812 505.859 892.291C501.459 891.62 498.94 892.056 497.11 893.198C495.279 894.356 494.188 896.253 492.895 898.319C490.342 902.415 486.934 907.469 475.733 907.351C467.857 906.781 462.097 904.682 467.421 902.499C461.661 904.178 455.599 905.723 449.352 907.301C446.547 907.268 445.557 906.529 445.859 905.824C446.094 905.118 447.824 904.43 450.561 904.48L443.542 905.085L436.724 905.605C432.156 905.924 427.538 906.176 422.887 906.411L423.088 905.941C419.142 908.476 409.956 912.288 405.422 913.883C398.185 911.515 409.083 912.221 407.236 910.223L391.317 913.933C384.818 909.736 398.202 905.857 409.033 906.546C401.762 898.52 398.454 899.477 392.962 901.257C390.208 902.147 386.9 903.238 382.232 903.523C377.631 903.792 371.233 903.356 363.71 901.022C368.412 900.367 373.483 899.645 378.689 898.973C373.685 894.423 368.109 893.047 362.417 892.006C359.579 891.468 356.64 891.032 353.769 890.276C350.863 889.538 347.992 888.48 345.439 886.751C345.977 887.573 347.589 889 349.806 890.696C352.022 892.392 354.86 894.323 357.396 896.22C359.898 898.117 361.98 899.998 362.4 901.677C362.803 903.339 361.493 904.799 357.53 905.723C353.114 904.38 347.706 903.742 340.133 905.874C340.822 900.233 333.97 900.803 327.337 898.47C328.429 896.203 329.503 893.92 330.544 891.636C330.326 891.636 330.108 891.636 329.906 891.636C329.571 891.586 329.251 891.519 328.932 891.468C328.294 891.368 327.707 891.284 327.152 891.233C326.044 891.116 325.053 891.065 324.18 891.082C322.434 891.116 321.057 891.384 319.814 891.737C317.329 892.442 315.297 893.517 311.619 893.685C306.178 890.73 303.828 887.59 302.803 884.568C301.796 881.546 302.131 878.624 302.333 875.904C299.008 873.554 297.866 873.218 297.346 873.923C296.875 874.612 297.194 876.341 297.547 878.137C297.866 879.917 298.185 881.747 297.228 882.536C296.741 882.922 295.935 883.057 294.709 882.771C293.416 882.469 292.006 881.915 289.201 880.219C282.921 874.158 277.178 870.045 270.897 866.25C267.757 864.353 264.499 862.54 261.057 860.575C259.327 859.602 257.581 858.577 255.767 857.503C254.877 856.965 253.987 856.395 253.064 855.824C252.627 855.538 252.174 855.27 251.737 854.984L251.099 854.581L250.612 854.329C249.588 851.039 250.948 850.72 252.19 850.636C253.5 850.585 254.928 850.636 255.247 849.343C252.829 849.494 250.192 849.175 247.64 848.252C247.27 846.925 249.218 846.707 250.125 846.556C248.412 845.045 246.599 845.33 244.701 845.33C243.761 845.28 242.803 845.33 241.796 844.272C241.544 844.021 241.292 843.752 241.023 843.383C240.755 842.98 240.486 842.526 240.217 842.006C239.68 840.965 239.143 839.655 238.639 838.043C235.734 837.305 235.583 833.645 236.741 829.262C237.329 827.08 238.286 824.763 239.395 822.681C239.949 821.623 240.536 820.649 241.124 819.743C241.695 818.92 242.266 818.08 242.854 817.241C245.776 811.734 247.942 805.807 247.035 799.377C250.528 796.237 250.629 802.903 253.803 802.718C254.995 790.982 256.254 785.911 256.909 781.277C257.648 776.61 257.85 772.328 259.092 761.717C263.274 757.755 267.572 754.128 271.569 751.795C268.983 752.752 267.069 752.987 265.826 752.114C264.583 751.274 263.962 749.444 263.928 747.009C263.928 744.558 264.315 741.603 265.541 738.48C266.733 735.374 268.865 731.999 271.166 728.927C265.826 729.061 261.09 729.766 258.085 731.009C263.576 724.159 270.377 718.769 276.993 713.917C280.167 713.715 279.092 717.107 277.111 721.691C278.252 720.381 279.344 719.139 280.15 718.098C288.966 716.855 286.8 722.715 283.525 729.078C280.402 729.011 277.279 728.893 274.172 728.91C272.912 732.302 272.123 735.76 272.224 738.648C272.291 741.536 273.248 743.87 274.944 745.314C275.23 743.954 276.607 742.023 278.639 740.243C278.252 741.956 278.252 743.282 279.126 743.618C280.1 743.954 280.671 741.536 282.669 738.228C285.389 739.907 288.043 741.67 290.713 743.433L290.242 739.941L297.43 737.859L305.053 735.559C309.94 734.098 314.743 732.705 319.512 731.412C327.119 723.134 333.752 714.505 342.803 706.378C351.837 698.386 363.475 690.713 380.603 687.355C376.64 690.831 376.573 693.417 377.396 695.969C378.235 698.537 379.965 701.157 380.133 704.8C377.832 703.104 375.129 702.668 372.24 703.054C370.796 703.272 369.302 703.675 367.774 704.179C366.245 704.766 364.667 705.421 363.055 706.194C356.573 709.333 349.772 713.883 341.796 716.032C345.977 714.924 347.891 715.394 348.546 716.368C349.201 717.342 348.647 718.736 347.858 719.659C351.938 717.006 356.069 714.488 360.301 712.154C364.516 709.854 368.815 707.772 373.265 705.858C373.533 711.852 379.814 709.283 387.085 711.331C385.574 708.494 385.993 706.479 387.824 705.035C389.637 703.591 392.811 702.735 396.455 702.332C400.099 701.929 404.247 701.979 407.874 702.231C408.714 702.265 409.856 702.382 410.93 702.466C412.005 702.533 413.046 702.617 414.054 702.685C416.069 702.785 417.933 702.802 419.562 702.668C419.562 704.683 418.638 706.529 415.867 707.402C414.49 707.839 412.643 708.057 410.192 707.923C409.587 707.889 408.932 707.839 408.244 707.772C407.589 707.705 407.135 707.671 406.531 707.587C405.355 707.436 404.012 707.251 402.467 706.983C404.079 708.242 405.49 709.014 406.732 709.468C407.051 709.585 407.354 709.669 407.673 709.719C408.092 709.803 408.512 709.871 408.915 709.921C409.738 710.022 410.544 710.022 411.333 709.971C414.507 709.77 417.446 708.527 420.435 707.285C426.312 704.8 432.61 702.265 439.343 708.074C435.867 707.184 434.087 706.126 432.223 707.721C436.757 707.016 443.861 708.83 448.73 711.331C451.182 712.557 453.08 713.934 454.02 715.075C455.044 716.251 455.078 717.157 453.617 717.476L450.46 716.284C455.918 718.853 462.803 722.077 470.124 725.502C477.647 729.028 485.741 732.789 493.516 736.046C501.224 739.286 508.831 742.056 514.759 743.383C520.703 744.726 525.12 744.793 527.118 743.014C526.749 744.273 518.621 752.197 516.337 753.289C525.657 751.761 534.826 750.2 544.146 749.007C548.814 748.42 553.499 747.883 558.285 747.58C563.105 747.295 568.058 747.396 573.063 747.782C568.73 749.813 566.648 757.436 562.819 763.094C560.938 765.948 558.705 768.349 555.917 769.608C553.13 770.901 549.788 771.019 545.724 769.776C547.353 771.59 549.116 773.655 551.719 775.905C554.339 778.188 557.798 780.623 562.903 783.561C562.03 781.831 562.517 778.02 563.676 774.948C564.834 771.858 566.715 769.541 568.982 771.086C571.031 779.649 571.702 782.352 572.945 785.257C573.55 786.717 574.238 788.228 575.145 790.562C575.598 791.737 576.102 793.114 576.656 794.793C577.244 796.522 577.764 798.403 578.268 800.636C577.311 798 580.283 795.599 584.297 794.894C588.277 794.172 593.382 795.33 595.8 799.293C593.348 799.293 585.187 807.285 582.349 805.69C584.801 806.63 587.219 807.654 589.553 808.712C591.669 809.434 593.785 810.256 595.917 811.449C598.251 812.641 599.981 814.32 601.727 816.234C600.25 814.017 597.496 814.689 594.691 816.099C593.298 816.838 591.837 817.61 590.594 818.601C590.443 818.769 590.275 818.853 590.157 819.105C590.057 819.424 589.939 819.743 589.822 820.078C589.62 820.767 589.452 821.522 589.351 822.379C589.301 822.815 589.267 823.252 589.234 823.705C589.234 824.192 589.234 824.679 589.234 825.166C589.251 826.123 589.301 826.962 589.385 827.835C589.419 826.878 589.805 827.214 590.46 828.339C590.997 829.296 591.904 830.925 593.079 833.023C594.221 835.005 594.272 835.038 594.691 835.911C595.044 836.65 595.296 837.523 595.481 838.413C595.632 839.118 596.203 840.982 596.623 842.426C597.076 843.903 597.546 845.364 598 846.657C598.906 849.293 599.796 851.458 600.569 852.751C600.283 848.99 599.998 845.162 599.78 841.25C601.711 848.554 604.465 853.255 607.504 856.764C610.56 860.273 613.952 862.59 617.345 864.924C620.737 867.258 624.162 869.591 627.168 873.033C630.157 876.458 632.693 881.042 633.986 887.791C632.29 886.448 627.739 885.458 623.81 886.515C621.845 887.036 620.048 888.026 618.772 889.705C617.513 891.368 616.807 893.685 617.042 897.009C618.99 898.167 622.298 900.048 626.295 902.701C630.292 905.337 634.977 908.745 639.746 912.657C644.532 916.552 649.402 920.918 653.868 925.266C658.285 929.497 662.466 934.265 665.506 939.269C664.767 941.065 664.011 942.895 663.306 944.725C666.681 949.846 670.224 954.749 673.935 959.416C667.084 956.663 655.648 949.762 644.733 940.461C641.996 938.127 639.292 935.793 636.69 933.191C634.053 930.605 631.601 927.919 629.284 925.283C624.683 919.977 620.821 914.924 617.949 910.827C617.395 916.334 616.455 917.375 616.001 918.903C615.615 920.515 615.615 922.58 617.748 931.143C616.74 934.652 614.792 932.587 613.012 928.993C611.249 925.434 609.737 920.481 609.2 918.131C610.023 924.544 610.98 931.361 612.525 938.597C613.331 942.375 614.053 945.447 614.876 948.805C615.699 952.113 616.589 955.437 617.529 958.745C620.972 956.596 625.355 963.345 630.023 969.876C634.658 976.458 639.578 982.788 642.214 980.639C633.432 968.768 625.808 956.008 619.091 942.912C622.651 940.948 629.687 945.414 637.076 953.053C640.787 956.881 644.582 961.498 648.209 966.636C651.836 971.79 655.195 977.398 658.134 983.527C658.503 987.371 654.859 988.093 650.678 987.707C648.562 987.489 646.48 987.17 644.733 986.952C642.987 986.733 641.627 986.649 641.106 987.086C641.61 987.355 642.281 987.892 643.037 988.631C643.423 989 643.81 989.42 644.246 989.907C644.7 990.427 645.187 990.998 645.707 991.602C646.698 992.811 647.806 994.138 648.965 995.531C650.107 996.925 651.282 998.369 652.508 999.779C657.26 1005.49 662.097 1010.61 662.365 1012.32C658.335 1010.04 654.389 1007.37 650.493 1004.46C652.626 1008.58 655.464 1011.7 658.654 1014.1C661.811 1016.57 665.254 1018.33 668.646 1020.14C675.464 1023.7 682.029 1027.13 687.521 1035.68C690.023 1037.77 692.525 1042.54 694.859 1046.37C697.008 1050.06 699.091 1052.92 700.82 1051.26C697.495 1038.28 711.45 1014.03 720.518 1011.93C721.24 1012.76 726.479 1018.87 732.004 1025.45C737.512 1032.08 743.608 1039.07 745.572 1042.58C748.242 1047.95 743.154 1050.08 737.613 1051.74C732.138 1053.42 726.345 1054.63 728.763 1059.52C730.157 1057.85 736.555 1058.32 739.091 1058.66C741.677 1061.01 740.316 1062.19 739.981 1063.5C739.813 1064.15 739.93 1064.84 740.955 1065.73C741.475 1066.17 742.214 1066.67 743.289 1067.22C744.33 1067.74 745.858 1068.43 747.369 1068.97C752.793 1062.57 771.836 1080.94 755.967 1065.43C762.432 1067.12 765.404 1068.97 768.511 1071.17C771.618 1073.39 774.842 1075.9 781.66 1079.18C780.686 1075.79 785.707 1073.35 792.676 1072.48C796.051 1071.96 800.014 1072.16 803.893 1072.95C807.772 1073.72 811.466 1074.98 814.422 1076.29C812.625 1077.53 813.549 1081.38 814.17 1083.19C815.597 1084.15 817.025 1085.04 818.435 1085.88C819.846 1086.67 821.223 1087.44 822.566 1088.18C825.169 1089.7 827.537 1091.33 829.72 1093.03C834.069 1096.4 837.68 1100 840.954 1103.76C844.262 1107.54 847.1 1111.4 850.156 1115.73C853.196 1120.03 856.303 1124.54 859.661 1129.71C859.476 1131.19 860.467 1134.75 860.685 1137.59C860.887 1140.39 860.031 1141.95 857.646 1141.17C858.905 1141.95 860.434 1142.66 861.911 1143.95C862.65 1144.61 863.372 1145.41 863.994 1146.45C864.296 1146.97 864.598 1147.55 864.85 1148.2C865.119 1148.89 865.287 1149.44 865.522 1150.47C864.766 1155.17 864.145 1156.06 863.389 1155.47C863.02 1155.13 862.633 1154.4 862.23 1153.3C862.029 1152.77 861.827 1152.15 861.626 1151.46L861.475 1150.94L861.357 1150.58L861.139 1149.95C860.568 1148.3 859.762 1146.66 858.788 1146.14C857.797 1145.6 856.806 1146.24 855.379 1148.55C856.521 1148.33 857.747 1148.87 858.905 1150.06C859.191 1150.35 859.476 1150.7 859.762 1151.11C860.098 1151.73 860.467 1152.63 860.853 1153.34C861.592 1154.88 862.381 1156.39 863.12 1157.84C863.473 1158.53 863.842 1159.25 864.212 1159.97C864.531 1160.51 864.833 1161.08 865.135 1161.65C865.74 1162.81 866.311 1164.03 866.781 1165.29C867.789 1167.83 868.007 1170.45 868.477 1172.76C870.324 1172.31 871.601 1170.63 872.172 1168.21C872.709 1165.78 872.088 1162.67 870.845 1159.62C870.257 1158.17 869.434 1156.34 868.595 1154.53C868.158 1153.57 867.738 1152.62 867.302 1151.68L866.664 1150.16C866.445 1149.61 866.294 1149.36 866.093 1148.97C864.632 1146.12 862.818 1143.78 861.223 1142.14C863.456 1141.08 866.177 1140.86 869.216 1141.97C870.727 1142.53 872.306 1143.42 873.851 1144.67C875.413 1145.88 876.924 1147.78 878.402 1149.29C879.913 1150.92 881.508 1152.68 883.12 1154.9C884.8 1157.37 886.479 1160.29 887.721 1163.6C888.343 1165.26 888.847 1167.02 889.166 1168.85C889.485 1170.7 889.619 1172.61 889.77 1174.61L889.821 1175.37L889.888 1175.99L889.988 1177.25C890.039 1178.09 890.106 1178.94 890.156 1179.82C890.24 1181.54 890.291 1183.32 890.274 1185.15C889.921 1190.93 888.981 1194.47 888.041 1196.44C887.067 1198.42 886.093 1198.84 885.236 1198.67C883.54 1198.32 882.297 1195.67 882.482 1197.78C879.258 1208.12 876.605 1215.58 874.858 1221.76C873.011 1227.95 871.886 1233.02 870.341 1237.81C868.779 1242.58 866.815 1247.14 862.818 1251.71C858.838 1256.24 852.659 1260.73 843.356 1263.95C841.307 1264.17 839.661 1264.17 838.419 1263.95C837.26 1263.68 836.37 1263.26 835.698 1262.74C834.355 1261.7 833.851 1260.26 833.666 1258.69C833.263 1255.6 834.187 1252.04 831.802 1250.74C838.989 1245.56 844.968 1242.59 850.56 1239.54C856.051 1236.46 861.189 1233.29 864.833 1228.05C860.954 1231.68 856.773 1234.85 852.39 1237.49C853.8 1234.77 856.202 1231.04 858.586 1227.31C861.005 1223.6 863.456 1219.91 865.807 1217.58C863.204 1219.31 859.711 1223.69 854.623 1228.77C849.569 1233.88 842.701 1239.49 834.456 1244.15C830.375 1246.49 825.891 1248.69 821.475 1250.95C817.042 1253.19 812.575 1255.35 808.125 1257.22C799.275 1260.98 790.409 1263.36 783.003 1263.73C778.469 1267.06 769.418 1270.56 774.221 1272.41C777.394 1271.61 780.568 1270.73 783.675 1269.71C788.679 1271.1 784.615 1274.01 780.568 1276.22C776.588 1278.42 772.827 1280.1 779.443 1280.18C776.185 1281.7 772.827 1283.22 769.384 1284.68C767.655 1285.41 765.925 1286.11 764.179 1286.8L762.869 1287.3C762.432 1287.47 762.13 1287.62 761.744 1287.79C761.022 1288.11 760.283 1288.41 759.527 1288.73C753.549 1291.23 746.647 1293.92 737.176 1295.06L731.853 1289.03C732.323 1290.01 735.598 1290.22 739.208 1289.77C742.819 1289.32 746.681 1288.24 748.763 1286.6C745.707 1288.98 738.486 1288.56 730.929 1288.86C729.049 1288.93 727.134 1289.03 725.337 1289.22C723.608 1289.39 721.945 1289.65 720.434 1290.12C717.395 1291.03 714.893 1292.66 713.482 1295.45C717.982 1296.02 722.449 1296.62 726.899 1297.28C715.279 1303.76 702.197 1315.14 686.463 1317.42C695.329 1322.26 689.771 1315.58 702.751 1320.56C696.706 1316.89 706.395 1314.23 715.396 1311.97C724.38 1309.67 732.693 1307.72 723.877 1304.24C725.556 1305.07 727.134 1305.71 728.629 1306.14C729.015 1306.26 729.351 1306.36 729.754 1306.44L731.013 1306.65C731.853 1306.76 732.693 1306.83 733.465 1306.88C736.672 1307.07 739.578 1306.75 742.432 1306.39C745.287 1306.04 748.108 1305.64 751.047 1305.67C753.986 1305.71 757.092 1306.16 760.216 1307.62C759.813 1306.49 758.587 1305.59 758.721 1304.85C758.788 1304.48 759.225 1304.14 760.232 1303.87C760.719 1303.74 761.391 1303.61 762.18 1303.54C762.567 1303.51 763.037 1303.46 763.49 1303.44C764.011 1303.44 764.582 1303.4 765.203 1303.39C765.724 1302.62 767.084 1301.56 767.957 1300.94C768.394 1300.94 768.561 1300.97 768.931 1300.99C768.629 1300.94 768.41 1300.85 768.108 1300.8C768.679 1300.37 768.713 1300.3 767.806 1300.74C766.949 1300.58 766.11 1300.42 765.371 1300.21C764.985 1300.11 764.632 1300.01 764.279 1299.91C763.977 1299.81 763.792 1299.68 763.557 1299.56C762.667 1299.06 761.912 1298.54 761.408 1297.95C761.928 1297.16 762.6 1296.47 763.44 1295.83C764.447 1295.18 765.942 1294.54 767.436 1293.94C770.509 1292.74 774.204 1291.67 778.066 1290.53C781.928 1289.4 785.925 1288.19 789.435 1286.85C792.961 1285.52 795.933 1284.05 797.68 1282.77C802.247 1281.85 801.576 1282.77 800.417 1284.08C799.258 1285.37 797.579 1287.02 800.467 1287.4C804.145 1284.7 807.587 1281.86 810.795 1278.98C812.39 1281.19 818.855 1280.72 822.516 1281.04C824.363 1281.21 825.555 1281.61 825.186 1282.74C824.783 1283.86 822.919 1285.73 818.099 1288.73C824.296 1286.06 830.039 1283.22 835.346 1280.52C838.032 1279.95 840.786 1279.19 843.507 1278.32C844.178 1278.1 844.85 1277.87 845.522 1277.65C846.277 1277.36 847.201 1276.96 848.041 1276.61C849.737 1275.9 851.466 1275.05 853.146 1274.16C859.896 1270.65 866.21 1265.63 870.056 1260.76C874.842 1257.42 878.973 1250.92 880.971 1246.67C882.936 1242.41 883.49 1240.49 882.079 1245.7C885.622 1240.34 888.578 1234.77 890.946 1229.23C892.155 1226.44 893.162 1223.72 894.136 1220.93C895.11 1218.08 895.967 1215.23 896.689 1212.39L898.049 1212.52C901.139 1204.35 902.616 1195.93 903.322 1187.99C903.506 1185.99 903.624 1184.03 903.725 1182.08C903.809 1180.03 903.909 1177.99 903.993 1175.94C904.145 1173.17 904.279 1170.41 904.128 1167.64C903.993 1164.87 903.607 1162.12 903.07 1159.4C902.533 1156.68 901.827 1153.98 901.055 1151.29C900.517 1149.49 899.98 1147.7 899.426 1145.9L899.157 1144.94L898.956 1144.14L898.401 1141.37C897.814 1138.6 897.125 1135.84 896.286 1133.11C895.446 1130.37 894.455 1127.65 893.33 1124.96C892.759 1123.62 892.171 1122.28 891.55 1120.95L890.224 1117.86C888.578 1113.87 886.932 1109.68 885.303 1105.32C881.71 1101.36 877.864 1097.56 873.716 1093.2C871.466 1090.81 869.065 1088.24 866.412 1085.44C863.691 1082.59 860.685 1079.48 857.193 1076.07C857.193 1074.11 857.159 1072.09 857.058 1070.09C853.75 1068.01 849.854 1065.09 845.438 1062.07C843.238 1060.54 840.904 1059.03 838.486 1057.55L836.655 1056.46L835.732 1055.92L835.278 1055.66C835.127 1055.57 835.178 1055.57 835.127 1055.54C834.859 1055.29 834.573 1055.03 834.304 1054.78C833.078 1053.69 831.164 1052.08 828.931 1050.64C826.681 1049.19 824.279 1048.07 822.382 1048.2C821.811 1045.92 820.417 1043.48 817.915 1040.85C816.672 1039.54 815.161 1038.16 813.33 1036.78C812.273 1036.01 811.903 1035.66 811.198 1035.12C810.56 1034.63 809.888 1034.15 809.199 1033.66C803.708 1029.8 796.739 1026.34 789.502 1023.25C785.891 1021.71 782.214 1020.25 778.603 1018.87C775.161 1017.56 771.752 1016.27 768.478 1015.02C763.356 1013.11 758.52 1010.68 755.043 1008.02L751.467 1012.84C746.261 1009.62 740.787 1006.55 734.59 1003.32C733.012 1002.52 731.416 1001.69 729.804 1000.85C728.159 1000.03 726.496 999.208 724.783 998.352C721.475 996.74 718.15 995.128 714.758 993.416L712.424 998.234C705.757 996.085 699.578 990.125 695.027 983.124C692.726 979.615 690.812 975.854 689.066 972.026C688.209 970.078 687.336 968.097 686.446 966.099C685.388 963.799 684.33 961.465 683.155 959.181C684.364 959.383 685.405 960.709 686.244 962.422C686.664 963.295 687.017 964.252 687.336 965.243C687.487 965.713 687.638 966.284 687.722 966.686C687.806 967.106 687.89 967.509 687.94 967.912V966.838C687.94 966.502 687.924 966.132 687.873 965.696C687.789 964.873 687.689 964.067 687.571 963.278C687.336 961.683 687 960.139 686.597 958.627C685.808 955.588 684.716 952.684 683.44 949.796C680.888 944.054 677.579 938.396 674.355 932.587C673.566 931.126 672.777 929.648 671.988 928.188C671.265 926.744 670.527 925.317 669.804 923.889C668.461 921.186 667.302 918.298 666.379 915.276C664.548 909.249 663.776 902.768 664.733 895.985C661.677 889.941 661.358 884.954 661.559 879.8C661.71 880.438 661.946 880.992 662.214 881.445C662.114 880.723 661.895 879.665 661.643 878.591C661.794 875.3 662.013 871.808 661.778 867.963C661.442 871.388 661.14 874.494 661.257 877.046C660.569 874.36 659.494 870.951 658.016 867.224C656.572 863.581 654.842 859.937 652.928 856.462L657.16 851.442C656.874 850.871 656.723 850.401 656.404 849.813C655.799 842.09 651.836 845.179 649.2 850.3C647.017 847.076 644.8 844.306 642.617 842.375C645.019 839.252 644.414 836.23 643.088 833.225C642.416 831.714 641.559 830.203 640.804 828.675C640.418 827.902 640.065 827.13 639.763 826.358C639.612 825.955 639.477 825.602 639.343 825.149C639.175 824.578 639.024 824.007 638.889 823.436C638.033 819.524 637.395 815.763 638.05 811.616C637.58 811.348 637.059 810.962 636.505 810.458C636.186 810.139 636.051 810.156 635.833 809.971C635.598 809.803 635.481 809.786 635.296 809.686C635.128 809.602 635.01 809.602 634.876 809.551H634.725C634.725 809.551 634.674 809.568 634.641 809.585C634.238 809.786 633.835 809.971 633.432 810.173C632.995 810.374 632.575 810.559 632.122 810.76C631.719 810.928 631.316 811.113 630.896 811.297C630.308 811.566 629.687 811.818 629.066 812.07C628.596 812.254 628.109 812.439 627.622 812.624L626.933 812.859L623.994 813.849H624.045L624.129 813.799L624.313 813.732L624.666 813.614C625.254 813.446 625.842 813.279 626.446 813.111C627.37 812.892 628.293 812.674 629.234 812.456C629.838 812.338 630.426 812.221 631.03 812.087C631.971 811.902 632.928 811.717 633.868 811.532L634.204 811.465H634.171L634.053 811.096C633.986 810.861 633.902 810.542 633.801 810.173C633.717 809.82 633.633 809.484 633.533 809.132C633.348 808.443 633.146 807.738 632.962 807.016C632.172 804.179 631.03 801.257 629.452 798.554C627.689 795.448 625.674 792.476 623.558 789.84C622.466 788.48 621.593 787.573 620.619 786.583C619.662 785.626 618.722 784.786 617.781 784.014C614.02 780.992 610.476 779.498 607.689 780.253C608.545 779.246 607.588 776.979 610.308 780.371C608.075 776.459 605.59 772.647 602.97 769.525C600.3 766.334 597.244 763.581 593.549 761.751C594.456 759.216 595.296 756.664 596.136 754.078C589.267 751.694 582.298 749.595 575.279 748.05C572.122 742.661 569.503 738.749 569.452 736.466C569.385 734.199 572.089 733.393 578.906 735.038C575.162 733.544 571.937 732.352 569.1 731.361C566.161 730.304 564.213 729.783 562.349 729.162C558.688 727.97 556.203 727.063 553.835 726.19C549.116 724.494 544.784 723.05 533.029 721.758L536.119 718.114C528.932 714.656 515.212 714.622 512.744 708.947C509.872 704.968 503.659 700.351 495.095 695.314C490.813 692.795 485.943 690.193 480.569 687.574C477.882 686.264 475.078 684.938 472.173 683.645C470.695 683.007 469.217 682.352 467.706 681.697C466.077 681.026 464.432 680.337 462.769 679.699C449.436 674.562 435.246 671.187 421.93 668.114C420.267 667.728 418.621 667.342 416.976 666.973L415.75 666.687L414.406 666.385C413.399 666.184 412.391 665.949 411.401 665.781C407.438 665.025 403.659 664.488 399.982 664.051C392.643 663.195 385.758 662.675 379.26 662.221C382.03 665.428 381.846 666.771 380.116 667.157C378.386 667.527 375.045 666.99 371.283 666.503C367.522 665.999 363.256 665.697 359.948 666.167C356.674 666.704 354.373 667.947 354.507 670.667C350.964 668.182 343.408 668.215 350.897 663.43C344.6 665.781 339.159 667.51 334.239 668.954C329.285 670.381 324.885 671.556 320.805 672.849C312.66 675.452 305.876 678.642 300.268 686.214C296.355 684.451 302.954 679.716 299.915 679.011C298.404 680.472 294.138 684.837 291.065 684.199C288.026 683.527 293.013 680.22 295.935 677.282C290.326 680.069 286.43 682.822 283.66 685.475C282.283 686.801 281.208 688.111 280.352 689.404C279.445 690.73 279.075 691.872 278.656 693.114C277.111 698.034 278.202 702.869 279.512 707.453C273.114 708.091 268.211 709.568 264.348 712.288C260.503 715.042 257.631 718.971 255.666 724.679C252.644 725.166 249.033 726.66 247.69 726.224C247.018 725.989 246.884 725.2 247.824 723.521C248.295 722.681 249.033 721.64 250.159 720.364C251.401 719.021 252.711 717.711 254.525 716.15C253.97 716.536 253.299 717.023 252.476 717.594C251.67 718.148 250.763 718.87 249.604 719.76C248.546 720.616 247.388 721.59 246.212 722.698C245.037 723.806 243.777 725.082 242.652 726.291C238.101 731.21 233.987 736.936 230.662 742.443C224.096 753.272 220.049 764.001 223.24 765.999C220.301 767.627 217.682 776.828 217.665 779.279C214.793 785.777 212.997 790.193 211.452 794.222C209.924 798.269 208.631 801.895 207.203 807.1C206.649 809.249 205.457 814.303 205.322 820.498C205.86 818.416 206.498 816.318 207.237 814.252C211.032 819.457 211.301 823.537 211.015 828.876C210.73 834.131 210.024 840.545 211.955 847.949L210.965 847.698C210.965 848.772 210.982 849.947 211.015 851.022C211.049 852.113 211.166 853.373 211.267 854.447C211.502 856.663 211.872 858.628 212.291 860.391C213.148 863.9 214.256 866.502 215.314 868.517C217.497 872.513 219.294 874.158 220.973 875.787C221.829 876.593 222.703 877.365 223.693 878.372C224.617 879.279 225.591 880.337 226.8 881.781C229.218 884.652 232.51 889.101 238.085 896.304L240.301 890.78C250.545 883.795 258.723 915.411 280.15 922.278C278.504 920.145 276.909 917.946 275.381 915.746C281.191 916.905 285.792 924.158 290.797 931.881C295.734 939.605 300.822 947.764 305.658 950.568C306.985 951.643 305.406 951.509 303.828 951.257C302.131 950.971 299.747 950.367 298.017 950.048C299.545 951.189 300.906 952.147 302.115 952.952C302.719 953.339 303.29 953.708 303.811 954.061C304.046 954.212 304.415 954.413 304.751 954.598C305.104 954.783 305.44 954.95 305.759 955.118C307.052 955.773 308.177 956.26 309.134 956.629C310.091 956.965 310.914 957.183 311.586 957.301C314.306 957.771 314.944 956.713 315.364 955.286C315.784 953.876 316.036 952.113 317.782 951.055C319.529 949.981 322.719 949.695 328.916 950.417C330.83 952.801 328.932 955.018 328.58 957.116C328.21 959.165 329.671 961.381 338.252 962.741C340.301 963.782 344.499 963.748 349.604 963.043C354.726 962.355 360.67 960.944 366.565 959.584C372.492 958.224 378.269 956.999 384.062 956.646C389.822 956.294 395.381 956.781 400.066 958.728C395.952 955.622 391.888 952.516 401.409 950.3C408.714 949.83 418.621 952.835 428.596 954.564C433.584 955.437 438.571 955.991 443.172 955.656C445.439 955.488 447.74 955.102 449.637 954.447C451.552 953.792 453.348 952.852 454.944 951.576C456.841 952.331 457.58 953.104 457.698 953.876C463.273 952.382 472.626 950.954 481.61 948.705C490.578 946.505 499.041 943.298 502.097 939.957C505.808 944.171 512.559 944.558 519.965 942.644C527.42 940.763 535.363 936.616 542.567 932.519C549.822 928.372 556.152 924.578 562.08 922.227C567.739 919.977 571.988 919.608 573.902 923.671C585.355 917.828 596.522 910.625 606.698 901.878L607.051 903.977C617.496 896.119 623.054 888.732 626.11 882.603C629.351 876.089 629.385 872.194 630.023 867.778C633.986 864.47 633.146 868.416 633.667 869.306C644.565 857.687 650.543 850.854 654.725 843.55C658.873 836.213 661.526 828.406 665.119 814.152L671.635 814.689C672.189 810.525 680.501 801.005 688.78 787.909C697.143 774.847 705.522 758.175 707.84 741.754C708.343 742.275 709.2 743.299 709.065 746.002C709.469 743.702 709.972 741.402 710.577 739.085C710.879 737.926 711.198 736.768 711.551 735.609C711.903 734.384 712.29 733.158 712.693 731.932C714.254 727.013 716.102 722.043 717.915 716.939C721.576 706.781 725.354 696.153 727.672 685.559C730.023 675.015 730.778 664.421 729.133 655.673C728.696 653.491 728.125 651.425 727.453 649.528C726.782 647.933 726.009 646.489 725.102 645.18C723.289 642.56 720.988 640.546 718.083 639.27C714.993 631.362 711.584 623.47 707.588 615.882C709.385 623.84 709.284 627.634 708.595 629.061C707.89 630.489 706.463 629.582 704.834 628.172C701.61 625.284 697.546 620.566 697.328 627.063C695.396 621.422 694.725 613.648 694.977 608.779C695.144 606.362 695.564 604.683 696.404 604.481C697.243 604.28 698.469 605.556 699.981 609.098L699.712 611.701C702.768 612.205 703.809 610.039 703.625 606.379C703.44 602.718 701.912 597.648 699.947 592.577C696.135 582.638 690.728 572.816 694.17 571.355C680.686 547.816 664.716 526.627 647.336 507.386C645.119 504.985 642.55 502.668 640.35 500.855C638.117 498.991 636.051 497.447 634.271 496.053C630.678 493.3 628.327 491.268 627.084 489.656C619.125 480.741 611.232 471.909 603.407 463.145C599.427 458.679 595.313 454.096 590.863 449.495C588.646 447.195 586.346 444.912 583.927 442.645C582.752 441.52 581.459 440.362 580.267 439.287L576.807 436.214C576.69 439.908 576.371 443.4 576.253 447.145L572.508 443.703L568.73 440.311C566.161 438.045 563.508 435.778 560.72 433.562C559.091 431.06 558.453 428.558 559.897 427.87C561.291 427.182 564.935 428.39 570.728 433.36C569.217 428.945 563.289 425.57 557.328 423.79C551.35 421.96 545.506 421.893 544.868 422.632C541.392 420.264 538.655 418.568 536.959 417.343C535.279 416.134 534.557 415.294 534.507 414.707C534.406 413.515 536.975 413.145 540.603 413.548C544.247 413.951 548.478 415.076 551.048 415.748C553.6 416.419 554.742 416.587 552.408 415.143C551.299 414.556 550.124 413.985 548.982 413.431C547.773 412.877 546.598 412.323 545.355 411.785C542.853 410.711 540.233 409.737 537.832 408.948L540.737 411.181C537.429 410.761 534.977 410.862 532.878 411.03C530.762 411.198 528.932 411.45 527.017 411.567C525.086 411.668 523.088 411.634 520.787 411.282C518.504 410.929 515.934 410.241 513.466 409.049C513.298 408.914 513.147 408.78 512.996 408.646C512.844 408.511 512.744 408.411 512.425 408.192C511.904 407.823 511.434 407.454 511.031 407.118C510.208 406.446 509.587 405.859 509.133 405.355C508.227 404.331 507.941 403.525 507.874 402.87C507.723 401.56 508.361 400.771 506.144 399.68C506.413 399.143 504.918 398.169 499.259 396.859C490.477 393.552 482.097 391.084 474.423 388.716C476.925 391.738 479.528 394.794 482.181 397.9C476.304 397.984 470.863 396.44 467.958 396.104C465.086 395.768 464.532 396.658 468.848 401.846C467.219 399.865 464.969 398.001 461.426 396.037C457.966 394.123 453.701 392.326 448.831 390.731C439.108 387.524 426.9 385.325 414.625 384.754C413.097 384.704 411.569 384.636 410.04 384.62C408.596 384.62 407.135 384.62 405.708 384.603C403.122 384.603 400.569 384.586 398.084 384.569C392.996 384.519 387.975 384.468 383.34 384.485C374.071 384.485 366.413 384.939 363.324 384.418L360.083 385.728L358.504 386.366L357.681 386.853C356.556 387.474 355.381 387.977 354.037 388.33C351.418 389.069 348.227 389.237 344.365 389.069C342.434 388.985 340.335 388.834 338.084 388.683C336.926 388.615 335.767 388.532 334.575 388.464C333.399 388.414 332.224 388.347 331.031 388.28C327.958 388.129 324.768 387.541 321.258 386.45C322.803 387.608 323.777 390.076 322.803 391.89C321.829 393.636 318.538 394.878 311.653 391.856C314.289 388.632 314.121 386.03 312.509 383.73C310.864 381.413 307.623 379.264 303.441 376.779C302.367 376.158 301.258 375.52 300.133 374.865C299.025 374.227 297.95 373.605 296.959 373.001C294.995 371.775 293.399 370.6 292.257 369.374C291.687 368.753 291.216 368.132 290.83 367.477L290.561 366.974L290.444 366.722L290.074 366.302C289.587 365.714 289.117 365.143 288.664 364.589C286.85 362.323 285.356 360.123 284.365 357.907C286.464 361.366 284.365 361.282 280.553 359.888C276.724 358.495 271.317 356.111 266.766 354.23C265.658 353.777 264.567 353.323 263.525 352.887C262.602 352.534 261.712 352.182 260.889 351.863C259.193 351.191 257.648 350.687 256.439 350.52C254.038 350.184 252.862 351.409 254.693 355.842C250.159 352.014 250.981 350.62 252.157 349.327C253.383 348.001 254.928 346.624 252.795 342.612C249.772 341.168 246.834 339.304 244.13 337.138C243.425 336.584 242.837 336.064 242.115 335.426C241.191 334.586 240.251 333.73 239.311 332.874C238.505 332.152 237.698 331.413 236.876 330.674L236.053 329.919L235.415 329.297C233.735 327.635 232.274 325.637 231.62 323.253C231.435 322.665 231.284 322.078 231.149 321.49L230.948 320.6C230.948 320.516 230.83 320.164 230.746 319.878L230.461 318.938L229.823 316.906C229.571 316.185 229.285 315.345 229.185 314.992C228.899 314.052 228.597 313.078 228.328 312.105C226.112 304.297 224.416 295.785 222.652 286.92C222.199 284.687 221.746 282.437 221.292 280.204L220.839 278.189C220.671 277.451 220.486 276.712 220.318 276.023C219.966 274.596 219.596 273.27 219.21 271.977C217.699 266.823 216.322 262.793 215.381 259.704C214.323 259.704 213.265 260.997 211.989 261.735C210.713 262.474 209.017 262.474 206.918 259.704C207.522 258.31 208.244 257.051 209 255.977C209.42 255.439 209.772 254.919 210.226 254.432C210.662 253.911 211.065 253.643 211.519 252.535L216.674 241.739C216.17 238.163 213.618 236.433 211.67 234.234C210.696 233.142 209.873 231.934 209.554 230.355C209.386 229.566 209.353 228.693 209.487 227.686C209.554 227.182 209.655 226.662 209.823 226.108C209.907 225.822 209.991 225.537 210.092 225.251C210.192 224.949 210.31 224.63 210.444 224.479C210.83 223.958 211.317 223.388 211.989 222.817C210.175 223.606 207.438 225.537 207.002 222.196L207.791 219.845L208.798 216.688C209.168 215.496 209.537 214.17 209.89 212.709C210.243 211.282 210.612 209.519 210.847 207.874C211.838 201.225 211.771 195.701 211.939 191.286L212.207 184.318C212.275 181.783 212.308 179.231 212.291 176.645C212.258 171.49 212.056 166.252 211.62 160.963C211.418 158.327 211.133 155.675 210.814 153.022L210.293 149.043C210.092 147.582 209.806 145.92 209.504 144.392C208.261 138.163 206.364 132.454 204.567 127.569L201.964 120.651C201.208 118.603 200.453 116.504 199.714 114.288C198.169 109.587 196.641 104.902 195.096 100.201C191.788 90.3289 187.774 79.2476 180.688 68.5693C177.312 63.3981 172.661 57.7567 167.371 53.3914C161.813 48.7742 156.859 45.9032 152.745 43.2C149.47 41.0342 145.927 38.1631 141.343 34.7884C139.059 33.1094 136.54 31.3465 133.652 29.6003C130.881 27.8878 127.136 26.0409 124.282 24.8153C114.34 20.1981 104.55 15.9671 95.3648 11.4002C105.088 17.8139 97.7997 16.4707 89.8568 14.8086C94.7938 16.9241 88.5974 19.7615 88.9836 22.7165C83.9458 20.2317 78.9752 17.7636 74.2062 15.2619C71.5361 13.9523 70.2431 12.9449 67.9929 11.5514C65.8603 10.225 63.207 8.64673 59.8821 7.08528C58.7066 7.77366 56.9434 8.07588 54.8779 8.24377C52.8292 8.39488 50.4615 8.39488 47.8754 8.44525C46.5824 8.44525 45.2222 8.51241 43.862 8.54599C42.8209 8.57957 41.7294 8.62994 40.6378 8.66352C38.5052 8.68031 36.3054 8.71389 34.1223 8.73068C25.407 8.78105 17.2794 8.96573 15.6169 12.6931L26.0283 11.2659C19.093 15.7152 24.03 20.5339 30.3272 25.7051C36.6412 30.8596 44.2147 36.5345 42.9384 42.1423C44.2818 40.9166 45.8603 40.329 47.4892 40.3122C48.312 40.2954 49.1349 40.4297 49.9577 40.648C50.8141 40.8998 51.7713 41.2692 52.7621 41.7393C54.7436 42.6795 56.9938 44.0731 59.6806 45.601C60.3691 45.9871 61.0576 46.3733 61.7629 46.7762C62.4682 47.1624 63.3414 47.5989 63.9291 47.9347C65.2221 48.6567 66.532 49.3787 67.8754 50.1174C73.2154 53.022 78.8073 55.7588 84.6847 57.2866C90.5621 58.8145 96.641 59.0999 103.341 57.253C107.774 60.8461 98.0684 59.57 100.1 62.8272C103.593 61.2826 107.187 60.7621 111.318 61.4673C111.821 61.5512 112.392 61.6688 112.863 61.7695C113.299 61.8702 113.618 61.9542 114.021 62.0717C114.811 62.3236 115.499 62.6426 116.355 63.1127C118.068 64.0865 120.016 65.564 122.468 67.7466C121.847 67.8306 121.225 67.8977 120.621 68.0153C124.382 70.1476 128.463 72.9011 133.098 75.6042C137.111 77.938 140.218 79.8185 142.216 81.4639C144.046 82.9582 145.491 84.6203 146.649 86.4336C147.22 87.3403 147.892 88.4484 148.446 89.5901C149.034 90.6814 149.538 91.9071 150.058 93.1327C152.04 98.1193 153.433 104.063 154.928 111.82C155.684 115.715 156.473 120.063 157.531 125.117C158.505 130.02 160.218 136.417 161.561 141.42C162.972 139.825 164.365 138.18 165.759 136.517C167.019 141.252 167.187 143.771 167.052 145.769C166.901 147.733 166.448 149.093 166.112 150.755C170.931 153.542 170.478 149.294 168.849 143.502C168.06 140.631 167.035 137.34 167.019 135.157C167.002 132.975 168.009 132.102 171.066 133.798C169.437 137.844 170.142 143.771 170.646 149.093C170.747 150.386 170.864 151.729 170.982 153.123C171.099 154.785 171.234 156.497 171.368 158.243C171.637 161.904 171.922 165.715 172.073 169.543C172.241 173.371 172.291 177.216 172.174 180.926C172.124 182.773 172.023 184.587 171.888 186.349C171.704 188.314 171.536 190.211 171.368 191.991C170.679 199.445 168.933 202.77 165.608 203.492C165.541 204.314 165.574 204.667 165.658 205.322C165.742 205.893 165.91 206.363 166.179 206.581C166.7 207.102 167.573 206.799 168.429 206.564C169.302 206.296 170.142 206.077 170.679 206.531C170.948 206.766 171.133 207.169 171.15 207.975C171.183 208.781 171.032 209.973 170.629 212.088C169.924 212.743 169.202 213.448 168.496 214.22C167.791 214.976 167.052 216 166.347 216.907C167.59 219.005 168.933 221.003 170.394 222.867C170.377 223.119 170.344 223.354 170.327 223.522L170.276 224.126L170.226 224.596C170.192 224.899 170.142 225.201 170.108 225.503C170.024 226.091 169.924 226.662 169.823 227.216C169.621 228.307 169.353 229.331 169.084 230.271C168.513 232.152 167.825 233.697 167.069 234.956C165.558 237.457 163.778 238.767 162.333 238.952C162.653 236.568 161.443 232.034 161.208 229.298C159.126 236.148 159.68 245.164 160.302 252.3L160.369 252.971L160.436 254.214C160.503 255.019 160.553 255.809 160.604 256.598C160.789 258.159 160.94 259.704 161.208 261.148C161.679 264.069 162.266 266.554 162.82 268.703C163.929 272.968 164.819 275.688 164.852 277.115C163.929 271.222 163.056 263.817 163.559 256.01C164.197 264.304 166.28 271.86 168.228 277.82C169.118 280.49 170.024 283.176 170.931 285.879C171.334 287.088 171.687 288.196 172.006 289.237L172.459 290.765L172.93 292.461C175.868 303.626 179.076 315.379 183.626 327.316C184.197 328.81 184.785 330.305 185.406 331.799L186.767 335.073L188.698 340.093C189.504 342.108 190.394 344.089 191.385 346.003C193.366 349.831 195.868 353.357 198.757 356.497C200.184 358.075 201.695 359.569 203.24 361.013L205.574 363.129L207.203 364.505C208.093 365.244 208.983 365.983 209.873 366.705L210.427 367.158L211.334 367.964C211.939 368.501 212.543 369.022 213.165 369.542C215.599 371.591 218.085 373.505 220.604 375.284C225.641 378.844 230.864 381.883 236.305 384.368C235.767 382.991 235.297 381.597 234.844 380.221C238.79 382.219 242.216 383.83 245.255 385.224C248.211 386.567 250.36 387.541 252.274 388.548C256.053 390.513 258.42 392.225 260.62 394.072C261.712 394.979 262.787 395.919 263.878 396.893C264.415 397.38 264.986 397.867 265.574 398.404C265.86 398.656 266.162 398.924 266.481 399.193L266.951 399.596L267.203 399.814L267.673 400.184C270.175 402.148 273.299 404.129 276.775 405.842C280.268 407.571 283.928 408.965 287.572 410.274L286.263 410.375C293.198 410.493 302.232 413.464 312.761 416.705C307.522 416.755 311.468 419.609 315.784 422.145C317.917 423.421 320.116 424.562 320.805 425.469C321.493 426.359 320.603 427.131 316.657 427.249C319.545 427.467 322.199 427.585 324.634 427.534C325.843 427.534 327.001 427.484 328.093 427.417C329.151 427.349 330.427 427.282 330.696 427.182C332.66 426.779 334.39 426.51 335.935 426.275C339.008 425.805 340.973 425.385 342.434 424.73C343.979 424.092 345.154 423.27 347.639 422.094C348.865 421.507 350.444 420.818 352.543 419.928C354.625 419.039 357.278 417.964 360.486 416.386C361.594 417.007 362.719 417.561 363.895 418.132L366.296 419.979C369.117 417.628 370.796 415.983 373.567 414.64C376.388 413.33 380.351 412.339 388.445 411.869C381.812 413.683 384.432 415.378 386.732 417.192C389.1 419.039 391.082 420.986 383.945 423.421C391.955 425.805 399.562 426.711 406.816 426.476C412.593 426.258 417.614 425.519 422.333 425.1C431.686 424.277 439.595 424.596 444.919 433.058C449.134 431.01 449.772 429.18 448.344 427.551C446.917 425.906 443.441 424.512 439.713 423.471C432.223 421.339 423.777 421.053 427.975 420.298C424.851 417.914 428.092 415.983 433.6 415.261C439.092 414.522 446.783 415.227 451.753 417.141C454.356 417.88 456.438 419.492 458.655 421.641C460.939 423.807 463.256 426.409 466.027 429.146C468.798 431.866 472.022 434.687 475.918 437.306C479.814 439.925 484.348 442.276 489.637 444.391C487.538 443.484 487.068 444.29 484.902 443.434C486.715 444.912 488.613 445.785 490.578 446.456C491.568 446.775 492.576 447.061 493.583 447.329L493.97 447.43C494.104 447.464 494.188 447.48 494.473 447.581L495.85 448.051C496.774 448.37 497.664 448.622 498.571 448.891C502.164 449.932 505.523 450.687 508.579 451.728C511.619 452.752 514.423 454.062 516.572 456.077C518.571 454.801 520.284 454.448 521.694 454.515C523.138 454.582 524.196 455.053 525.305 455.523C527.521 456.446 529.587 457.252 532.76 453.743C531.165 452.971 529.587 452.265 528.059 451.695C526.514 451.09 525.12 450.687 523.541 450.251C520.401 449.394 516.64 448.672 512.307 447.732C516.085 448.253 519.528 448.068 522.819 447.9C524.482 447.833 526.077 447.715 527.706 447.766C529.352 447.766 531.115 447.984 532.945 448.32C540.3 449.781 548.529 454.196 555.582 463.817C552.962 464.018 546.161 461.466 541.828 459.905C543.491 462.927 546.161 464.522 548.915 466.268C551.635 467.997 554.557 469.928 555.985 473.152C555.027 473.857 553.953 474.092 552.811 474.025C552.24 473.991 551.635 473.857 551.014 473.656C550.359 473.437 549.671 473.118 548.948 472.749C546.111 471.255 542.953 468.803 539.595 466.285C536.253 463.783 532.71 461.248 529.268 459.67C527.555 458.897 525.875 458.293 524.347 458.108C522.786 457.89 521.493 458.041 519.948 458.41C520.821 459.804 521.929 460.324 523.76 460.963C525.54 461.567 527.84 462.205 529.839 462.977C531.82 463.733 533.483 464.623 533.919 465.529C534.356 466.453 533.533 467.343 530.796 468.484C534.473 467.192 537.53 467.628 540.25 469.072C542.987 470.516 545.372 472.934 547.941 475.704C550.376 478.34 552.626 481.077 555.665 483.713C558.671 486.332 562.366 488.733 567.32 490.345L562.466 493.367C565.103 494.811 571.232 497.396 575.094 501.577C570.98 500.805 566.9 500.049 562.903 499.361C566.144 500.788 568.814 502.836 571.148 505.237C573.466 507.621 575.632 510.492 577.362 513.179C580.955 518.686 583.978 524.596 588.545 529.162C589.721 530.287 590.947 531.396 592.24 532.353C592.878 532.856 593.499 533.276 594.137 533.696C594.775 534.115 595.413 534.518 596.018 534.837C593.214 532.705 590.493 530.153 589.049 528.642C574.272 512.625 592.357 522.111 586.497 510.878C591.534 514.304 595.094 517.259 597.63 519.911C601.24 523.504 603.827 526.04 605.539 528.306C607.286 530.556 608.277 532.52 608.999 534.468C610.376 538.296 610.779 542.107 610.443 544.475C612.374 548.857 616.186 554.112 623.088 560.996C622.097 560.173 620.972 558.712 619.947 557.067C618.889 555.438 617.932 553.592 617.311 551.997C616.035 548.806 616.169 546.506 619.931 548.605C624.179 554.767 628.763 563.498 629.133 568.736C633.18 573.387 635.212 575.385 636.32 575.788C637.412 576.174 637.512 574.982 637.395 573.37C637.193 570.146 635.9 565.26 640.569 568.518C640.434 574.025 642.718 576.056 646.144 577.853C649.536 579.649 654.103 581.16 657.915 585.459L653.079 588.43C655.917 595.012 657.966 598.387 659.846 600.166C661.694 601.946 663.39 602.08 665.035 602.148C666.647 602.231 668.209 602.248 669.821 603.877C670.644 604.7 671.433 605.908 672.189 607.671C672.945 609.451 673.65 611.835 674.221 615.025C670.527 612.524 666.799 610.341 662.987 608.276C665.354 611.852 667.521 615.462 669.536 619.29C667.202 619.156 664.901 619.072 662.6 619.004C667.084 624.411 669.133 628.625 670.258 633.024C671.383 637.456 671.584 642.107 671.82 649.377C673.532 647.413 676.135 647.429 678.604 649.646C679.83 650.754 681.022 652.416 681.996 654.666C682.113 654.951 682.231 655.237 682.365 655.539C682.466 655.791 682.567 656.059 682.668 656.328C682.869 656.865 683.037 657.436 683.205 658.041C683.574 659.233 683.725 660.609 683.86 662.087C682.365 666.2 680.921 665.076 680.115 665.059C679.225 665.059 679.208 665.949 679.192 674.31C678.352 673.302 677.462 672.312 676.689 671.271C675.883 670.23 675.161 669.189 674.741 668.047C673.852 665.764 673.986 663.279 676.337 659.753C675.38 659.501 674.389 658.763 673.432 658.057C672.945 657.705 672.474 657.352 671.988 657.084C671.501 656.781 670.997 656.429 670.527 656.294C670.459 656.597 670.375 656.916 670.308 657.218C670.224 657.453 670.157 657.705 670.073 657.957C669.939 658.444 669.821 658.947 669.737 659.451C669.586 660.441 669.418 661.533 669.351 662.591C669.318 663.648 669.25 664.79 669.267 665.898C669.301 667.04 669.318 668.182 669.351 669.307C669.519 673.873 669.821 678.474 669.469 681.378C669.704 680.287 669.989 679.078 670.308 677.987C670.611 676.912 670.963 675.938 671.433 675.3C673.448 683.141 674.59 691.872 675.027 700.922C671.92 704.38 671.148 700.754 670.224 697.345C669.62 702.433 671.232 706.63 669.317 714.269C667.437 712.59 665.338 711.516 663.826 709.518C662.298 707.52 661.425 704.582 661.677 699.327C661.526 703.289 661.24 707.335 660.804 711.415C660.619 713.464 660.333 715.512 660.082 717.594L659.057 724.243C656.589 725.267 649.183 734.887 648.797 731.11C644.968 737.305 643.793 746.204 641.946 755.488C640.132 764.739 637.563 774.511 631.568 781.512C631.887 782.755 631.753 784.803 630.308 788.48C625.455 795.582 619.444 801.543 613.717 808.376C607.958 815.226 602.399 823 598.117 834.031C593.331 835.861 588.529 837.708 583.675 839.672C583.088 840.663 582.651 841.502 582.349 842.207C582.164 842.61 582.147 842.761 582.114 842.963C582.08 843.164 582.063 843.349 582.063 843.517C582.063 844.188 582.399 844.591 582.903 844.843C583.961 845.28 585.623 845.364 587.756 844.759C589.754 844.373 591.534 844.323 591.87 846.019C591.954 846.438 591.937 846.976 591.82 847.63C591.736 848.252 591.4 849.209 591.215 849.847C590.762 851.307 589.922 853.255 588.344 855.673C587.252 857.419 586.245 858.695 585.338 859.635C584.398 860.542 583.591 861.096 582.903 861.398C581.476 861.969 580.435 861.482 579.561 860.676C577.832 859.047 576.522 856.16 573.852 857.066C572.475 861.029 570.275 866.922 565.556 871.992C560.922 877.046 553.902 881.243 544.969 881.311C549.352 877.768 553.617 877.096 557.597 874.242L557.412 874.343ZM357.866 905.756C359.814 905.202 362.786 904.01 365.691 903.355C368.613 902.701 371.535 902.617 373.097 904.279C368.261 910.777 364.482 907.738 357.849 905.756H357.866ZM304.449 723.84C303.475 725.367 301.796 726.459 299.629 727.248C297.48 728.02 294.608 728.591 291.703 728.793C293.399 727.718 295.331 726.694 297.497 725.804C299.579 724.965 301.896 724.259 304.432 723.823L304.449 723.84ZM846.042 1271.17C846.193 1270.98 846.294 1270.85 846.395 1270.66C852.054 1268.72 853.935 1267.79 853.364 1268.1C852.81 1268.38 849.837 1269.67 846.042 1271.17ZM826.58 1278.64C825.001 1280.3 825.488 1280.96 826.664 1281.24C827.386 1279.29 831.601 1277.03 836.286 1275C834.321 1274.34 831.618 1274.64 826.58 1278.64ZM503.021 400.838C504.23 401.812 505.439 402.836 506.614 403.861C501.644 402.719 499.998 402.232 499.931 401.795C499.864 401.376 501.426 401.107 503.021 400.838Z" fill="#3E492B"/>
<path d="M277.766 746.858C276.523 746.59 275.7 745.918 274.877 745.196C274.525 746.69 275.247 747.496 277.766 746.858Z" fill="#3E492B"/>
<path d="M631.03 782.067C631.165 781.915 631.249 781.748 631.366 781.596C631.232 781.143 631.014 780.841 630.762 780.589L631.014 782.083L631.03 782.067Z" fill="#3E492B"/>
<path d="M734.825 1066.25C731.198 1063.43 729.552 1061.31 728.679 1059.58C727.806 1060.66 728.881 1062.72 734.825 1066.25Z" fill="#3E492B"/>
<path d="M723.406 1316.75L729.082 1314.6L730.51 1314.07L732.088 1313.5C733.28 1313.08 734.439 1312.66 735.564 1312.24C733.918 1312.74 732.407 1313.08 731.131 1313.29C730.073 1313.46 729.166 1313.51 728.343 1313.51C726.681 1313.51 725.337 1313.29 723.793 1313.21C724.38 1314.44 727.067 1315.75 723.44 1316.74L723.406 1316.75Z" fill="#3E492B"/>
<path d="M611.064 1316.95C609.603 1318.28 607.454 1318.47 606.026 1319.79L607.471 1322.06C614.691 1319.02 619.024 1315.02 611.064 1316.95Z" fill="#3E492B"/>
<path d="M707.773 1301.34C705.606 1296.97 698.469 1300.53 690.359 1303.79C690.862 1303.62 691.316 1303.46 691.836 1303.37C691.215 1310.49 699.443 1305.81 707.773 1301.34Z" fill="#3E492B"/>
<path d="M688.461 1304.5C685.942 1305.45 683.356 1306.34 680.77 1306.88C680.552 1309.73 684.045 1306.48 688.461 1304.5Z" fill="#3E492B"/>
<path d="M801.005 1292.86C795.715 1293.21 799.611 1299.68 796.068 1298.67C794.976 1300.53 796.521 1300.45 799.074 1299.34C801.508 1298.25 804.766 1296.15 807.134 1294.1C809.519 1292.07 811.063 1290.16 810.526 1289.6C809.955 1289.02 807.47 1289.89 801.005 1292.86Z" fill="#3E492B"/>
<path d="M696.84 1288.01L701.425 1292.86L704.968 1287L696.84 1288.01Z" fill="#3E492B"/>
<path d="M765.102 1276.04L761.542 1276.07C760.384 1276.09 759.275 1276.09 758.117 1276.16C755.833 1276.24 753.532 1276.42 751.232 1276.66C751.652 1277.58 750.073 1278.52 748.092 1279.46C752.239 1278.52 756.572 1277.99 759.779 1277.65C762.987 1277.31 765.421 1276.89 765.086 1276.04H765.102Z" fill="#3E492B"/>
<path d="M748.108 1279.46C743.792 1280.42 739.712 1281.71 737.546 1283.32C739.897 1282.6 744.85 1281.01 748.108 1279.46Z" fill="#3E492B"/>
<path d="M715.061 1281.41L719.41 1281.6C722.684 1280.96 725.925 1280.34 729.183 1279.61C724.498 1280.32 719.779 1280.77 715.061 1281.41Z" fill="#3E492B"/>
<path d="M880.82 1185.68C881.021 1183.01 881.122 1180.37 881.206 1177.73L881.29 1173.75C881.324 1172.34 881.34 1170.95 881.324 1169.56C879.46 1167.88 877.848 1172.23 877.848 1177.95C878.754 1181.81 878.469 1187.72 880.82 1185.68Z" fill="#3E492B"/>
<path d="M849.132 1220.43C850.711 1219.42 851.802 1219.04 852.826 1218.8C853.851 1218.58 854.892 1218.6 856.286 1218.21L850.408 1213.85C850.106 1216.05 849.67 1218.21 849.115 1220.43H849.132Z" fill="#3E492B"/>
<path d="M862.986 1184.05C862.146 1183.17 861.575 1177.88 860.803 1175C860.417 1173.55 860.03 1172.73 859.611 1173.4C859.191 1174.06 858.788 1176.26 858.167 1180.57C859.057 1181.44 859.258 1185.32 859.678 1187.47C859.879 1188.55 860.165 1189.2 860.685 1188.85C861.206 1188.5 861.978 1187.14 862.986 1184.05Z" fill="#3E492B"/>
<path d="M723.238 1036.36L726.631 1038.38L732.474 1027.92C729.418 1030.76 726.345 1033.58 723.238 1036.36Z" fill="#3E492B"/>
<path d="M599.41 873.52C600.132 877.701 600.888 879.716 601.778 880.824C602.651 881.898 603.625 882.033 604.582 882.134C605.539 882.234 606.429 882.268 607.135 883.158C607.823 884.048 608.31 885.777 608.277 889.403C610.073 890.864 610.141 887.842 610.057 884.954C610.023 883.493 609.922 882.1 610.09 881.193C610.225 880.287 610.594 879.884 611.467 880.622C605.691 872.194 605.187 866.385 599.427 873.52H599.41Z" fill="#3E492B"/>
<path d="M611.45 880.622C612.307 881.915 613.331 883.242 614.507 884.753C613.096 882.234 612.139 881.26 611.45 880.622Z" fill="#3E492B"/>
<path d="M9.62213 7.60576L6.83457 0L0 6.93417C2.56926 6.59837 7.60703 5.90999 9.62213 7.60576Z" fill="#3E492B"/>
<path d="M336.12 887.926L335.163 889.571C335.582 891.72 336.943 892.342 340.351 893.248C339.529 892.358 338.689 891.519 338.017 890.595L336.993 889.269L336.12 887.909V887.926Z" fill="#3E492B"/>
<path d="M479.881 893.937L477.563 894.021C479.243 896.153 480.939 898.285 482.685 900.384C481.728 898.235 480.804 896.086 479.898 893.92L479.881 893.937Z" fill="#3E492B"/>
<path d="M571.719 845.381C569.284 847.547 567.37 851.391 564.347 853.389C566.95 850.518 570.393 849.981 572.441 849.259C574.54 848.604 575.162 847.966 571.719 845.381Z" fill="#3E492B"/>
</svg>
