<svg width="230" height="264" viewBox="0 0 230 264" fill="none" xmlns="http://www.w3.org/2000/svg">
<path d="M181.818 41.2159C171.829 29.8088 166.324 15.1622 166.325 0H121.163V181.233C120.822 191.043 116.684 200.337 109.621 207.154C102.559 213.971 93.1244 217.778 83.3087 217.772C62.5546 217.772 45.3082 200.818 45.3082 179.771C45.3082 154.633 69.57 135.779 94.5626 143.525V97.3396C44.139 90.6164 0 129.786 0 179.771C0 228.441 40.3389 263.08 83.1625 263.08C129.055 263.08 166.325 225.81 166.325 179.771V87.8395C184.638 100.991 206.625 108.048 229.172 108.009V62.8469C229.172 62.8469 201.695 64.1623 181.818 41.2159Z" fill="#E8EDDA"/>
</svg>
