<svg width="570" height="215" viewBox="0 0 570 215" fill="none" xmlns="http://www.w3.org/2000/svg">
<path d="M562.711 185.392C558.416 184.965 554.153 184.372 549.956 183.661C544.972 183.021 540.808 182.262 536.447 181.575L533.201 181.077L530.807 180.603L526.184 179.726L517.495 178.185C514.675 177.711 511.888 177.308 509.068 176.905C497.821 175.364 486.476 174.439 475 173.633C452.047 172.045 428.439 170.978 403.617 166.711C368.86 158.177 329.152 162.444 294.396 162.444C335.579 166.379 377.812 167.588 419.651 171.524C440.571 173.491 461.392 176.123 481.918 180.129C492.181 182.12 502.379 184.467 512.478 187.217C517.626 188.592 522.282 190.085 528.086 191.697L532.283 192.93C532.84 193.143 533.955 193.357 534.971 193.57L538.021 194.21C542.12 195.063 546.12 195.988 550.874 196.747C549.202 198.05 547.333 199.33 545.595 200.539C543.923 201.725 542.152 202.886 540.349 203.977C538.513 205.067 536.611 206.087 534.676 207.035C534.185 207.272 533.66 207.509 533.234 207.746L532.25 208.434C531.594 208.884 530.906 209.311 530.25 209.714C527.594 211.349 524.577 212.653 521.888 213.578C519.298 214.478 516.609 215 513.822 215C487.033 211.017 460.605 208.244 434.406 206.347V189.398C397.158 195.798 361.188 190.465 325.185 186.198C307.183 184.064 289.182 182.191 271.05 182.191C266.59 182.191 261.803 182.31 257.573 182.571C253.54 182.831 249.245 183.258 244.785 183.851C235.867 185.06 225.997 186.956 215.111 189.564C218.16 191.863 216.324 195.324 215.635 198.074C215.012 200.492 215.373 202.365 220.816 202.389C215.373 202.389 215.012 200.492 215.635 198.074C225.505 197.647 235.309 197.197 245.048 196.77C249.441 196.604 253.606 196.462 257.475 196.391L264 196.296L270.722 196.249C288.592 196.178 306.298 196.557 324.037 197.339C359.483 198.88 394.895 201.986 431.455 206.11C374.664 202.128 318.857 202.199 262.721 203.289C248.622 203.669 234.522 204.048 220.357 204.451C203.93 204.759 184.846 204.854 163.172 203.384C157.959 203.052 151.499 202.46 147.893 202.151L135.76 200.99C128.612 200.255 121.464 199.52 114.283 198.785C101.332 197.458 90.38 196.462 82.6417 196.059C79.8873 195.893 73.3295 195.656 69.6571 195.609C62.6729 189.09 54.246 184.823 44.9666 182.262C35.6872 179.702 25.6209 178.801 14.8987 178.92C17.3252 168.229 13.0625 152.275 13.5216 139.995C13.9151 127.715 19.0302 119.134 38.835 123.116C38.7366 118.849 38.5071 110.315 38.4088 106.048C28.3752 100.857 19.686 93.2472 13.2921 84.4524C6.86535 75.6338 2.73387 65.6537 1.02883 55.7921C0.110722 50.8613 -0.217167 45.9542 0.143517 41.2368C0.536989 36.5193 1.52067 32.0152 3.06177 27.843C6.14398 19.4986 11.6198 12.5291 20.9976 8.14354C31.5886 3.73426 44.3108 1.36369 59.4923 0.439163C74.6083 -0.485362 92.3145 0.0598699 112.25 1.98004C131.301 3.85279 147.925 6.65007 162.32 8.49912C169.468 9.42365 176.091 10.1348 182.092 10.443C185.109 10.6089 187.961 10.6563 190.683 10.5852C191.437 10.4667 192.158 10.3482 192.88 10.2059C193.667 10.04 194.486 9.87406 195.306 9.6607C204.946 8.26206 219.177 6.22337 239.211 5.46479C244.195 5.29885 249.507 5.20402 255.212 5.29884L259.442 5.39367L263.18 5.5359C265.672 5.65443 268.131 5.79667 270.623 5.98631C280.558 6.72119 290.494 8.04871 300.396 10.1822C355.023 22.9833 414.602 18.7163 469.196 35.7845C479.131 37.918 492.772 35.7845 505.199 34.7177C511.396 34.1962 517.298 33.9117 522.282 34.5755C524.643 34.9073 526.545 35.4763 528.348 36.3771C529.233 36.8275 530.02 37.349 530.774 37.9654C531.201 38.2736 531.397 38.6054 531.529 38.9373C531.693 39.2929 531.856 39.6485 532.02 40.0515C533.758 43.1095 535.037 46.9499 535.758 51.2406C536.447 55.5313 536.775 60.3436 536.84 65.4167C534.086 65.2033 531.889 65.0611 527.594 64.8714L515.691 64.421C507.56 64.1602 499.428 63.8758 491.296 63.615C475.065 63.0698 458.867 62.5008 442.8 61.5763C403.322 56.7878 363.844 51.4777 324.398 42.991C362.991 54.7016 402.601 59.2294 442.8 61.5763L490.968 67.3131L515.068 70.3237C519.069 70.8453 523.167 71.3668 526.905 71.912L529.758 72.315C530.676 72.4573 531.791 72.5995 532.414 72.7417L536.775 73.5951C536.545 82.2952 535.89 91.3745 538.152 99.8137C538.152 99.8137 540.382 99.8137 543.202 99.8137C546.021 99.79 549.268 99.1025 551.465 98.8181C552.579 100.003 554.875 101.141 556.383 102.492C557.924 103.82 559.006 105.242 559.891 106.688C561.662 109.604 562.744 112.662 563.695 115.744C565.498 121.931 567.171 128.332 567.171 134.732C567.302 141.133 565.007 147.533 562.416 153.602C561.17 156.636 559.891 159.6 559.268 162.492C559.072 163.203 558.973 163.938 558.908 164.649L558.842 165.17C558.842 165.17 558.842 165.336 558.842 165.431V165.573L558.875 164.625L559.104 156.399L559.236 149.975V144.452L559.268 140.303L559.203 136.605C559.17 135.515 559.104 134.4 559.072 133.286C559.039 132.385 558.973 131.485 558.941 130.584C558.875 129.778 558.809 128.948 558.744 128.142C558.678 127.407 558.58 126.672 558.514 125.937C558.449 125.297 558.35 124.634 558.252 123.994C558.481 125.463 558.711 126.957 558.941 128.427L559.104 129.209V129.256C557.17 119.11 575.991 217.726 568.023 175.98L568.056 176.051L568.154 176.17L568.318 176.383C568.515 176.692 568.843 176.976 568.941 177.26C567.105 179.915 565.072 182.689 562.81 185.415L562.711 185.392Z" fill="#FAADA7"/>
</svg>
